<?xml version="1.0" encoding="UTF-8" standalone="no"?>
<svg
   xmlns:dc="http://purl.org/dc/elements/1.1/"
   xmlns:cc="http://creativecommons.org/ns#"
   xmlns:rdf="http://www.w3.org/1999/02/22-rdf-syntax-ns#"
   xmlns:svg="http://www.w3.org/2000/svg"
   xmlns="http://www.w3.org/2000/svg"
   xmlns:xlink="http://www.w3.org/1999/xlink"
   xmlns:sodipodi="http://sodipodi.sourceforge.net/DTD/sodipodi-0.dtd"
   xmlns:inkscape="http://www.inkscape.org/namespaces/inkscape"
   width="486.35287"
   zoomAndPan="magnify"
   viewBox="-1.4 0 364 364"
   height="486.37762"
   preserveAspectRatio="xMidYMid meet"
   version="1.0"
   id="svg354"
   sodipodi:docname="icon.svg"
   inkscape:version="0.92.5 (2060ec1f9f, 2020-04-08)">
  <metadata
     id="metadata358">
    <rdf:RDF>
      <cc:Work
         rdf:about="">
        <dc:format>image/svg+xml</dc:format>
        <dc:type
           rdf:resource="http://purl.org/dc/dcmitype/StillImage" />
        <dc:title></dc:title>
      </cc:Work>
    </rdf:RDF>
  </metadata>
  <sodipodi:namedview
     pagecolor="#ffffff"
     bordercolor="#666666"
     borderopacity="1"
     objecttolerance="10"
     gridtolerance="10"
     guidetolerance="10"
     inkscape:pageopacity="0"
     inkscape:pageshadow="2"
     inkscape:window-width="1848"
     inkscape:window-height="1016"
     id="namedview356"
     showgrid="false"
     inkscape:zoom="1.4142136"
     inkscape:cx="59.001"
     inkscape:cy="218.90017"
     inkscape:window-x="72"
     inkscape:window-y="27"
     inkscape:window-maximized="1"
     inkscape:current-layer="svg354"
     showborder="true"
     borderlayer="false"
     inkscape:pagecheckerboard="true"
     fit-margin-top="25.5"
     fit-margin-left="0"
     fit-margin-right="0"
     fit-margin-bottom="25.5"
     viewbox-x="-1.4" />
  <defs
     id="defs42">
    <g
       id="g4">
      <g
         id="id1" />
      <g
         id="id2" />
    </g>
    <clipPath
       id="id3">
      <path
         d="M 110,383 H 377 V 685.24219 H 110 Z m 0,0"
         id="path6"
         inkscape:connector-curvature="0"
         style="clip-rule:nonzero" />
    </clipPath>
    <clipPath
       id="id4">
      <path
         d="m 148,550 h 82 v 135.24219 h -82 z m 0,0"
         id="path9"
         inkscape:connector-curvature="0"
         style="clip-rule:nonzero" />
    </clipPath>
    <clipPath
       id="id5">
      <path
         d="m 178.36719,609 h 275.28906 v 76.29297 H 178.36719 Z m 0,0"
         id="path12"
         inkscape:connector-curvature="0"
         style="clip-rule:nonzero" />
    </clipPath>
    <clipPath
       id="id6">
      <path
         d="M 298,426.62109 H 451 V 667 H 298 Z m 0,0"
         id="path15"
         inkscape:connector-curvature="0"
         style="clip-rule:nonzero" />
    </clipPath>
    <clipPath
       id="id7">
      <path
         d="m 261,673 h 192.65625 v 12.29297 H 261 Z m 0,0"
         id="path18"
         inkscape:connector-curvature="0"
         style="clip-rule:nonzero" />
    </clipPath>
    <clipPath
       id="id8">
      <path
         d="M 143.75,681.61328 H 369 V 684 H 143.75 Z m 0,0"
         id="path21"
         inkscape:connector-curvature="0"
         style="clip-rule:nonzero" />
    </clipPath>
    <clipPath
       id="id9">
      <path
         d="m 143.75,681.61328 h 227.09766 v 3.54688 H 143.75 Z m 0,0"
         id="path24"
         inkscape:connector-curvature="0"
         style="clip-rule:nonzero" />
    </clipPath>
    <clipPath
       id="id10">
      <path
         d="m 144,681.61328 h 77 V 683 h -77 z m 0,0"
         id="path27"
         inkscape:connector-curvature="0"
         style="clip-rule:nonzero" />
    </clipPath>
    <clipPath
       id="id11">
      <path
         d="M 143.75,681.61328 H 223 v 3.54688 h -79.25 z m 0,0"
         id="path30"
         inkscape:connector-curvature="0"
         style="clip-rule:nonzero" />
    </clipPath>
    <clipPath
       id="id12">
      <path
         d="M 250,681.61328 H 370.84766 V 683 H 250 Z m 0,0"
         id="path33"
         inkscape:connector-curvature="0"
         style="clip-rule:nonzero" />
    </clipPath>
    <clipPath
       id="id13">
      <path
         d="M 248,681.61328 H 370.84766 V 685 H 248 Z m 0,0"
         id="path36"
         inkscape:connector-curvature="0"
         style="clip-rule:nonzero" />
    </clipPath>
    <clipPath
       id="id14">
      <path
         d="m 237.07031,552.82031 h 83.63672 v 75.88672 h -83.63672 z m 0,0"
         id="path39"
         inkscape:connector-curvature="0"
         style="clip-rule:nonzero" />
    </clipPath>
    <clipPath
       clipPathUnits="userSpaceOnUse"
       id="clipPath999">
      <use
         x="0"
         y="0"
         xlink:href="#g995"
         id="use1001"
         width="100%"
         height="100%" />
    </clipPath>
  </defs>
  <g
     clip-path="url(#id3)"
     id="g56"
     transform="translate(-88.891589,-339.63475)">
    <path
       transform="matrix(0.142576,0,0,-0.142554,-60.100093,825.08916)"
       d="m 3014.6959,2223.1867 c -0.1918,0.3014 -0.1918,0.5206 -0.3836,0.822 l -698.4222,732.478 c -96.0837,94.4266 -108.9881,129.1173 -187.0989,129.1173 -60.6037,0 -102.8784,-39.897 -206.0855,-140.2973 l -675.2986,-721.2158 c -20.6031,-20.4965 -33.617,-49.5972 -33.617,-81.9862 V 1108.0972 c 0,-62.2021 47.6172,-112.64885 106.4127,-112.64885 h 1620.9029 c 58.6859,0 106.1935,50.44675 106.1935,112.64885 v 1034.0075 c 0,31.8957 -12.4934,60.5854 -32.6033,81.082 z m 0,0"
       stroke-miterlimit="10"
       id="path54"
       inkscape:connector-curvature="0"
       style="fill:none;stroke:#395bb2;stroke-width:30;stroke-linecap:round;stroke-linejoin:round;stroke-miterlimit:10;stroke-opacity:1" />
  </g>
  <path
     d="m 161.667,292.90431 c -3.64843,0 -6.60156,-3.77734 -6.60156,-8.4375 v -62.87889 c 0,-4.66407 2.95313,-8.44141 6.60156,-8.44141 h 93.60157 c 3.64843,0 6.60156,3.77734 6.60156,8.44141 v 62.87889 c 0,4.66016 -2.95313,8.4375 -6.60156,8.4375 H 161.667"
     id="path58"
     inkscape:connector-curvature="0"
     style="fill:#ffffff;fill-opacity:1;fill-rule:nonzero" />
  <path
     d="m 161.66739,292.90488 c -3.64845,0 -6.60157,-3.77732 -6.60157,-8.43747 v -62.8787 c 0,-4.66406 2.95312,-8.44138 6.60157,-8.44138 h 93.60167 c 3.64845,0 6.60159,3.77732 6.60159,8.44138 v 62.8787 c 0,4.66015 -2.95314,8.43747 -6.60159,8.43747 z m 0,0"
     stroke-miterlimit="10"
     id="path60"
     inkscape:connector-curvature="0"
     style="fill:none;stroke:#395bb2;stroke-width:4.27694988;stroke-linecap:round;stroke-linejoin:round;stroke-miterlimit:10;stroke-opacity:1" />
  <path
     d="M 302.24513,165.88871 161.45216,25.119156 c -3.47656,-3.49219 -7.21484,-5.42188 -10.23438,-2.41016 0,0 -8.5,6.527339 -10.32421,8.339839 L 5.7880991,166.14652 c -3.351563,3.33594 -5.17578196,6.95703 -2.152344,9.96484 l 8.4257859,8.4375 c 3.02343,3.00782 6.6289,1.19922 9.98046,-2.15234 L 154.13966,50.322272 285.99122,182.14261 c 3.48047,3.49219 7.20313,5.41407 10.22266,2.40625 l 8.4414,-8.4375 c 3.00782,-3.00781 1.08594,-6.73047 -2.41015,-10.22265"
     id="path62"
     inkscape:connector-curvature="0"
     style="fill:#ffffff;fill-opacity:1;fill-rule:nonzero" />
  <path
     d="M 302.24569,165.88966 161.45254,25.120526 c -3.47656,-3.49217 -7.21484,-5.41795 -10.23439,-2.41015 0,0 -8.50001,6.527319 -10.32422,8.339809 L 5.7882961,166.14747 c -3.351577,3.33593 -5.17579396,6.957 -2.152356,9.96481 l 8.4258009,8.43748 c 3.02344,3.00781 6.62891,1.19921 9.98048,-2.15233 L 154.14003,50.323572 285.99177,182.14351 c 3.48046,3.49219 7.20312,5.41406 10.22267,2.40625 l 8.44141,-8.43748 c 3.00781,-3.00781 1.08594,-6.73045 -2.41016,-10.22262 z m 0,0"
     stroke-miterlimit="10"
     id="path64"
     inkscape:connector-curvature="0"
     style="fill:none;stroke:#395bb2;stroke-width:4.27694988;stroke-linecap:round;stroke-linejoin:round;stroke-miterlimit:10;stroke-opacity:1" />
  <path
     d="M 138.25685,343.34181 V 221.85745 c 0,-4.82032 -3.6211,-8.71094 -8.09766,-8.71094 H 69.846691 c -4.46094,0 -8.09766,3.89062 -8.09766,8.71094 v 121.48436 h 76.507819"
     id="path66"
     inkscape:connector-curvature="0"
     style="fill:#4054b2;fill-opacity:1;fill-rule:nonzero" />
  <g
     clip-path="url(#id4)"
     id="g70"
     transform="translate(-88.891589,-339.63475)">
    <path
       transform="matrix(0.142576,0,0,-0.142554,-60.100093,825.08916)"
       d="m 2014.7072,996.92804 v 852.16906 c 0,33.8138 -25.3977,61.106 -56.7955,61.106 h -423.0205 c -31.2882,0 -56.7954,-27.2922 -56.7954,-61.106 V 996.92804 Z m 0,0"
       stroke-miterlimit="10"
       id="path68"
       inkscape:connector-curvature="0"
       style="fill:none;stroke:#395bb2;stroke-width:30;stroke-linecap:round;stroke-linejoin:round;stroke-miterlimit:10;stroke-opacity:1" />
  </g>
  <path
     d="m 170.20607,283.25587 c -2.98047,0 -5.40235,-2.86718 -5.40235,-6.40234 v -47.65624 c 0,-3.53516 2.42188,-6.39844 5.40235,-6.39844 h 76.51953 c 2.98047,0 5.40625,2.86328 5.40625,6.39844 v 47.65624 c 0,3.53516 -2.42578,6.40234 -5.40625,6.40234 h -76.51953"
     id="path72"
     inkscape:connector-curvature="0"
     style="fill:#4054b2;fill-opacity:1;fill-rule:nonzero" />
  <path
     d="m 170.20647,283.25647 c -2.98048,0 -5.40236,-2.86717 -5.40236,-6.40231 v -47.65611 c 0,-3.53514 2.42188,-6.39842 5.40236,-6.39842 h 76.51962 c 2.98047,0 5.40626,2.86328 5.40626,6.39842 v 47.65611 c 0,3.53514 -2.42579,6.40231 -5.40626,6.40231 z m 0,0"
     stroke-miterlimit="10"
     id="path74"
     inkscape:connector-curvature="0"
     style="fill:none;stroke:#395bb2;stroke-width:4.27694988;stroke-linecap:round;stroke-linejoin:round;stroke-miterlimit:10;stroke-opacity:1" />
  <path
     d="m 252.13185,241.34573 v -12.14844 c 0,-3.53516 -2.42578,-6.39844 -5.40625,-6.39844 h -76.51953 c -2.98047,0 -5.40235,2.86328 -5.40235,6.39844 v 12.14844 h 87.32813"
     id="path76"
     inkscape:connector-curvature="0"
     style="fill:#ffffff;fill-opacity:1;fill-rule:nonzero" />
  <path
     d="m 252.13235,241.34646 v -12.14841 c 0,-3.53514 -2.42579,-6.39842 -5.40626,-6.39842 h -76.51962 c -2.98048,0 -5.40236,2.86328 -5.40236,6.39842 v 12.14841 z m 0,0"
     stroke-miterlimit="10"
     id="path78"
     inkscape:connector-curvature="0"
     style="fill:none;stroke:#395bb2;stroke-width:4.27694988;stroke-linecap:round;stroke-linejoin:round;stroke-miterlimit:10;stroke-opacity:1" />
  <path
     d="m 277.83888,319.36525 c -2.58203,0 -4.94922,0.82422 -6.88672,2.20703 0.17187,-0.71094 0.26953,-1.4375 0.26953,-2.20703 0,-5.10547 -4.14844,-9.25391 -9.26562,-9.25391 -3.25391,0 -6.10547,1.6836 -7.75782,4.22266 -1.65234,-2.53906 -4.51953,-4.22266 -7.76953,-4.22266 -1.73828,0 -3.35156,0.48438 -4.73437,1.3125 -1.21094,-5.28906 -5.92969,-9.25 -11.58985,-9.25 -5.82031,0 -10.63672,4.16016 -11.6914,9.66407 -1.51172,-1.08204 -3.36719,-1.72657 -5.375,-1.72657 -2.65235,0 -5.04688,1.12891 -6.73047,2.91016 -2.10938,-3.33594 -5.81641,-5.55859 -10.06641,-5.55859 -6.57422,0 -11.89062,5.32812 -11.89062,11.90234 0,0.32812 0.0156,0.64062 0.043,0.95312 -1.44144,-0.61328 -3.00785,-0.95312 -4.67582,-0.95312 -6.55859,0 -11.89062,5.33203 -11.89062,11.90234 0,6.57032 5.33203,11.90235 11.89062,11.90235 h 98.1211 c 6.57031,0 11.89062,-5.33203 11.89062,-11.90235 0,-6.57031 -5.32031,-11.90234 -11.89062,-11.90234"
     id="path80"
     inkscape:connector-curvature="0"
     style="fill:#ffffff;fill-opacity:1;fill-rule:nonzero" />
  <path
     d="m 277.83941,319.36574 c -2.58203,0 -4.94922,0.82422 -6.88673,2.20702 0.17188,-0.71093 0.26954,-1.43748 0.26954,-2.20702 0,-5.10545 -4.14845,-9.25388 -9.26564,-9.25388 -3.25392,0 -6.10548,1.6836 -7.75782,4.22265 -1.65236,-2.53905 -4.51955,-4.22265 -7.76955,-4.22265 -1.73827,0 -3.35156,0.48437 -4.73438,1.3125 -1.21094,-5.28904 -5.92969,-9.24997 -11.58986,-9.24997 -5.82031,0 -10.63673,4.16015 -11.69142,9.66403 -1.51172,-1.08203 -3.36719,-1.72656 -5.375,-1.72656 -2.65235,0 -5.04689,1.1289 -6.73048,2.91016 -2.10937,-3.33594 -5.81641,-5.55858 -10.06641,-5.55858 -6.57424,0 -11.89066,5.32811 -11.89066,11.9023 0,0.32813 0.0156,0.64063 0.043,0.95313 -1.4414,-0.61328 -3.00781,-0.95313 -4.67578,-0.95313 -6.55861,0 -11.89064,5.33202 -11.89064,11.90231 0,6.5703 5.33203,11.89841 11.89064,11.89841 h 98.12119 c 6.57032,0 11.89064,-5.32811 11.89064,-11.89841 0,-6.57029 -5.32032,-11.90231 -11.89064,-11.90231 z m 0,0"
     stroke-miterlimit="10"
     id="path82"
     inkscape:connector-curvature="0"
     style="fill:none;stroke:#395bb2;stroke-width:4.27694988;stroke-linecap:round;stroke-linejoin:round;stroke-miterlimit:10;stroke-opacity:1" />
  <path
     d="m 320.23732,330.21291 c 0,8.0039 -15.19141,14.48046 -33.91407,14.48046 -18.74218,0 -33.91015,-6.47656 -33.91015,-14.48046 0,-8.00782 15.16797,-14.50391 33.91015,-14.50391 18.72266,0 33.91407,6.49609 33.91407,14.50391"
     id="path88"
     inkscape:connector-curvature="0"
     style="fill:#4054b2;fill-opacity:1;fill-rule:nonzero" />
  <path
     d="m 319.542,326.69728 c 0,8.00781 -15.02734,14.48438 -33.5664,14.48438 -18.53907,0 -33.5625,-6.47657 -33.5625,-14.48438 0,-8.00781 15.02343,-14.50391 33.5625,-14.50391 18.53906,0 33.5664,6.4961 33.5664,14.50391"
     id="path90"
     inkscape:connector-curvature="0"
     style="fill:#afbdff;fill-opacity:1;fill-rule:nonzero" />
  <g
     clip-path="url(#id6)"
     id="g94"
     transform="translate(-88.891589,-339.63475)">
    <path
       d="m 376.15625,426.53906 c -0.42969,0 -0.87891,0.0195 -1.32813,0.0195 -0.44921,0 -0.89843,-0.0195 -1.32812,-0.0195 -41.17969,0 -74.5625,34.82813 -74.5625,77.78516 0,7.3125 2.83594,24.26953 7.10547,31.29687 l 68.78515,130.71094 68.78516,-130.71094 c 4.26563,-7.02734 7.10547,-23.98437 7.10547,-31.29687 0,-42.95703 -33.36328,-77.78516 -74.5625,-77.78516"
       id="path92"
       inkscape:connector-curvature="0"
       style="fill:#222c5b;fill-opacity:1;fill-rule:nonzero" />
  </g>
  <path
     d="m 327.11622,156.00979 c 0,22.75391 -18.43359,41.19922 -41.17969,41.19922 -22.74609,0 -41.18359,-18.44531 -41.18359,-41.19922 0,-22.75781 18.4375,-41.20312 41.18359,-41.20312 22.7461,0 41.17969,18.44531 41.17969,41.20312"
     id="path96"
     inkscape:connector-curvature="0"
     style="fill:#ffffff;fill-opacity:1;fill-rule:nonzero" />
  <g
     clip-path="url(#id7)"
     id="g100"
     transform="translate(-88.891589,-339.63475)">
    <path
       d="m 492.30078,673.32031 c -4.45312,0.64453 -8.57812,1.61328 -12.38281,2.91016 l -1.92969,0.65625 1.31641,3.87109 1.92968,-0.66015 c 3.56641,-1.21485 7.44922,-2.125 11.65235,-2.73438 l 2.01953,-0.29297 -0.58203,-4.04297 z m -23.95703,8.58594 c -3.77344,2.58594 -6.86328,5.65625 -9.26172,9.20703 l -1.14453,1.69531 3.38281,2.28516 1.14453,-1.69141 c 2.10938,-3.125 4.83985,-5.83203 8.1875,-8.125 l 1.6836,-1.15625 -2.30469,-3.37109 z m -14.33984,21.25391 c -0.86329,3.94921 -1.16016,8.23437 -0.89454,12.85546 l 0.11719,2.03907 4.07422,-0.23438 -0.11719,-2.03906 c -0.24218,-4.24609 0.0274,-8.16406 0.8125,-11.74609 l 0.4336,-1.9961 -3.98828,-0.875 z m -1.32813,24.54296 c -0.89453,3.73829 -2.42578,7.30079 -4.60156,10.6836 l -1.10156,1.71875 3.43359,2.21094 1.10547,-1.71875 c 2.42187,-3.77344 4.13281,-7.75782 5.13281,-11.94532 l 0.47656,-1.98828 -3.97265,-0.94922 z m -12.32812,19.53516 c -2.85157,2.48438 -6.11719,4.74219 -9.8086,6.76953 l -1.78906,0.98047 1.96484,3.58203 1.79297,-0.98437 c 3.94531,-2.16797 7.45313,-4.58985 10.52344,-7.26953 l 1.53906,-1.34375 -2.68359,-3.07813 z m -20.76563,11.66406 c -3.61719,1.3086 -7.49609,2.44922 -11.63281,3.42578 l -1.98828,0.47266 0.9375,3.97656 1.98828,-0.47265 c 4.28906,-1.01172 8.3164,-2.19922 12.08203,-3.5586 l 1.91797,-0.6914 -1.38672,-3.84375 z m -23.59375,5.6875 c -3.87891,0.57032 -7.93359,1.01953 -12.16406,1.35157 l -2.03516,0.16015 0.32031,4.07031 2.03516,-0.16015 c 4.32031,-0.33594 8.46484,-0.79688 12.43359,-1.37891 l 2.01954,-0.29687 -0.58985,-4.03907 z m -24.39453,1.96485 c -3.71875,0.0898 -7.54688,0.10156 -11.49219,0.0351 l -0.84765,-0.008 -2.04297,-0.0117 -0.0274,4.08594 2.04297,0.0117 0.80469,0.004 c 4,0.0703 8.56641,0.043 13.70312,-0.082 l -0.0976,-4.08203 z m -24.80859,0.30078 c -4.17188,0.17187 -8.3086,0.42187 -12.41016,0.74219 l -2.03516,0.15625 0.31641,4.07421 2.03516,-0.16015 c 4.05468,-0.31641 8.14062,-0.5586 12.26171,-0.73047 l 2.03907,-0.0859 -0.16797,-4.08203 z m -24.77344,1.94922 c -4.29688,0.51172 -8.42188,1.10156 -12.3711,1.76953 l -2.01562,0.34375 0.68359,4.02734 2.01172,-0.33984 c 3.88281,-0.66016 7.94141,-1.23828 12.17578,-1.74219 l 2.02735,-0.24219 -0.48438,-4.05468 z m -24.65235,4.24218 c -4.35156,1.03125 -8.38281,2.17579 -12.09375,3.42969 l -1.93359,0.65235 1.30469,3.87109 1.9375,-0.65234 c 3.58984,-1.21485 7.5,-2.32422 11.73047,-3.32422 l 1.98437,-0.47266 -0.9414,-3.97266 z m -23.76562,8.27344 c -4.25391,2.17969 -7.80859,4.57813 -10.66406,7.19922 l -1.50391,1.38281 2.76172,3.01172 1.50391,-1.38281 c 2.58203,-2.37109 5.83984,-4.56641 9.76171,-6.57422 l 1.81641,-0.93359 -1.85937,-3.63282 z m 0,0"
       id="path98"
       inkscape:connector-curvature="0"
       style="fill:#351f16;fill-opacity:1;fill-rule:nonzero" />
  </g>
  <g
     clip-path="url(#id8)"
     id="g104"
     transform="translate(-88.891589,-339.63475)">
    <path
       d="m 363.87109,507.48437 c -0.0273,-0.043 -0.0273,-0.0742 -0.0547,-0.11718 L 263.89062,402.59766 c -13.75,-13.50391 -15.59765,-18.46875 -26.76953,-18.46875 -8.67187,0 -14.72265,5.70703 -29.48828,20.07031 l -96.62109,103.15625 c -2.94922,2.92969 -4.80859,7.09375 -4.80859,11.72656 v 147.89844 c 0,8.89844 6.8125,16.12109 15.22265,16.12109 h 231.91797 c 8.39844,0 15.19531,-7.22265 15.19531,-16.12109 V 519.08203 c 0,-4.5625 -1.78906,-8.66797 -4.66797,-11.59766"
       id="path102"
       inkscape:connector-curvature="0"
       style="fill:#ffffff;fill-opacity:1;fill-rule:nonzero" />
  </g>
  <g
     clip-path="url(#id9)"
     id="g108"
     transform="translate(-88.891589,-339.63475)">
    <path
       transform="matrix(0.143078,0,0,-0.143034,-67.463607,825.47762)"
       d="m 3014.6878,2223.1939 c -0.1911,0.3004 -0.1911,0.5189 -0.3822,0.8193 l -698.402,732.4778 c -96.1016,94.4102 -109.0153,129.121 -187.0978,129.121 -60.6096,0 -102.8997,-39.8997 -206.0998,-140.318 l -675.3049,-721.1988 c -20.6127,-20.4824 -33.6082,-49.5947 -33.6082,-81.9842 V 1108.105 c 0,-62.2118 47.614,-112.65316 106.3943,-112.65316 h 1620.9229 c 58.6984,0 106.2031,50.44136 106.2031,112.65316 v 1034.006 c 0,31.8979 -12.5041,60.6005 -32.6254,81.0829 z m 0,0"
       stroke-miterlimit="10"
       id="path106"
       inkscape:connector-curvature="0"
       style="fill:none;stroke:#395bb2;stroke-width:30;stroke-linecap:round;stroke-linejoin:round;stroke-miterlimit:10;stroke-opacity:1" />
  </g>
  <g
     clip-path="url(#id10)"
     id="g112"
     transform="translate(-88.891589,-339.63475)">
    <path
       d="M 220.79687,682.88672 V 560.99219 c 0,-4.83594 -3.63671,-8.73828 -8.1289,-8.73828 h -60.52344 c -4.47656,0 -8.125,3.90234 -8.125,8.73828 v 121.89453 h 76.77734"
       id="path110"
       inkscape:connector-curvature="0"
       style="fill:#4054b2;fill-opacity:1;fill-rule:nonzero" />
  </g>
  <g
     clip-path="url(#id11)"
     id="g116"
     transform="translate(-88.891589,-339.63475)">
    <path
       transform="matrix(0.143078,0,0,-0.143034,-67.463607,825.47762)"
       d="m 2014.7124,996.92657 v 852.17693 c 0,33.8096 -25.4178,61.0921 -56.8146,61.0921 h -423.0109 c -31.2876,0 -56.7873,-27.2825 -56.7873,-61.0921 V 996.92657 Z m 0,0"
       stroke-miterlimit="10"
       id="path114"
       inkscape:connector-curvature="0"
       style="fill:none;stroke:#395bb2;stroke-width:30;stroke-linecap:round;stroke-linejoin:round;stroke-miterlimit:10;stroke-opacity:1" />
  </g>
  <g
     clip-path="url(#id12)"
     id="g120"
     transform="translate(-88.891589,-339.63475)">
    <path
       d="m 360.86719,658.82812 c -2.58985,0 -4.96485,0.82813 -6.91016,2.21875 0.17188,-0.71875 0.27344,-1.44531 0.27344,-2.21875 0,-5.12109 -4.16406,-9.28125 -9.30078,-9.28125 -3.26172,0 -6.125,1.6875 -7.78516,4.23047 -1.66016,-2.54297 -4.53516,-4.23047 -7.79687,-4.23047 -1.7461,0 -3.36329,0.48438 -4.75,1.3125 -1.21485,-5.30468 -5.95313,-9.28125 -11.63282,-9.28125 -5.83593,0 -10.67187,4.17579 -11.73047,9.69922 -1.51953,-1.08984 -3.3789,-1.73047 -5.39453,-1.73047 -2.66015,0 -5.0664,1.12891 -6.7539,2.91797 -2.11719,-3.34765 -5.83594,-5.57812 -10.10157,-5.57812 -6.59375,0 -11.93359,5.34765 -11.93359,11.9414 0,0.32813 0.0156,0.64454 0.043,0.95704 -1.44531,-0.61329 -3.01953,-0.95704 -4.69141,-0.95704 -6.58203,0 -11.93359,5.35157 -11.93359,11.94532 0,6.59375 5.35156,11.9414 11.93359,11.9414 h 98.46485 c 6.59765,0 11.93359,-5.34765 11.93359,-11.9414 0,-6.59375 -5.33594,-11.94532 -11.93359,-11.94532"
       id="path118"
       inkscape:connector-curvature="0"
       style="fill:#ffffff;fill-opacity:1;fill-rule:nonzero" />
  </g>
  <g
     clip-path="url(#id13)"
     id="g124"
     transform="translate(-88.891589,-339.63475)">
    <path
       transform="matrix(0.143078,0,0,-0.143034,-67.463607,825.47762)"
       d="m 2993.6929,1165.1007 c -18.1009,0 -34.7003,-5.7897 -48.2965,-15.512 1.2013,4.9977 1.9111,10.1046 1.9111,15.512 0,35.8032 -29.1035,64.8882 -65.0051,64.8882 -22.7968,0 -42.8089,-11.7978 -54.4121,-29.5766 -11.6031,17.7788 -31.6971,29.5766 -54.4939,29.5766 -12.2038,0 -23.5067,-3.3864 -33.1988,-9.1761 -8.4908,37.0868 -41.6076,64.8882 -81.3041,64.8882 -40.7886,0 -74.588,-29.1942 -81.9867,-67.8103 -10.6203,7.6194 -23.6159,12.0982 -37.7035,12.0982 -18.5924,0 -35.4102,-7.8925 -47.2045,-20.4004 -14.7974,23.4045 -40.7885,38.9984 -70.6019,38.9984 -46.0851,0 -83.4063,-37.3872 -83.4063,-83.4862 0,-2.294 0.1092,-4.5061 0.3003,-6.6909 -10.1016,4.2876 -21.1042,6.6909 -32.7892,6.6909 -46.0032,0 -83.4064,-37.3872 -83.4064,-83.5136 0,-46.099 37.4032,-83.45889 83.4064,-83.45889 h 688.1912 c 46.1124,0 83.4064,37.35989 83.4064,83.45889 0,46.1264 -37.294,83.5136 -83.4064,83.5136 z m 0,0"
       stroke-miterlimit="10"
       id="path122"
       inkscape:connector-curvature="0"
       style="fill:none;stroke:#395bb2;stroke-width:30;stroke-linecap:round;stroke-linejoin:round;stroke-miterlimit:10;stroke-opacity:1" />
  </g>
  <path
     d="m 148.17872,203.69338 h 69.23438 v 94.71874 h -69.23438 v -94.71874"
     id="path126"
     style="fill:#ffffff;fill-opacity:1;fill-rule:nonzero"
     inkscape:connector-curvature="0" />
  <path
     d="m 173.1045,247.54495 h 69.23047 v 39.32811 H 173.1045 v -39.32811"
     id="path128"
     style="fill:#ffffff;fill-opacity:1;fill-rule:nonzero"
     inkscape:connector-curvature="0" />
  <path
     d="m 173.1006,140.19729 88.83984,169.81639"
     stroke-miterlimit="4"
     id="path130"
     inkscape:connector-curvature="0"
     style="fill:none;stroke:#ffffff;stroke-width:26.60274315;stroke-linecap:butt;stroke-linejoin:miter;stroke-miterlimit:4;stroke-opacity:1" />
  <g
     id="g164"
     style="fill:#222c5b;fill-opacity:1"
     transform="translate(-13.769497,-587.81268)">
    <g
       transform="translate(148.23437,232.57375)"
       id="g162">
      <g
         id="g160" />
    </g>
  </g>
  <g
     id="g194"
     style="fill:#222c5b;fill-opacity:1"
     transform="translate(-13.769497,-587.81268)">
    <g
       transform="translate(274.94921,232.57375)"
       id="g192">
      <g
         id="g190" />
    </g>
  </g>
  <g
     id="g264"
     style="fill:#222c5b;fill-opacity:1"
     transform="translate(-13.769497,-587.81268)">
    <g
       transform="translate(134.19875,762.32183)"
       id="g262">
      <g
         id="g260" />
    </g>
  </g>
  <rect
     style="fill:#4054b2;fill-opacity:1;stroke-width:0.75"
     id="rect5063"
     width="6.2920518"
     height="6.3819389"
     x="207.19441"
     y="274.57208" />
  <g
     id="g997"
     clip-path="url(#clipPath999)"
     transform="translate(-88.891589,-339.63475)">
    <g
       inkscape:label="Clip"
       id="g995">
      <path
         d="m 320.70703,622.4375 c 0,2.05469 0,4.10937 0,6.16406 -0.0508,0.0508 -0.10156,0.10547 -0.10156,0.10547 -27.79297,0 -55.64063,0 -83.4336,0 -0.0508,-0.0547 -0.10156,-0.10547 -0.10156,-0.10547 0,-2.0039 0,-4.00781 0,-6.0625 1.64063,-0.2539 3.28516,-0.51172 4.87891,-0.71875 0.41015,-0.0508 0.51562,-0.25781 0.51562,-0.66797 0,-1.28515 0,-2.5664 0,-3.80078 0,-0.41015 0.10157,-0.61719 0.5625,-0.5664 0.71875,0.0508 1.38672,0 2.10547,0 1.03125,0 0.92578,0.10546 0.92578,-0.92579 0,-21.01171 0,-42.02343 0,-63.03906 21.98828,0 43.97657,0 65.96485,0 0,20.96485 0,41.875 0,62.83594 0,0.20312 0,0.35937 0,0.56641 -0.0508,0.46093 0.10547,0.61328 0.5664,0.61328 0.71875,-0.0508 1.4375,0 2.15625,0 0.46485,0 0.61719,0.10547 0.61719,0.5664 -0.0508,1.12891 0,2.21094 0,3.33985 0,0.97656 0,1.02734 0.97656,1.17968 1.4375,0.15625 2.87891,0.51563 4.36719,0.51563 z m -29.58984,-12.22656 c 0.20312,0 0.35937,0 0.5625,0 1.02734,0 1.02734,-0.0508 0.82422,-1.02735 -0.15625,-0.97656 -0.25782,-1.95312 -0.41407,-2.92968 -0.15234,-1.02735 -0.30468,-2.05469 -0.51172,-3.08204 -0.15625,-1.18359 -0.25781,-2.36328 -0.41015,-3.54687 -0.3086,-2.3125 -0.51563,-4.62109 -0.46485,-6.93359 0,-0.35938 0.0508,-0.66797 0.35938,-0.82422 0.30859,0.46484 0.61719,0.92578 0.875,1.38672 0.97656,2.0039 1.54297,4.16406 2.00391,6.37109 0.51171,2.41406 0.92578,4.83203 1.17968,7.29687 0.10547,0.97657 0.20703,1.95313 0.25782,2.92969 0,0.5625 0.46484,0.35938 0.71875,0.35938 0.35937,0.0508 0.30859,-0.15625 0.30859,-0.41407 -0.0508,-1.17968 -0.25781,-2.30859 -0.35938,-3.4414 -0.15234,-1.4375 0.41016,-2.77344 0.71875,-4.16016 0.25782,-1.07812 0.71875,-2.10547 0.875,-3.1875 0.15235,-0.10156 0.20313,-0.30469 0.25782,-0.46094 0.30859,-0.66796 0.51172,-1.38671 1.07812,-1.84765 0.20313,0.20312 0.10156,0.41015 0.10156,0.66797 0,1.07812 0,2.20703 -0.10156,3.28515 -0.15625,1.23438 -0.25781,2.46875 -0.46484,3.69922 -0.25391,1.85156 -0.5625,3.64844 -1.02735,5.44531 -0.0508,0.3086 0,0.46485 0.3086,0.41407 0.15625,0 0.30859,0 0.51562,0 0.0508,0 0.10157,0 0.15235,0 0.20703,0.41015 0.25781,0.82031 0.25781,1.23047 0,1.85156 -0.0508,3.7539 0,5.60156 0,1.4375 -0.35938,2.62109 -1.84766,3.18359 0.82032,0.0547 1.58985,0.0547 2.41407,0.0547 1.17968,0 2.25781,-1.13281 2.25781,-2.3125 0,-1.23438 0,-2.51953 0,-3.75 1.69531,0 3.39062,0 5.14062,0 0.5625,0 0.66797,-0.20703 0.66797,-0.72266 0,-8.26953 0,-16.48828 0,-24.76172 0,-0.51562 -0.10547,-0.66796 -0.66797,-0.66796 -8.27343,0 -16.49218,0 -24.76562,0 -0.46094,0 -0.61719,0.10156 -0.61719,0.5664 0,8.32031 0,16.69531 0,25.01953 0,0.41016 0.10547,0.56641 0.51563,0.56641 2.15625,0 4.3164,0 6.47265,0 0.46485,0 0.56641,-0.20703 0.56641,-0.56641 0,-0.875 0,-1.74609 0,-2.67187 0,-0.82031 0,-0.82031 0.82031,-0.82031 0.51563,0.0508 0.97656,0.0508 1.44141,0.0508 z m -9.71094,-39.76563 c 0,4.16016 0,8.32031 0,12.4336 0,0.5625 0.15234,0.66796 0.71875,0.66796 8.21875,0 16.44141,0 24.66016,0 0.5664,0 0.66796,-0.15625 0.66796,-0.72265 0,-8.32031 0,-16.59375 0,-24.91797 0,-0.5625 -0.15625,-0.66797 -0.71875,-0.66797 -8.22265,0 -16.4414,0 -24.66015,0 -0.56641,0 -0.66797,0.15625 -0.66797,0.72266 0,4.21093 0,8.37109 0,12.48437 z m -4.82813,0 c 0,-4.11328 0,-8.27344 0,-12.38281 0,-0.61719 -0.15625,-0.76953 -0.77343,-0.76953 -8.16797,0 -16.28516,0 -24.45313,0 -0.76953,0 -0.82422,0 -0.82422,0.76953 0,8.21875 0,16.49219 0,24.71094 0,0.5664 0.15625,0.77343 0.77344,0.77343 8.16797,0 16.38672,0 24.55469,0 0.5664,0 0.66797,-0.15625 0.66797,-0.72265 0.0547,-4.0586 0.0547,-8.21875 0.0547,-12.37891 z m 0,30.77344 c 0,-4.10938 0,-8.27344 0,-12.38281 0,-0.51172 -0.15625,-0.71875 -0.66796,-0.71875 -8.22266,0 -16.44141,0 -24.66016,0 -0.51563,0 -0.72266,0.15625 -0.72266,0.66797 0,8.27343 0,16.49218 0,24.76562 0,0.51172 0.15625,0.71875 0.66797,0.71875 8.22266,0 16.44141,0 24.66016,0 0.51562,0 0.72265,-0.15625 0.72265,-0.66797 0,-4.10937 0,-8.27344 0,-12.38281 z m 0,0"
         id="path132"
         inkscape:connector-curvature="0"
         style="fill:#4054b2;fill-opacity:1;fill-rule:nonzero" />
      <rect
         y="590.20709"
         x="285.83893"
         height="23.999683"
         width="18.426723"
         id="rect553"
         style="fill:#ffffff;stroke-width:0.75" />
      <rect
         y="608.86652"
         x="289.29025"
         height="5.3389831"
         width="16.080509"
         id="rect990"
         style="fill:#ffffff;fill-opacity:1;stroke-width:0.75" />
    </g>
  </g>
  <path
     style="fill:#ffffff;fill-opacity:1;stroke-width:0.75"
     d="m 142.20554,341.56482 -1.65254,-0.20508 -0.003,-60.60338 c -0.002,-40.89105 -0.1771,-61.2309 -0.53858,-62.53265 -0.74855,-2.69557 -4.27193,-6.2206 -6.92723,-6.93047 -1.49182,-0.39883 -11.70716,-0.52793 -34.108057,-0.43107 l -31.978202,0.13828 -2.47425,1.52995 c -1.75706,1.08649 -2.8508,2.26159 -3.77329,4.05398 l -1.29903,2.52401 -0.1371,61.20679 -0.13711,61.20678 -11.303575,-0.1974 c -12.442522,-0.21729 -13.338982,-0.40412 -16.887224,-3.51952 -1.072704,-0.94184 -2.483913,-2.85818 -3.136019,-4.25852 l -1.185646,-2.54607 -0.0049,-75.00076 -0.005,-75.00077 63.687536,-63.68601 63.687527,-63.686028 34.0489,34.051743 34.04889,34.051755 -1.1623,1.92317 c -7.86256,13.00949 -12.3253,32.01685 -10.80605,46.02433 0.7065,6.51403 2.18245,14.04975 3.66169,18.69545 0.96291,3.02413 7.90769,16.7718 20.80574,41.18644 2.73324,5.17373 8.63028,16.38559 13.10454,24.91525 4.47426,8.52966 11.21019,21.34322 14.96877,28.47458 10.76229,20.41997 15.1412,28.84542 15.1412,29.13321 0,0.14654 -1.6589,0.54389 -3.68645,0.883 -9.37777,1.56846 -17.68429,5.4869 -20.26806,9.56107 -1.28665,2.02885 -1.46922,2.79516 -1.46922,6.16695 0,3.27167 0.1915,4.13203 1.27444,5.72572 1.52683,2.24693 5.04151,4.75284 8.88277,6.33328 l 2.80889,1.15568 -60.76271,-0.0693 c -33.41949,-0.0381 -61.50635,-0.16159 -62.41526,-0.27438 z m 89.77003,-55.69149 c -0.14874,-3.12262 -0.17795,-3.1804 -1.6768,-3.3174 -3.57098,-0.32639 -3.74746,-0.46356 -3.91293,-3.04126 -0.1418,-2.20888 -0.27291,-2.42611 -1.55318,-2.57342 l -1.3983,-0.16089 v -31.74589 -31.74589 h -33.30508 -33.30509 v 31.74744 31.74745 l -1.65254,0.15933 c -1.58423,0.15275 -1.65895,0.25907 -1.80741,2.57187 -0.16331,2.54396 -0.30663,2.66298 -3.6587,3.03834 -1.18629,0.13284 -1.28129,0.35459 -1.42257,3.32032 l -0.15138,3.17797 h 41.99769 41.99767 z"
     id="path1004"
     inkscape:connector-curvature="0" />
  <path
     style="fill:#395bb2;fill-opacity:1;stroke-width:0.99999994"
     d="M 12.911801,238.53485 C 9.2539848,234.91042 6.1437873,231.47707 6.0002512,230.90517 5.8567152,230.33328 6.1137148,229.0381 6.5713615,228.027 7.1436121,226.76271 35.786794,197.76981 98.297317,135.18112 177.30594,56.073699 190.19416,43.363312 196.8615,37.976904 c 4.21867,-3.408177 8.13742,-6.3202 8.70832,-6.471161 0.5709,-0.150963 1.86527,0.10134 2.87637,0.560671 1.24786,0.56689 18.88774,17.858377 54.91696,53.832347 l 53.07861,52.997189 -4.45003,4.33601 c -4.48055,4.36574 -8.78702,9.20082 -10.84516,12.1764 l -1.11241,1.60828 -36.00601,-35.89146 C 212.01291,69.275436 206.5253,63.913632 205.47422,63.913632 c -0.59242,0 -33.3349,32.379072 -90.82086,89.812828 -58.933368,58.87985 -90.4973,90.08585 -91.644789,90.60555 -0.962682,0.43599 -2.1319,0.79272 -2.598263,0.79272 -0.466362,0 -3.84069,-2.96545 -7.498507,-6.58988 z"
     id="path911"
     inkscape:connector-curvature="0"
     transform="scale(0.75000001)" />
  <rect
     style="fill:#395bb2;fill-opacity:1;stroke-width:0.75469673"
     id="rect915"
     width="215.83739"
     height="7.5546942"
     x="-139.65437"
     y="124.67541"
     transform="matrix(0.71198065,-0.70219909,0.80529691,0.59287173,0,0)"
     inkscape:transform-center-x="10.002167"
     inkscape:transform-center-y="-6.7506212" />
  <rect
     style="fill:#395bb2;fill-opacity:1;stroke-width:0.75469673"
     id="rect915-3"
     width="215.83739"
     height="7.5546942"
     x="-142.26277"
     y="137.71561"
     transform="matrix(0.71198065,-0.70219909,0.80529691,0.59287173,0,0)"
     inkscape:transform-center-x="10.002167"
     inkscape:transform-center-y="-6.7506212" />
  <rect
     style="fill:#395bb2;fill-opacity:1;stroke-width:0.75430655"
     id="rect915-3-6"
     width="115.00578"
     height="4.0215311"
     x="-224.78708"
     y="-95.607216"
     transform="matrix(-0.70959023,-0.70461458,-0.80336673,0.59548459,0,0)"
     inkscape:transform-center-x="-5.3116072"
     inkscape:transform-center-y="-3.6093423" />
  <rect
     style="fill:#395bb2;fill-opacity:1;stroke-width:0.75430655"
     id="rect915-3-6-7"
     width="115.00579"
     height="4.0215311"
     x="-230.92323"
     y="-78.002678"
     transform="matrix(-0.70959023,-0.70461458,-0.80336672,0.5954846,0,0)"
     inkscape:transform-center-x="-5.3116072"
     inkscape:transform-center-y="-3.6093423" />
  <path
     style="fill:#395bb2;fill-opacity:1;stroke-width:0.75"
     id="path8165"
     d="m 7.3626238,174.37127 c 0.9844383,0.4514 1.9709523,0.89565 2.9415352,1.3767 0.761907,0.42463 1.080268,0.72915 1.241682,1.58688 0.0484,0.87196 0.118403,1.74186 0.196915,2.61194 0.04267,0.37968 -3.82e-4,1.0217 0.452076,1.1698 0.308126,0.0601 0.616628,5.3e-4 0.917527,0.0852 0.267868,0.0646 0.532483,0.0863 0.783307,0.20213 0,0 -3.135408,2.11484 -3.135408,2.11484 v 0 c -0.245481,-0.0586 -0.494127,-0.10297 -0.742893,-0.14527 -0.3444701,-0.0101 -0.6870491,-0.0279 -0.9966521,-0.19917 -0.4790265,-0.36473 -0.5880173,-0.92145 -0.5937503,-1.50375 -0.063105,-0.85865 -0.1555305,-1.71466 -0.197133,-2.57452 -0.1117035,-0.73644 -0.385425,-0.93531 -1.0327114,-1.30612 -0.9519437,-0.49335 -1.9304633,-0.94402 -2.9475449,-1.28664 0,0 3.1130505,-2.13198 3.1130505,-2.13198 z"
     inkscape:connector-curvature="0" />
  <path
     style="fill:#395bb2;fill-opacity:1;stroke-width:0.75"
     id="path8167"
     d="m 152.27529,23.662861 c -0.24714,0.38978 -0.43588,0.813713 -0.63742,1.228076 -0.26551,0.52276 -0.51979,1.051362 -0.79875,1.567202 -0.15618,0.288808 -0.28279,0.506899 -0.44547,0.791974 -0.45646,0.829061 -1.0142,1.595247 -1.5456,2.376534 -0.33567,0.478241 -0.67404,0.954756 -1.02125,1.424719 -0.1511,0.198439 -0.29722,0.400709 -0.45637,0.592854 -0.14788,0.171852 -0.31466,0.326066 -0.47391,0.487213 -0.27082,0.269367 -0.56153,0.517576 -0.87003,0.742562 -0.45267,0.307656 -0.93008,0.581816 -1.41951,0.827057 -0.0375,0.01802 -0.0747,0.03671 -0.11249,0.05408 -0.083,0.03814 -0.17073,0.06479 -0.25235,0.105674 -0.0189,0.0095 -0.0369,0.02073 -0.0554,0.0311 0.17286,-0.09881 0.34571,-0.197622 0.51857,-0.296434 -0.21451,0.132859 -0.38462,0.326084 -0.56282,0.5015 -0.12548,0.123515 -0.25087,0.247109 -0.37631,0.370663 -0.9845,0.981943 -2.1063,1.809737 -3.268,2.568464 -0.26845,0.175328 -0.54196,0.342789 -0.81294,0.514185 -1.28782,0.797602 -2.60738,1.542602 -3.94129,2.259988 -0.24273,0.13561 -0.49162,0.260073 -0.7351,0.394272 -0.0476,0.02626 -0.18877,0.108219 -0.14141,0.08147 0.45074,-0.254551 0.60228,-0.351403 0.37417,-0.208 -0.087,0.05881 -0.17255,0.121295 -0.24619,0.196353 -0.14024,0.153957 -0.28724,0.301112 -0.42729,0.455347 -0.25729,0.276671 -0.50177,0.562586 -0.72862,0.864872 -0.21258,0.295999 -0.42159,0.594802 -0.60675,0.908873 -0.09,0.166315 -0.18249,0.332114 -0.25756,0.505901 -0.0296,0.07008 -0.0153,0.03585 -0.0426,0.102651 0,0 -0.60294,0.278948 -0.60294,0.278948 v 0 c 0.0269,-0.06923 0.0124,-0.03437 0.0439,-0.104482 0.0734,-0.181044 0.17738,-0.347915 0.26815,-0.520469 0.18734,-0.318154 0.40066,-0.619912 0.61514,-0.920181 0.16494,-0.22183 0.33172,-0.44247 0.5175,-0.647568 0.0333,-0.03674 0.07,-0.07034 0.10318,-0.107119 0.0322,-0.03572 0.0622,-0.07351 0.0933,-0.110261 0.13546,-0.152148 0.27533,-0.299499 0.41255,-0.449727 0.0236,-0.02771 0.0434,-0.05917 0.0707,-0.08318 0.0105,-0.0093 0.0251,-0.01291 0.0361,-0.02158 0.0462,-0.03631 0.0875,-0.08028 0.13885,-0.110837 0.51333,-0.317363 1.04267,-0.603538 1.57929,-0.878742 0.45164,-0.239445 0.8983,-0.487573 1.34835,-0.72991 0.0531,-0.0286 0.10898,-0.05201 0.16136,-0.0819 0.56361,-0.321582 0.94046,-0.554503 1.50263,-0.894247 0.27125,-0.170974 0.54513,-0.337857 0.81376,-0.512921 1.1397,-0.742713 2.24089,-1.553792 3.19554,-2.527757 0.11487,-0.119119 0.23001,-0.237967 0.34461,-0.357355 0.1639,-0.17077 0.31499,-0.362803 0.51213,-0.497382 0.20571,-0.119282 0.41056,-0.240077 0.61715,-0.357846 0.12936,-0.07375 0.28357,-0.100594 0.40973,-0.181968 0.20084,-0.102269 0.63926,-0.364177 -0.13852,0.09617 -0.052,0.03078 0.10516,-0.0596 0.15732,-0.09013 0.0517,-0.03028 0.1039,-0.05989 0.1543,-0.09232 0.0494,-0.03174 0.0965,-0.06674 0.14471,-0.100101 0.31099,-0.218358 0.60014,-0.464954 0.87135,-0.731149 0.15471,-0.158113 0.31025,-0.315044 0.46113,-0.47675 0.16815,-0.192642 0.32099,-0.397511 0.47916,-0.598275 0.36135,-0.474852 0.71304,-0.95718 1.06339,-1.440165 0.53696,-0.776421 1.08801,-1.545468 1.5472,-2.371947 0.13782,-0.240681 0.31495,-0.546831 0.44725,-0.790559 0.27723,-0.510772 0.52722,-1.03553 0.78273,-1.557304 0.18954,-0.40608 0.36758,-0.818913 0.58338,-1.211814 0,0 0.60835,-0.268306 0.60835,-0.268306 z"
     inkscape:connector-curvature="0" />
  <path
     style="fill:#395bb2;fill-opacity:1;stroke-width:0.75"
     id="path8277"
     d="m 225.18047,116.81471 c 0.0856,-0.12366 0.16909,-0.24857 0.24958,-0.3756 0.11355,-0.18009 0.24075,-0.35091 0.36453,-0.52397 0.17746,-0.23628 0.33318,-0.48762 0.49497,-0.73459 0.081,-0.1187 0.16301,-0.23685 0.25578,-0.34672 0.0454,-0.0526 0.0998,-0.0967 0.15252,-0.14171 0.0968,-0.0819 0.19889,-0.15706 0.30312,-0.2292 0.0874,-0.0549 0.1628,-0.12381 0.23382,-0.19804 0.0836,-0.0801 0.16881,-0.15819 0.25152,-0.23918 0.12162,-0.124 0.24282,-0.24873 0.35481,-0.38157 0.0981,-0.12209 0.20405,-0.23682 0.31198,-0.35015 0.10884,-0.11707 0.21845,-0.23343 0.32791,-0.34993 0.0798,-0.0823 0.16085,-0.16353 0.23658,-0.24969 0.0592,-0.0598 0.11619,-0.12187 0.17558,-0.18155 0.0974,-0.0933 0.18505,-0.19601 0.2712,-0.29962 0.0799,-0.1062 0.16154,-0.21119 0.23825,-0.31974 0.0549,-0.0809 0.11174,-0.16044 0.1734,-0.23628 0.0509,-0.0614 0.0974,-0.12632 0.14878,-0.18735 0.0198,-0.0246 0.0397,-0.0491 0.0593,-0.0739 0,0 0.43207,-0.1872 0.43207,-0.1872 v 0 c -0.0177,0.0268 -0.0373,0.0515 -0.058,0.0761 -0.049,0.0639 -0.10416,0.12326 -0.15165,0.18861 -0.0609,0.0766 -0.12235,0.15261 -0.17674,0.23421 -0.0759,0.11046 -0.16051,0.21447 -0.23824,0.3236 -0.0843,0.10525 -0.17262,0.20752 -0.26724,0.30366 -0.0603,0.0571 -0.11075,0.12312 -0.17427,0.1768 -0.0764,0.0892 -0.15996,0.1716 -0.24289,0.25467 -0.11075,0.11469 -0.21737,0.2334 -0.32692,0.34926 -0.10674,0.1144 -0.21695,0.22513 -0.3144,0.34794 -0.10974,0.13499 -0.23227,0.25824 -0.35111,0.38514 -0.081,0.0802 -0.16086,0.16116 -0.2474,0.2356 -0.0716,0.0768 -0.14377,0.15278 -0.23374,0.2086 -0.1032,0.0709 -0.20635,0.142 -0.30135,0.22394 -0.0528,0.0428 -0.10231,0.0896 -0.15427,0.13353 -0.0956,0.11342 -0.19252,0.22568 -0.27528,0.34943 -0.16448,0.24349 -0.31599,0.49567 -0.48877,0.73348 -0.12272,0.17266 -0.25013,0.34213 -0.36415,0.52079 -0.0772,0.12507 -0.15699,0.2484 -0.23706,0.37157 0,0 -0.43219,0.1891 -0.43219,0.1891 z"
     inkscape:connector-curvature="0" />
  <path
     style="fill:#395bb2;fill-opacity:1;stroke-width:1"
     d="m 301.75644,154.70075 c -0.0375,-0.0375 0.0485,-0.17716 0.35927,-0.58316 0.97373,-1.27222 2.59071,-3.19998 3.36965,-4.01728 0.26403,-0.27704 0.59078,-0.64247 0.72611,-0.81209 0.43418,-0.54416 2.1591,-2.38357 3.77475,-4.02528 0.51308,-0.52137 2.06742,-2.05437 3.45407,-3.40667 1.38665,-1.35231 2.63544,-2.57037 2.77508,-2.70682 l 0.2539,-0.24807 -1.32866,-1.32917 c -0.88741,-0.88774 -1.31136,-1.33985 -1.27658,-1.36135 0.0343,-0.0212 0.54342,0.45862 1.48925,1.40341 l 1.43718,1.43558 -0.14147,0.12712 c -0.0778,0.0699 -0.41687,0.36497 -0.75347,0.65567 -4.69898,4.05822 -9.25414,8.84063 -13.27931,13.94179 -0.41376,0.52436 -0.76538,0.9584 -0.78137,0.96451 -0.016,0.006 -0.0513,-0.0111 -0.0784,-0.0382 z"
     id="path8281"
     inkscape:connector-curvature="0"
     transform="scale(0.75000001)" />
  <path
     style="fill:#395bb2;fill-opacity:1;stroke-width:1"
     d="m 299.65354,157.16997 -0.20305,-0.20615 0.14079,-0.11019 0.14079,-0.11018 0.15395,0.15032 0.15394,0.15032 0.3652,-0.52988 c 0.32773,-0.47554 0.55924,-0.73827 0.60777,-0.68974 0.01,0.01 -0.19986,0.31012 -0.46531,0.66797 -0.26545,0.35785 -0.5167,0.70307 -0.55833,0.76716 -0.0416,0.0641 -0.0885,0.11652 -0.1042,0.11652 -0.0157,0 -0.11987,-0.0928 -0.23155,-0.20615 z"
     id="path8283"
     inkscape:connector-curvature="0"
     transform="scale(0.75000001)" />
  <path
     style="fill:#395bb2;fill-opacity:1;stroke-width:0.75"
     id="path8285"
     d="m 235.24596,102.01742 c 0.0854,0.10999 0.18941,0.20415 0.29091,0.29881 0.15148,0.13538 0.30732,0.26574 0.46275,0.3965 0.0439,0.0402 0.0922,0.0747 0.14001,0.10998 0.0257,0.0227 0.0518,0.0447 0.0791,0.0656 0.0466,0.0318 0.0923,0.0649 0.1393,0.0962 0.038,0.0284 0.0754,0.0577 0.11407,0.0851 0.009,0.007 0.0196,0.0118 0.0277,0.0197 0.008,0.008 0.0146,0.0185 0.0211,0.0263 0.005,0.007 0.0111,0.0125 0.0166,0.0188 0.0434,0.0525 0.089,0.10295 0.13196,0.15573 0.0402,0.048 0.0768,0.0988 0.11184,0.15056 0.017,0.0232 0.0303,0.0487 0.0455,0.073 0.01,0.0165 0.0175,0.0343 0.0259,0.0514 0.0112,0.0232 0.0254,0.0448 0.0404,0.0656 0.0144,0.0201 0.0323,0.0372 0.0484,0.0559 0.0108,0.0133 0.0245,0.0229 0.038,0.0331 0.0203,0.0151 0.0361,0.035 0.0537,0.053 0.0212,0.0241 0.0457,0.0448 0.0697,0.066 0.0186,0.0145 0.0362,0.0301 0.0545,0.045 0.004,0.003 0.007,0.006 0.0103,0.008 0,0 -0.10329,0.0647 -0.10329,0.0647 v 0 c -0.004,-0.003 -0.007,-0.005 -0.0103,-0.008 -0.0186,-0.0148 -0.0369,-0.0301 -0.055,-0.0455 -0.0236,-0.0217 -0.0476,-0.0433 -0.0694,-0.067 -0.0175,-0.0175 -0.0337,-0.0362 -0.0541,-0.0506 -0.0143,-0.0105 -0.0277,-0.0219 -0.0389,-0.0358 -0.0161,-0.019 -0.0341,-0.0365 -0.0485,-0.057 -0.0153,-0.0215 -0.0299,-0.0434 -0.0418,-0.0669 -0.009,-0.0167 -0.016,-0.0342 -0.0254,-0.0506 -0.0148,-0.0244 -0.0272,-0.0502 -0.0434,-0.0738 -0.0333,-0.0523 -0.0688,-0.10328 -0.10852,-0.15105 -0.0435,-0.0523 -0.0898,-0.1021 -0.1339,-0.15383 -0.0208,-0.022 -0.0397,-0.0457 -0.0656,-0.0621 -0.0373,-0.0287 -0.074,-0.0583 -0.11235,-0.0856 -0.0466,-0.0321 -0.0925,-0.0654 -0.13993,-0.0964 -0.0281,-0.0202 -0.0547,-0.042 -0.0807,-0.0647 -0.0459,-0.0365 -0.0901,-0.0749 -0.13214,-0.11583 -0.14938,-0.13653 -0.30269,-0.26866 -0.45572,-0.40108 -0.10562,-0.0934 -0.21272,-0.18587 -0.30729,-0.29078 0,0 0.10444,-0.0626 0.10444,-0.0626 z"
     inkscape:connector-curvature="0" />
  <path
     style="fill:#395bb2;fill-opacity:1;stroke-width:0.75"
     id="path8289"
     d="m 237.32331,104.22775 c -0.0258,-0.0301 -0.0513,-0.0603 -0.0746,-0.0924 -0.0388,-0.0525 -0.0767,-0.10613 -0.11966,-0.15542 -0.012,-0.0138 -0.0247,-0.027 -0.037,-0.0405 -0.08,-0.0859 -0.16475,-0.16749 -0.25,-0.24822 -0.0446,-0.0426 -0.0908,-0.0835 -0.1377,-0.12369 -0.019,-0.0155 -0.0393,-0.0292 -0.0607,-0.0413 -0.0142,-0.0102 -0.0295,-0.0184 -0.0439,-0.0283 -0.0263,-0.0143 -0.0529,-0.0281 -0.0795,-0.0417 -0.0447,-0.0182 -0.0864,-0.0412 -0.12551,-0.0695 -0.007,-0.005 -0.0135,-0.01 -0.0199,-0.015 -0.0119,-0.01 -0.0348,-0.0327 -0.0451,-0.0421 -0.0316,-0.0289 -0.0638,-0.057 -0.096,-0.0852 -0.0519,-0.0461 -0.10725,-0.0878 -0.16713,-0.12284 -0.0337,-0.0196 -0.0679,-0.0383 -0.10039,-0.0599 -0.0206,-0.013 -0.036,-0.0307 -0.0493,-0.0508 -0.0197,-0.0316 -0.0378,-0.064 -0.0561,-0.0964 -0.0208,-0.0376 -0.0471,-0.0718 -0.0707,-0.10775 -0.0344,-0.0496 -0.0631,-0.1028 -0.0946,-0.15424 -0.0246,-0.0402 -0.0545,-0.0766 -0.0835,-0.11368 -0.0179,-0.0218 -0.0379,-0.0417 -0.0562,-0.0631 -0.0232,-0.0267 -0.0515,-0.0481 -0.0792,-0.0698 -0.0236,-0.0209 -0.0493,-0.0393 -0.0721,-0.061 -0.0262,-0.024 -0.0516,-0.0487 -0.0769,-0.0736 -0.029,-0.0296 -0.0594,-0.0578 -0.0889,-0.0869 -0.018,-0.019 -0.0385,-0.0365 -0.0511,-0.0596 -0.007,-0.0128 -0.008,-0.0272 -0.008,-0.0415 -0.001,-0.0705 0.0272,-0.0534 0.11375,-0.10415 0.0269,0.0308 0.0566,0.0587 0.087,0.0861 0.0541,0.045 0.11158,0.0864 0.17231,0.1221 0.0205,0.0121 0.0656,0.0359 0.0879,0.0478 0.0394,0.0204 0.0789,0.0406 0.11694,0.0635 0.0271,0.019 0.0507,0.0421 0.0755,0.0637 0.0285,0.0247 0.0538,0.052 0.0753,0.083 0.0289,0.0419 0.0612,0.0814 0.0937,0.12055 0.0212,0.0224 0.0392,0.0473 0.0586,0.071 0.0156,0.0169 0.0305,0.0346 0.0466,0.051 0.0238,0.0315 0.0499,0.0611 0.0756,0.091 0.0267,0.0309 0.0548,0.0607 0.0844,0.0889 0.021,0.0195 0.043,0.038 0.0623,0.0592 0.033,0.0483 -0.0577,0.0568 -0.10515,0.076 -0.004,0.002 -0.006,-0.005 -0.009,-0.008 -0.004,-0.003 -0.007,-0.007 -0.0103,-0.01 -0.0387,-0.038 -0.0857,-0.0656 -0.1308,-0.0952 -0.0481,-0.0314 -0.0946,-0.0658 -0.13878,-0.10267 -0.0294,-0.0249 -0.0572,-0.0514 -0.084,-0.079 -0.0221,-0.0245 -0.0425,-0.0504 -0.0617,-0.0771 -0.0124,-0.0171 -0.0229,-0.0354 -0.0339,-0.0533 -0.0106,-0.0164 -0.0195,-0.0338 -0.0294,-0.0506 -0.0125,-0.0211 -0.0271,-0.0407 -0.0453,-0.0572 -0.0111,-0.0121 -0.0255,-0.0199 -0.039,-0.0289 -0.0201,-0.015 -0.0419,-0.0275 -0.0635,-0.0403 -0.0276,-0.0154 -0.0565,-0.0271 -0.0874,-0.0337 -0.0217,-0.004 -0.0434,-0.008 -0.0656,-0.01 -0.0155,-0.002 -0.0373,-0.011 -0.0239,-0.03 0.0119,-0.008 0.0234,-0.0157 0.0328,-0.0266 0.0986,-0.11302 0.12361,-0.0721 0.1733,0.001 0.0675,0.10119 0.13797,0.20106 0.21561,0.29482 0.0205,0.0248 0.0423,0.0487 0.0634,0.073 0.0879,0.094 0.17924,0.18477 0.27234,0.27358 0.0247,0.0237 0.0509,0.0458 0.0736,0.0715 0.0132,0.0141 0.0301,0.0232 0.0449,0.0353 0.0223,0.0185 0.0463,0.0345 0.0709,0.0496 0.0302,0.0175 0.0605,0.0354 0.0868,0.0587 0.0187,0.0159 0.0327,0.0364 0.0484,0.0551 0.0323,0.0409 0.0671,0.0797 0.10273,0.11768 0.0242,0.027 0.0518,0.0508 0.0762,0.0776 0.0291,0.0448 -0.0302,0.0391 -0.10221,0.077 -0.002,0.002 -0.005,-0.003 -0.008,-0.004 -0.009,-0.004 -0.0185,-0.008 -0.0276,-0.0115 -0.0847,-0.0365 -0.15881,-0.0932 -0.23196,-0.14856 -0.0596,-0.0509 -0.12735,-0.0946 -0.17932,-0.15391 -0.0304,-0.0515 0.0572,-0.055 0.11302,-0.0716 0.008,-0.002 0.014,0.007 0.021,0.0113 0.0536,0.0296 0.001,0.001 0.0599,0.0324 0.0748,0.0359 0.14254,0.0839 0.21371,0.12613 0.0243,0.0139 0.0477,0.0303 0.0739,0.0406 0.004,0.001 0.008,0.004 0.0119,0.004 0.002,-1.2e-4 0.007,-0.005 0.004,-0.004 -0.0346,0.0187 -0.0686,0.0384 -0.10291,0.0576 -0.004,-0.0259 -0.0221,-0.0498 -0.0369,-0.0704 -0.022,-0.0304 -0.0388,-0.0502 -0.063,-0.0797 -0.0678,-0.0808 -0.14217,-0.15561 -0.22586,-0.2199 -0.026,-0.0194 -0.0535,-0.0368 -0.0811,-0.0538 -5.4e-4,-3.3e-4 -0.0286,-0.0172 -0.0319,-0.0184 -0.003,-7.5e-4 -0.006,-6e-4 -0.009,-7.5e-4 -0.0307,0.0357 0.005,-0.007 0.0963,-0.0508 0.002,-0.002 -0.001,0.005 -7.5e-4,0.008 7.2e-4,0.006 0.002,0.0113 0.005,0.0167 0.009,0.0271 0.0103,0.0265 0.025,0.0529 0.0494,0.0785 0.11498,0.1437 0.18536,0.20322 0.047,0.0364 0.0965,0.0718 0.15453,0.0875 1.5e-4,0.0151 0.0175,-0.008 0.0131,-0.006 -0.0345,0.0175 -0.0661,0.0409 -0.10158,0.0565 -0.004,0.002 0,-0.008 -7.5e-4,-0.0116 -0.002,-0.005 -0.0159,-0.0421 -0.0161,-0.0425 -0.0204,-0.0508 -0.0465,-0.0989 -0.0709,-0.14778 -0.0234,-0.0476 0.001,-0.0268 0.10511,-0.0682 0.003,-0.002 0.003,0.006 0.005,0.009 0.013,0.0247 0.004,0.008 0.0223,0.0404 0.065,0.10622 0.14721,0.20066 0.22972,0.29346 0.0637,0.0694 0.13272,0.13348 0.20185,0.19736 0.0194,0.0145 0.0358,0.0321 0.0533,0.0485 0.0126,0.0153 0.0271,0.0286 0.0417,0.042 0.0236,0.0215 0.0516,0.0364 0.08,0.0503 0.0253,0.0133 0.0518,0.0236 0.0781,0.0347 0.025,0.0138 0.0404,0.0385 0.0559,0.0616 0.0277,0.0403 0.054,0.0816 0.0822,0.12162 0.0479,0.0703 0.0517,0.0293 -0.0779,0.10186 -0.021,-0.0316 -0.0481,-0.059 -0.0732,-0.0874 -0.053,-0.0615 -0.10742,-0.12152 -0.16358,-0.18011 -0.0547,-0.0567 -0.11534,-0.10698 -0.17574,-0.15735 -0.0234,-0.0175 -0.0466,-0.0358 -0.0707,-0.0522 -0.0104,-0.005 -0.0214,-0.0192 -0.0326,-0.0225 -7.5e-4,-2.7e-4 -0.004,0.002 -0.002,0.002 0.0352,-0.0204 0.0707,-0.0406 0.10598,-0.0608 0.0391,0.0484 0.0864,0.0894 0.13214,0.13122 0.0771,0.0707 0.16082,0.13359 0.2457,0.19453 0.0302,0.0209 0.0607,0.0422 0.0852,0.0699 0.0167,0.0165 0.0315,0.0348 0.0476,0.0519 0.0274,0.028 0.0557,0.0551 0.0855,0.0805 0.0137,0.0133 0.0291,0.0245 0.0433,0.0372 0.0139,0.0134 0.0263,0.0286 0.0379,0.0441 0.0152,0.0165 0.0297,0.0334 0.0418,0.0523 0.0105,0.0152 0.0222,0.0294 0.0334,0.0441 0.009,0.0104 0.0188,0.0194 0.0248,0.0319 0.0128,0.0454 0.005,0.0117 -0.10493,0.073 -0.002,10e-4 -0.005,-0.003 -0.008,-0.005 -0.0114,-0.005 -0.0224,-0.0105 -0.0335,-0.0169 -0.0328,-0.0182 -0.0646,-0.0383 -0.095,-0.0602 -0.0247,-0.0176 -0.0466,-0.0379 -0.0665,-0.0605 -0.014,-0.0173 -0.0302,-0.0333 -0.0426,-0.0519 0.0369,-0.0203 0.0718,-0.0446 0.11069,-0.0609 0.004,-0.002 0.007,0.007 0.01,0.0103 0.005,0.006 0.0104,0.0115 0.0156,0.0173 0.0284,0.0321 0.058,0.0624 0.0884,0.0927 0.0464,0.0442 0.097,0.0838 0.14693,0.12386 0,0 -0.0998,0.0623 -0.0998,0.0623 v 0 c -0.0482,-0.0422 -0.0977,-0.0827 -0.14491,-0.12604 -0.0317,-0.0296 -0.0624,-0.0597 -0.0932,-0.0902 -0.005,-0.005 -0.0111,-0.0108 -0.0169,-0.016 -0.003,-0.003 -0.0123,-0.005 -0.009,-0.008 0.0308,-0.0256 0.0664,-0.0451 0.0996,-0.0677 0.009,0.0194 0.0275,0.0337 0.0398,0.0508 0.0194,0.0219 0.0413,0.0409 0.0649,0.0585 0.0299,0.0219 0.0613,0.0418 0.0944,0.0586 0.0103,0.005 0.0137,0.007 0.0242,0.0107 0.003,7.5e-4 0.006,0.002 0.009,0.002 0.002,5e-5 0.005,-0.003 0.005,-0.002 -0.10227,0.0675 -0.12192,0.0995 -0.0998,0.064 -0.005,-0.0119 -0.0163,-0.0191 -0.023,-0.0296 -0.0114,-0.0149 -0.0229,-0.0297 -0.0334,-0.0452 -0.0119,-0.0187 -0.0268,-0.0349 -0.0415,-0.0513 -0.0112,-0.0148 -0.0232,-0.0293 -0.037,-0.0419 -0.0143,-0.0125 -0.029,-0.0243 -0.0421,-0.0379 -0.029,-0.0267 -0.0575,-0.054 -0.0859,-0.0814 -0.0168,-0.0168 -0.0325,-0.0346 -0.0488,-0.0519 -0.0232,-0.0268 -0.0519,-0.0486 -0.0799,-0.0702 -0.0828,-0.0635 -0.16467,-0.12832 -0.24299,-0.19734 -0.0502,-0.0425 -0.10224,-0.0842 -0.14527,-0.13411 0.11462,-0.0725 0.0783,-0.0878 0.14208,-0.0407 0.024,0.0169 0.0466,0.0358 0.0691,0.0548 0.0587,0.0525 0.11767,0.10472 0.17408,0.15971 0.056,0.0589 0.11072,0.11911 0.16512,0.17955 0.0262,0.0284 0.0545,0.0551 0.0783,0.0856 -0.12751,0.0804 -0.0823,0.0994 -0.10988,0.0565 -0.007,-0.0115 -0.0161,-0.022 -0.0226,-0.034 -0.0268,-0.0409 -0.0529,-0.0823 -0.0822,-0.12158 -0.0148,-0.0211 -0.0299,-0.0432 -0.0536,-0.055 -0.0259,-0.0119 -0.0523,-0.0226 -0.0775,-0.0358 -0.0292,-0.0147 -0.0578,-0.0308 -0.0823,-0.0527 -0.0149,-0.0133 -0.0298,-0.0265 -0.0426,-0.0419 -0.0168,-0.0169 -0.0335,-0.0338 -0.051,-0.05 -0.0651,-0.0674 -0.13125,-0.13369 -0.19453,-0.20277 -0.0832,-0.0936 -0.16663,-0.18768 -0.23765,-0.29108 -0.0355,-0.0528 -0.003,-0.004 -0.0254,-0.0389 -0.001,-0.003 -0.009,-0.007 -0.006,-0.009 0.15969,-0.11492 0.0935,-0.0976 0.10734,-0.0534 0.0207,0.0508 0.0476,0.0987 0.0694,0.14901 0.001,0.005 0.0261,0.0556 0.0229,0.0584 -0.0511,0.0454 -0.071,0.0863 -0.12206,0.0722 -0.0566,-0.0209 -0.10568,-0.0568 -0.15239,-0.0945 -0.0707,-0.0611 -0.13685,-0.12771 -0.18955,-0.20538 -0.0361,-0.0605 -0.0949,-0.16863 0.079,-0.15543 0.0149,0.006 0.0277,0.0152 0.041,0.0242 0.0269,0.0182 0.0536,0.0364 0.0792,0.0562 0.0824,0.0667 0.15565,0.14313 0.22508,0.22316 0.0414,0.0481 0.091,0.0954 0.11321,0.15619 -0.0355,0.0233 -0.07,0.0481 -0.10643,0.0697 -0.002,0.002 -0.0155,-0.005 -0.0193,-0.007 -0.0247,-0.0129 -0.0475,-0.029 -0.0711,-0.0436 -0.0704,-0.0434 -0.13964,-0.0888 -0.21418,-0.12488 -0.002,-7.1e-4 -0.0578,-0.0292 -0.0615,-0.0309 -0.007,-0.004 -0.0282,-0.004 -0.0223,-0.009 0.0277,-0.0264 0.066,-0.039 0.0969,-0.0617 0.002,-0.002 -0.005,-0.006 -0.007,-0.005 -0.002,0.002 0.002,0.005 0.002,0.008 0.0461,0.0621 0.1133,0.10563 0.17127,0.15546 0.0738,0.0548 0.14918,0.11059 0.23656,0.14181 0.004,10e-4 0.0226,0.008 0.0287,0.01 0.001,4e-4 0.007,-7.5e-4 0.006,9e-5 -0.20595,0.13974 -0.0851,0.0938 -0.10226,0.0596 -0.0226,-0.0278 -0.0501,-0.0515 -0.0734,-0.0787 -0.0356,-0.0383 -0.0704,-0.0773 -0.10405,-0.11735 -0.0162,-0.0178 -0.0313,-0.0366 -0.0487,-0.0533 -0.0254,-0.023 -0.0552,-0.0401 -0.0848,-0.0573 -0.0253,-0.0153 -0.0499,-0.0313 -0.0729,-0.0502 -0.0157,-0.0121 -0.0333,-0.0218 -0.0463,-0.0371 -0.0218,-0.0256 -0.0457,-0.0491 -0.069,-0.0733 -0.0881,-0.093 -0.17669,-0.18557 -0.26344,-0.27984 -0.0215,-0.0243 -0.0435,-0.0482 -0.0644,-0.073 -0.0468,-0.0552 -0.0661,-0.0824 -0.10969,-0.13856 -0.0388,-0.05 -0.0785,-0.0995 -0.1147,-0.15158 -0.0163,-0.0204 -0.0207,-0.0281 -0.038,-0.0439 -0.004,-0.003 -0.007,-0.006 -0.0108,-0.008 -0.001,-7.5e-4 -0.006,1e-4 -0.004,-7.5e-4 0.0866,-0.0536 0.13807,-0.073 0.0945,-0.0563 -0.009,0.0119 -0.0179,0.0224 -0.0312,0.0295 -0.006,10e-4 -0.004,10e-4 -0.01,-4.8e-4 -5.5e-4,-2.2e-4 -0.002,-7.5e-4 -0.001,-7.5e-4 0.006,0.004 0.013,0.005 0.0202,0.006 0.0224,0.002 0.0444,0.007 0.0664,0.0116 0.0312,0.008 0.0605,0.0215 0.0886,0.0372 0.0221,0.0127 0.0446,0.025 0.0654,0.0398 0.0141,0.009 0.0281,0.0187 0.0395,0.0311 0.0183,0.0179 0.0337,0.0383 0.0469,0.0602 0.0101,0.0167 0.0197,0.0337 0.03,0.0502 0.0106,0.0179 0.0206,0.0361 0.0326,0.053 0.0185,0.0265 0.0383,0.052 0.06,0.0759 0.0264,0.0273 0.0542,0.0532 0.0825,0.0786 0.0433,0.0369 0.0891,0.071 0.13661,0.10239 0.0458,0.0302 0.0941,0.0576 0.13476,0.0948 0.004,0.003 0.007,0.006 0.0103,0.009 0.002,0.002 0.008,0.002 0.006,0.003 -0.0334,0.0209 -0.13114,0.0407 -0.0993,0.0639 0.002,0.002 0.004,-0.0142 -0.001,-0.005 -0.0181,-0.0217 -0.0403,-0.0394 -0.0607,-0.059 -0.0293,-0.0289 -0.0569,-0.0595 -0.0839,-0.0905 -0.0255,-0.0299 -0.0521,-0.0589 -0.0774,-0.089 -0.0162,-0.0168 -0.0308,-0.0351 -0.0466,-0.0522 -0.0193,-0.0238 -0.0368,-0.0489 -0.0572,-0.0718 -0.0318,-0.0401 -0.064,-0.0799 -0.0944,-0.12109 -0.0217,-0.0296 -0.0463,-0.0563 -0.074,-0.0804 -0.0245,-0.0212 -0.0484,-0.0433 -0.0753,-0.0615 -0.037,-0.0227 -0.0741,-0.0449 -0.11184,-0.0662 -0.0907,-0.052 -0.18149,-0.10459 -0.26248,-0.17131 -0.0135,-0.0112 -0.0388,-0.0318 -0.0529,-0.0445 -0.006,-0.005 -0.0233,-0.0259 -0.0308,-0.0295 -6.8e-4,-3.3e-4 -0.001,7.5e-4 -0.001,10e-4 0.0339,-0.0206 0.0677,-0.0412 0.10158,-0.0617 -0.004,0.004 -0.004,0.004 -0.007,0.0101 -0.002,0.008 -7.5e-4,0.0161 -0.001,0.0242 1.8e-4,0.0124 -1e-5,0.025 0.005,0.0365 0.0113,0.0223 0.031,0.0391 0.0476,0.0574 0.0292,0.0294 0.0596,0.0575 0.0889,0.0868 0.0255,0.0247 0.0511,0.0491 0.0776,0.0729 0.0228,0.0211 0.0478,0.0399 0.0713,0.0603 0.028,0.0226 0.0563,0.0448 0.0804,0.0717 0.0188,0.0213 0.0394,0.0411 0.0565,0.0638 0.0281,0.0381 0.0567,0.0759 0.0813,0.11639 0.0312,0.0515 0.0609,0.10393 0.0963,0.15271 0.0239,0.036 0.0498,0.0707 0.0708,0.10859 0.0185,0.032 0.0371,0.0638 0.0573,0.0947 0.0128,0.0185 0.0274,0.0348 0.0466,0.0469 0.0318,0.0214 0.0647,0.0413 0.0976,0.0609 0.019,0.0115 0.0339,0.0202 0.0521,0.0331 0.0401,0.0283 0.0767,0.0612 0.11402,0.093 0.0323,0.0284 0.0647,0.0566 0.0974,0.0846 0.0155,0.0132 0.0302,0.0273 0.0461,0.0401 0.007,0.005 0.0133,0.01 0.0199,0.0148 0.0391,0.0277 0.081,0.0497 0.12556,0.0673 0.0273,0.0138 0.0546,0.0276 0.0816,0.0422 0.0144,0.009 0.0293,0.0179 0.0434,0.0278 0.0214,0.013 0.0421,0.0271 0.0605,0.0442 0.0454,0.0413 0.0897,0.0837 0.1332,0.12705 0.0843,0.082 0.16725,0.16535 0.24964,0.2492 0.0239,0.0254 0.0489,0.051 0.0713,0.0778 0.0315,0.0376 0.0594,0.0784 0.0902,0.11661 0.024,0.031 0.0493,0.061 0.0769,0.089 0,0 -0.1049,0.0643 -0.1049,0.0643 z"
     inkscape:connector-curvature="0" />
  <path
     style="fill:#395bb2;fill-opacity:1;stroke-width:0.75"
     id="path8291"
     d="m 224.78636,118.00601 c -0.0152,-0.0267 -0.0321,-0.0524 -0.0476,-0.0789 -0.0166,-0.0316 -0.0305,-0.0645 -0.0456,-0.0969 -0.009,-0.0191 -0.0214,-0.0358 -0.0325,-0.0536 -0.008,-0.0115 -0.0164,-0.0229 -0.0268,-0.0326 -0.0106,-0.0101 -0.0207,-0.0206 -0.0303,-0.0316 -0.0154,-0.0188 -0.0289,-0.0394 -0.0412,-0.0604 -0.0153,-0.0241 -0.0272,-0.05 -0.041,-0.0749 -0.0229,-0.0425 -0.052,0.004 0.10397,-0.0636 0.002,-7.5e-4 0.002,0.005 0.004,0.008 0.002,0.004 0.009,0.0169 0.0111,0.0211 0.0129,0.0214 0.0248,0.0432 0.0356,0.0657 0.008,0.019 0.0139,0.0389 0.021,0.0584 0.006,0.0166 0.0144,0.0322 0.0226,0.0478 0.0246,0.0502 -0.0713,0.0946 -0.11815,0.0734 -0.0191,-0.01 -0.0337,-0.0255 -0.0488,-0.0404 -0.0161,-0.0175 -0.0368,-0.0315 -0.0501,-0.0515 -0.0188,-0.043 -0.007,-0.0121 0.10866,-0.065 0.003,-0.002 0.005,0.004 0.007,0.006 0.0119,0.0102 0.0226,0.0213 0.0334,0.0326 0.0293,0.0341 0.0591,0.0677 0.0899,0.10044 0.0175,0.0149 0.0365,0.0395 0.0614,0.0407 0.0373,-0.0311 -7.5e-4,0.003 -0.0904,0.0484 -0.004,0.002 0.005,-0.007 0.008,-0.01 7.4e-4,-7.5e-4 0.0179,-0.027 0.0183,-0.0275 0.0148,-0.0217 0.0294,-0.0436 0.0449,-0.0648 0.0127,-0.0154 0.0251,-0.0309 0.0365,-0.0473 0.009,-0.0104 0.0137,-0.0196 0.0107,-0.033 -0.004,-0.0179 -0.0136,-0.0322 -0.024,-0.0467 -0.0102,-0.0107 -0.0191,-0.0223 -0.0282,-0.0338 -0.009,-0.01 -0.0154,-0.0213 -0.0263,-0.0286 -0.0505,-0.0345 -0.0361,-0.002 0.0884,-0.0746 0.0161,0.0145 0.0319,0.0295 0.0476,0.0445 0.0181,0.0154 0.031,0.035 0.0428,0.0553 0.008,0.0165 0.0152,0.0338 0.0223,0.0509 0.008,0.0184 0.0185,0.0355 0.0292,0.0525 0.008,0.01 0.0154,0.0215 0.0253,0.03 0.007,0.008 0.0136,0.0139 0.0229,0.018 0.005,0.001 0.003,0.002 0.005,-1e-5 -0.0364,0.0201 -0.071,0.0437 -0.10912,0.0603 -1.2e-4,5e-5 -0.0233,-0.0233 -0.0328,-0.0323 -0.0296,-0.0247 -0.0521,-0.0558 -0.0744,-0.0869 -0.0181,-0.0199 -0.0275,-0.0463 -0.045,-0.0664 -0.0129,-0.0128 -0.0313,-0.0173 -0.0487,-0.0205 -0.007,-7.5e-4 -0.0136,-0.002 -0.0208,-7.5e-4 -0.002,4.8e-4 -0.009,0.004 -0.007,0.003 0.034,-0.0192 0.0683,-0.0378 0.10218,-0.057 7.5e-4,-4.5e-4 -0.002,-7e-5 -0.002,7.5e-4 -5.9e-4,0.002 2.4e-4,0.003 3.6e-4,0.005 0.008,0.0202 0.024,0.0354 0.0406,0.0487 0.0451,0.0367 0.0262,0.0162 -0.0935,0.0769 -0.003,10e-4 -0.005,-0.004 -0.007,-0.005 -0.003,-0.002 -0.007,-0.004 -0.01,-0.007 -0.011,-0.006 -0.0209,-0.0137 -0.0326,-0.0183 -0.002,-7.5e-4 -0.005,-0.002 -0.007,-0.002 -10e-4,2.4e-4 -0.004,0.004 -0.002,0.004 0.035,-0.0193 0.0693,-0.0397 0.10396,-0.0596 0.001,0.0167 0.0106,0.0346 0.0226,0.0465 5.9e-4,1.6e-4 0.002,1.7e-4 0.001,4.7e-4 -0.1531,0.0836 -0.0811,0.0893 -0.11484,0.0515 -0.005,-0.005 -0.01,-0.01 -0.0168,-0.0117 -10e-4,0.0456 -10e-4,0 0.10303,-0.0547 0.001,-7.5e-4 -2.3e-4,0.004 -3e-5,0.006 3.6e-4,0.004 7.5e-4,0.008 0.001,0.0116 5.1e-4,0.003 0.006,0.0251 0.007,0.027 0.006,0.0288 0.0148,0.057 0.0212,0.0857 0.007,0.026 0.0114,0.0526 0.019,0.0784 0.009,0.0206 0.0181,0.0412 0.0295,0.0605 0.009,0.0136 0.0203,0.0264 0.0316,0.0384 0.008,0.0104 0.0157,0.0212 0.0214,0.0328 0.004,0.0104 7.5e-4,0.002 0.004,0.0131 3.2e-4,0.001 0.002,0.004 7.5e-4,0.004 -10e-4,-0.002 -7.3e-4,-0.007 -0.002,-0.006 -0.1081,0.0523 -0.10618,0.0989 -0.10585,0.0505 -0.003,-0.0335 -0.009,-0.0667 -0.0135,-0.1 -0.006,-0.0423 -0.0184,-0.0831 -0.0308,-0.1238 -0.0102,-0.0363 -0.0238,-0.0712 -0.0448,-0.10246 -0.0128,-0.0217 -0.0307,-0.0394 -0.0465,-0.0586 -0.0186,-0.0254 -0.0417,-0.0465 -0.0653,-0.067 -0.002,-0.002 -0.005,-0.004 -0.007,-0.006 0,0 0.10425,-0.0645 0.10425,-0.0645 v 0 c 0.002,0.002 0.004,0.005 0.007,0.007 0.0231,0.0218 0.0465,0.0433 0.0662,0.0683 0.0168,0.019 0.0335,0.0382 0.0465,0.0602 0.0213,0.0326 0.0354,0.0684 0.0461,0.10585 0.0124,0.0413 0.025,0.0827 0.0317,0.12531 0.005,0.0332 0.0106,0.0665 0.0157,0.0997 5.2e-4,0.003 0.004,0.007 0.001,0.009 -0.0106,0.008 -0.0894,0.10629 -0.11065,0.0615 -0.002,-0.004 -7.5e-4,-0.0102 -0.004,-0.0145 -0.005,-0.0106 -0.0121,-0.0206 -0.0193,-0.03 -0.0116,-0.013 -0.0234,-0.0262 -0.0327,-0.041 -0.0113,-0.0204 -0.0213,-0.0418 -0.0305,-0.0632 -0.008,-0.0261 -0.0121,-0.053 -0.019,-0.0794 -0.006,-0.0286 -0.0148,-0.0567 -0.021,-0.0854 -0.003,-0.013 -0.007,-0.0259 -0.01,-0.0391 -7.5e-4,-0.003 -0.005,-0.008 -0.002,-0.01 0.0979,-0.0759 0.0684,-0.0891 0.11117,-0.0667 0.0595,0.0409 0.006,0.0406 -0.0762,0.0939 -7.5e-4,7e-4 -0.001,-0.002 -0.002,-0.003 -0.013,-0.0167 -0.0222,-0.0364 -0.0284,-0.0566 0.11489,-0.0741 0.0789,-0.0869 0.15255,-0.0433 0.004,0.002 0.007,0.005 0.0101,0.006 0.002,0.002 0.009,0.002 0.007,0.003 -0.10639,0.0785 -0.0728,0.0917 -0.11268,0.0567 -0.0182,-0.0155 -0.0354,-0.0326 -0.0454,-0.0548 -0.0231,-0.0667 0.0839,-0.0902 0.13604,-0.0787 0.0198,0.004 0.0399,0.0114 0.0538,0.0271 0.0163,0.0214 0.0256,0.0477 0.0435,0.0682 0.0219,0.0305 0.0446,0.0605 0.0737,0.0846 0.003,0.003 0.0351,0.0324 0.0348,0.0327 -0.10556,0.10194 -0.0615,0.0924 -0.10404,0.0706 -0.01,-0.005 -0.0175,-0.013 -0.0248,-0.0212 -0.01,-0.0102 -0.0179,-0.0217 -0.0262,-0.0329 -0.0108,-0.0176 -0.0216,-0.0353 -0.0302,-0.0542 -0.007,-0.0166 -0.0136,-0.0333 -0.0213,-0.0495 -0.0113,-0.0194 -0.023,-0.0382 -0.0405,-0.0526 -0.0161,-0.0152 -0.0325,-0.0299 -0.0492,-0.0443 0.10532,-0.073 0.0702,-0.0912 0.12111,-0.0553 0.0108,0.009 0.019,0.0206 0.0281,0.0314 0.009,0.0118 0.0184,0.0231 0.028,0.0344 0.0113,0.0157 0.0214,0.0315 0.0266,0.0505 0.005,0.0173 0.005,0.0281 -0.006,0.0431 -0.0126,0.0155 -0.0224,0.0333 -0.0368,0.0475 -0.0163,0.0209 -0.0312,0.0428 -0.0463,0.0646 -0.0465,0.07 -0.005,0.03 -0.1346,0.10766 -0.004,0.002 -0.009,6.4e-4 -0.0132,2e-5 -0.0254,-0.009 -0.0446,-0.0293 -0.0631,-0.0483 -0.0305,-0.033 -0.0603,-0.0665 -0.0905,-0.0997 -0.0106,-0.0105 -0.0211,-0.0215 -0.0336,-0.0298 -0.002,-0.002 -0.009,-0.002 -0.007,-0.004 0.0981,-0.0683 0.13573,-0.0393 0.10073,-0.0652 0.01,0.0203 0.0334,0.0321 0.0474,0.0494 0.014,0.0134 0.0279,0.0283 0.0466,0.0349 0.001,2.5e-4 0.004,7.5e-4 0.005,7.4e-4 0.002,-2e-5 0.005,-0.001 0.004,-7.5e-4 -0.034,0.0208 -0.0691,0.0398 -0.10291,0.0611 -0.001,7.5e-4 0.0125,0.002 0.003,-0.005 -0.007,-0.0164 -0.0165,-0.0322 -0.0227,-0.0492 -0.007,-0.0191 -0.0129,-0.0385 -0.0203,-0.0574 -0.0105,-0.0224 -0.0217,-0.0443 -0.0349,-0.0653 -0.002,-0.002 -0.0166,-0.029 -0.0164,-0.0292 0.0852,-0.0643 0.0899,-0.10485 0.10965,-0.057 0.0126,0.0254 0.0254,0.0506 0.0405,0.0745 0.0121,0.0203 0.025,0.0404 0.0408,0.058 0.01,0.0107 0.0199,0.0206 0.0301,0.0307 0.0106,0.0108 0.0199,0.0226 0.0282,0.0353 0.0111,0.0183 0.0235,0.0359 0.0319,0.0556 0.0143,0.0323 0.0286,0.0646 0.0453,0.0958 0.0151,0.0265 0.0313,0.0523 0.0485,0.0775 0,0 -0.10612,0.0622 -0.10612,0.0622 z"
     inkscape:connector-curvature="0" />
  <path
     style="fill:#395bb2;fill-opacity:1;stroke-width:0.75"
     id="path8293"
     d="m 142.66165,32.788389 c -1.27337,1.022304 -2.7452,1.781775 -4.15244,2.592048 -0.21951,0.126531 -0.87775,0.506613 -0.65853,0.37959 0.28766,-0.166675 0.57134,-0.340511 0.86383,-0.49855 0.23847,-0.128848 -0.46705,0.275214 -0.70167,0.410933 -1.10078,0.636758 -2.20077,1.279652 -3.31121,1.900578 -1.27346,0.724362 0.9109,-0.518209 0.94123,-0.534625 0.0771,-0.04176 -0.14407,0.100181 -0.21461,0.152337 -0.13228,0.09781 -0.25388,0.201297 -0.36882,0.318463 -0.0197,-0.107134 -0.0426,0.09473 -0.0612,0.06995 -0.0886,-0.118039 -0.007,-0.146576 0.0879,-0.20014 0.0628,-0.03539 0.12566,-0.0709 0.1885,-0.106342 -3.59821,2.052101 0.43561,-0.242969 0.65064,-0.369253 0.386,-0.226689 -0.77093,0.457038 -1.17279,0.654245 -0.17848,0.08759 0.33414,-0.215546 0.50054,-0.324352 0.96017,-0.627851 0.0445,-0.03878 1.05461,-0.684509 1.62665,-1.018631 3.31805,-1.92735 5.0172,-2.817142 1.67461,-0.910852 -0.62022,0.334908 0.82235,-0.441193 0.10291,-0.05537 0.40839,-0.227324 0.30708,-0.169086 -2.55116,1.466577 -1.63807,0.999275 -1.13253,0.602472 0.52837,-0.489664 0.27765,-0.274451 1.84918,-0.76251 0.0542,-0.01683 -0.0353,0.108076 -0.0585,0.159862 -0.0904,0.201873 -0.22557,0.361862 -0.36796,0.528296 -0.42395,0.508567 -0.92716,0.940201 -1.40971,1.390719 -0.56242,0.548204 -1.16951,1.043073 -1.7944,1.517272 -0.48264,0.369143 -0.97221,0.728904 -1.45255,1.101012 -0.33517,0.22943 -0.65518,0.480735 -0.99266,0.706599 -0.44376,0.267934 -0.85742,0.580154 -1.26896,0.894219 -0.42655,0.326346 -0.81583,0.696416 -1.216,1.053435 -0.2679,0.215751 -0.52434,0.444339 -0.76053,0.694479 -0.26487,0.255341 -0.45873,0.565673 -0.66723,0.865388 -0.17913,0.266858 -0.36951,0.52581 -0.5518,0.790498 -0.20921,0.352839 -0.41639,0.707387 -0.61905,1.064204 -0.22598,0.388002 -0.47041,0.764494 -0.70454,1.147696 -0.21246,0.340668 -0.43524,0.671259 -0.70178,0.971981 -0.66877,0.591653 -1.41979,1.081127 -2.13858,1.608406 -0.98524,0.739299 -1.9566,1.497719 -2.90476,2.284095 -0.40804,0.340725 -0.8073,0.69174 -1.17305,1.077764 -0.18651,0.191761 -0.34391,0.408142 -0.50614,0.619951 -0.47403,0.345863 3.02581,-1.061691 -1.76363,0.752508 -0.0444,0.01683 0.0556,-0.07705 0.0848,-0.114561 0.12141,-0.156228 0.1129,-0.139383 0.2582,-0.29405 0.57437,-0.531362 1.17841,-1.030003 1.76908,-1.543298 0.84576,-0.762434 1.73851,-1.469316 2.61448,-2.196002 0.76493,-0.63385 1.5128,-1.288011 2.31459,-1.875399 0.84289,-0.592274 1.72562,-1.123961 2.58142,-1.696336 1.28261,-0.856429 2.60293,-1.654871 3.91773,-2.460538 0.24418,-0.152759 0.49046,-0.302224 0.73255,-0.458277 1.08882,-0.701844 0.45198,-0.321521 1.57808,-1.043315 0.79966,-0.512563 1.62076,-0.991349 2.43544,-1.479358 1.25915,-0.71785 2.48164,-1.493305 3.65636,-2.341936 0.6304,-0.453164 1.23384,-0.943425 1.8196,-1.452703 0.14607,-0.121285 0.26606,-0.265632 0.37933,-0.416496 0,0 1.79833,-0.781129 1.79833,-0.781129 v 0 c -0.11206,0.168178 -0.22562,0.334744 -0.38081,0.467693 -0.59964,0.524206 -1.22136,1.025012 -1.86762,1.490487 -1.18825,0.863459 -2.42304,1.656862 -3.70335,2.377805 -0.81758,0.488146 -1.6449,0.963042 -2.4477,1.475401 -1.00304,0.640146 -0.58934,0.408078 -1.55858,1.040253 -0.24052,0.156882 -0.48601,0.306037 -0.72901,0.459056 -1.30369,0.798142 -2.6106,1.593043 -3.8847,2.437838 -0.83526,0.581847 -1.71466,1.098395 -2.55128,1.679488 -0.81661,0.57625 -1.57057,1.231097 -2.33802,1.870346 -0.87247,0.727622 -1.77182,1.423439 -2.61124,2.190149 -0.57538,0.501316 -1.14733,1.006198 -1.72366,1.506304 -0.013,0.01315 -0.23217,0.233432 -0.2575,0.263747 -0.0296,0.03543 -0.039,0.09156 -0.0798,0.113233 -0.42323,0.225009 -2.03822,1.614176 -1.84913,0.817101 0.14387,-0.234964 0.33611,-0.439522 0.5052,-0.657261 0.39068,-0.386348 0.77459,-0.779755 1.21236,-1.116011 0.95942,-0.787324 1.94183,-1.546138 2.92587,-2.302265 0.68935,-0.525559 1.41315,-1.004373 2.08633,-1.551725 0.28246,-0.279215 0.50022,-0.603132 0.71503,-0.935598 0.2424,-0.377963 0.47062,-0.763786 0.71401,-1.141051 0.19718,-0.360711 0.41417,-0.71 0.60009,-1.07664 0.18468,-0.2649 0.36782,-0.530646 0.55362,-0.79411 0.21712,-0.297379 0.39072,-0.625271 0.65435,-0.885674 0.23183,-0.262124 0.47844,-0.509192 0.75913,-0.720057 0.42016,-0.343344 0.79707,-0.738329 1.22951,-1.067985 0.39955,-0.319568 0.80756,-0.631492 1.24139,-0.903463 0.34984,-0.211421 0.66083,-0.476498 1.00649,-0.694979 0.49459,-0.366471 0.9807,-0.74466 1.47583,-1.110814 0.62612,-0.468432 1.2425,-0.947754 1.80124,-1.497053 0.4707,-0.449303 0.97891,-0.862572 1.39374,-1.366444 0.0697,-0.07438 0.22216,-0.231684 0.28681,-0.319029 0.0344,-0.04654 0.0625,-0.09748 0.0919,-0.147395 0.0236,-0.04018 0.026,-0.100481 0.067,-0.122772 0.59614,-0.324566 1.21094,-0.613894 1.82343,-0.906451 0.0339,-0.01618 -0.0557,0.05027 -0.0836,0.07541 -0.11846,0.119287 -0.13896,0.15325 -0.29457,0.245695 -0.98438,0.584806 -1.96622,1.162858 -2.98597,1.681218 -0.55943,0.290462 -1.11525,0.58527 -1.66794,0.888396 -0.1954,0.107169 -0.7749,0.439959 -0.5867,0.320609 0.33045,-0.209552 0.67152,-0.402175 1.01394,-0.591539 0.19205,-0.106203 -0.37506,0.227961 -0.56259,0.341941 -0.51502,0.327269 -1.0147,0.686132 -1.53662,1.001762 -0.68862,0.416442 -1.38915,0.813004 -2.07737,1.230105 -0.41553,0.251833 1.68303,-0.971886 1.25922,-0.734258 -0.65269,0.365958 -1.29728,0.746186 -1.94591,1.119279 -0.12614,0.05201 -0.34035,0.185652 -0.47313,0.05457 -0.10719,-0.105818 -0.076,-0.154761 -0.0315,-0.270122 0.16725,-0.202861 0.37453,-0.400946 0.60048,-0.537496 1.18522,-0.716272 1.45818,-0.865101 2.32405,-1.347977 0.1573,-0.08754 0.31515,-0.174093 0.4719,-0.262615 0.19028,-0.10746 0.75653,-0.437824 0.56918,-0.325321 -0.30405,0.182586 -0.61113,0.36014 -0.91934,0.535598 -0.23618,0.134449 0.46816,-0.276155 0.70321,-0.412562 1.00756,-0.584716 1.96536,-1.137139 2.95844,-1.710219 -0.32468,0.189592 -0.64309,0.390374 -0.97405,0.568776 -0.18747,0.101052 0.36233,-0.223914 0.54312,-0.336485 0.37094,-0.230977 0.49162,-0.300593 0.83358,-0.543288 0.2438,-0.173019 0.27687,-0.204747 0.48503,-0.374467 0,0 1.81873,-0.737034 1.81873,-0.737034 z"
     inkscape:connector-curvature="0" />
  <path
     style="fill:#395bb2;fill-opacity:1;stroke-width:0.75"
     id="path8295"
     d="m 141.46626,31.559082 c 0.47375,0.400162 0.95744,0.786801 1.44644,1.168074 0.48448,0.381825 1.02004,0.691144 1.5166,1.0557 0.26392,0.177197 0.39053,0.475322 0.55919,0.732681 0.11353,0.187807 0.28188,0.298566 0.46996,0.399741 0.1879,0.109305 0.36097,0.236446 0.571,0.299857 0.13173,0.06711 0.0664,0.03648 0.19583,0.09246 0,0 -1.64069,1.090178 -1.64069,1.090178 v 0 c -0.12648,-0.05778 -0.064,-0.03043 -0.18743,-0.08228 -0.2088,-0.08876 -0.39464,-0.217779 -0.59253,-0.327842 -0.20437,-0.128979 -0.38709,-0.269238 -0.51269,-0.481955 -0.15146,-0.24059 -0.27265,-0.509903 -0.51013,-0.680517 -0.48803,-0.372254 -1.01208,-0.694031 -1.4949,-1.073516 -0.49598,-0.383395 -0.98403,-0.777134 -1.48791,-1.149971 0,0 1.66726,-1.042609 1.66726,-1.042609 z"
     inkscape:connector-curvature="0" />
  <path
     style="fill:#395bb2;fill-opacity:1;stroke-width:0.75"
     id="path8297"
     d="m 138.80972,34.052961 c 0.50143,0.308727 0.96898,0.666068 1.44247,1.015176 0.66921,0.484069 1.27803,1.042056 1.8788,1.606764 0.39345,0.401022 0.86477,0.699099 1.32962,1.006027 0.2326,0.214317 0.51137,0.340152 0.78475,0.486573 0.13864,0.09703 0.28642,0.169703 0.43761,0.243995 0,0 -1.64991,1.084305 -1.64991,1.084305 v 0 c -0.14794,-0.07745 -0.28857,-0.165166 -0.43169,-0.25094 -0.28132,-0.143464 -0.54082,-0.311931 -0.78772,-0.509917 -0.46526,-0.316216 -0.90934,-0.659012 -1.31072,-1.055405 -0.59578,-0.559816 -1.20496,-1.107353 -1.87168,-1.582712 -0.4816,-0.344735 -0.9586,-0.697169 -1.47901,-0.982598 0,0 1.65748,-1.061268 1.65748,-1.061268 z"
     inkscape:connector-curvature="0" />
  <path
     style="fill:#395bb2;fill-opacity:1;stroke-width:0.75"
     id="path8299"
     d="m 143.05725,30.896169 c 0.40391,0.355372 0.82011,0.696531 1.20626,1.071711 1.01208,0.978543 2.1538,1.806486 3.29678,2.62312 0.84232,0.578419 1.719,1.103211 2.61517,1.592901 0,0 -1.57751,1.025516 -1.57751,1.025516 v 0 c -0.87379,-0.521181 -1.73335,-1.065696 -2.57241,-1.641495 -1.1685,-0.81492 -2.33476,-1.645203 -3.40438,-2.587829 -0.39399,-0.365891 -0.80702,-0.710915 -1.23117,-1.041314 0,0 1.66726,-1.04261 1.66726,-1.04261 z"
     inkscape:connector-curvature="0" />
</svg>
