<?xml version="1.0" encoding="UTF-8" standalone="no"?>
<svg
   xmlns:dc="http://purl.org/dc/elements/1.1/"
   xmlns:cc="http://creativecommons.org/ns#"
   xmlns:rdf="http://www.w3.org/1999/02/22-rdf-syntax-ns#"
   xmlns:svg="http://www.w3.org/2000/svg"
   xmlns="http://www.w3.org/2000/svg"
   xmlns:xlink="http://www.w3.org/1999/xlink"
   xmlns:sodipodi="http://sodipodi.sourceforge.net/DTD/sodipodi-0.dtd"
   xmlns:inkscape="http://www.inkscape.org/namespaces/inkscape"
   width="520"
   zoomAndPan="magnify"
   viewBox="0 0 390 390"
   height="520"
   preserveAspectRatio="xMidYMid meet"
   version="1.0"
   id="svg354"
   sodipodi:docname="screen.svg"
   inkscape:version="0.92.5 (2060ec1f9f, 2020-04-08)">
  <metadata
     id="metadata358">
    <rdf:RDF>
      <cc:Work
         rdf:about="">
        <dc:format>image/svg+xml</dc:format>
        <dc:type
           rdf:resource="http://purl.org/dc/dcmitype/StillImage" />
        <dc:title></dc:title>
      </cc:Work>
    </rdf:RDF>
  </metadata>
  <sodipodi:namedview
     pagecolor="#ffffff"
     bordercolor="#666666"
     borderopacity="1"
     objecttolerance="10"
     gridtolerance="10"
     guidetolerance="10"
     inkscape:pageopacity="0"
     inkscape:pageshadow="2"
     inkscape:window-width="1848"
     inkscape:window-height="1016"
     id="namedview356"
     showgrid="false"
     inkscape:zoom="1.0429825"
     inkscape:cx="228.87501"
     inkscape:cy="299.5115"
     inkscape:window-x="72"
     inkscape:window-y="27"
     inkscape:window-maximized="1"
     inkscape:current-layer="svg354"
     showborder="true"
     borderlayer="false"
     inkscape:pagecheckerboard="true" />
  <defs
     id="defs42">
    <g
       id="g4">
      <g
         id="id1" />
      <g
         id="id2" />
    </g>
    <clipPath
       id="id3">
      <path
         d="M 110,383 H 377 V 685.24219 H 110 Z m 0,0"
         id="path6"
         inkscape:connector-curvature="0"
         style="clip-rule:nonzero" />
    </clipPath>
    <clipPath
       id="id4">
      <path
         d="m 148,550 h 82 v 135.24219 h -82 z m 0,0"
         id="path9"
         inkscape:connector-curvature="0"
         style="clip-rule:nonzero" />
    </clipPath>
    <clipPath
       id="id5">
      <path
         d="m 178.36719,609 h 275.28906 v 76.29297 H 178.36719 Z m 0,0"
         id="path12"
         inkscape:connector-curvature="0"
         style="clip-rule:nonzero" />
    </clipPath>
    <clipPath
       id="id6">
      <path
         d="M 298,426.62109 H 451 V 667 H 298 Z m 0,0"
         id="path15"
         inkscape:connector-curvature="0"
         style="clip-rule:nonzero" />
    </clipPath>
    <clipPath
       id="id7">
      <path
         d="m 261,673 h 192.65625 v 12.29297 H 261 Z m 0,0"
         id="path18"
         inkscape:connector-curvature="0"
         style="clip-rule:nonzero" />
    </clipPath>
    <clipPath
       id="id8">
      <path
         d="M 143.75,681.61328 H 369 V 684 H 143.75 Z m 0,0"
         id="path21"
         inkscape:connector-curvature="0"
         style="clip-rule:nonzero" />
    </clipPath>
    <clipPath
       id="id9">
      <path
         d="m 143.75,681.61328 h 227.09766 v 3.54688 H 143.75 Z m 0,0"
         id="path24"
         inkscape:connector-curvature="0"
         style="clip-rule:nonzero" />
    </clipPath>
    <clipPath
       id="id10">
      <path
         d="m 144,681.61328 h 77 V 683 h -77 z m 0,0"
         id="path27"
         inkscape:connector-curvature="0"
         style="clip-rule:nonzero" />
    </clipPath>
    <clipPath
       id="id11">
      <path
         d="M 143.75,681.61328 H 223 v 3.54688 h -79.25 z m 0,0"
         id="path30"
         inkscape:connector-curvature="0"
         style="clip-rule:nonzero" />
    </clipPath>
    <clipPath
       id="id12">
      <path
         d="M 250,681.61328 H 370.84766 V 683 H 250 Z m 0,0"
         id="path33"
         inkscape:connector-curvature="0"
         style="clip-rule:nonzero" />
    </clipPath>
    <clipPath
       id="id13">
      <path
         d="M 248,681.61328 H 370.84766 V 685 H 248 Z m 0,0"
         id="path36"
         inkscape:connector-curvature="0"
         style="clip-rule:nonzero" />
    </clipPath>
    <clipPath
       id="id14">
      <path
         d="m 237.07031,552.82031 h 83.63672 v 75.88672 h -83.63672 z m 0,0"
         id="path39"
         inkscape:connector-curvature="0"
         style="clip-rule:nonzero" />
    </clipPath>
    <clipPath
       clipPathUnits="userSpaceOnUse"
       id="clipPath999">
      <use
         x="0"
         y="0"
         xlink:href="#g995"
         id="use1001"
         width="100%"
         height="100%" />
    </clipPath>
  </defs>
  <g
     clip-path="url(#id3)"
     id="g56"
     transform="translate(-75.122092,-321.82207)">
    <path
       transform="matrix(0.142576,0,0,-0.142554,-60.100093,825.08916)"
       d="m 3014.6959,2223.1867 c -0.1918,0.3014 -0.1918,0.5206 -0.3836,0.822 l -698.4222,732.478 c -96.0837,94.4266 -108.9881,129.1173 -187.0989,129.1173 -60.6037,0 -102.8784,-39.897 -206.0855,-140.2973 l -675.2986,-721.2158 c -20.6031,-20.4965 -33.617,-49.5972 -33.617,-81.9862 V 1108.0972 c 0,-62.2021 47.6172,-112.64885 106.4127,-112.64885 h 1620.9029 c 58.6859,0 106.1935,50.44675 106.1935,112.64885 v 1034.0075 c 0,31.8957 -12.4934,60.5854 -32.6033,81.082 z m 0,0"
       stroke-miterlimit="10"
       id="path54"
       inkscape:connector-curvature="0"
       style="fill:none;stroke:#395bb2;stroke-width:30;stroke-linecap:round;stroke-linejoin:round;stroke-miterlimit:10;stroke-opacity:1" />
  </g>
  <path
     d="m 175.4365,310.71699 c -3.64843,0 -6.60156,-3.77734 -6.60156,-8.4375 V 239.4006 c 0,-4.66407 2.95313,-8.44141 6.60156,-8.44141 h 93.60157 c 3.64843,0 6.60156,3.77734 6.60156,8.44141 v 62.87889 c 0,4.66016 -2.95313,8.4375 -6.60156,8.4375 H 175.4365"
     id="path58"
     inkscape:connector-curvature="0"
     style="fill:#ffffff;fill-opacity:1;fill-rule:nonzero" />
  <path
     d="m 175.43689,310.71756 c -3.64845,0 -6.60157,-3.77732 -6.60157,-8.43747 v -62.8787 c 0,-4.66406 2.95312,-8.44138 6.60157,-8.44138 h 93.60167 c 3.64845,0 6.60159,3.77732 6.60159,8.44138 v 62.8787 c 0,4.66015 -2.95314,8.43747 -6.60159,8.43747 z m 0,0"
     stroke-miterlimit="10"
     id="path60"
     inkscape:connector-curvature="0"
     style="fill:none;stroke:#395bb2;stroke-width:4.27694988;stroke-linecap:round;stroke-linejoin:round;stroke-miterlimit:10;stroke-opacity:1" />
  <path
     d="M 316.01463,183.70138 175.22166,42.931839 c -3.47656,-3.49219 -7.21484,-5.42188 -10.23438,-2.41016 0,0 -8.5,6.52734 -10.32421,8.33984 L 19.557596,183.95919 c -3.351563,3.33594 -5.175782,6.95703 -2.152344,9.96484 l 8.425786,8.4375 c 3.02343,3.00782 6.6289,1.19922 9.98046,-2.15234 L 167.90916,68.134956 299.76072,199.95528 c 3.48047,3.49219 7.20313,5.41407 10.22266,2.40625 l 8.4414,-8.4375 c 3.00782,-3.00781 1.08594,-6.73047 -2.41015,-10.22265"
     id="path62"
     inkscape:connector-curvature="0"
     style="fill:#ffffff;fill-opacity:1;fill-rule:nonzero" />
  <path
     d="M 316.01519,183.70233 175.22204,42.933209 c -3.47656,-3.49217 -7.21484,-5.41795 -10.23439,-2.41015 0,0 -8.50001,6.52732 -10.32422,8.33981 L 19.557793,183.96014 c -3.351577,3.33593 -5.175794,6.957 -2.152356,9.96481 l 8.425801,8.43748 c 3.02344,3.00781 6.62891,1.19921 9.98048,-2.15233 L 167.90953,68.136256 299.76127,199.95618 c 3.48046,3.49219 7.20312,5.41406 10.22267,2.40625 l 8.44141,-8.43748 c 3.00781,-3.00781 1.08594,-6.73045 -2.41016,-10.22262 z m 0,0"
     stroke-miterlimit="10"
     id="path64"
     inkscape:connector-curvature="0"
     style="fill:none;stroke:#395bb2;stroke-width:4.27694988;stroke-linecap:round;stroke-linejoin:round;stroke-miterlimit:10;stroke-opacity:1" />
  <path
     d="M 152.02635,361.15449 V 239.67013 c 0,-4.82032 -3.6211,-8.71094 -8.09766,-8.71094 H 83.616188 c -4.46094,0 -8.09766,3.89062 -8.09766,8.71094 v 121.48436 h 76.507822"
     id="path66"
     inkscape:connector-curvature="0"
     style="fill:#4054b2;fill-opacity:1;fill-rule:nonzero" />
  <g
     clip-path="url(#id4)"
     id="g70"
     transform="translate(-75.122092,-321.82207)">
    <path
       transform="matrix(0.142576,0,0,-0.142554,-60.100093,825.08916)"
       d="m 2014.7072,996.92804 v 852.16906 c 0,33.8138 -25.3977,61.106 -56.7955,61.106 h -423.0205 c -31.2882,0 -56.7954,-27.2922 -56.7954,-61.106 V 996.92804 Z m 0,0"
       stroke-miterlimit="10"
       id="path68"
       inkscape:connector-curvature="0"
       style="fill:none;stroke:#395bb2;stroke-width:30;stroke-linecap:round;stroke-linejoin:round;stroke-miterlimit:10;stroke-opacity:1" />
  </g>
  <path
     d="m 183.97557,301.06855 c -2.98047,0 -5.40235,-2.86718 -5.40235,-6.40234 v -47.65624 c 0,-3.53516 2.42188,-6.39844 5.40235,-6.39844 h 76.51953 c 2.98047,0 5.40625,2.86328 5.40625,6.39844 v 47.65624 c 0,3.53516 -2.42578,6.40234 -5.40625,6.40234 h -76.51953"
     id="path72"
     inkscape:connector-curvature="0"
     style="fill:#4054b2;fill-opacity:1;fill-rule:nonzero" />
  <path
     d="m 183.97597,301.06915 c -2.98048,0 -5.40236,-2.86717 -5.40236,-6.40231 v -47.65611 c 0,-3.53514 2.42188,-6.39842 5.40236,-6.39842 h 76.51962 c 2.98047,0 5.40626,2.86328 5.40626,6.39842 v 47.65611 c 0,3.53514 -2.42579,6.40231 -5.40626,6.40231 z m 0,0"
     stroke-miterlimit="10"
     id="path74"
     inkscape:connector-curvature="0"
     style="fill:none;stroke:#395bb2;stroke-width:4.27694988;stroke-linecap:round;stroke-linejoin:round;stroke-miterlimit:10;stroke-opacity:1" />
  <path
     d="m 265.90135,259.15841 v -12.14844 c 0,-3.53516 -2.42578,-6.39844 -5.40625,-6.39844 h -76.51953 c -2.98047,0 -5.40235,2.86328 -5.40235,6.39844 v 12.14844 h 87.32813"
     id="path76"
     inkscape:connector-curvature="0"
     style="fill:#ffffff;fill-opacity:1;fill-rule:nonzero" />
  <path
     d="m 265.90185,259.15914 v -12.14841 c 0,-3.53514 -2.42579,-6.39842 -5.40626,-6.39842 h -76.51962 c -2.98048,0 -5.40236,2.86328 -5.40236,6.39842 v 12.14841 z m 0,0"
     stroke-miterlimit="10"
     id="path78"
     inkscape:connector-curvature="0"
     style="fill:none;stroke:#395bb2;stroke-width:4.27694988;stroke-linecap:round;stroke-linejoin:round;stroke-miterlimit:10;stroke-opacity:1" />
  <path
     d="m 291.60838,337.17793 c -2.58203,0 -4.94922,0.82422 -6.88672,2.20703 0.17187,-0.71094 0.26953,-1.4375 0.26953,-2.20703 0,-5.10547 -4.14844,-9.25391 -9.26562,-9.25391 -3.25391,0 -6.10547,1.6836 -7.75782,4.22266 -1.65234,-2.53906 -4.51953,-4.22266 -7.76953,-4.22266 -1.73828,0 -3.35156,0.48438 -4.73437,1.3125 -1.21094,-5.28906 -5.92969,-9.25 -11.58985,-9.25 -5.82031,0 -10.63672,4.16016 -11.6914,9.66407 -1.51172,-1.08204 -3.36719,-1.72657 -5.375,-1.72657 -2.65235,0 -5.04688,1.12891 -6.73047,2.91016 -2.10938,-3.33594 -5.81641,-5.55859 -10.06641,-5.55859 -6.57422,0 -11.89062,5.32812 -11.89062,11.90234 0,0.32812 0.0156,0.64062 0.043,0.95312 -1.44144,-0.61328 -3.00785,-0.95312 -4.67582,-0.95312 -6.55859,0 -11.89062,5.33203 -11.89062,11.90234 0,6.57032 5.33203,11.90235 11.89062,11.90235 h 98.1211 c 6.57031,0 11.89062,-5.33203 11.89062,-11.90235 0,-6.57031 -5.32031,-11.90234 -11.89062,-11.90234"
     id="path80"
     inkscape:connector-curvature="0"
     style="fill:#ffffff;fill-opacity:1;fill-rule:nonzero" />
  <path
     d="m 291.60891,337.17842 c -2.58203,0 -4.94922,0.82422 -6.88673,2.20702 0.17188,-0.71093 0.26954,-1.43748 0.26954,-2.20702 0,-5.10545 -4.14845,-9.25388 -9.26564,-9.25388 -3.25392,0 -6.10548,1.6836 -7.75782,4.22265 -1.65236,-2.53905 -4.51955,-4.22265 -7.76955,-4.22265 -1.73827,0 -3.35156,0.48437 -4.73438,1.3125 -1.21094,-5.28904 -5.92969,-9.24997 -11.58986,-9.24997 -5.82031,0 -10.63673,4.16015 -11.69142,9.66403 -1.51172,-1.08203 -3.36719,-1.72656 -5.375,-1.72656 -2.65235,0 -5.04689,1.1289 -6.73048,2.91016 -2.10937,-3.33594 -5.81641,-5.55858 -10.06641,-5.55858 -6.57424,0 -11.89066,5.32811 -11.89066,11.9023 0,0.32813 0.0156,0.64063 0.043,0.95313 -1.4414,-0.61328 -3.00781,-0.95313 -4.67578,-0.95313 -6.55861,0 -11.89064,5.33202 -11.89064,11.90231 0,6.5703 5.33203,11.89841 11.89064,11.89841 h 98.12119 c 6.57032,0 11.89064,-5.32811 11.89064,-11.89841 0,-6.57029 -5.32032,-11.90231 -11.89064,-11.90231 z m 0,0"
     stroke-miterlimit="10"
     id="path82"
     inkscape:connector-curvature="0"
     style="fill:none;stroke:#395bb2;stroke-width:4.27694988;stroke-linecap:round;stroke-linejoin:round;stroke-miterlimit:10;stroke-opacity:1" />
  <path
     d="m 334.00682,348.02559 c 0,8.0039 -15.19141,14.48046 -33.91407,14.48046 -18.74218,0 -33.91015,-6.47656 -33.91015,-14.48046 0,-8.00782 15.16797,-14.50391 33.91015,-14.50391 18.72266,0 33.91407,6.49609 33.91407,14.50391"
     id="path88"
     inkscape:connector-curvature="0"
     style="fill:#4054b2;fill-opacity:1;fill-rule:nonzero" />
  <path
     d="m 333.3115,344.50996 c 0,8.00781 -15.02734,14.48438 -33.5664,14.48438 -18.53907,0 -33.5625,-6.47657 -33.5625,-14.48438 0,-8.00781 15.02343,-14.50391 33.5625,-14.50391 18.53906,0 33.5664,6.4961 33.5664,14.50391"
     id="path90"
     inkscape:connector-curvature="0"
     style="fill:#afbdff;fill-opacity:1;fill-rule:nonzero" />
  <g
     clip-path="url(#id6)"
     id="g94"
     transform="translate(-75.122092,-321.82207)">
    <path
       d="m 376.15625,426.53906 c -0.42969,0 -0.87891,0.0195 -1.32813,0.0195 -0.44921,0 -0.89843,-0.0195 -1.32812,-0.0195 -41.17969,0 -74.5625,34.82813 -74.5625,77.78516 0,7.3125 2.83594,24.26953 7.10547,31.29687 l 68.78515,130.71094 68.78516,-130.71094 c 4.26563,-7.02734 7.10547,-23.98437 7.10547,-31.29687 0,-42.95703 -33.36328,-77.78516 -74.5625,-77.78516"
       id="path92"
       inkscape:connector-curvature="0"
       style="fill:#222c5b;fill-opacity:1;fill-rule:nonzero" />
  </g>
  <path
     d="m 340.88572,173.82247 c 0,22.75391 -18.43359,41.19922 -41.17969,41.19922 -22.74609,0 -41.18359,-18.44531 -41.18359,-41.19922 0,-22.75781 18.4375,-41.20312 41.18359,-41.20312 22.7461,0 41.17969,18.44531 41.17969,41.20312"
     id="path96"
     inkscape:connector-curvature="0"
     style="fill:#ffffff;fill-opacity:1;fill-rule:nonzero" />
  <g
     clip-path="url(#id7)"
     id="g100"
     transform="translate(-75.122092,-321.82207)">
    <path
       d="m 492.30078,673.32031 c -4.45312,0.64453 -8.57812,1.61328 -12.38281,2.91016 l -1.92969,0.65625 1.31641,3.87109 1.92968,-0.66015 c 3.56641,-1.21485 7.44922,-2.125 11.65235,-2.73438 l 2.01953,-0.29297 -0.58203,-4.04297 z m -23.95703,8.58594 c -3.77344,2.58594 -6.86328,5.65625 -9.26172,9.20703 l -1.14453,1.69531 3.38281,2.28516 1.14453,-1.69141 c 2.10938,-3.125 4.83985,-5.83203 8.1875,-8.125 l 1.6836,-1.15625 -2.30469,-3.37109 z m -14.33984,21.25391 c -0.86329,3.94921 -1.16016,8.23437 -0.89454,12.85546 l 0.11719,2.03907 4.07422,-0.23438 -0.11719,-2.03906 c -0.24218,-4.24609 0.0274,-8.16406 0.8125,-11.74609 l 0.4336,-1.9961 -3.98828,-0.875 z m -1.32813,24.54296 c -0.89453,3.73829 -2.42578,7.30079 -4.60156,10.6836 l -1.10156,1.71875 3.43359,2.21094 1.10547,-1.71875 c 2.42187,-3.77344 4.13281,-7.75782 5.13281,-11.94532 l 0.47656,-1.98828 -3.97265,-0.94922 z m -12.32812,19.53516 c -2.85157,2.48438 -6.11719,4.74219 -9.8086,6.76953 l -1.78906,0.98047 1.96484,3.58203 1.79297,-0.98437 c 3.94531,-2.16797 7.45313,-4.58985 10.52344,-7.26953 l 1.53906,-1.34375 -2.68359,-3.07813 z m -20.76563,11.66406 c -3.61719,1.3086 -7.49609,2.44922 -11.63281,3.42578 l -1.98828,0.47266 0.9375,3.97656 1.98828,-0.47265 c 4.28906,-1.01172 8.3164,-2.19922 12.08203,-3.5586 l 1.91797,-0.6914 -1.38672,-3.84375 z m -23.59375,5.6875 c -3.87891,0.57032 -7.93359,1.01953 -12.16406,1.35157 l -2.03516,0.16015 0.32031,4.07031 2.03516,-0.16015 c 4.32031,-0.33594 8.46484,-0.79688 12.43359,-1.37891 l 2.01954,-0.29687 -0.58985,-4.03907 z m -24.39453,1.96485 c -3.71875,0.0898 -7.54688,0.10156 -11.49219,0.0351 l -0.84765,-0.008 -2.04297,-0.0117 -0.0274,4.08594 2.04297,0.0117 0.80469,0.004 c 4,0.0703 8.56641,0.043 13.70312,-0.082 l -0.0976,-4.08203 z m -24.80859,0.30078 c -4.17188,0.17187 -8.3086,0.42187 -12.41016,0.74219 l -2.03516,0.15625 0.31641,4.07421 2.03516,-0.16015 c 4.05468,-0.31641 8.14062,-0.5586 12.26171,-0.73047 l 2.03907,-0.0859 -0.16797,-4.08203 z m -24.77344,1.94922 c -4.29688,0.51172 -8.42188,1.10156 -12.3711,1.76953 l -2.01562,0.34375 0.68359,4.02734 2.01172,-0.33984 c 3.88281,-0.66016 7.94141,-1.23828 12.17578,-1.74219 l 2.02735,-0.24219 -0.48438,-4.05468 z m -24.65235,4.24218 c -4.35156,1.03125 -8.38281,2.17579 -12.09375,3.42969 l -1.93359,0.65235 1.30469,3.87109 1.9375,-0.65234 c 3.58984,-1.21485 7.5,-2.32422 11.73047,-3.32422 l 1.98437,-0.47266 -0.9414,-3.97266 z m -23.76562,8.27344 c -4.25391,2.17969 -7.80859,4.57813 -10.66406,7.19922 l -1.50391,1.38281 2.76172,3.01172 1.50391,-1.38281 c 2.58203,-2.37109 5.83984,-4.56641 9.76171,-6.57422 l 1.81641,-0.93359 -1.85937,-3.63282 z m 0,0"
       id="path98"
       inkscape:connector-curvature="0"
       style="fill:#351f16;fill-opacity:1;fill-rule:nonzero" />
  </g>
  <g
     clip-path="url(#id8)"
     id="g104"
     transform="translate(-75.122092,-321.82207)">
    <path
       d="m 363.87109,507.48437 c -0.0273,-0.043 -0.0273,-0.0742 -0.0547,-0.11718 L 263.89062,402.59766 c -13.75,-13.50391 -15.59765,-18.46875 -26.76953,-18.46875 -8.67187,0 -14.72265,5.70703 -29.48828,20.07031 l -96.62109,103.15625 c -2.94922,2.92969 -4.80859,7.09375 -4.80859,11.72656 v 147.89844 c 0,8.89844 6.8125,16.12109 15.22265,16.12109 h 231.91797 c 8.39844,0 15.19531,-7.22265 15.19531,-16.12109 V 519.08203 c 0,-4.5625 -1.78906,-8.66797 -4.66797,-11.59766"
       id="path102"
       inkscape:connector-curvature="0"
       style="fill:#ffffff;fill-opacity:1;fill-rule:nonzero" />
  </g>
  <g
     clip-path="url(#id9)"
     id="g108"
     transform="translate(-75.122092,-321.82207)">
    <path
       transform="matrix(0.143078,0,0,-0.143034,-67.463607,825.47762)"
       d="m 3014.6878,2223.1939 c -0.1911,0.3004 -0.1911,0.5189 -0.3822,0.8193 l -698.402,732.4778 c -96.1016,94.4102 -109.0153,129.121 -187.0978,129.121 -60.6096,0 -102.8997,-39.8997 -206.0998,-140.318 l -675.3049,-721.1988 c -20.6127,-20.4824 -33.6082,-49.5947 -33.6082,-81.9842 V 1108.105 c 0,-62.2118 47.614,-112.65316 106.3943,-112.65316 h 1620.9229 c 58.6984,0 106.2031,50.44136 106.2031,112.65316 v 1034.006 c 0,31.8979 -12.5041,60.6005 -32.6254,81.0829 z m 0,0"
       stroke-miterlimit="10"
       id="path106"
       inkscape:connector-curvature="0"
       style="fill:none;stroke:#395bb2;stroke-width:30;stroke-linecap:round;stroke-linejoin:round;stroke-miterlimit:10;stroke-opacity:1" />
  </g>
  <g
     clip-path="url(#id10)"
     id="g112"
     transform="translate(-75.122092,-321.82207)">
    <path
       d="M 220.79687,682.88672 V 560.99219 c 0,-4.83594 -3.63671,-8.73828 -8.1289,-8.73828 h -60.52344 c -4.47656,0 -8.125,3.90234 -8.125,8.73828 v 121.89453 h 76.77734"
       id="path110"
       inkscape:connector-curvature="0"
       style="fill:#4054b2;fill-opacity:1;fill-rule:nonzero" />
  </g>
  <g
     clip-path="url(#id11)"
     id="g116"
     transform="translate(-75.122092,-321.82207)">
    <path
       transform="matrix(0.143078,0,0,-0.143034,-67.463607,825.47762)"
       d="m 2014.7124,996.92657 v 852.17693 c 0,33.8096 -25.4178,61.0921 -56.8146,61.0921 h -423.0109 c -31.2876,0 -56.7873,-27.2825 -56.7873,-61.0921 V 996.92657 Z m 0,0"
       stroke-miterlimit="10"
       id="path114"
       inkscape:connector-curvature="0"
       style="fill:none;stroke:#395bb2;stroke-width:30;stroke-linecap:round;stroke-linejoin:round;stroke-miterlimit:10;stroke-opacity:1" />
  </g>
  <g
     clip-path="url(#id12)"
     id="g120"
     transform="translate(-75.122092,-321.82207)">
    <path
       d="m 360.86719,658.82812 c -2.58985,0 -4.96485,0.82813 -6.91016,2.21875 0.17188,-0.71875 0.27344,-1.44531 0.27344,-2.21875 0,-5.12109 -4.16406,-9.28125 -9.30078,-9.28125 -3.26172,0 -6.125,1.6875 -7.78516,4.23047 -1.66016,-2.54297 -4.53516,-4.23047 -7.79687,-4.23047 -1.7461,0 -3.36329,0.48438 -4.75,1.3125 -1.21485,-5.30468 -5.95313,-9.28125 -11.63282,-9.28125 -5.83593,0 -10.67187,4.17579 -11.73047,9.69922 -1.51953,-1.08984 -3.3789,-1.73047 -5.39453,-1.73047 -2.66015,0 -5.0664,1.12891 -6.7539,2.91797 -2.11719,-3.34765 -5.83594,-5.57812 -10.10157,-5.57812 -6.59375,0 -11.93359,5.34765 -11.93359,11.9414 0,0.32813 0.0156,0.64454 0.043,0.95704 -1.44531,-0.61329 -3.01953,-0.95704 -4.69141,-0.95704 -6.58203,0 -11.93359,5.35157 -11.93359,11.94532 0,6.59375 5.35156,11.9414 11.93359,11.9414 h 98.46485 c 6.59765,0 11.93359,-5.34765 11.93359,-11.9414 0,-6.59375 -5.33594,-11.94532 -11.93359,-11.94532"
       id="path118"
       inkscape:connector-curvature="0"
       style="fill:#ffffff;fill-opacity:1;fill-rule:nonzero" />
  </g>
  <g
     clip-path="url(#id13)"
     id="g124"
     transform="translate(-75.122092,-321.82207)">
    <path
       transform="matrix(0.143078,0,0,-0.143034,-67.463607,825.47762)"
       d="m 2993.6929,1165.1007 c -18.1009,0 -34.7003,-5.7897 -48.2965,-15.512 1.2013,4.9977 1.9111,10.1046 1.9111,15.512 0,35.8032 -29.1035,64.8882 -65.0051,64.8882 -22.7968,0 -42.8089,-11.7978 -54.4121,-29.5766 -11.6031,17.7788 -31.6971,29.5766 -54.4939,29.5766 -12.2038,0 -23.5067,-3.3864 -33.1988,-9.1761 -8.4908,37.0868 -41.6076,64.8882 -81.3041,64.8882 -40.7886,0 -74.588,-29.1942 -81.9867,-67.8103 -10.6203,7.6194 -23.6159,12.0982 -37.7035,12.0982 -18.5924,0 -35.4102,-7.8925 -47.2045,-20.4004 -14.7974,23.4045 -40.7885,38.9984 -70.6019,38.9984 -46.0851,0 -83.4063,-37.3872 -83.4063,-83.4862 0,-2.294 0.1092,-4.5061 0.3003,-6.6909 -10.1016,4.2876 -21.1042,6.6909 -32.7892,6.6909 -46.0032,0 -83.4064,-37.3872 -83.4064,-83.5136 0,-46.099 37.4032,-83.45889 83.4064,-83.45889 h 688.1912 c 46.1124,0 83.4064,37.35989 83.4064,83.45889 0,46.1264 -37.294,83.5136 -83.4064,83.5136 z m 0,0"
       stroke-miterlimit="10"
       id="path122"
       inkscape:connector-curvature="0"
       style="fill:none;stroke:#395bb2;stroke-width:30;stroke-linecap:round;stroke-linejoin:round;stroke-miterlimit:10;stroke-opacity:1" />
  </g>
  <path
     d="M 161.94822,221.50606 H 231.1826 V 316.2248 H 161.94822 V 221.50606"
     id="path126"
     style="fill:#ffffff;fill-opacity:1;fill-rule:nonzero"
     inkscape:connector-curvature="0" />
  <path
     d="m 186.874,265.35763 h 69.23047 v 39.32811 H 186.874 v -39.32811"
     id="path128"
     style="fill:#ffffff;fill-opacity:1;fill-rule:nonzero"
     inkscape:connector-curvature="0" />
  <path
     d="m 186.8701,158.00997 88.83984,169.81639"
     stroke-miterlimit="4"
     id="path130"
     inkscape:connector-curvature="0"
     style="fill:none;stroke:#ffffff;stroke-width:26.60274315;stroke-linecap:butt;stroke-linejoin:miter;stroke-miterlimit:4;stroke-opacity:1" />
  <g
     id="g164"
     style="fill:#222c5b;fill-opacity:1"
     transform="translate(0,-570)">
    <g
       transform="translate(148.23437,232.57375)"
       id="g162">
      <g
         id="g160" />
    </g>
  </g>
  <g
     id="g194"
     style="fill:#222c5b;fill-opacity:1"
     transform="translate(0,-570)">
    <g
       transform="translate(274.94921,232.57375)"
       id="g192">
      <g
         id="g190" />
    </g>
  </g>
  <g
     id="g264"
     style="fill:#222c5b;fill-opacity:1"
     transform="translate(0,-570)">
    <g
       transform="translate(134.19875,762.32183)"
       id="g262">
      <g
         id="g260" />
    </g>
  </g>
  <rect
     style="fill:#4054b2;fill-opacity:1;stroke-width:0.75"
     id="rect5063"
     width="6.2920518"
     height="6.3819389"
     x="220.96391"
     y="292.38474" />
  <g
     id="g997"
     clip-path="url(#clipPath999)"
     transform="translate(-75.122092,-321.82207)">
    <g
       inkscape:label="Clip"
       id="g995">
      <path
         d="m 320.70703,622.4375 c 0,2.05469 0,4.10937 0,6.16406 -0.0508,0.0508 -0.10156,0.10547 -0.10156,0.10547 -27.79297,0 -55.64063,0 -83.4336,0 -0.0508,-0.0547 -0.10156,-0.10547 -0.10156,-0.10547 0,-2.0039 0,-4.00781 0,-6.0625 1.64063,-0.2539 3.28516,-0.51172 4.87891,-0.71875 0.41015,-0.0508 0.51562,-0.25781 0.51562,-0.66797 0,-1.28515 0,-2.5664 0,-3.80078 0,-0.41015 0.10157,-0.61719 0.5625,-0.5664 0.71875,0.0508 1.38672,0 2.10547,0 1.03125,0 0.92578,0.10546 0.92578,-0.92579 0,-21.01171 0,-42.02343 0,-63.03906 21.98828,0 43.97657,0 65.96485,0 0,20.96485 0,41.875 0,62.83594 0,0.20312 0,0.35937 0,0.56641 -0.0508,0.46093 0.10547,0.61328 0.5664,0.61328 0.71875,-0.0508 1.4375,0 2.15625,0 0.46485,0 0.61719,0.10547 0.61719,0.5664 -0.0508,1.12891 0,2.21094 0,3.33985 0,0.97656 0,1.02734 0.97656,1.17968 1.4375,0.15625 2.87891,0.51563 4.36719,0.51563 z m -29.58984,-12.22656 c 0.20312,0 0.35937,0 0.5625,0 1.02734,0 1.02734,-0.0508 0.82422,-1.02735 -0.15625,-0.97656 -0.25782,-1.95312 -0.41407,-2.92968 -0.15234,-1.02735 -0.30468,-2.05469 -0.51172,-3.08204 -0.15625,-1.18359 -0.25781,-2.36328 -0.41015,-3.54687 -0.3086,-2.3125 -0.51563,-4.62109 -0.46485,-6.93359 0,-0.35938 0.0508,-0.66797 0.35938,-0.82422 0.30859,0.46484 0.61719,0.92578 0.875,1.38672 0.97656,2.0039 1.54297,4.16406 2.00391,6.37109 0.51171,2.41406 0.92578,4.83203 1.17968,7.29687 0.10547,0.97657 0.20703,1.95313 0.25782,2.92969 0,0.5625 0.46484,0.35938 0.71875,0.35938 0.35937,0.0508 0.30859,-0.15625 0.30859,-0.41407 -0.0508,-1.17968 -0.25781,-2.30859 -0.35938,-3.4414 -0.15234,-1.4375 0.41016,-2.77344 0.71875,-4.16016 0.25782,-1.07812 0.71875,-2.10547 0.875,-3.1875 0.15235,-0.10156 0.20313,-0.30469 0.25782,-0.46094 0.30859,-0.66796 0.51172,-1.38671 1.07812,-1.84765 0.20313,0.20312 0.10156,0.41015 0.10156,0.66797 0,1.07812 0,2.20703 -0.10156,3.28515 -0.15625,1.23438 -0.25781,2.46875 -0.46484,3.69922 -0.25391,1.85156 -0.5625,3.64844 -1.02735,5.44531 -0.0508,0.3086 0,0.46485 0.3086,0.41407 0.15625,0 0.30859,0 0.51562,0 0.0508,0 0.10157,0 0.15235,0 0.20703,0.41015 0.25781,0.82031 0.25781,1.23047 0,1.85156 -0.0508,3.7539 0,5.60156 0,1.4375 -0.35938,2.62109 -1.84766,3.18359 0.82032,0.0547 1.58985,0.0547 2.41407,0.0547 1.17968,0 2.25781,-1.13281 2.25781,-2.3125 0,-1.23438 0,-2.51953 0,-3.75 1.69531,0 3.39062,0 5.14062,0 0.5625,0 0.66797,-0.20703 0.66797,-0.72266 0,-8.26953 0,-16.48828 0,-24.76172 0,-0.51562 -0.10547,-0.66796 -0.66797,-0.66796 -8.27343,0 -16.49218,0 -24.76562,0 -0.46094,0 -0.61719,0.10156 -0.61719,0.5664 0,8.32031 0,16.69531 0,25.01953 0,0.41016 0.10547,0.56641 0.51563,0.56641 2.15625,0 4.3164,0 6.47265,0 0.46485,0 0.56641,-0.20703 0.56641,-0.56641 0,-0.875 0,-1.74609 0,-2.67187 0,-0.82031 0,-0.82031 0.82031,-0.82031 0.51563,0.0508 0.97656,0.0508 1.44141,0.0508 z m -9.71094,-39.76563 c 0,4.16016 0,8.32031 0,12.4336 0,0.5625 0.15234,0.66796 0.71875,0.66796 8.21875,0 16.44141,0 24.66016,0 0.5664,0 0.66796,-0.15625 0.66796,-0.72265 0,-8.32031 0,-16.59375 0,-24.91797 0,-0.5625 -0.15625,-0.66797 -0.71875,-0.66797 -8.22265,0 -16.4414,0 -24.66015,0 -0.56641,0 -0.66797,0.15625 -0.66797,0.72266 0,4.21093 0,8.37109 0,12.48437 z m -4.82813,0 c 0,-4.11328 0,-8.27344 0,-12.38281 0,-0.61719 -0.15625,-0.76953 -0.77343,-0.76953 -8.16797,0 -16.28516,0 -24.45313,0 -0.76953,0 -0.82422,0 -0.82422,0.76953 0,8.21875 0,16.49219 0,24.71094 0,0.5664 0.15625,0.77343 0.77344,0.77343 8.16797,0 16.38672,0 24.55469,0 0.5664,0 0.66797,-0.15625 0.66797,-0.72265 0.0547,-4.0586 0.0547,-8.21875 0.0547,-12.37891 z m 0,30.77344 c 0,-4.10938 0,-8.27344 0,-12.38281 0,-0.51172 -0.15625,-0.71875 -0.66796,-0.71875 -8.22266,0 -16.44141,0 -24.66016,0 -0.51563,0 -0.72266,0.15625 -0.72266,0.66797 0,8.27343 0,16.49218 0,24.76562 0,0.51172 0.15625,0.71875 0.66797,0.71875 8.22266,0 16.44141,0 24.66016,0 0.51562,0 0.72265,-0.15625 0.72265,-0.66797 0,-4.10937 0,-8.27344 0,-12.38281 z m 0,0"
         id="path132"
         inkscape:connector-curvature="0"
         style="fill:#4054b2;fill-opacity:1;fill-rule:nonzero" />
      <rect
         y="590.20709"
         x="285.83893"
         height="23.999683"
         width="18.426723"
         id="rect553"
         style="fill:#ffffff;stroke-width:0.75" />
      <rect
         y="608.86652"
         x="289.29025"
         height="5.3389831"
         width="16.080509"
         id="rect990"
         style="fill:#ffffff;fill-opacity:1;stroke-width:0.75" />
    </g>
  </g>
  <path
     style="fill:#ffffff;fill-opacity:1;stroke-width:0.75"
     d="m 155.97504,359.37749 -1.65254,-0.20508 -0.003,-60.60338 c -0.002,-40.89105 -0.1771,-61.2309 -0.53858,-62.53265 -0.74855,-2.69557 -4.27193,-6.2206 -6.92723,-6.93047 -1.49182,-0.39883 -11.70716,-0.52793 -34.10806,-0.43107 l -31.978202,0.13828 -2.47425,1.52995 c -1.75706,1.08649 -2.8508,2.26159 -3.77329,4.05398 l -1.29903,2.52401 -0.1371,61.20679 -0.13711,61.20678 -11.303575,-0.1974 c -12.442522,-0.21729 -13.338982,-0.40412 -16.887224,-3.51952 -1.072704,-0.94184 -2.483913,-2.85818 -3.136019,-4.25852 l -1.185646,-2.54607 -0.0049,-75.00076 -0.005,-75.00077 63.687536,-63.68601 63.68753,-63.686014 34.0489,34.051744 34.04889,34.05174 -1.1623,1.92317 c -7.86256,13.00949 -12.3253,32.01685 -10.80605,46.02433 0.7065,6.51403 2.18245,14.04975 3.66169,18.69545 0.96291,3.02413 7.90769,16.7718 20.80574,41.18644 2.73324,5.17373 8.63028,16.38559 13.10454,24.91525 4.47426,8.52966 11.21019,21.34322 14.96877,28.47458 10.76229,20.41997 15.1412,28.84542 15.1412,29.13321 0,0.14654 -1.6589,0.54389 -3.68645,0.883 -9.37777,1.56846 -17.68429,5.4869 -20.26806,9.56107 -1.28665,2.02885 -1.46922,2.79516 -1.46922,6.16695 0,3.27167 0.1915,4.13203 1.27444,5.72572 1.52683,2.24693 5.04151,4.75284 8.88277,6.33328 l 2.80889,1.15568 -60.76271,-0.0693 c -33.41949,-0.0381 -61.50635,-0.16159 -62.41526,-0.27438 z M 245.74507,303.686 c -0.14874,-3.12262 -0.17795,-3.1804 -1.6768,-3.3174 -3.57098,-0.32639 -3.74746,-0.46356 -3.91293,-3.04126 -0.1418,-2.20888 -0.27291,-2.42611 -1.55318,-2.57342 l -1.3983,-0.16089 v -31.74589 -31.74589 h -33.30508 -33.30509 v 31.74744 31.74745 l -1.65254,0.15933 c -1.58423,0.15275 -1.65895,0.25907 -1.80741,2.57187 -0.16331,2.54396 -0.30663,2.66298 -3.6587,3.03834 -1.18629,0.13284 -1.28129,0.35459 -1.42257,3.32032 l -0.15138,3.17797 h 41.99769 41.99767 z"
     id="path1004"
     inkscape:connector-curvature="0" />
</svg>
