<svg xmlns="http://www.w3.org/2000/svg" xmlns:xlink="http://www.w3.org/1999/xlink" width="500" zoomAndPan="magnify" viewBox="0 0 375 374.999991" height="500" preserveAspectRatio="xMidYMid meet" version="1.0"><defs><clipPath id="id1"><path d="M 37 57 L 288 57 L 288 342.625 L 37 342.625 Z M 37 57 " clip-rule="nonzero"/></clipPath><clipPath id="id2"><path d="M 72 215 L 150 215 L 150 342.625 L 72 342.625 Z M 72 215 " clip-rule="nonzero"/></clipPath><clipPath id="id3"><path d="M 172 299 L 292 299 L 292 342.625 L 172 342.625 Z M 172 299 " clip-rule="nonzero"/></clipPath><clipPath id="id4"><path d="M 101.066406 271 L 360.738281 271 L 360.738281 342.671875 L 101.066406 342.671875 Z M 101.066406 271 " clip-rule="nonzero"/></clipPath><clipPath id="id5"><path d="M 214 98.675781 L 358 98.675781 L 358 325 L 214 325 Z M 214 98.675781 " clip-rule="nonzero"/></clipPath><clipPath id="id6"><path d="M 179 331 L 360.738281 331 L 360.738281 342.671875 L 179 342.671875 Z M 179 331 " clip-rule="nonzero"/></clipPath><clipPath id="id7"><path d="M 68.410156 339.199219 L 281 339.199219 L 281 341 L 68.410156 341 Z M 68.410156 339.199219 " clip-rule="nonzero"/></clipPath><clipPath id="id8"><path d="M 68.410156 339.199219 L 282.625 339.199219 L 282.625 342.546875 L 68.410156 342.546875 Z M 68.410156 339.199219 " clip-rule="nonzero"/></clipPath><clipPath id="id9"><path d="M 68.410156 339.199219 L 142 339.199219 L 142 341 L 68.410156 341 Z M 68.410156 339.199219 " clip-rule="nonzero"/></clipPath><clipPath id="id10"><path d="M 68.410156 339.199219 L 144 339.199219 L 144 342.546875 L 68.410156 342.546875 Z M 68.410156 339.199219 " clip-rule="nonzero"/></clipPath><clipPath id="id11"><path d="M 169 339.199219 L 282.625 339.199219 L 282.625 341 L 169 341 Z M 169 339.199219 " clip-rule="nonzero"/></clipPath><clipPath id="id12"><path d="M 167 339.199219 L 282.625 339.199219 L 282.625 342.546875 L 167 342.546875 Z M 167 339.199219 " clip-rule="nonzero"/></clipPath><clipPath id="id13"><path d="M 156.4375 217.714844 L 235.332031 217.714844 L 235.332031 289.292969 L 156.4375 289.292969 Z M 156.4375 217.714844 " clip-rule="nonzero"/></clipPath></defs><path fill="rgb(100%, 100%, 100%)" d="M 281.566406 175.589844 C 281.539062 175.550781 281.539062 175.523438 281.511719 175.480469 L 187.585938 76.984375 C 174.660156 64.289062 172.925781 59.625 162.421875 59.625 C 154.273438 59.625 148.585938 64.988281 134.707031 78.492188 L 43.886719 175.46875 C 41.117188 178.226562 39.367188 182.136719 39.367188 186.496094 L 39.367188 325.535156 C 39.367188 333.898438 45.769531 340.6875 53.675781 340.6875 L 271.667969 340.6875 C 279.5625 340.6875 285.949219 333.898438 285.949219 325.535156 L 285.949219 186.496094 C 285.949219 182.207031 284.269531 178.347656 281.566406 175.589844 " fill-opacity="1" fill-rule="nonzero"/><g clip-path="url(#id1)"><path stroke-linecap="round" transform="matrix(0.134488, 0, 0, -0.134468, -123.874324, 474.537881)" fill="none" stroke-linejoin="round" d="M 3014.701815 2223.196638 C 3014.498497 2223.487135 3014.498497 2223.690483 3014.29518 2224.01003 L 2315.899084 2956.49915 C 2219.787931 3050.910795 2206.891783 3085.596181 2128.788764 3085.596181 C 2068.200107 3085.596181 2025.910037 3045.710892 1922.711812 2945.285951 L 1247.406791 2224.09718 C 1226.813619 2203.588065 1213.80129 2174.509279 1213.80129 2142.089772 L 1213.80129 1108.093432 C 1213.80129 1045.897945 1261.406663 995.438551 1320.194507 995.438551 L 2941.100829 995.438551 C 2999.801536 995.438551 3047.290728 1045.897945 3047.290728 1108.093432 L 3047.290728 2142.089772 C 3047.290728 2173.986383 3034.801216 2202.687523 3014.701815 2223.196638 Z M 3014.701815 2223.196638 " stroke="rgb(22.349548%, 35.688782%, 69.799805%)" stroke-width="30" stroke-opacity="1" stroke-miterlimit="10"/></g><path fill="rgb(100%, 100%, 100%)" d="M 169.160156 292.914062 C 165.71875 292.914062 162.933594 289.347656 162.933594 284.953125 L 162.933594 225.636719 C 162.933594 221.242188 165.71875 217.675781 169.160156 217.675781 L 257.453125 217.675781 C 260.894531 217.675781 263.679688 221.242188 263.679688 225.636719 L 263.679688 284.953125 C 263.679688 289.347656 260.894531 292.914062 257.453125 292.914062 L 169.160156 292.914062 " fill-opacity="1" fill-rule="nonzero"/><path stroke-linecap="round" transform="matrix(0.134488, 0, 0, -0.134468, -123.874324, 474.537881)" fill="none" stroke-linejoin="round" d="M 2178.892039 1350.687786 C 2153.303062 1350.687786 2132.593708 1377.210196 2132.593708 1409.89115 L 2132.593708 1851.011407 C 2132.593708 1883.692361 2153.303062 1910.185721 2178.892039 1910.185721 L 2835.404701 1910.185721 C 2860.993679 1910.185721 2881.703033 1883.692361 2881.703033 1851.011407 L 2881.703033 1409.89115 C 2881.703033 1377.210196 2860.993679 1350.687786 2835.404701 1350.687786 Z M 2178.892039 1350.687786 " stroke="rgb(22.349548%, 35.688782%, 69.799805%)" stroke-width="30" stroke-opacity="1" stroke-miterlimit="10"/><path fill="rgb(100%, 100%, 100%)" d="M 301.765625 173.101562 L 168.960938 40.316406 C 165.679688 37.023438 162.15625 35.199219 159.304688 38.042969 C 159.304688 38.042969 151.289062 44.199219 149.566406 45.910156 L 22.125 173.34375 C 18.964844 176.492188 17.242188 179.90625 20.09375 182.742188 L 28.042969 190.703125 C 30.894531 193.539062 34.296875 191.832031 37.457031 188.671875 L 162.058594 64.089844 L 286.433594 188.429688 C 289.714844 191.726562 293.226562 193.539062 296.078125 190.703125 L 304.039062 182.742188 C 306.875 179.90625 305.0625 176.394531 301.765625 173.101562 " fill-opacity="1" fill-rule="nonzero"/><path stroke-linecap="round" transform="matrix(0.134488, 0, 0, -0.134468, -123.874324, 474.537881)" fill="none" stroke-linejoin="round" d="M 3164.895461 2241.70132 L 2177.410725 3229.189032 C 2153.012608 3253.70701 2126.813678 3267.186088 2105.610553 3246.095979 C 2105.610553 3246.095979 2046.009438 3200.313593 2033.200427 3187.589808 L 1085.594995 2239.900237 C 1062.097284 2216.486149 1049.288273 2191.096678 1070.491398 2170.006569 L 1129.598741 2110.803205 C 1150.801866 2089.713096 1176.10039 2102.407831 1199.5981 2125.909068 L 2126.087544 3052.392332 L 3050.892355 2127.710152 C 3075.290472 2103.192174 3101.402266 2089.713096 3122.605391 2110.803205 L 3181.79987 2170.006569 C 3202.886814 2191.096678 3189.409759 2217.212392 3164.895461 2241.70132 Z M 3164.895461 2241.70132 " stroke="rgb(22.349548%, 35.688782%, 69.799805%)" stroke-width="30" stroke-opacity="1" stroke-miterlimit="10"/><path fill="rgb(25.099182%, 32.939148%, 69.799805%)" d="M 147.078125 340.488281 L 147.078125 225.894531 C 147.078125 221.347656 143.664062 217.679688 139.4375 217.679688 L 82.550781 217.679688 C 78.339844 217.679688 74.914062 221.347656 74.914062 225.894531 L 74.914062 340.488281 L 147.078125 340.488281 " fill-opacity="1" fill-rule="nonzero"/><g clip-path="url(#id2)"><path stroke-linecap="round" transform="matrix(0.134488, 0, 0, -0.134468, -123.874324, 474.537881)" fill="none" stroke-linejoin="round" d="M 2014.698522 996.920088 L 2014.698522 1849.094124 C 2014.698522 1882.908018 1989.312862 1910.185721 1957.885764 1910.185721 L 1534.897935 1910.185721 C 1503.587018 1910.185721 1478.114223 1882.908018 1478.114223 1849.094124 L 1478.114223 996.920088 Z M 2014.698522 996.920088 " stroke="rgb(22.349548%, 35.688782%, 69.799805%)" stroke-width="30" stroke-opacity="1" stroke-miterlimit="10"/></g><path fill="rgb(25.099182%, 32.939148%, 69.799805%)" d="M 177.21875 283.808594 C 174.40625 283.808594 172.121094 281.105469 172.121094 277.769531 L 172.121094 232.820312 C 172.121094 229.484375 174.40625 226.78125 177.21875 226.78125 L 249.398438 226.78125 C 252.207031 226.78125 254.492188 229.484375 254.492188 232.820312 L 254.492188 277.769531 C 254.492188 281.105469 252.207031 283.808594 249.398438 283.808594 L 177.21875 283.808594 " fill-opacity="1" fill-rule="nonzero"/><path stroke-linecap="round" transform="matrix(0.134488, 0, 0, -0.134468, -123.874324, 474.537881)" fill="none" stroke-linejoin="round" d="M 2238.812653 1418.402723 C 2217.899981 1418.402723 2200.908435 1438.505141 2200.908435 1463.313616 L 2200.908435 1797.58894 C 2200.908435 1822.397416 2217.899981 1842.499834 2238.812653 1842.499834 L 2775.513133 1842.499834 C 2796.39676 1842.499834 2813.388305 1822.397416 2813.388305 1797.58894 L 2813.388305 1463.313616 C 2813.388305 1438.505141 2796.39676 1418.402723 2775.513133 1418.402723 Z M 2238.812653 1418.402723 " stroke="rgb(22.349548%, 35.688782%, 69.799805%)" stroke-width="30" stroke-opacity="1" stroke-miterlimit="10"/><path fill="rgb(100%, 100%, 100%)" d="M 254.492188 244.277344 L 254.492188 232.820312 C 254.492188 229.484375 252.207031 226.78125 249.398438 226.78125 L 177.21875 226.78125 C 174.40625 226.78125 172.121094 229.484375 172.121094 232.820312 L 172.121094 244.277344 L 254.492188 244.277344 " fill-opacity="1" fill-rule="nonzero"/><path stroke-linecap="round" transform="matrix(0.134488, 0, 0, -0.134468, -123.874324, 474.537881)" fill="none" stroke-linejoin="round" d="M 2813.388305 1712.386062 L 2813.388305 1797.58894 C 2813.388305 1822.397416 2796.39676 1842.499834 2775.513133 1842.499834 L 2238.812653 1842.499834 C 2217.899981 1842.499834 2200.908435 1822.397416 2200.908435 1797.58894 L 2200.908435 1712.386062 Z M 2813.388305 1712.386062 " stroke="rgb(22.349548%, 35.688782%, 69.799805%)" stroke-width="30" stroke-opacity="1" stroke-miterlimit="10"/><path fill="rgb(100%, 100%, 100%)" d="M 278.742188 317.871094 C 276.308594 317.871094 274.074219 318.648438 272.246094 319.953125 C 272.40625 319.28125 272.5 318.59375 272.5 317.871094 C 272.5 313.054688 268.589844 309.144531 263.761719 309.144531 C 260.695312 309.144531 258.003906 310.730469 256.445312 313.121094 C 254.882812 310.730469 252.179688 309.144531 249.113281 309.144531 C 247.472656 309.144531 245.953125 309.601562 244.648438 310.378906 C 243.507812 305.390625 239.054688 301.652344 233.714844 301.652344 C 228.226562 301.652344 223.683594 305.578125 222.6875 310.769531 C 221.261719 309.746094 219.511719 309.144531 217.617188 309.144531 C 215.117188 309.144531 212.855469 310.203125 211.269531 311.886719 C 209.277344 308.738281 205.78125 306.640625 201.773438 306.640625 C 195.574219 306.640625 190.558594 311.671875 190.558594 317.871094 C 190.558594 318.179688 190.570312 318.476562 190.597656 318.769531 C 189.242188 318.191406 187.761719 317.871094 186.1875 317.871094 C 180 317.871094 174.972656 322.898438 174.972656 329.097656 C 174.972656 335.296875 180 340.324219 186.1875 340.324219 L 278.742188 340.324219 C 284.941406 340.324219 289.957031 335.296875 289.957031 329.097656 C 289.957031 322.898438 284.941406 317.871094 278.742188 317.871094 " fill-opacity="1" fill-rule="nonzero"/><g clip-path="url(#id3)"><path stroke-linecap="round" transform="matrix(0.134488, 0, 0, -0.134468, -123.874324, 474.537881)" fill="none" stroke-linejoin="round" d="M 2993.702007 1165.089016 C 2975.606737 1165.089016 2958.992781 1159.308118 2945.399545 1149.605506 C 2946.590405 1154.602061 2947.287494 1159.685765 2947.287494 1165.089016 C 2947.287494 1200.907342 2918.213072 1229.986128 2882.312985 1229.986128 C 2859.512364 1229.986128 2839.500099 1218.191935 2827.910994 1200.413496 C 2816.292843 1218.191935 2796.193442 1229.986128 2773.392821 1229.986128 C 2761.193762 1229.986128 2749.895111 1226.587309 2740.193955 1220.806411 C 2731.712704 1257.902926 2698.600974 1285.703524 2658.895944 1285.703524 C 2618.087189 1285.703524 2584.307415 1256.508538 2576.900844 1217.901438 C 2566.299281 1225.512469 2553.286952 1229.986128 2539.199944 1229.986128 C 2520.610903 1229.986128 2503.793629 1222.11365 2492.001206 1209.593213 C 2477.188064 1233.007301 2451.192451 1248.60701 2421.391894 1248.60701 C 2375.29688 1248.60701 2338.002616 1211.190948 2338.002616 1165.089016 C 2338.002616 1162.794087 2338.089752 1160.586307 2338.29307 1158.407576 C 2328.214324 1162.706937 2317.206126 1165.089016 2305.500839 1165.089016 C 2259.492961 1165.089016 2222.111561 1127.702004 2222.111561 1081.600072 C 2222.111561 1035.498139 2259.492961 998.140177 2305.500839 998.140177 L 2993.702007 998.140177 C 3039.797021 998.140177 3077.091285 1035.498139 3077.091285 1081.600072 C 3077.091285 1127.702004 3039.797021 1165.089016 2993.702007 1165.089016 Z M 2993.702007 1165.089016 " stroke="rgb(22.349548%, 35.688782%, 69.799805%)" stroke-width="30" stroke-opacity="1" stroke-miterlimit="10"/></g><g clip-path="url(#id4)"><path fill="rgb(100%, 100%, 100%)" d="M 179.976562 271.375 L 392.789062 271.375 L 471.191406 459.066406 L 101.570312 459.066406 L 179.976562 271.375 " fill-opacity="1" fill-rule="nonzero"/></g><path fill="rgb(25.099182%, 32.939148%, 69.799805%)" d="M 318.734375 328.101562 C 318.734375 335.652344 304.40625 341.761719 286.746094 341.761719 C 269.066406 341.761719 254.757812 335.652344 254.757812 328.101562 C 254.757812 320.546875 269.066406 314.421875 286.746094 314.421875 C 304.40625 314.421875 318.734375 320.546875 318.734375 328.101562 " fill-opacity="1" fill-rule="nonzero"/><path fill="rgb(68.629456%, 74.119568%, 100%)" d="M 318.082031 324.785156 C 318.082031 332.339844 303.90625 338.449219 286.417969 338.449219 C 268.933594 338.449219 254.757812 332.339844 254.757812 324.785156 C 254.757812 317.234375 268.933594 311.105469 286.417969 311.105469 C 303.90625 311.105469 318.082031 317.234375 318.082031 324.785156 " fill-opacity="1" fill-rule="nonzero"/><g clip-path="url(#id5)"><path fill="rgb(13.328552%, 17.248535%, 35.688782%)" d="M 287.632812 98.597656 C 287.230469 98.597656 286.804688 98.617188 286.382812 98.617188 C 285.957031 98.617188 285.535156 98.597656 285.128906 98.597656 C 246.285156 98.597656 214.796875 131.449219 214.796875 171.96875 C 214.796875 178.867188 217.472656 194.859375 221.496094 201.488281 L 286.382812 324.785156 L 351.265625 201.488281 C 355.289062 194.859375 357.96875 178.867188 357.96875 171.96875 C 357.96875 131.449219 326.496094 98.597656 287.632812 98.597656 " fill-opacity="1" fill-rule="nonzero"/></g><path fill="rgb(100%, 100%, 100%)" d="M 325.226562 163.78125 C 325.226562 185.246094 307.835938 202.644531 286.382812 202.644531 C 264.925781 202.644531 247.535156 185.246094 247.535156 163.78125 C 247.535156 142.316406 264.925781 124.917969 286.382812 124.917969 C 307.835938 124.917969 325.226562 142.316406 325.226562 163.78125 " fill-opacity="1" fill-rule="nonzero"/><g clip-path="url(#id6)"><path fill="rgb(20.779419%, 12.159729%, 8.628845%)" d="M 397.191406 331.378906 C 392.992188 331.984375 389.097656 332.902344 385.511719 334.125 L 383.6875 334.746094 L 384.929688 338.390625 L 386.753906 337.769531 C 390.113281 336.625 393.777344 335.765625 397.742188 335.191406 L 399.648438 334.914062 L 399.097656 331.101562 Z M 374.59375 339.476562 C 371.03125 341.914062 368.121094 344.8125 365.855469 348.164062 L 364.777344 349.757812 L 367.96875 351.917969 L 369.046875 350.320312 C 371.039062 347.375 373.613281 344.820312 376.769531 342.65625 L 378.359375 341.566406 L 376.183594 338.386719 Z M 361.066406 359.527344 C 360.253906 363.25 359.972656 367.292969 360.222656 371.652344 L 360.332031 373.574219 L 364.175781 373.355469 L 364.066406 371.429688 C 363.835938 367.425781 364.089844 363.730469 364.832031 360.347656 L 365.242188 358.46875 L 361.480469 357.644531 Z M 359.8125 382.675781 C 358.96875 386.203125 357.523438 389.5625 355.472656 392.753906 L 354.433594 394.375 L 357.671875 396.457031 L 358.714844 394.835938 C 361 391.277344 362.613281 387.523438 363.558594 383.570312 L 364.003906 381.695312 L 360.257812 380.800781 Z M 348.183594 401.101562 C 345.496094 403.445312 342.414062 405.574219 338.933594 407.488281 L 337.246094 408.414062 L 339.097656 411.792969 L 340.789062 410.863281 C 344.507812 408.820312 347.820312 406.535156 350.714844 404.007812 L 352.167969 402.742188 L 349.636719 399.835938 Z M 328.59375 412.109375 C 325.183594 413.339844 321.527344 414.417969 317.621094 415.339844 L 315.75 415.78125 L 316.632812 419.53125 L 318.507812 419.089844 C 322.554688 418.132812 326.351562 417.015625 329.902344 415.730469 L 331.714844 415.078125 L 330.40625 411.453125 Z M 306.339844 417.472656 C 302.683594 418.007812 298.859375 418.433594 294.867188 418.746094 L 292.949219 418.894531 L 293.246094 422.738281 L 295.167969 422.585938 C 299.246094 422.265625 303.15625 421.832031 306.898438 421.285156 L 308.804688 421.003906 L 308.246094 417.191406 Z M 283.332031 419.324219 C 279.824219 419.410156 276.210938 419.421875 272.492188 419.355469 L 271.691406 419.351562 L 269.765625 419.339844 L 269.738281 423.191406 L 271.664062 423.203125 L 272.421875 423.207031 C 276.195312 423.273438 280.503906 423.25 285.347656 423.128906 L 285.257812 419.277344 Z M 259.929688 419.605469 C 255.996094 419.769531 252.09375 420.003906 248.222656 420.304688 L 246.304688 420.457031 L 246.601562 424.296875 L 248.523438 424.148438 C 252.347656 423.847656 256.203125 423.621094 260.089844 423.457031 L 262.011719 423.378906 L 261.851562 419.527344 Z M 236.5625 421.449219 C 232.507812 421.929688 228.617188 422.484375 224.890625 423.117188 L 222.992188 423.4375 L 223.632812 427.238281 L 225.53125 426.917969 C 229.195312 426.296875 233.023438 425.75 237.015625 425.273438 L 238.929688 425.046875 L 238.476562 421.21875 Z M 213.308594 425.449219 C 209.203125 426.421875 205.402344 427.5 201.898438 428.683594 L 200.074219 429.296875 L 201.308594 432.949219 L 203.132812 432.332031 C 206.519531 431.1875 210.207031 430.144531 214.199219 429.199219 L 216.070312 428.753906 L 215.183594 425.003906 Z M 190.890625 433.25 C 186.878906 435.304688 183.523438 437.570312 180.832031 440.042969 L 179.410156 441.347656 L 182.015625 444.1875 L 183.433594 442.882812 C 185.871094 440.644531 188.941406 438.578125 192.644531 436.679688 L 194.359375 435.804688 L 192.601562 432.375 Z M 190.890625 433.25 " fill-opacity="1" fill-rule="nonzero"/></g><g clip-path="url(#id7)"><path fill="rgb(100%, 100%, 100%)" d="M 276.046875 174.949219 C 276.019531 174.910156 276.019531 174.882812 275.992188 174.839844 L 181.738281 76.011719 C 168.765625 63.277344 167.027344 58.59375 156.484375 58.59375 C 148.308594 58.59375 142.597656 63.976562 128.671875 77.523438 L 37.53125 174.828125 C 34.75 177.59375 32.996094 181.519531 32.996094 185.890625 L 32.996094 325.398438 C 32.996094 333.792969 39.421875 340.605469 47.355469 340.605469 L 266.113281 340.605469 C 274.035156 340.605469 280.449219 333.792969 280.449219 325.398438 L 280.449219 185.890625 C 280.449219 181.585938 278.761719 177.714844 276.046875 174.949219 " fill-opacity="1" fill-rule="nonzero"/></g><g clip-path="url(#id8)"><path stroke-linecap="round" transform="matrix(0.134961, 0, 0, -0.13492, -130.820113, 474.904313)" fill="none" stroke-linejoin="round" d="M 3014.694168 2223.200016 C 3014.491563 2223.489539 3014.491563 2223.692205 3014.288959 2224.01068 L 2315.911578 2956.502621 C 2219.790261 3050.886958 2206.910409 3085.600706 2128.79194 3085.600706 C 2068.213223 3085.600706 2025.897846 3045.704505 1922.685374 2945.2981 L 1247.404896 2224.097536 C 1226.797133 2203.599343 1213.801508 2174.502331 1213.801508 2142.104762 L 1213.801508 1108.104083 C 1213.801508 1045.885696 1261.413543 995.450876 1320.197764 995.450876 L 2941.090882 995.450876 C 2999.788272 995.450876 3047.313477 1045.885696 3047.313477 1108.104083 L 3047.313477 2142.104762 C 3047.313477 2174.010143 3034.809891 2202.701823 3014.694168 2223.200016 Z M 3014.694168 2223.200016 " stroke="rgb(22.349548%, 35.688782%, 69.799805%)" stroke-width="30" stroke-opacity="1" stroke-miterlimit="10"/></g><g clip-path="url(#id9)"><path fill="rgb(25.099182%, 32.939148%, 69.799805%)" d="M 141.085938 340.402344 L 141.085938 225.421875 C 141.085938 220.863281 137.660156 217.179688 133.421875 217.179688 L 76.332031 217.179688 C 72.109375 217.179688 68.667969 220.863281 68.667969 225.421875 L 68.667969 340.402344 L 141.085938 340.402344 " fill-opacity="1" fill-rule="nonzero"/></g><g clip-path="url(#id10)"><path stroke-linecap="round" transform="matrix(0.134961, 0, 0, -0.13492, -130.820113, 474.904313)" fill="none" stroke-linejoin="round" d="M 2014.696717 996.927441 L 2014.696717 1849.107986 C 2014.696717 1882.895262 1989.313279 1910.197235 1957.909597 1910.197235 L 1534.900545 1910.197235 C 1503.612636 1910.197235 1478.113425 1882.895262 1478.113425 1849.107986 L 1478.113425 996.927441 Z M 2014.696717 996.927441 " stroke="rgb(22.349548%, 35.688782%, 69.799805%)" stroke-width="30" stroke-opacity="1" stroke-miterlimit="10"/></g><g clip-path="url(#id11)"><path fill="rgb(100%, 100%, 100%)" d="M 273.214844 317.707031 C 270.769531 317.707031 268.53125 318.492188 266.695312 319.800781 C 266.855469 319.125 266.953125 318.4375 266.953125 317.707031 C 266.953125 312.878906 263.023438 308.953125 258.179688 308.953125 C 255.101562 308.953125 252.402344 310.542969 250.835938 312.945312 C 249.269531 310.542969 246.558594 308.953125 243.480469 308.953125 C 241.835938 308.953125 240.308594 309.410156 239 310.195312 C 237.855469 305.1875 233.386719 301.4375 228.027344 301.4375 C 222.523438 301.4375 217.960938 305.375 216.960938 310.585938 C 215.53125 309.558594 213.777344 308.953125 211.875 308.953125 C 209.363281 308.953125 207.097656 310.019531 205.503906 311.703125 C 203.507812 308.546875 199.996094 306.441406 195.976562 306.441406 C 189.753906 306.441406 184.71875 311.488281 184.71875 317.707031 C 184.71875 318.019531 184.734375 318.316406 184.761719 318.613281 C 183.398438 318.03125 181.914062 317.707031 180.332031 317.707031 C 174.125 317.707031 169.078125 322.753906 169.078125 328.972656 C 169.078125 335.195312 174.125 340.242188 180.332031 340.242188 L 273.214844 340.242188 C 279.433594 340.242188 284.46875 335.195312 284.46875 328.972656 C 284.46875 322.753906 279.433594 317.707031 273.214844 317.707031 " fill-opacity="1" fill-rule="nonzero"/></g><g clip-path="url(#id12)"><path stroke-linecap="round" transform="matrix(0.134961, 0, 0, -0.13492, -130.820113, 474.904313)" fill="none" stroke-linejoin="round" d="M 2993.71014 1165.111065 C 2975.591518 1165.111065 2959.0069 1159.291662 2945.403462 1149.592658 C 2946.590144 1154.601398 2947.313732 1159.696994 2947.313732 1165.111065 C 2947.313732 1200.896046 2918.196584 1229.993058 2882.306661 1229.993058 C 2859.499194 1229.993058 2839.499245 1218.209492 2827.892907 1200.403858 C 2816.286569 1218.209492 2796.19979 1229.993058 2773.392323 1229.993058 C 2761.207115 1229.993058 2749.890212 1226.605645 2740.194144 1220.786243 C 2731.713702 1257.903028 2698.602354 1285.697188 2658.891891 1285.697188 C 2618.110519 1285.697188 2584.304527 1256.51332 2576.894994 1217.891017 C 2566.301678 1225.505459 2553.306053 1229.993058 2539.210575 1229.993058 C 2520.599913 1229.993058 2503.812691 1222.089094 2492.003749 1209.610674 C 2477.213627 1233.004092 2451.193433 1248.609355 2421.410586 1248.609355 C 2375.303612 1248.609355 2337.995459 1211.203048 2337.995459 1165.111065 C 2337.995459 1162.794885 2338.111232 1160.594513 2338.313837 1158.394142 C 2328.21256 1162.708028 2317.214035 1165.111065 2305.491923 1165.111065 C 2259.500724 1165.111065 2222.105739 1127.704757 2222.105739 1081.612774 C 2222.105739 1035.491838 2259.500724 998.143435 2305.491923 998.143435 L 2993.71014 998.143435 C 3039.78817 998.143435 3077.096324 1035.491838 3077.096324 1081.612774 C 3077.096324 1127.704757 3039.78817 1165.111065 2993.71014 1165.111065 Z M 2993.71014 1165.111065 " stroke="rgb(22.349548%, 35.688782%, 69.799805%)" stroke-width="30" stroke-opacity="1" stroke-miterlimit="10"/></g><path fill="rgb(100%, 100%, 100%)" d="M 156.4375 208.761719 L 221.746094 208.761719 L 221.746094 298.105469 L 156.4375 298.105469 L 156.4375 208.761719 " fill-opacity="1" fill-rule="nonzero"/><path fill="rgb(100%, 100%, 100%)" d="M 179.953125 250.125 L 245.253906 250.125 L 245.253906 287.21875 L 179.953125 287.21875 L 179.953125 250.125 " fill-opacity="1" fill-rule="nonzero"/><path stroke-linecap="butt" transform="matrix(11.638943, 22.247826, -22.221704, 11.625277, 179.945265, 148.866069)" fill="none" stroke-linejoin="miter" d="M 0.0000403248 0.0000190049 L 7.200021 -0.00000878651 " stroke="rgb(100%, 100%, 100%)" stroke-width="1" stroke-opacity="1" stroke-miterlimit="4"/><g clip-path="url(#id13)"><path fill="rgb(25.099182%, 32.939148%, 69.799805%)" d="M 235.332031 283.382812 C 235.332031 285.320312 235.332031 287.257812 235.332031 289.199219 C 235.28125 289.246094 235.234375 289.292969 235.234375 289.292969 C 209.015625 289.292969 182.75 289.292969 156.535156 289.292969 C 156.484375 289.246094 156.4375 289.199219 156.4375 289.199219 C 156.4375 287.308594 156.4375 285.417969 156.4375 283.480469 C 157.988281 283.238281 159.539062 282.996094 161.039062 282.800781 C 161.429688 282.753906 161.523438 282.558594 161.523438 282.171875 C 161.523438 280.960938 161.523438 279.746094 161.523438 278.585938 C 161.523438 278.195312 161.621094 278.003906 162.058594 278.050781 C 162.738281 278.101562 163.367188 278.050781 164.046875 278.050781 C 165.015625 278.050781 164.917969 278.148438 164.917969 277.179688 C 164.917969 257.359375 164.917969 237.535156 164.917969 217.714844 C 185.660156 217.714844 206.398438 217.714844 227.140625 217.714844 C 227.140625 237.488281 227.140625 257.210938 227.140625 276.984375 C 227.140625 277.179688 227.140625 277.324219 227.140625 277.519531 C 227.09375 277.953125 227.238281 278.101562 227.675781 278.101562 C 228.351562 278.050781 229.03125 278.101562 229.710938 278.101562 C 230.144531 278.101562 230.289062 278.195312 230.289062 278.632812 C 230.242188 279.699219 230.289062 280.714844 230.289062 281.78125 C 230.289062 282.703125 230.289062 282.753906 231.210938 282.898438 C 232.570312 283.042969 233.925781 283.382812 235.332031 283.382812 Z M 207.417969 271.847656 C 207.613281 271.847656 207.757812 271.847656 207.949219 271.847656 C 208.917969 271.847656 208.917969 271.800781 208.726562 270.878906 C 208.582031 269.957031 208.484375 269.039062 208.339844 268.117188 C 208.191406 267.148438 208.046875 266.179688 207.855469 265.207031 C 207.707031 264.09375 207.613281 262.980469 207.464844 261.863281 C 207.175781 259.683594 206.980469 257.503906 207.03125 255.324219 C 207.03125 254.984375 207.078125 254.691406 207.367188 254.546875 C 207.660156 254.984375 207.949219 255.417969 208.191406 255.855469 C 209.113281 257.746094 209.648438 259.78125 210.082031 261.863281 C 210.566406 264.144531 210.957031 266.421875 211.199219 268.746094 C 211.292969 269.667969 211.390625 270.589844 211.441406 271.507812 C 211.441406 272.042969 211.875 271.847656 212.117188 271.847656 C 212.457031 271.898438 212.410156 271.703125 212.410156 271.460938 C 212.359375 270.347656 212.167969 269.28125 212.070312 268.214844 C 211.925781 266.855469 212.457031 265.597656 212.75 264.289062 C 212.992188 263.269531 213.425781 262.300781 213.570312 261.285156 C 213.71875 261.1875 213.765625 260.992188 213.8125 260.847656 C 214.105469 260.21875 214.300781 259.539062 214.832031 259.101562 C 215.027344 259.296875 214.929688 259.488281 214.929688 259.734375 C 214.929688 260.75 214.929688 261.816406 214.832031 262.835938 C 214.6875 263.996094 214.589844 265.160156 214.394531 266.324219 C 214.152344 268.066406 213.863281 269.765625 213.425781 271.460938 C 213.378906 271.75 213.425781 271.898438 213.71875 271.847656 C 213.863281 271.847656 214.007812 271.847656 214.203125 271.847656 C 214.25 271.847656 214.300781 271.847656 214.347656 271.847656 C 214.542969 272.234375 214.589844 272.625 214.589844 273.011719 C 214.589844 274.757812 214.542969 276.550781 214.589844 278.292969 C 214.589844 279.652344 214.25 280.765625 212.84375 281.296875 C 213.621094 281.347656 214.347656 281.347656 215.121094 281.347656 C 216.238281 281.347656 217.253906 280.28125 217.253906 279.164062 C 217.253906 278.003906 217.253906 276.792969 217.253906 275.628906 C 218.855469 275.628906 220.453125 275.628906 222.101562 275.628906 C 222.632812 275.628906 222.730469 275.433594 222.730469 274.949219 C 222.730469 267.148438 222.730469 259.394531 222.730469 251.589844 C 222.730469 251.105469 222.632812 250.960938 222.101562 250.960938 C 214.300781 250.960938 206.546875 250.960938 198.742188 250.960938 C 198.308594 250.960938 198.160156 251.058594 198.160156 251.492188 C 198.160156 259.34375 198.160156 267.246094 198.160156 275.09375 C 198.160156 275.484375 198.257812 275.628906 198.644531 275.628906 C 200.679688 275.628906 202.71875 275.628906 204.753906 275.628906 C 205.1875 275.628906 205.285156 275.433594 205.285156 275.09375 C 205.285156 274.269531 205.285156 273.449219 205.285156 272.574219 C 205.285156 271.800781 205.285156 271.800781 206.0625 271.800781 C 206.546875 271.847656 206.980469 271.847656 207.417969 271.847656 Z M 198.257812 234.339844 C 198.257812 238.261719 198.257812 242.1875 198.257812 246.066406 C 198.257812 246.597656 198.402344 246.695312 198.9375 246.695312 C 206.691406 246.695312 214.445312 246.695312 222.199219 246.695312 C 222.730469 246.695312 222.828125 246.550781 222.828125 246.019531 C 222.828125 238.167969 222.828125 230.363281 222.828125 222.511719 C 222.828125 221.980469 222.683594 221.882812 222.148438 221.882812 C 214.394531 221.882812 206.640625 221.882812 198.886719 221.882812 C 198.355469 221.882812 198.257812 222.027344 198.257812 222.5625 C 198.257812 226.535156 198.257812 230.460938 198.257812 234.339844 Z M 193.703125 234.339844 C 193.703125 230.460938 193.703125 226.535156 193.703125 222.660156 C 193.703125 222.078125 193.558594 221.933594 192.976562 221.933594 C 185.269531 221.933594 177.613281 221.933594 169.910156 221.933594 C 169.183594 221.933594 169.132812 221.933594 169.132812 222.660156 C 169.132812 230.414062 169.132812 238.214844 169.132812 245.96875 C 169.132812 246.503906 169.277344 246.695312 169.859375 246.695312 C 177.566406 246.695312 185.320312 246.695312 193.023438 246.695312 C 193.558594 246.695312 193.65625 246.550781 193.65625 246.019531 C 193.703125 242.1875 193.703125 238.261719 193.703125 234.339844 Z M 193.703125 263.367188 C 193.703125 259.488281 193.703125 255.566406 193.703125 251.6875 C 193.703125 251.203125 193.558594 251.007812 193.074219 251.007812 C 185.320312 251.007812 177.566406 251.007812 169.8125 251.007812 C 169.328125 251.007812 169.132812 251.15625 169.132812 251.640625 C 169.132812 259.441406 169.132812 267.195312 169.132812 275 C 169.132812 275.484375 169.277344 275.675781 169.761719 275.675781 C 177.515625 275.675781 185.269531 275.675781 193.023438 275.675781 C 193.507812 275.675781 193.703125 275.53125 193.703125 275.046875 C 193.703125 271.167969 193.703125 267.246094 193.703125 263.367188 Z M 193.703125 263.367188 " fill-opacity="1" fill-rule="nonzero"/></g><path fill="rgb(68.629456%, 74.119568%, 100%)" d="M 213.621094 261.285156 C 213.570312 259.296875 213.378906 257.359375 213.039062 255.417969 C 212.894531 254.449219 212.652344 253.53125 212.261719 252.65625 C 212.117188 252.367188 211.925781 252.027344 211.585938 252.027344 C 211.199219 251.980469 211.101562 252.367188 210.957031 252.609375 C 210.421875 253.722656 210.324219 254.886719 210.179688 256.097656 C 210.082031 256.875 210.132812 257.648438 209.839844 258.570312 C 209.40625 257.453125 209.015625 256.484375 208.53125 255.566406 C 208.289062 255.128906 208.097656 254.59375 207.464844 254.546875 C 207.757812 254.984375 208.046875 255.417969 208.289062 255.855469 C 209.210938 257.746094 209.742188 259.78125 210.179688 261.863281 C 210.664062 264.144531 211.050781 266.421875 211.292969 268.746094 C 211.390625 269.667969 211.488281 270.589844 211.535156 271.507812 C 211.535156 272.042969 211.972656 271.847656 212.214844 271.847656 C 212.554688 271.898438 212.507812 271.703125 212.507812 271.460938 C 212.457031 270.347656 212.261719 269.28125 212.167969 268.214844 C 212.019531 266.855469 212.554688 265.597656 212.84375 264.289062 C 212.992188 263.269531 213.425781 262.300781 213.621094 261.285156 Z M 213.621094 261.285156 " fill-opacity="1" fill-rule="nonzero"/><path fill="rgb(68.629456%, 74.119568%, 100%)" d="M 217.351562 272.429688 C 217.351562 271.992188 217.207031 271.800781 216.722656 271.847656 C 215.945312 271.898438 215.171875 271.847656 214.394531 271.847656 C 214.589844 272.234375 214.636719 272.625 214.636719 273.011719 C 214.636719 274.757812 214.589844 276.550781 214.636719 278.292969 C 214.636719 279.652344 214.300781 280.765625 212.894531 281.296875 C 213.667969 281.347656 214.394531 281.347656 215.171875 281.347656 C 216.285156 281.347656 217.304688 280.28125 217.304688 279.164062 C 217.304688 278.003906 217.304688 276.792969 217.304688 275.628906 C 217.304688 274.609375 217.304688 273.542969 217.351562 272.429688 Z M 217.351562 272.429688 " fill-opacity="1" fill-rule="nonzero"/><path fill="rgb(68.629456%, 74.119568%, 100%)" d="M 208.339844 268.117188 C 208.191406 267.148438 208.046875 266.179688 207.855469 265.207031 C 206.691406 264.578125 205.867188 265.449219 205.867188 266.566406 C 205.867188 267.488281 206.15625 268.308594 206.398438 269.132812 C 206.640625 270.054688 207.175781 270.878906 207.417969 271.847656 C 207.613281 271.847656 207.757812 271.847656 207.949219 271.847656 C 208.917969 271.847656 208.917969 271.800781 208.726562 270.878906 C 208.582031 269.957031 208.484375 269.039062 208.339844 268.117188 Z M 208.339844 268.117188 " fill-opacity="1" fill-rule="nonzero"/><path fill="rgb(68.629456%, 74.119568%, 100%)" d="M 214.878906 262.785156 C 214.734375 263.949219 214.636719 265.113281 214.445312 266.273438 C 214.203125 268.019531 213.910156 269.714844 213.476562 271.410156 C 213.425781 271.703125 213.476562 271.847656 213.765625 271.800781 C 213.910156 271.800781 214.054688 271.800781 214.25 271.800781 C 214.300781 271.605469 214.300781 271.363281 214.347656 271.167969 C 214.6875 269.570312 214.976562 267.972656 215.21875 266.324219 C 215.460938 264.773438 215.605469 263.222656 215.753906 261.671875 C 215.851562 260.847656 215.851562 260.023438 215.703125 259.199219 C 215.65625 259.003906 215.703125 258.714844 215.414062 258.667969 C 215.171875 258.617188 214.976562 258.761719 214.832031 258.957031 C 215.027344 259.152344 214.929688 259.34375 214.929688 259.585938 C 214.976562 260.703125 215.027344 261.769531 214.878906 262.785156 Z M 214.878906 262.785156 " fill-opacity="1" fill-rule="nonzero"/></svg>