<svg xmlns="http://www.w3.org/2000/svg" xmlns:xlink="http://www.w3.org/1999/xlink" width="720" zoomAndPan="magnify" viewBox="0 0 540 959.999988" height="1280" preserveAspectRatio="xMidYMid meet" version="1.0"><defs><g><g id="id1"/><g id="id2"/></g><clipPath id="id3"><path d="M 110 383 L 377 383 L 377 685.242188 L 110 685.242188 Z M 110 383 " clip-rule="nonzero"/></clipPath><clipPath id="id4"><path d="M 148 550 L 230 550 L 230 685.242188 L 148 685.242188 Z M 148 550 " clip-rule="nonzero"/></clipPath><clipPath id="id5"><path d="M 178.367188 609 L 453.65625 609 L 453.65625 685.292969 L 178.367188 685.292969 Z M 178.367188 609 " clip-rule="nonzero"/></clipPath><clipPath id="id6"><path d="M 298 426.621094 L 451 426.621094 L 451 667 L 298 667 Z M 298 426.621094 " clip-rule="nonzero"/></clipPath><clipPath id="id7"><path d="M 261 673 L 453.65625 673 L 453.65625 685.292969 L 261 685.292969 Z M 261 673 " clip-rule="nonzero"/></clipPath><clipPath id="id8"><path d="M 143.75 681.613281 L 369 681.613281 L 369 684 L 143.75 684 Z M 143.75 681.613281 " clip-rule="nonzero"/></clipPath><clipPath id="id9"><path d="M 143.75 681.613281 L 370.847656 681.613281 L 370.847656 685.160156 L 143.75 685.160156 Z M 143.75 681.613281 " clip-rule="nonzero"/></clipPath><clipPath id="id10"><path d="M 144 681.613281 L 221 681.613281 L 221 683 L 144 683 Z M 144 681.613281 " clip-rule="nonzero"/></clipPath><clipPath id="id11"><path d="M 143.75 681.613281 L 223 681.613281 L 223 685.160156 L 143.75 685.160156 Z M 143.75 681.613281 " clip-rule="nonzero"/></clipPath><clipPath id="id12"><path d="M 250 681.613281 L 370.847656 681.613281 L 370.847656 683 L 250 683 Z M 250 681.613281 " clip-rule="nonzero"/></clipPath><clipPath id="id13"><path d="M 248 681.613281 L 370.847656 681.613281 L 370.847656 685 L 248 685 Z M 248 681.613281 " clip-rule="nonzero"/></clipPath><clipPath id="id14"><path d="M 237.070312 552.820312 L 320.707031 552.820312 L 320.707031 628.707031 L 237.070312 628.707031 Z M 237.070312 552.820312 " clip-rule="nonzero"/></clipPath></defs><rect x="-54" width="648" fill="rgb(100%, 100%, 100%)" y="-95.999999" height="1151.999986" fill-opacity="1"/><rect x="-54" width="648" fill="rgb(100%, 100%, 100%)" y="-95.999999" height="1151.999986" fill-opacity="1"/><rect x="-54" width="648" fill="rgb(100%, 100%, 100%)" y="-95.999999" height="1151.999986" fill-opacity="1"/><rect x="-54" width="648" fill="rgb(100%, 100%, 100%)" y="-95.999999" height="1151.999986" fill-opacity="1"/><path fill="rgb(100%, 100%, 100%)" d="M 369.722656 508.164062 C 369.695312 508.121094 369.695312 508.089844 369.667969 508.046875 L 270.089844 403.628906 C 256.390625 390.167969 254.550781 385.222656 243.414062 385.222656 C 234.773438 385.222656 228.746094 390.910156 214.03125 405.222656 L 117.75 508.035156 C 114.8125 510.957031 112.957031 515.105469 112.957031 519.722656 L 112.957031 667.125 C 112.957031 675.992188 119.746094 683.191406 128.128906 683.191406 L 359.230469 683.191406 C 367.597656 683.191406 374.371094 675.992188 374.371094 667.125 L 374.371094 519.722656 C 374.371094 515.175781 372.589844 511.085938 369.722656 508.164062 " fill-opacity="1" fill-rule="nonzero"/><g clip-path="url(#id3)"><path stroke-linecap="round" transform="matrix(0.142576, 0, 0, -0.142554, -60.100093, 825.08916)" fill="none" stroke-linejoin="round" d="M 3014.695905 2223.186679 C 3014.504121 2223.488099 3014.504121 2223.707313 3014.312337 2224.008733 L 2315.890101 2956.486657 C 2219.806357 3050.913312 2206.902039 3085.60401 2128.791189 3085.60401 C 2068.187471 3085.60401 2025.912815 3045.706967 1922.70567 2945.306716 L 1247.407094 2224.090939 C 1226.804022 2203.594381 1213.790113 2174.493653 1213.790113 2142.104708 L 1213.790113 1108.097209 C 1213.790113 1045.895088 1261.40732 995.448346 1320.20279 995.448346 L 2941.105676 995.448346 C 2999.791555 995.448346 3047.299171 1045.895088 3047.299171 1108.097209 L 3047.299171 2142.104708 C 3047.299171 2174.000421 3034.805819 2202.690121 3014.695905 2223.186679 Z M 3014.695905 2223.186679 " stroke="rgb(22.349548%, 35.688782%, 69.799805%)" stroke-width="30" stroke-opacity="1" stroke-miterlimit="10"/></g><path fill="rgb(100%, 100%, 100%)" d="M 250.558594 632.539062 C 246.910156 632.539062 243.957031 628.761719 243.957031 624.101562 L 243.957031 561.222656 C 243.957031 556.558594 246.910156 552.78125 250.558594 552.78125 L 344.160156 552.78125 C 347.808594 552.78125 350.761719 556.558594 350.761719 561.222656 L 350.761719 624.101562 C 350.761719 628.761719 347.808594 632.539062 344.160156 632.539062 L 250.558594 632.539062 " fill-opacity="1" fill-rule="nonzero"/><path stroke-linecap="round" transform="matrix(0.142576, 0, 0, -0.142554, -60.100093, 825.08916)" fill="none" stroke-linejoin="round" d="M 2178.901587 1350.712881 C 2153.312133 1350.712881 2132.59947 1377.210436 2132.59947 1409.900802 L 2132.59947 1850.987822 C 2132.59947 1883.70559 2153.312133 1910.203145 2178.901587 1910.203145 L 2835.405339 1910.203145 C 2860.994793 1910.203145 2881.707456 1883.70559 2881.707456 1850.987822 L 2881.707456 1409.900802 C 2881.707456 1377.210436 2860.994793 1350.712881 2835.405339 1350.712881 Z M 2178.901587 1350.712881 " stroke="rgb(22.349548%, 35.688782%, 69.799805%)" stroke-width="30" stroke-opacity="1" stroke-miterlimit="10"/><path fill="rgb(100%, 100%, 100%)" d="M 391.136719 505.523438 L 250.34375 364.753906 C 246.867188 361.261719 243.128906 359.332031 240.109375 362.34375 C 240.109375 362.34375 231.609375 368.871094 229.785156 370.683594 L 94.679688 505.78125 C 91.328125 509.117188 89.503906 512.738281 92.527344 515.746094 L 100.953125 524.183594 C 103.976562 527.191406 107.582031 525.382812 110.933594 522.03125 L 243.03125 389.957031 L 374.882812 521.777344 C 378.363281 525.269531 382.085938 527.191406 385.105469 524.183594 L 393.546875 515.746094 C 396.554688 512.738281 394.632812 509.015625 391.136719 505.523438 " fill-opacity="1" fill-rule="nonzero"/><path stroke-linecap="round" transform="matrix(0.142576, 0, 0, -0.142554, -60.100093, 825.08916)" fill="none" stroke-linejoin="round" d="M 3164.890111 2241.710306 L 2177.394714 3229.189522 C 2153.010758 3253.686745 2126.791157 3267.19584 2105.612733 3246.096442 C 2105.612733 3246.096442 2045.995332 3200.308009 2033.200604 3187.593567 L 1085.596262 2239.901786 C 1062.089033 2216.500636 1049.294306 2191.099153 1070.500128 2169.999755 L 1129.596973 2110.811835 C 1150.802794 2089.712437 1176.090874 2102.399477 1199.598103 2125.910235 L 2126.106214 3052.39301 L 3050.88827 2127.691353 C 3075.299623 2103.19413 3101.409634 2089.712437 3122.588058 2110.811835 L 3181.794494 2169.999755 C 3202.890725 2191.099153 3189.411055 2217.213083 3164.890111 2241.710306 Z M 3164.890111 2241.710306 " stroke="rgb(22.349548%, 35.688782%, 69.799805%)" stroke-width="30" stroke-opacity="1" stroke-miterlimit="10"/><path fill="rgb(25.099182%, 32.939148%, 69.799805%)" d="M 227.148438 682.976562 L 227.148438 561.492188 C 227.148438 556.671875 223.527344 552.78125 219.050781 552.78125 L 158.738281 552.78125 C 154.277344 552.78125 150.640625 556.671875 150.640625 561.492188 L 150.640625 682.976562 L 227.148438 682.976562 " fill-opacity="1" fill-rule="nonzero"/><g clip-path="url(#id4)"><path stroke-linecap="round" transform="matrix(0.142576, 0, 0, -0.142554, -60.100093, 825.08916)" fill="none" stroke-linejoin="round" d="M 2014.707155 996.928044 L 2014.707155 1849.097097 C 2014.707155 1882.910937 1989.309485 1910.203145 1957.911717 1910.203145 L 1534.891188 1910.203145 C 1503.603012 1910.203145 1478.095751 1882.910937 1478.095751 1849.097097 L 1478.095751 996.928044 Z M 2014.707155 996.928044 " stroke="rgb(22.349548%, 35.688782%, 69.799805%)" stroke-width="30" stroke-opacity="1" stroke-miterlimit="10"/></g><path fill="rgb(25.099182%, 32.939148%, 69.799805%)" d="M 259.097656 622.890625 C 256.117188 622.890625 253.695312 620.023438 253.695312 616.488281 L 253.695312 568.832031 C 253.695312 565.296875 256.117188 562.433594 259.097656 562.433594 L 335.617188 562.433594 C 338.597656 562.433594 341.023438 565.296875 341.023438 568.832031 L 341.023438 616.488281 C 341.023438 620.023438 338.597656 622.890625 335.617188 622.890625 L 259.097656 622.890625 " fill-opacity="1" fill-rule="nonzero"/><path stroke-linecap="round" transform="matrix(0.142576, 0, 0, -0.142554, -60.100093, 825.08916)" fill="none" stroke-linejoin="round" d="M 2238.792965 1418.395365 C 2217.888518 1418.395365 2200.901942 1438.508297 2200.901942 1463.30694 L 2200.901942 1797.609086 C 2200.901942 1822.407729 2217.888518 1842.49326 2238.792965 1842.49326 L 2775.486563 1842.49326 C 2796.39101 1842.49326 2813.404983 1822.407729 2813.404983 1797.609086 L 2813.404983 1463.30694 C 2813.404983 1438.508297 2796.39101 1418.395365 2775.486563 1418.395365 Z M 2238.792965 1418.395365 " stroke="rgb(22.349548%, 35.688782%, 69.799805%)" stroke-width="30" stroke-opacity="1" stroke-miterlimit="10"/><path fill="rgb(100%, 100%, 100%)" d="M 341.023438 580.980469 L 341.023438 568.832031 C 341.023438 565.296875 338.597656 562.433594 335.617188 562.433594 L 259.097656 562.433594 C 256.117188 562.433594 253.695312 565.296875 253.695312 568.832031 L 253.695312 580.980469 L 341.023438 580.980469 " fill-opacity="1" fill-rule="nonzero"/><path stroke-linecap="round" transform="matrix(0.142576, 0, 0, -0.142554, -60.100093, 825.08916)" fill="none" stroke-linejoin="round" d="M 2813.404983 1712.389441 L 2813.404983 1797.609086 C 2813.404983 1822.407729 2796.39101 1842.49326 2775.486563 1842.49326 L 2238.792965 1842.49326 C 2217.888518 1842.49326 2200.901942 1822.407729 2200.901942 1797.609086 L 2200.901942 1712.389441 Z M 2813.404983 1712.389441 " stroke="rgb(22.349548%, 35.688782%, 69.799805%)" stroke-width="30" stroke-opacity="1" stroke-miterlimit="10"/><path fill="rgb(100%, 100%, 100%)" d="M 366.730469 659 C 364.148438 659 361.78125 659.824219 359.84375 661.207031 C 360.015625 660.496094 360.113281 659.769531 360.113281 659 C 360.113281 653.894531 355.964844 649.746094 350.847656 649.746094 C 347.59375 649.746094 344.742188 651.429688 343.089844 653.96875 C 341.4375 651.429688 338.570312 649.746094 335.320312 649.746094 C 333.582031 649.746094 331.96875 650.230469 330.585938 651.058594 C 329.375 645.769531 324.65625 641.808594 318.996094 641.808594 C 313.175781 641.808594 308.359375 645.96875 307.304688 651.472656 C 305.792969 650.390625 303.9375 649.746094 301.929688 649.746094 C 299.277344 649.746094 296.882812 650.875 295.199219 652.65625 C 293.089844 649.320312 289.382812 647.097656 285.132812 647.097656 C 278.558594 647.097656 273.242188 652.425781 273.242188 659 C 273.242188 659.328125 273.257812 659.640625 273.285156 659.953125 C 271.84375 659.339844 270.277344 659 268.609375 659 C 262.050781 659 256.71875 664.332031 256.71875 670.902344 C 256.71875 677.472656 262.050781 682.804688 268.609375 682.804688 L 366.730469 682.804688 C 373.300781 682.804688 378.621094 677.472656 378.621094 670.902344 C 378.621094 664.332031 373.300781 659 366.730469 659 " fill-opacity="1" fill-rule="nonzero"/><path stroke-linecap="round" transform="matrix(0.142576, 0, 0, -0.142554, -60.100093, 825.08916)" fill="none" stroke-linejoin="round" d="M 2993.709265 1165.092985 C 2975.599383 1165.092985 2958.996375 1159.311202 2945.407115 1149.610959 C 2946.612614 1154.598089 2947.297556 1159.694827 2947.297556 1165.092985 C 2947.297556 1200.907157 2918.201196 1230.007885 2882.310206 1230.007885 C 2859.487919 1230.007885 2839.487596 1218.197703 2827.898368 1200.386523 C 2816.30914 1218.197703 2796.199226 1230.007885 2773.404338 1230.007885 C 2761.21236 1230.007885 2749.897109 1226.61006 2740.198322 1220.800875 C 2731.705034 1257.902933 2698.608609 1285.688374 2658.909338 1285.688374 C 2618.086761 1285.688374 2584.305394 1256.50544 2576.908014 1217.896283 C 2566.305103 1225.486585 2553.291194 1230.007885 2539.208775 1230.007885 C 2520.605735 1230.007885 2503.810943 1222.08876 2492.002533 1209.593533 C 2477.207774 1232.994683 2451.207354 1248.586316 2421.398654 1248.586316 C 2375.28832 1248.586316 2338.000047 1211.21024 2338.000047 1165.092985 C 2338.000047 1162.791232 2338.109637 1160.599087 2338.301421 1158.406942 C 2328.191669 1162.709027 2317.20519 1165.092985 2305.506371 1165.092985 C 2259.505628 1165.092985 2222.107764 1127.689507 2222.107764 1081.599654 C 2222.107764 1035.5098 2259.505628 998.133724 2305.506371 998.133724 L 2993.709265 998.133724 C 3039.792201 998.133724 3077.107872 1035.5098 3077.107872 1081.599654 C 3077.107872 1127.689507 3039.792201 1165.092985 2993.709265 1165.092985 Z M 2993.709265 1165.092985 " stroke="rgb(22.349548%, 35.688782%, 69.799805%)" stroke-width="30" stroke-opacity="1" stroke-miterlimit="10"/><g clip-path="url(#id5)"><path fill="rgb(100%, 100%, 100%)" d="M 262.023438 609.707031 L 487.632812 609.707031 L 570.75 808.6875 L 178.902344 808.6875 L 262.023438 609.707031 " fill-opacity="1" fill-rule="nonzero"/></g><path fill="rgb(25.099182%, 32.939148%, 69.799805%)" d="M 409.128906 669.847656 C 409.128906 677.851562 393.9375 684.328125 375.214844 684.328125 C 356.472656 684.328125 341.304688 677.851562 341.304688 669.847656 C 341.304688 661.839844 356.472656 655.34375 375.214844 655.34375 C 393.9375 655.34375 409.128906 661.839844 409.128906 669.847656 " fill-opacity="1" fill-rule="nonzero"/><path fill="rgb(68.629456%, 74.119568%, 100%)" d="M 408.433594 666.332031 C 408.433594 674.339844 393.40625 680.816406 374.867188 680.816406 C 356.328125 680.816406 341.304688 674.339844 341.304688 666.332031 C 341.304688 658.324219 356.328125 651.828125 374.867188 651.828125 C 393.40625 651.828125 408.433594 658.324219 408.433594 666.332031 " fill-opacity="1" fill-rule="nonzero"/><g clip-path="url(#id6)"><path fill="rgb(13.328552%, 17.248535%, 35.688782%)" d="M 376.15625 426.539062 C 375.726562 426.539062 375.277344 426.558594 374.828125 426.558594 C 374.378906 426.558594 373.929688 426.539062 373.5 426.539062 C 332.320312 426.539062 298.9375 461.367188 298.9375 504.324219 C 298.9375 511.636719 301.773438 528.59375 306.042969 535.621094 L 374.828125 666.332031 L 443.613281 535.621094 C 447.878906 528.59375 450.71875 511.636719 450.71875 504.324219 C 450.71875 461.367188 417.355469 426.539062 376.15625 426.539062 " fill-opacity="1" fill-rule="nonzero"/></g><path fill="rgb(100%, 100%, 100%)" d="M 416.007812 495.644531 C 416.007812 518.398438 397.574219 536.84375 374.828125 536.84375 C 352.082031 536.84375 333.644531 518.398438 333.644531 495.644531 C 333.644531 472.886719 352.082031 454.441406 374.828125 454.441406 C 397.574219 454.441406 416.007812 472.886719 416.007812 495.644531 " fill-opacity="1" fill-rule="nonzero"/><g clip-path="url(#id7)"><path fill="rgb(20.779419%, 12.159729%, 8.628845%)" d="M 492.300781 673.320312 C 487.847656 673.964844 483.722656 674.933594 479.917969 676.230469 L 477.988281 676.886719 L 479.304688 680.757812 L 481.234375 680.097656 C 484.800781 678.882812 488.683594 677.972656 492.886719 677.363281 L 494.90625 677.070312 L 494.324219 673.027344 Z M 468.34375 681.90625 C 464.570312 684.492188 461.480469 687.5625 459.082031 691.113281 L 457.9375 692.808594 L 461.320312 695.09375 L 462.464844 693.402344 C 464.574219 690.277344 467.304688 687.570312 470.652344 685.277344 L 472.335938 684.121094 L 470.03125 680.75 Z M 454.003906 703.160156 C 453.140625 707.109375 452.84375 711.394531 453.109375 716.015625 L 453.226562 718.054688 L 457.300781 717.820312 L 457.183594 715.78125 C 456.941406 711.535156 457.210938 707.617188 457.996094 704.035156 L 458.429688 702.039062 L 454.441406 701.164062 Z M 452.675781 727.703125 C 451.78125 731.441406 450.25 735.003906 448.074219 738.386719 L 446.972656 740.105469 L 450.40625 742.316406 L 451.511719 740.597656 C 453.933594 736.824219 455.644531 732.839844 456.644531 728.652344 L 457.121094 726.664062 L 453.148438 725.714844 Z M 440.347656 747.238281 C 437.496094 749.722656 434.230469 751.980469 430.539062 754.007812 L 428.75 754.988281 L 430.714844 758.570312 L 432.507812 757.585938 C 436.453125 755.417969 439.960938 752.996094 443.03125 750.316406 L 444.570312 748.972656 L 441.886719 745.894531 Z M 419.582031 758.902344 C 415.964844 760.210938 412.085938 761.351562 407.949219 762.328125 L 405.960938 762.800781 L 406.898438 766.777344 L 408.886719 766.304688 C 413.175781 765.292969 417.203125 764.105469 420.96875 762.746094 L 422.886719 762.054688 L 421.5 758.210938 Z M 395.988281 764.589844 C 392.109375 765.160156 388.054688 765.609375 383.824219 765.941406 L 381.789062 766.101562 L 382.109375 770.171875 L 384.144531 770.011719 C 388.464844 769.675781 392.609375 769.214844 396.578125 768.632812 L 398.597656 768.335938 L 398.007812 764.296875 Z M 371.59375 766.554688 C 367.875 766.644531 364.046875 766.65625 360.101562 766.589844 L 359.253906 766.582031 L 357.210938 766.570312 L 357.183594 770.65625 L 359.226562 770.667969 L 360.03125 770.671875 C 364.03125 770.742188 368.597656 770.714844 373.734375 770.589844 L 373.636719 766.507812 Z M 346.785156 766.855469 C 342.613281 767.027344 338.476562 767.277344 334.375 767.597656 L 332.339844 767.753906 L 332.65625 771.828125 L 334.691406 771.667969 C 338.746094 771.351562 342.832031 771.109375 346.953125 770.9375 L 348.992188 770.851562 L 348.824219 766.769531 Z M 322.011719 768.804688 C 317.714844 769.316406 313.589844 769.90625 309.640625 770.574219 L 307.625 770.917969 L 308.308594 774.945312 L 310.320312 774.605469 C 314.203125 773.945312 318.261719 773.367188 322.496094 772.863281 L 324.523438 772.621094 L 324.039062 768.566406 Z M 297.359375 773.046875 C 293.007812 774.078125 288.976562 775.222656 285.265625 776.476562 L 283.332031 777.128906 L 284.636719 781 L 286.574219 780.347656 C 290.164062 779.132812 294.074219 778.023438 298.304688 777.023438 L 300.289062 776.550781 L 299.347656 772.578125 Z M 273.59375 781.320312 C 269.339844 783.5 265.785156 785.898438 262.929688 788.519531 L 261.425781 789.902344 L 264.1875 792.914062 L 265.691406 791.53125 C 268.273438 789.160156 271.53125 786.964844 275.453125 784.957031 L 277.269531 784.023438 L 275.410156 780.390625 Z M 273.59375 781.320312 " fill-opacity="1" fill-rule="nonzero"/></g><g clip-path="url(#id8)"><path fill="rgb(100%, 100%, 100%)" d="M 363.871094 507.484375 C 363.84375 507.441406 363.84375 507.410156 363.816406 507.367188 L 263.890625 402.597656 C 250.140625 389.09375 248.292969 384.128906 237.121094 384.128906 C 228.449219 384.128906 222.398438 389.835938 207.632812 404.199219 L 111.011719 507.355469 C 108.0625 510.285156 106.203125 514.449219 106.203125 519.082031 L 106.203125 666.980469 C 106.203125 675.878906 113.015625 683.101562 121.425781 683.101562 L 353.34375 683.101562 C 361.742188 683.101562 368.539062 675.878906 368.539062 666.980469 L 368.539062 519.082031 C 368.539062 514.519531 366.75 510.414062 363.871094 507.484375 " fill-opacity="1" fill-rule="nonzero"/></g><g clip-path="url(#id9)"><path stroke-linecap="round" transform="matrix(0.143078, 0, 0, -0.143034, -67.463607, 825.477624)" fill="none" stroke-linejoin="round" d="M 3014.687845 2223.193935 C 3014.496734 2223.494344 3014.496734 2223.712823 3014.305622 2224.013231 L 2315.903575 2956.491004 C 2219.801968 3050.901192 2206.888314 3085.612025 2128.805759 3085.612025 C 2068.196222 3085.612025 2025.906055 3045.712319 1922.706034 2945.293961 L 1247.401134 2224.095161 C 1226.788431 2203.612765 1213.792873 2174.500454 1213.792873 2142.110959 L 1213.792873 1108.105015 C 1213.792873 1045.893153 1261.406851 995.45184 1320.18718 995.45184 L 2941.110052 995.45184 C 2999.808477 995.45184 3047.313248 1045.893153 3047.313248 1108.105015 L 3047.313248 2142.110959 C 3047.313248 2174.008876 3034.809119 2202.71154 3014.687845 2223.193935 Z M 3014.687845 2223.193935 " stroke="rgb(22.349548%, 35.688782%, 69.799805%)" stroke-width="30" stroke-opacity="1" stroke-miterlimit="10"/></g><g clip-path="url(#id10)"><path fill="rgb(25.099182%, 32.939148%, 69.799805%)" d="M 220.796875 682.886719 L 220.796875 560.992188 C 220.796875 556.15625 217.160156 552.253906 212.667969 552.253906 L 152.144531 552.253906 C 147.667969 552.253906 144.019531 556.15625 144.019531 560.992188 L 144.019531 682.886719 L 220.796875 682.886719 " fill-opacity="1" fill-rule="nonzero"/></g><g clip-path="url(#id11)"><path stroke-linecap="round" transform="matrix(0.143078, 0, 0, -0.143034, -67.463607, 825.477624)" fill="none" stroke-linejoin="round" d="M 2014.712402 996.926573 L 2014.712402 1849.103464 C 2014.712402 1882.913072 1989.294619 1910.195623 1957.897787 1910.195623 L 1534.886907 1910.195623 C 1503.599281 1910.195623 1478.099594 1882.913072 1478.099594 1849.103464 L 1478.099594 996.926573 Z M 2014.712402 996.926573 " stroke="rgb(22.349548%, 35.688782%, 69.799805%)" stroke-width="30" stroke-opacity="1" stroke-miterlimit="10"/></g><g clip-path="url(#id12)"><path fill="rgb(100%, 100%, 100%)" d="M 360.867188 658.828125 C 358.277344 658.828125 355.902344 659.65625 353.957031 661.046875 C 354.128906 660.328125 354.230469 659.601562 354.230469 658.828125 C 354.230469 653.707031 350.066406 649.546875 344.929688 649.546875 C 341.667969 649.546875 338.804688 651.234375 337.144531 653.777344 C 335.484375 651.234375 332.609375 649.546875 329.347656 649.546875 C 327.601562 649.546875 325.984375 650.03125 324.597656 650.859375 C 323.382812 645.554688 318.644531 641.578125 312.964844 641.578125 C 307.128906 641.578125 302.292969 645.753906 301.234375 651.277344 C 299.714844 650.1875 297.855469 649.546875 295.839844 649.546875 C 293.179688 649.546875 290.773438 650.675781 289.085938 652.464844 C 286.96875 649.117188 283.25 646.886719 278.984375 646.886719 C 272.390625 646.886719 267.050781 652.234375 267.050781 658.828125 C 267.050781 659.15625 267.066406 659.472656 267.09375 659.785156 C 265.648438 659.171875 264.074219 658.828125 262.402344 658.828125 C 255.820312 658.828125 250.46875 664.179688 250.46875 670.773438 C 250.46875 677.367188 255.820312 682.714844 262.402344 682.714844 L 360.867188 682.714844 C 367.464844 682.714844 372.800781 677.367188 372.800781 670.773438 C 372.800781 664.179688 367.464844 658.828125 360.867188 658.828125 " fill-opacity="1" fill-rule="nonzero"/></g><g clip-path="url(#id13)"><path stroke-linecap="round" transform="matrix(0.143078, 0, 0, -0.143034, -67.463607, 825.477624)" fill="none" stroke-linejoin="round" d="M 2993.69292 1165.100694 C 2975.591964 1165.100694 2958.992595 1159.311004 2945.396402 1149.588694 C 2946.597672 1154.586398 2947.307514 1159.693342 2947.307514 1165.100694 C 2947.307514 1200.903922 2918.204015 1229.988923 2882.302421 1229.988923 C 2859.505591 1229.988923 2839.493523 1218.191063 2827.890346 1200.412344 C 2816.287169 1218.191063 2796.193197 1229.988923 2773.396367 1229.988923 C 2761.192555 1229.988923 2749.889695 1226.602501 2740.19763 1220.81281 C 2731.706834 1257.899601 2698.590002 1285.701039 2658.893486 1285.701039 C 2618.104906 1285.701039 2584.305534 1256.506798 2576.906803 1217.890655 C 2566.286483 1225.510106 2553.290925 1229.988923 2539.203303 1229.988923 C 2520.610918 1229.988923 2503.793137 1222.096374 2491.998849 1209.588457 C 2477.201385 1232.993008 2451.210269 1248.586938 2421.39693 1248.586938 C 2375.311841 1248.586938 2337.990563 1211.199739 2337.990563 1165.100694 C 2337.990563 1162.806666 2338.09977 1160.594567 2338.290881 1158.409779 C 2328.189291 1162.697427 2317.18675 1165.100694 2305.501668 1165.100694 C 2259.498484 1165.100694 2222.095301 1127.713495 2222.095301 1081.587141 C 2222.095301 1035.488096 2259.498484 998.128206 2305.501668 998.128206 L 2993.69292 998.128206 C 3039.80531 998.128206 3077.099286 1035.488096 3077.099286 1081.587141 C 3077.099286 1127.713495 3039.80531 1165.100694 2993.69292 1165.100694 Z M 2993.69292 1165.100694 " stroke="rgb(22.349548%, 35.688782%, 69.799805%)" stroke-width="30" stroke-opacity="1" stroke-miterlimit="10"/></g><path fill="rgb(100%, 100%, 100%)" d="M 237.070312 543.328125 L 306.304688 543.328125 L 306.304688 638.046875 L 237.070312 638.046875 L 237.070312 543.328125 " fill-opacity="1" fill-rule="nonzero"/><path fill="rgb(100%, 100%, 100%)" d="M 261.996094 587.179688 L 331.226562 587.179688 L 331.226562 626.507812 L 261.996094 626.507812 L 261.996094 587.179688 " fill-opacity="1" fill-rule="nonzero"/><path stroke-linecap="butt" transform="matrix(12.338897, 23.58579, -23.558096, 12.324409, 261.990928, 479.831706)" fill="none" stroke-linejoin="miter" d="M 0.0000327593 -0.0000363233 L 7.199986 -0.0000514879 " stroke="rgb(100%, 100%, 100%)" stroke-width="1" stroke-opacity="1" stroke-miterlimit="4"/><g clip-path="url(#id14)"><path fill="rgb(25.099182%, 32.939148%, 69.799805%)" d="M 320.707031 622.4375 C 320.707031 624.492188 320.707031 626.546875 320.707031 628.601562 C 320.65625 628.652344 320.605469 628.707031 320.605469 628.707031 C 292.8125 628.707031 264.964844 628.707031 237.171875 628.707031 C 237.121094 628.652344 237.070312 628.601562 237.070312 628.601562 C 237.070312 626.597656 237.070312 624.59375 237.070312 622.539062 C 238.710938 622.285156 240.355469 622.027344 241.949219 621.820312 C 242.359375 621.769531 242.464844 621.5625 242.464844 621.152344 C 242.464844 619.867188 242.464844 618.585938 242.464844 617.351562 C 242.464844 616.941406 242.566406 616.734375 243.027344 616.785156 C 243.746094 616.835938 244.414062 616.785156 245.132812 616.785156 C 246.164062 616.785156 246.058594 616.890625 246.058594 615.859375 C 246.058594 594.847656 246.058594 573.835938 246.058594 552.820312 C 268.046875 552.820312 290.035156 552.820312 312.023438 552.820312 C 312.023438 573.785156 312.023438 594.695312 312.023438 615.65625 C 312.023438 615.859375 312.023438 616.015625 312.023438 616.222656 C 311.972656 616.683594 312.128906 616.835938 312.589844 616.835938 C 313.308594 616.785156 314.027344 616.835938 314.746094 616.835938 C 315.210938 616.835938 315.363281 616.941406 315.363281 617.402344 C 315.3125 618.53125 315.363281 619.613281 315.363281 620.742188 C 315.363281 621.71875 315.363281 621.769531 316.339844 621.921875 C 317.777344 622.078125 319.21875 622.4375 320.707031 622.4375 Z M 291.117188 610.210938 C 291.320312 610.210938 291.476562 610.210938 291.679688 610.210938 C 292.707031 610.210938 292.707031 610.160156 292.503906 609.183594 C 292.347656 608.207031 292.246094 607.230469 292.089844 606.253906 C 291.9375 605.226562 291.785156 604.199219 291.578125 603.171875 C 291.421875 601.988281 291.320312 600.808594 291.167969 599.625 C 290.859375 597.3125 290.652344 595.003906 290.703125 592.691406 C 290.703125 592.332031 290.753906 592.023438 291.0625 591.867188 C 291.371094 592.332031 291.679688 592.792969 291.9375 593.253906 C 292.914062 595.257812 293.480469 597.417969 293.941406 599.625 C 294.453125 602.039062 294.867188 604.457031 295.121094 606.921875 C 295.226562 607.898438 295.328125 608.875 295.378906 609.851562 C 295.378906 610.414062 295.84375 610.210938 296.097656 610.210938 C 296.457031 610.261719 296.40625 610.054688 296.40625 609.796875 C 296.355469 608.617188 296.148438 607.488281 296.046875 606.355469 C 295.894531 604.917969 296.457031 603.582031 296.765625 602.195312 C 297.023438 601.117188 297.484375 600.089844 297.640625 599.007812 C 297.792969 598.90625 297.84375 598.703125 297.898438 598.546875 C 298.207031 597.878906 298.410156 597.160156 298.976562 596.699219 C 299.179688 596.902344 299.078125 597.109375 299.078125 597.367188 C 299.078125 598.445312 299.078125 599.574219 298.976562 600.652344 C 298.820312 601.886719 298.71875 603.121094 298.511719 604.351562 C 298.257812 606.203125 297.949219 608 297.484375 609.796875 C 297.433594 610.105469 297.484375 610.261719 297.792969 610.210938 C 297.949219 610.210938 298.101562 610.210938 298.308594 610.210938 C 298.359375 610.210938 298.410156 610.210938 298.460938 610.210938 C 298.667969 610.621094 298.71875 611.03125 298.71875 611.441406 C 298.71875 613.292969 298.667969 615.195312 298.71875 617.042969 C 298.71875 618.480469 298.359375 619.664062 296.871094 620.226562 C 297.691406 620.28125 298.460938 620.28125 299.285156 620.28125 C 300.464844 620.28125 301.542969 619.148438 301.542969 617.96875 C 301.542969 616.734375 301.542969 615.449219 301.542969 614.21875 C 303.238281 614.21875 304.933594 614.21875 306.683594 614.21875 C 307.246094 614.21875 307.351562 614.011719 307.351562 613.496094 C 307.351562 605.226562 307.351562 597.007812 307.351562 588.734375 C 307.351562 588.21875 307.246094 588.066406 306.683594 588.066406 C 298.410156 588.066406 290.191406 588.066406 281.917969 588.066406 C 281.457031 588.066406 281.300781 588.167969 281.300781 588.632812 C 281.300781 596.953125 281.300781 605.328125 281.300781 613.652344 C 281.300781 614.0625 281.40625 614.21875 281.816406 614.21875 C 283.972656 614.21875 286.132812 614.21875 288.289062 614.21875 C 288.753906 614.21875 288.855469 614.011719 288.855469 613.652344 C 288.855469 612.777344 288.855469 611.90625 288.855469 610.980469 C 288.855469 610.160156 288.855469 610.160156 289.675781 610.160156 C 290.191406 610.210938 290.652344 610.210938 291.117188 610.210938 Z M 281.40625 570.445312 C 281.40625 574.605469 281.40625 578.765625 281.40625 582.878906 C 281.40625 583.441406 281.558594 583.546875 282.125 583.546875 C 290.34375 583.546875 298.566406 583.546875 306.785156 583.546875 C 307.351562 583.546875 307.453125 583.390625 307.453125 582.824219 C 307.453125 574.503906 307.453125 566.230469 307.453125 557.90625 C 307.453125 557.34375 307.296875 557.238281 306.734375 557.238281 C 298.511719 557.238281 290.292969 557.238281 282.074219 557.238281 C 281.507812 557.238281 281.40625 557.394531 281.40625 557.960938 C 281.40625 562.171875 281.40625 566.332031 281.40625 570.445312 Z M 276.578125 570.445312 C 276.578125 566.332031 276.578125 562.171875 276.578125 558.0625 C 276.578125 557.445312 276.421875 557.292969 275.804688 557.292969 C 267.636719 557.292969 259.519531 557.292969 251.351562 557.292969 C 250.582031 557.292969 250.527344 557.292969 250.527344 558.0625 C 250.527344 566.28125 250.527344 574.554688 250.527344 582.773438 C 250.527344 583.339844 250.683594 583.546875 251.300781 583.546875 C 259.46875 583.546875 267.6875 583.546875 275.855469 583.546875 C 276.421875 583.546875 276.523438 583.390625 276.523438 582.824219 C 276.578125 578.765625 276.578125 574.605469 276.578125 570.445312 Z M 276.578125 601.21875 C 276.578125 597.109375 276.578125 592.945312 276.578125 588.835938 C 276.578125 588.324219 276.421875 588.117188 275.910156 588.117188 C 267.6875 588.117188 259.46875 588.117188 251.25 588.117188 C 250.734375 588.117188 250.527344 588.273438 250.527344 588.785156 C 250.527344 597.058594 250.527344 605.277344 250.527344 613.550781 C 250.527344 614.0625 250.683594 614.269531 251.195312 614.269531 C 259.417969 614.269531 267.636719 614.269531 275.855469 614.269531 C 276.371094 614.269531 276.578125 614.113281 276.578125 613.601562 C 276.578125 609.492188 276.578125 605.328125 276.578125 601.21875 Z M 276.578125 601.21875 " fill-opacity="1" fill-rule="nonzero"/></g><path fill="rgb(68.629456%, 74.119568%, 100%)" d="M 297.691406 599.007812 C 297.640625 596.902344 297.433594 594.847656 297.074219 592.792969 C 296.921875 591.765625 296.664062 590.789062 296.253906 589.863281 C 296.097656 589.554688 295.894531 589.195312 295.535156 589.195312 C 295.121094 589.144531 295.019531 589.554688 294.867188 589.8125 C 294.300781 590.996094 294.199219 592.226562 294.042969 593.511719 C 293.941406 594.335938 293.992188 595.15625 293.683594 596.132812 C 293.222656 594.949219 292.8125 593.921875 292.296875 592.945312 C 292.039062 592.484375 291.835938 591.917969 291.167969 591.867188 C 291.476562 592.332031 291.785156 592.792969 292.039062 593.253906 C 293.015625 595.257812 293.582031 597.417969 294.042969 599.625 C 294.558594 602.039062 294.96875 604.457031 295.226562 606.921875 C 295.328125 607.898438 295.429688 608.875 295.480469 609.851562 C 295.480469 610.414062 295.945312 610.210938 296.203125 610.210938 C 296.5625 610.261719 296.507812 610.054688 296.507812 609.796875 C 296.457031 608.617188 296.253906 607.488281 296.148438 606.355469 C 295.996094 604.917969 296.5625 603.582031 296.871094 602.195312 C 297.023438 601.117188 297.484375 600.089844 297.691406 599.007812 Z M 297.691406 599.007812 " fill-opacity="1" fill-rule="nonzero"/><path fill="rgb(68.629456%, 74.119568%, 100%)" d="M 301.648438 610.828125 C 301.648438 610.363281 301.492188 610.160156 300.980469 610.210938 C 300.15625 610.261719 299.335938 610.210938 298.511719 610.210938 C 298.71875 610.621094 298.769531 611.03125 298.769531 611.441406 C 298.769531 613.292969 298.71875 615.195312 298.769531 617.042969 C 298.769531 618.480469 298.410156 619.664062 296.921875 620.226562 C 297.742188 620.28125 298.511719 620.28125 299.335938 620.28125 C 300.515625 620.28125 301.597656 619.148438 301.597656 617.96875 C 301.597656 616.734375 301.597656 615.449219 301.597656 614.21875 C 301.597656 613.136719 301.597656 612.007812 301.648438 610.828125 Z M 301.648438 610.828125 " fill-opacity="1" fill-rule="nonzero"/><path fill="rgb(68.629456%, 74.119568%, 100%)" d="M 292.089844 606.253906 C 291.9375 605.226562 291.785156 604.199219 291.578125 603.171875 C 290.34375 602.503906 289.472656 603.429688 289.472656 604.609375 C 289.472656 605.585938 289.78125 606.460938 290.035156 607.332031 C 290.292969 608.308594 290.859375 609.183594 291.117188 610.210938 C 291.320312 610.210938 291.476562 610.210938 291.679688 610.210938 C 292.707031 610.210938 292.707031 610.160156 292.503906 609.183594 C 292.347656 608.207031 292.246094 607.230469 292.089844 606.253906 Z M 292.089844 606.253906 " fill-opacity="1" fill-rule="nonzero"/><path fill="rgb(68.629456%, 74.119568%, 100%)" d="M 299.027344 600.601562 C 298.871094 601.835938 298.769531 603.070312 298.566406 604.300781 C 298.308594 606.152344 298 607.949219 297.539062 609.746094 C 297.484375 610.054688 297.539062 610.210938 297.84375 610.160156 C 298 610.160156 298.152344 610.160156 298.359375 610.160156 C 298.410156 609.953125 298.410156 609.695312 298.460938 609.492188 C 298.820312 607.796875 299.128906 606.101562 299.386719 604.351562 C 299.644531 602.707031 299.796875 601.066406 299.953125 599.421875 C 300.054688 598.546875 300.054688 597.675781 299.902344 596.800781 C 299.847656 596.59375 299.902344 596.285156 299.59375 596.234375 C 299.335938 596.183594 299.128906 596.339844 298.976562 596.542969 C 299.179688 596.75 299.078125 596.953125 299.078125 597.210938 C 299.128906 598.394531 299.179688 599.523438 299.027344 600.601562 Z M 299.027344 600.601562 " fill-opacity="1" fill-rule="nonzero"/><g fill="rgb(13.328552%, 17.248535%, 35.688782%)" fill-opacity="1"><g transform="translate(79.508514, 232.573748)"><g><path d="M 34.140625 0 L 25.6875 0 L 11.53125 -21.421875 L 11.53125 0 L 3.0625 0 L 3.0625 -34.734375 L 11.53125 -34.734375 L 25.6875 -13.21875 L 25.6875 -34.734375 L 34.140625 -34.734375 Z M 34.140625 0 "/></g></g></g><g fill="rgb(13.328552%, 17.248535%, 35.688782%)" fill-opacity="1"><g transform="translate(116.71647, 232.573748)"><g><path d="M 15.640625 0.390625 C 12.929688 0.390625 10.492188 -0.179688 8.328125 -1.328125 C 6.171875 -2.484375 4.472656 -4.132812 3.234375 -6.28125 C 2.003906 -8.425781 1.390625 -10.9375 1.390625 -13.8125 C 1.390625 -16.644531 2.015625 -19.140625 3.265625 -21.296875 C 4.515625 -23.460938 6.226562 -25.125 8.40625 -26.28125 C 10.582031 -27.4375 13.023438 -28.015625 15.734375 -28.015625 C 18.441406 -28.015625 20.882812 -27.4375 23.0625 -26.28125 C 25.238281 -25.125 26.953125 -23.460938 28.203125 -21.296875 C 29.460938 -19.140625 30.09375 -16.644531 30.09375 -13.8125 C 30.09375 -10.96875 29.457031 -8.460938 28.1875 -6.296875 C 26.914062 -4.140625 25.179688 -2.484375 22.984375 -1.328125 C 20.785156 -0.179688 18.335938 0.390625 15.640625 0.390625 Z M 15.640625 -6.921875 C 17.253906 -6.921875 18.628906 -7.515625 19.765625 -8.703125 C 20.898438 -9.890625 21.46875 -11.59375 21.46875 -13.8125 C 21.46875 -16.019531 20.914062 -17.71875 19.8125 -18.90625 C 18.707031 -20.09375 17.347656 -20.6875 15.734375 -20.6875 C 14.085938 -20.6875 12.71875 -20.097656 11.625 -18.921875 C 10.539062 -17.753906 10 -16.050781 10 -13.8125 C 10 -11.59375 10.535156 -9.890625 11.609375 -8.703125 C 12.679688 -7.515625 14.023438 -6.921875 15.640625 -6.921875 Z M 15.640625 -6.921875 "/></g></g></g><g fill="rgb(13.328552%, 17.248535%, 35.688782%)" fill-opacity="1"><g transform="translate(148.234374, 232.573748)"><g/></g></g><g fill="rgb(13.328552%, 17.248535%, 35.688782%)" fill-opacity="1"><g transform="translate(158.72385, 232.573748)"><g><path d="M 38.296875 -27.90625 C 41.734375 -27.90625 44.460938 -26.863281 46.484375 -24.78125 C 48.515625 -22.707031 49.53125 -19.820312 49.53125 -16.125 L 49.53125 0 L 41.125 0 L 41.125 -15 C 41.125 -16.78125 40.648438 -18.15625 39.703125 -19.125 C 38.765625 -20.09375 37.472656 -20.578125 35.828125 -20.578125 C 34.179688 -20.578125 32.882812 -20.09375 31.9375 -19.125 C 31 -18.15625 30.53125 -16.78125 30.53125 -15 L 30.53125 0 L 22.125 0 L 22.125 -15 C 22.125 -16.78125 21.648438 -18.15625 20.703125 -19.125 C 19.765625 -20.09375 18.472656 -20.578125 16.828125 -20.578125 C 15.171875 -20.578125 13.875 -20.09375 12.9375 -19.125 C 12 -18.15625 11.53125 -16.78125 11.53125 -15 L 11.53125 0 L 3.0625 0 L 3.0625 -27.609375 L 11.53125 -27.609375 L 11.53125 -24.140625 C 12.382812 -25.296875 13.503906 -26.210938 14.890625 -26.890625 C 16.273438 -27.566406 17.84375 -27.90625 19.59375 -27.90625 C 21.675781 -27.90625 23.53125 -27.457031 25.15625 -26.5625 C 26.789062 -25.675781 28.070312 -24.410156 29 -22.765625 C 29.957031 -24.285156 31.257812 -25.519531 32.90625 -26.46875 C 34.550781 -27.425781 36.347656 -27.90625 38.296875 -27.90625 Z M 38.296875 -27.90625 "/></g></g></g><g fill="rgb(13.328552%, 17.248535%, 35.688782%)" fill-opacity="1"><g transform="translate(211.121752, 232.573748)"><g><path d="M 29.09375 -14.25 C 29.09375 -13.457031 29.046875 -12.632812 28.953125 -11.78125 L 9.796875 -11.78125 C 9.929688 -10.0625 10.484375 -8.75 11.453125 -7.84375 C 12.429688 -6.9375 13.628906 -6.484375 15.046875 -6.484375 C 17.148438 -6.484375 18.617188 -7.375 19.453125 -9.15625 L 28.453125 -9.15625 C 27.992188 -7.34375 27.160156 -5.707031 25.953125 -4.25 C 24.742188 -2.800781 23.234375 -1.664062 21.421875 -0.84375 C 19.609375 -0.0195312 17.582031 0.390625 15.34375 0.390625 C 12.632812 0.390625 10.222656 -0.179688 8.109375 -1.328125 C 6.003906 -2.484375 4.359375 -4.132812 3.171875 -6.28125 C 1.984375 -8.425781 1.390625 -10.9375 1.390625 -13.8125 C 1.390625 -16.675781 1.972656 -19.179688 3.140625 -21.328125 C 4.316406 -23.472656 5.957031 -25.125 8.0625 -26.28125 C 10.175781 -27.4375 12.601562 -28.015625 15.34375 -28.015625 C 18.007812 -28.015625 20.378906 -27.453125 22.453125 -26.328125 C 24.535156 -25.203125 26.160156 -23.597656 27.328125 -21.515625 C 28.503906 -19.441406 29.09375 -17.019531 29.09375 -14.25 Z M 20.4375 -16.484375 C 20.4375 -17.929688 19.941406 -19.082031 18.953125 -19.9375 C 17.960938 -20.800781 16.722656 -21.234375 15.234375 -21.234375 C 13.816406 -21.234375 12.617188 -20.816406 11.640625 -19.984375 C 10.671875 -19.160156 10.070312 -17.992188 9.84375 -16.484375 Z M 20.4375 -16.484375 "/></g></g></g><g fill="rgb(13.328552%, 17.248535%, 35.688782%)" fill-opacity="1"><g transform="translate(241.600598, 232.573748)"><g><path d="M 30.328125 -27.609375 L 30.328125 0 L 21.875 0 L 21.875 -3.765625 C 21.007812 -2.546875 19.84375 -1.5625 18.375 -0.8125 C 16.914062 -0.0703125 15.296875 0.296875 13.515625 0.296875 C 11.398438 0.296875 9.535156 -0.171875 7.921875 -1.109375 C 6.304688 -2.054688 5.050781 -3.421875 4.15625 -5.203125 C 3.269531 -6.984375 2.828125 -9.078125 2.828125 -11.484375 L 2.828125 -27.609375 L 11.234375 -27.609375 L 11.234375 -12.625 C 11.234375 -10.769531 11.710938 -9.332031 12.671875 -8.3125 C 13.628906 -7.289062 14.914062 -6.78125 16.53125 -6.78125 C 18.175781 -6.78125 19.476562 -7.289062 20.4375 -8.3125 C 21.394531 -9.332031 21.875 -10.769531 21.875 -12.625 L 21.875 -27.609375 Z M 30.328125 -27.609375 "/></g></g></g><g fill="rgb(13.328552%, 17.248535%, 35.688782%)" fill-opacity="1"><g transform="translate(274.949208, 232.573748)"><g/></g></g><g fill="rgb(13.328552%, 17.248535%, 35.688782%)" fill-opacity="1"><g transform="translate(285.438692, 232.573748)"><g><path d="M 11.53125 -23.703125 C 12.320312 -24.992188 13.457031 -26.035156 14.9375 -26.828125 C 16.425781 -27.617188 18.128906 -28.015625 20.046875 -28.015625 C 22.316406 -28.015625 24.375 -27.4375 26.21875 -26.28125 C 28.070312 -25.125 29.535156 -23.472656 30.609375 -21.328125 C 31.679688 -19.179688 32.21875 -16.691406 32.21875 -13.859375 C 32.21875 -11.015625 31.679688 -8.515625 30.609375 -6.359375 C 29.535156 -4.203125 28.070312 -2.535156 26.21875 -1.359375 C 24.375 -0.191406 22.316406 0.390625 20.046875 0.390625 C 18.097656 0.390625 16.394531 0.00390625 14.9375 -0.765625 C 13.488281 -1.546875 12.351562 -2.578125 11.53125 -3.859375 L 11.53125 0 L 3.0625 0 L 3.0625 -36.625 L 11.53125 -36.625 Z M 23.609375 -13.859375 C 23.609375 -15.960938 23.019531 -17.617188 21.84375 -18.828125 C 20.675781 -20.035156 19.234375 -20.640625 17.515625 -20.640625 C 15.835938 -20.640625 14.410156 -20.023438 13.234375 -18.796875 C 12.066406 -17.578125 11.484375 -15.914062 11.484375 -13.8125 C 11.484375 -11.695312 12.066406 -10.03125 13.234375 -8.8125 C 14.410156 -7.59375 15.835938 -6.984375 17.515625 -6.984375 C 19.203125 -6.984375 20.640625 -7.597656 21.828125 -8.828125 C 23.015625 -10.066406 23.609375 -11.742188 23.609375 -13.859375 Z M 23.609375 -13.859375 "/></g></g></g><g fill="rgb(13.328552%, 17.248535%, 35.688782%)" fill-opacity="1"><g transform="translate(319.034704, 232.573748)"><g><path d="M 1.390625 -13.859375 C 1.390625 -16.691406 1.925781 -19.179688 3 -21.328125 C 4.070312 -23.472656 5.53125 -25.125 7.375 -26.28125 C 9.21875 -27.4375 11.28125 -28.015625 13.5625 -28.015625 C 15.507812 -28.015625 17.210938 -27.617188 18.671875 -26.828125 C 20.140625 -26.035156 21.269531 -24.992188 22.0625 -23.703125 L 22.0625 -27.609375 L 30.53125 -27.609375 L 30.53125 0 L 22.0625 0 L 22.0625 -3.90625 C 21.238281 -2.625 20.09375 -1.585938 18.625 -0.796875 C 17.15625 -0.00390625 15.453125 0.390625 13.515625 0.390625 C 11.265625 0.390625 9.21875 -0.191406 7.375 -1.359375 C 5.53125 -2.535156 4.070312 -4.203125 3 -6.359375 C 1.925781 -8.515625 1.390625 -11.015625 1.390625 -13.859375 Z M 22.0625 -13.8125 C 22.0625 -15.914062 21.476562 -17.578125 20.3125 -18.796875 C 19.144531 -20.023438 17.71875 -20.640625 16.03125 -20.640625 C 14.351562 -20.640625 12.925781 -20.035156 11.75 -18.828125 C 10.582031 -17.617188 10 -15.960938 10 -13.859375 C 10 -11.742188 10.582031 -10.066406 11.75 -8.828125 C 12.925781 -7.597656 14.351562 -6.984375 16.03125 -6.984375 C 17.71875 -6.984375 19.144531 -7.59375 20.3125 -8.8125 C 21.476562 -10.03125 22.0625 -11.695312 22.0625 -13.8125 Z M 22.0625 -13.8125 "/></g></g></g><g fill="rgb(13.328552%, 17.248535%, 35.688782%)" fill-opacity="1"><g transform="translate(352.630717, 232.573748)"><g><path d="M 7.328125 -30.484375 C 5.835938 -30.484375 4.625 -30.921875 3.6875 -31.796875 C 2.75 -32.671875 2.28125 -33.75 2.28125 -35.03125 C 2.28125 -36.351562 2.75 -37.453125 3.6875 -38.328125 C 4.625 -39.203125 5.835938 -39.640625 7.328125 -39.640625 C 8.773438 -39.640625 9.96875 -39.203125 10.90625 -38.328125 C 11.851562 -37.453125 12.328125 -36.351562 12.328125 -35.03125 C 12.328125 -33.75 11.851562 -32.671875 10.90625 -31.796875 C 9.96875 -30.921875 8.773438 -30.484375 7.328125 -30.484375 Z M 11.53125 -27.609375 L 11.53125 0 L 3.0625 0 L 3.0625 -27.609375 Z M 11.53125 -27.609375 "/></g></g></g><g fill="rgb(13.328552%, 17.248535%, 35.688782%)" fill-opacity="1"><g transform="translate(367.22694, 232.573748)"><g><path d="M 11.53125 -23.015625 C 12.519531 -24.523438 13.753906 -25.71875 15.234375 -26.59375 C 16.722656 -27.46875 18.375 -27.90625 20.1875 -27.90625 L 20.1875 -18.953125 L 17.859375 -18.953125 C 15.753906 -18.953125 14.171875 -18.5 13.109375 -17.59375 C 12.054688 -16.6875 11.53125 -15.09375 11.53125 -12.8125 L 11.53125 0 L 3.0625 0 L 3.0625 -27.609375 L 11.53125 -27.609375 Z M 11.53125 -23.015625 "/></g></g></g><g fill="rgb(13.328552%, 17.248535%, 35.688782%)" fill-opacity="1"><g transform="translate(388.403816, 232.573748)"><g><path d="M 11.53125 -23.015625 C 12.519531 -24.523438 13.753906 -25.71875 15.234375 -26.59375 C 16.722656 -27.46875 18.375 -27.90625 20.1875 -27.90625 L 20.1875 -18.953125 L 17.859375 -18.953125 C 15.753906 -18.953125 14.171875 -18.5 13.109375 -17.59375 C 12.054688 -16.6875 11.53125 -15.09375 11.53125 -12.8125 L 11.53125 0 L 3.0625 0 L 3.0625 -27.609375 L 11.53125 -27.609375 Z M 11.53125 -23.015625 "/></g></g></g><g fill="rgb(13.328552%, 17.248535%, 35.688782%)" fill-opacity="1"><g transform="translate(409.580692, 232.573748)"><g><path d="M 15.640625 0.390625 C 12.929688 0.390625 10.492188 -0.179688 8.328125 -1.328125 C 6.171875 -2.484375 4.472656 -4.132812 3.234375 -6.28125 C 2.003906 -8.425781 1.390625 -10.9375 1.390625 -13.8125 C 1.390625 -16.644531 2.015625 -19.140625 3.265625 -21.296875 C 4.515625 -23.460938 6.226562 -25.125 8.40625 -26.28125 C 10.582031 -27.4375 13.023438 -28.015625 15.734375 -28.015625 C 18.441406 -28.015625 20.882812 -27.4375 23.0625 -26.28125 C 25.238281 -25.125 26.953125 -23.460938 28.203125 -21.296875 C 29.460938 -19.140625 30.09375 -16.644531 30.09375 -13.8125 C 30.09375 -10.96875 29.457031 -8.460938 28.1875 -6.296875 C 26.914062 -4.140625 25.179688 -2.484375 22.984375 -1.328125 C 20.785156 -0.179688 18.335938 0.390625 15.640625 0.390625 Z M 15.640625 -6.921875 C 17.253906 -6.921875 18.628906 -7.515625 19.765625 -8.703125 C 20.898438 -9.890625 21.46875 -11.59375 21.46875 -13.8125 C 21.46875 -16.019531 20.914062 -17.71875 19.8125 -18.90625 C 18.707031 -20.09375 17.347656 -20.6875 15.734375 -20.6875 C 14.085938 -20.6875 12.71875 -20.097656 11.625 -18.921875 C 10.539062 -17.753906 10 -16.050781 10 -13.8125 C 10 -11.59375 10.535156 -9.890625 11.609375 -8.703125 C 12.679688 -7.515625 14.023438 -6.921875 15.640625 -6.921875 Z M 15.640625 -6.921875 "/></g></g></g><g fill="rgb(13.328552%, 17.248535%, 35.688782%)" fill-opacity="1"><g transform="translate(441.098605, 232.573748)"><g><path d="M 14.203125 -35.96875 L 13.21875 -12.265625 L 6.03125 -12.265625 L 5.046875 -35.96875 Z M 9.75 0.390625 C 8.257812 0.390625 7.046875 -0.046875 6.109375 -0.921875 C 5.171875 -1.796875 4.703125 -2.875 4.703125 -4.15625 C 4.703125 -5.476562 5.171875 -6.582031 6.109375 -7.46875 C 7.046875 -8.363281 8.257812 -8.8125 9.75 -8.8125 C 11.195312 -8.8125 12.390625 -8.363281 13.328125 -7.46875 C 14.273438 -6.582031 14.75 -5.476562 14.75 -4.15625 C 14.75 -2.875 14.273438 -1.796875 13.328125 -0.921875 C 12.390625 -0.046875 11.195312 0.390625 9.75 0.390625 Z M 9.75 0.390625 "/></g></g></g><g fill="rgb(13.328552%, 17.248535%, 35.688782%)" fill-opacity="1"><g transform="translate(100.850131, 762.321829)"><g><path d="M 23.0625 -7.671875 L 7.96875 -7.671875 L 3.859375 0 L -0.890625 0 L 17.609375 -34.296875 L 22.8125 -34.296875 L 29.203125 0 L 24.453125 0 Z M 22.421875 -11.1875 L 19.25 -28.796875 L 9.84375 -11.1875 Z M 22.421875 -11.1875 "/></g></g></g><g fill="rgb(13.328552%, 17.248535%, 35.688782%)" fill-opacity="1"><g transform="translate(134.19875, 762.321829)"><g/></g></g><g fill="rgb(13.328552%, 17.248535%, 35.688782%)" fill-opacity="1"><g transform="translate(148.943395, 762.321829)"><g><path d="M 2.671875 -17.265625 C 3.265625 -20.628906 4.554688 -23.65625 6.546875 -26.34375 C 8.546875 -29.039062 10.988281 -31.144531 13.875 -32.65625 C 16.757812 -34.175781 19.785156 -34.9375 22.953125 -34.9375 C 26.722656 -34.9375 29.851562 -34.03125 32.34375 -32.21875 C 34.832031 -30.40625 36.4375 -27.832031 37.15625 -24.5 L 31.765625 -24.5 C 31.171875 -26.507812 30.066406 -28.066406 28.453125 -29.171875 C 26.835938 -30.273438 24.773438 -30.828125 22.265625 -30.828125 C 19.859375 -30.828125 17.609375 -30.273438 15.515625 -29.171875 C 13.421875 -28.066406 11.644531 -26.484375 10.1875 -24.421875 C 8.738281 -22.359375 7.769531 -19.972656 7.28125 -17.265625 C 7.113281 -16.410156 7.03125 -15.421875 7.03125 -14.296875 C 7.03125 -11.066406 7.976562 -8.503906 9.875 -6.609375 C 11.769531 -4.710938 14.300781 -3.765625 17.46875 -3.765625 C 19.976562 -3.765625 22.238281 -4.304688 24.25 -5.390625 C 26.257812 -6.484375 27.910156 -8.035156 29.203125 -10.046875 L 34.59375 -10.046875 C 32.707031 -6.742188 30.207031 -4.191406 27.09375 -2.390625 C 23.976562 -0.597656 20.539062 0.296875 16.78125 0.296875 C 13.96875 0.296875 11.472656 -0.285156 9.296875 -1.453125 C 7.117188 -2.628906 5.421875 -4.28125 4.203125 -6.40625 C 2.984375 -8.53125 2.375 -10.976562 2.375 -13.75 C 2.375 -14.90625 2.472656 -16.078125 2.671875 -17.265625 Z M 2.671875 -17.265625 "/></g></g></g><g fill="rgb(13.328552%, 17.248535%, 35.688782%)" fill-opacity="1"><g transform="translate(187.140924, 762.321829)"><g><path d="M 23.0625 -7.671875 L 7.96875 -7.671875 L 3.859375 0 L -0.890625 0 L 17.609375 -34.296875 L 22.8125 -34.296875 L 29.203125 0 L 24.453125 0 Z M 22.421875 -11.1875 L 19.25 -28.796875 L 9.84375 -11.1875 Z M 22.421875 -11.1875 "/></g></g></g><g fill="rgb(13.328552%, 17.248535%, 35.688782%)" fill-opacity="1"><g transform="translate(220.489543, 762.321829)"><g><path d="M 18.5 -34.484375 C 21.9375 -34.484375 24.53125 -33.738281 26.28125 -32.25 C 28.03125 -30.769531 28.90625 -28.796875 28.90625 -26.328125 C 28.90625 -25.929688 28.835938 -25.269531 28.703125 -24.34375 C 28.273438 -21.96875 27.21875 -19.875 25.53125 -18.0625 C 23.851562 -16.25 21.59375 -15.046875 18.75 -14.453125 L 24.84375 0 L 19.453125 0 L 13.703125 -14.109375 L 8.3125 -14.109375 L 5.796875 0 L 1.28125 0 L 7.421875 -34.484375 Z M 24.046875 -24.34375 C 24.148438 -24.9375 24.203125 -25.484375 24.203125 -25.984375 C 24.203125 -27.566406 23.679688 -28.785156 22.640625 -29.640625 C 21.597656 -30.492188 20.003906 -30.921875 17.859375 -30.921875 L 11.28125 -30.921875 L 8.953125 -17.71875 L 15.59375 -17.71875 C 18.03125 -17.71875 19.957031 -18.316406 21.375 -19.515625 C 22.789062 -20.722656 23.679688 -22.332031 24.046875 -24.34375 Z M 24.046875 -24.34375 "/></g></g></g><g fill="rgb(13.328552%, 17.248535%, 35.688782%)" fill-opacity="1"><g transform="translate(250.572573, 762.321829)"><g><path d="M 18.5 -34.484375 C 21.9375 -34.484375 24.53125 -33.738281 26.28125 -32.25 C 28.03125 -30.769531 28.90625 -28.796875 28.90625 -26.328125 C 28.90625 -25.929688 28.835938 -25.269531 28.703125 -24.34375 C 28.273438 -21.96875 27.21875 -19.875 25.53125 -18.0625 C 23.851562 -16.25 21.59375 -15.046875 18.75 -14.453125 L 24.84375 0 L 19.453125 0 L 13.703125 -14.109375 L 8.3125 -14.109375 L 5.796875 0 L 1.28125 0 L 7.421875 -34.484375 Z M 24.046875 -24.34375 C 24.148438 -24.9375 24.203125 -25.484375 24.203125 -25.984375 C 24.203125 -27.566406 23.679688 -28.785156 22.640625 -29.640625 C 21.597656 -30.492188 20.003906 -30.921875 17.859375 -30.921875 L 11.28125 -30.921875 L 8.953125 -17.71875 L 15.59375 -17.71875 C 18.03125 -17.71875 19.957031 -18.316406 21.375 -19.515625 C 22.789062 -20.722656 23.679688 -22.332031 24.046875 -24.34375 Z M 24.046875 -24.34375 "/></g></g></g><g fill="rgb(13.328552%, 17.248535%, 35.688782%)" fill-opacity="1"><g transform="translate(280.655603, 762.321829)"><g><path d="M 11.28125 -30.984375 L 9.203125 -19.15625 L 21.71875 -19.15625 L 21.125 -15.6875 L 8.609375 -15.6875 L 6.4375 -3.5625 L 20.484375 -3.5625 L 19.84375 0 L 1.28125 0 L 7.421875 -34.546875 L 25.9375 -34.546875 L 25.28125 -30.984375 Z M 11.28125 -30.984375 "/></g></g></g><g fill="rgb(13.328552%, 17.248535%, 35.688782%)" fill-opacity="1"><g transform="translate(306.038155, 762.321829)"><g><path d="M 2.671875 -17.265625 C 3.265625 -20.628906 4.554688 -23.65625 6.546875 -26.34375 C 8.546875 -29.039062 11 -31.140625 13.90625 -32.640625 C 16.8125 -34.140625 19.863281 -34.890625 23.0625 -34.890625 C 26.757812 -34.890625 29.851562 -33.976562 32.34375 -32.15625 C 34.832031 -30.34375 36.4375 -27.789062 37.15625 -24.5 L 31.765625 -24.5 C 31.171875 -26.507812 30.054688 -28.066406 28.421875 -29.171875 C 26.796875 -30.273438 24.773438 -30.828125 22.359375 -30.828125 C 19.953125 -30.828125 17.6875 -30.273438 15.5625 -29.171875 C 13.4375 -28.066406 11.644531 -26.484375 10.1875 -24.421875 C 8.738281 -22.359375 7.769531 -19.972656 7.28125 -17.265625 C 7.113281 -16.410156 7.03125 -15.421875 7.03125 -14.296875 C 7.03125 -11.066406 7.984375 -8.503906 9.890625 -6.609375 C 11.804688 -4.710938 14.363281 -3.765625 17.5625 -3.765625 C 20.957031 -3.765625 23.925781 -4.773438 26.46875 -6.796875 C 29.007812 -8.828125 30.757812 -11.578125 31.71875 -15.046875 L 17.96875 -15.046875 L 18.609375 -18.609375 L 37.15625 -18.609375 L 36.515625 -15.140625 C 35.753906 -12.304688 34.410156 -9.707031 32.484375 -7.34375 C 30.554688 -4.988281 28.226562 -3.125 25.5 -1.75 C 22.78125 -0.382812 19.90625 0.296875 16.875 0.296875 C 14.039062 0.296875 11.523438 -0.285156 9.328125 -1.453125 C 7.128906 -2.628906 5.421875 -4.289062 4.203125 -6.4375 C 2.984375 -8.582031 2.375 -11.039062 2.375 -13.8125 C 2.375 -14.925781 2.472656 -16.078125 2.671875 -17.265625 Z M 2.671875 -17.265625 "/></g></g></g><g fill="rgb(13.328552%, 17.248535%, 35.688782%)" fill-opacity="1"><g transform="translate(344.532554, 762.321829)"><g><path d="M 23.0625 -7.671875 L 7.96875 -7.671875 L 3.859375 0 L -0.890625 0 L 17.609375 -34.296875 L 22.8125 -34.296875 L 29.203125 0 L 24.453125 0 Z M 22.421875 -11.1875 L 19.25 -28.796875 L 9.84375 -11.1875 Z M 22.421875 -11.1875 "/></g></g></g><g fill="rgb(13.328552%, 17.248535%, 35.688782%)" fill-opacity="1"><g transform="translate(377.881164, 762.321829)"><g><path d="M 18.5 -34.484375 C 21.9375 -34.484375 24.53125 -33.738281 26.28125 -32.25 C 28.03125 -30.769531 28.90625 -28.796875 28.90625 -26.328125 C 28.90625 -25.929688 28.835938 -25.269531 28.703125 -24.34375 C 28.273438 -21.96875 27.21875 -19.875 25.53125 -18.0625 C 23.851562 -16.25 21.59375 -15.046875 18.75 -14.453125 L 24.84375 0 L 19.453125 0 L 13.703125 -14.109375 L 8.3125 -14.109375 L 5.796875 0 L 1.28125 0 L 7.421875 -34.484375 Z M 24.046875 -24.34375 C 24.148438 -24.9375 24.203125 -25.484375 24.203125 -25.984375 C 24.203125 -27.566406 23.679688 -28.785156 22.640625 -29.640625 C 21.597656 -30.492188 20.003906 -30.921875 17.859375 -30.921875 L 11.28125 -30.921875 L 8.953125 -17.71875 L 15.59375 -17.71875 C 18.03125 -17.71875 19.957031 -18.316406 21.375 -19.515625 C 22.789062 -20.722656 23.679688 -22.332031 24.046875 -24.34375 Z M 24.046875 -24.34375 "/></g></g></g><g fill="rgb(13.328552%, 17.248535%, 35.688782%)" fill-opacity="1"><g transform="translate(407.964194, 762.321829)"><g><path d="M 2.671875 0.296875 C 1.910156 0.296875 1.289062 0.0664062 0.8125 -0.390625 C 0.332031 -0.859375 0.09375 -1.472656 0.09375 -2.234375 C 0.09375 -3.222656 0.457031 -4.070312 1.1875 -4.78125 C 1.914062 -5.488281 2.773438 -5.84375 3.765625 -5.84375 C 4.523438 -5.84375 5.132812 -5.609375 5.59375 -5.140625 C 6.050781 -4.679688 6.28125 -4.070312 6.28125 -3.3125 C 6.28125 -2.320312 5.914062 -1.472656 5.1875 -0.765625 C 4.46875 -0.0546875 3.628906 0.296875 2.671875 0.296875 Z M 2.671875 0.296875 "/></g></g></g><g fill="rgb(13.328552%, 17.248535%, 35.688782%)" fill-opacity="1"><g transform="translate(418.354724, 762.321829)"><g><path d="M 2.671875 0.296875 C 1.910156 0.296875 1.289062 0.0664062 0.8125 -0.390625 C 0.332031 -0.859375 0.09375 -1.472656 0.09375 -2.234375 C 0.09375 -3.222656 0.457031 -4.070312 1.1875 -4.78125 C 1.914062 -5.488281 2.773438 -5.84375 3.765625 -5.84375 C 4.523438 -5.84375 5.132812 -5.609375 5.59375 -5.140625 C 6.050781 -4.679688 6.28125 -4.070312 6.28125 -3.3125 C 6.28125 -2.320312 5.914062 -1.472656 5.1875 -0.765625 C 4.46875 -0.0546875 3.628906 0.296875 2.671875 0.296875 Z M 2.671875 0.296875 "/></g></g></g><g fill="rgb(13.328552%, 17.248535%, 35.688782%)" fill-opacity="1"><g transform="translate(428.745255, 762.321829)"><g><path d="M 2.671875 0.296875 C 1.910156 0.296875 1.289062 0.0664062 0.8125 -0.390625 C 0.332031 -0.859375 0.09375 -1.472656 0.09375 -2.234375 C 0.09375 -3.222656 0.457031 -4.070312 1.1875 -4.78125 C 1.914062 -5.488281 2.773438 -5.84375 3.765625 -5.84375 C 4.523438 -5.84375 5.132812 -5.609375 5.59375 -5.140625 C 6.050781 -4.679688 6.28125 -4.070312 6.28125 -3.3125 C 6.28125 -2.320312 5.914062 -1.472656 5.1875 -0.765625 C 4.46875 -0.0546875 3.628906 0.296875 2.671875 0.296875 Z M 2.671875 0.296875 "/></g></g></g></svg>