<svg xmlns="http://www.w3.org/2000/svg" xmlns:xlink="http://www.w3.org/1999/xlink" width="320" zoomAndPan="magnify" viewBox="0 0 240 359.999987" height="480" preserveAspectRatio="xMidYMid meet" version="1.0"><defs><g><g id="id1"/><g id="id2"/></g><clipPath id="id3"><path d="M 49 136 L 168 136 L 168 271.21875 L 49 271.21875 Z M 49 136 " clip-rule="nonzero"/></clipPath><clipPath id="id4"><path d="M 66 211 L 102 211 L 102 271.21875 L 66 271.21875 Z M 66 211 " clip-rule="nonzero"/></clipPath><clipPath id="id5"><path d="M 113 250 L 170 250 L 170 271.21875 L 113 271.21875 Z M 113 250 " clip-rule="nonzero"/></clipPath><clipPath id="id6"><path d="M 79.273438 237 L 201.625 237 L 201.625 271.242188 L 79.273438 271.242188 Z M 79.273438 237 " clip-rule="nonzero"/></clipPath><clipPath id="id7"><path d="M 132 156.277344 L 201 156.277344 L 201 263 L 132 263 Z M 132 156.277344 " clip-rule="nonzero"/></clipPath><clipPath id="id8"><path d="M 116 265 L 201.625 265 L 201.625 271.242188 L 116 271.242188 Z M 116 265 " clip-rule="nonzero"/></clipPath><clipPath id="id9"><path d="M 63.886719 269.605469 L 164 269.605469 L 164 271 L 63.886719 271 Z M 63.886719 269.605469 " clip-rule="nonzero"/></clipPath><clipPath id="id10"><path d="M 63.886719 269.605469 L 164.820312 269.605469 L 164.820312 271.183594 L 63.886719 271.183594 Z M 63.886719 269.605469 " clip-rule="nonzero"/></clipPath><clipPath id="id11"><path d="M 64 269.605469 L 99 269.605469 L 99 271 L 64 271 Z M 64 269.605469 " clip-rule="nonzero"/></clipPath><clipPath id="id12"><path d="M 63.886719 269.605469 L 100 269.605469 L 100 271.183594 L 63.886719 271.183594 Z M 63.886719 269.605469 " clip-rule="nonzero"/></clipPath><clipPath id="id13"><path d="M 111 269.605469 L 164.820312 269.605469 L 164.820312 271 L 111 271 Z M 111 269.605469 " clip-rule="nonzero"/></clipPath><clipPath id="id14"><path d="M 110 269.605469 L 164.820312 269.605469 L 164.820312 271.183594 L 110 271.183594 Z M 110 269.605469 " clip-rule="nonzero"/></clipPath><clipPath id="id15"><path d="M 105.363281 212.363281 L 142.535156 212.363281 L 142.535156 246.089844 L 105.363281 246.089844 Z M 105.363281 212.363281 " clip-rule="nonzero"/></clipPath></defs><rect x="-24" width="288" fill="rgb(100%, 100%, 100%)" y="-35.999999" height="431.999984" fill-opacity="1"/><rect x="-24" width="288" fill="rgb(100%, 100%, 100%)" y="-35.999999" height="431.999984" fill-opacity="1"/><rect x="-24" width="288" fill="rgb(100%, 100%, 100%)" y="-35.999999" height="431.999984" fill-opacity="1"/><rect x="-24" width="288" fill="rgb(100%, 100%, 100%)" y="-35.999999" height="431.999984" fill-opacity="1"/><path fill="rgb(100%, 100%, 100%)" d="M 164.320312 192.515625 C 164.308594 192.496094 164.308594 192.484375 164.296875 192.464844 L 120.039062 146.054688 C 113.949219 140.074219 113.132812 137.878906 108.183594 137.878906 C 104.34375 137.878906 101.664062 140.40625 95.125 146.765625 L 52.332031 192.460938 C 51.027344 193.757812 50.203125 195.601562 50.203125 197.65625 L 50.203125 263.167969 C 50.203125 267.105469 53.21875 270.308594 56.945312 270.308594 L 159.65625 270.308594 C 163.378906 270.308594 166.386719 267.105469 166.386719 263.167969 L 166.386719 197.65625 C 166.386719 195.632812 165.59375 193.816406 164.320312 192.515625 " fill-opacity="1" fill-rule="nonzero"/><g clip-path="url(#id3)"><path stroke-linecap="round" transform="matrix(0.063367, 0, 0, -0.0633575, -26.711152, 333.372953)" fill="none" stroke-linejoin="round" d="M 3014.682569 2223.214017 C 3014.497634 2223.522288 3014.497634 2223.70725 3014.3127 2224.01552 L 2315.876679 2956.527712 C 2219.772376 3050.920117 2206.888604 3085.569713 2128.784594 3085.569713 C 2068.187718 3085.569713 2025.899358 3045.679519 1922.705899 2945.306668 L 1247.386693 2224.077174 C 1226.797317 2203.608018 1213.790256 2174.50729 1213.790256 2142.077241 L 1213.790256 1108.076571 C 1213.790256 1045.929252 1261.380071 995.434556 1320.189247 995.434556 L 2941.078631 995.434556 C 2999.826162 995.434556 3047.292688 1045.929252 3047.292688 1108.076571 L 3047.292688 2142.077241 C 3047.292688 2174.014057 3034.778786 2202.683207 3014.682569 2223.214017 Z M 3014.682569 2223.214017 " stroke="rgb(22.349548%, 35.688782%, 69.799805%)" stroke-width="30" stroke-opacity="1" stroke-miterlimit="10"/></g><path fill="rgb(100%, 100%, 100%)" d="M 111.359375 247.796875 C 109.738281 247.796875 108.425781 246.117188 108.425781 244.046875 L 108.425781 216.097656 C 108.425781 214.027344 109.738281 212.347656 111.359375 212.347656 L 152.960938 212.347656 C 154.582031 212.347656 155.894531 214.027344 155.894531 216.097656 L 155.894531 244.046875 C 155.894531 246.117188 154.582031 247.796875 152.960938 247.796875 L 111.359375 247.796875 " fill-opacity="1" fill-rule="nonzero"/><path stroke-linecap="round" transform="matrix(0.063367, 0, 0, -0.0633575, -26.711152, 333.372953)" fill="none" stroke-linejoin="round" d="M 2178.901848 1350.685398 C 2153.31924 1350.685398 2132.606574 1377.196654 2132.606574 1409.87332 L 2132.606574 1851.008302 C 2132.606574 1883.684968 2153.31924 1910.196225 2178.901848 1910.196225 L 2835.419378 1910.196225 C 2861.001986 1910.196225 2881.714652 1883.684968 2881.714652 1851.008302 L 2881.714652 1409.87332 C 2881.714652 1377.196654 2861.001986 1350.685398 2835.419378 1350.685398 Z M 2178.901848 1350.685398 " stroke="rgb(22.349548%, 35.688782%, 69.799805%)" stroke-width="30" stroke-opacity="1" stroke-miterlimit="10"/><path fill="rgb(100%, 100%, 100%)" d="M 173.839844 191.34375 L 111.265625 128.777344 C 109.71875 127.226562 108.058594 126.371094 106.714844 127.707031 C 106.714844 127.707031 102.9375 130.609375 102.125 131.414062 L 42.082031 191.457031 C 40.589844 192.941406 39.78125 194.550781 41.125 195.886719 L 44.867188 199.636719 C 46.210938 200.976562 47.816406 200.171875 49.304688 198.679688 L 108.011719 139.980469 L 166.617188 198.566406 C 168.160156 200.121094 169.816406 200.976562 171.160156 199.636719 L 174.910156 195.886719 C 176.246094 194.550781 175.390625 192.898438 173.839844 191.34375 " fill-opacity="1" fill-rule="nonzero"/><path stroke-linecap="round" transform="matrix(0.063367, 0, 0, -0.0633575, -26.711152, 333.372953)" fill="none" stroke-linejoin="round" d="M 3164.91104 2241.710243 L 2177.422372 3229.223732 C 2153.011016 3253.700404 2126.811959 3267.202649 2105.606135 3246.116952 C 2105.606135 3246.116952 2045.995576 3200.307966 2033.173449 3187.607225 L 1085.630636 2239.922274 C 1062.082308 2216.493722 1049.321826 2191.092239 1070.527651 2170.006541 L 1129.583406 2110.818619 C 1150.789231 2089.671268 1176.125259 2102.372009 1199.611943 2125.92387 L 2126.072221 3052.399815 L 3050.929734 2127.711839 C 3075.279445 2103.173513 3101.416856 2089.671268 3122.622681 2110.818619 L 3181.801726 2170.006541 C 3202.884261 2191.092239 3189.384041 2217.171917 3164.91104 2241.710243 Z M 3164.91104 2241.710243 " stroke="rgb(22.349548%, 35.688782%, 69.799805%)" stroke-width="30" stroke-opacity="1" stroke-miterlimit="10"/><path fill="rgb(25.099182%, 32.939148%, 69.799805%)" d="M 100.953125 270.210938 L 100.953125 216.21875 C 100.953125 214.078125 99.34375 212.347656 97.355469 212.347656 L 70.550781 212.347656 C 68.566406 212.347656 66.953125 214.078125 66.953125 216.21875 L 66.953125 270.210938 L 100.953125 270.210938 " fill-opacity="1" fill-rule="nonzero"/><g clip-path="url(#id4)"><path stroke-linecap="round" transform="matrix(0.063367, 0, 0, -0.0633575, -26.711152, 333.372953)" fill="none" stroke-linejoin="round" d="M 2014.679998 996.914254 L 2014.679998 1849.097026 C 2014.679998 1882.883465 1989.282324 1910.196225 1957.905102 1910.196225 L 1534.89822 1910.196225 C 1503.582642 1910.196225 1478.123323 1882.883465 1478.123323 1849.097026 L 1478.123323 996.914254 Z M 2014.679998 996.914254 " stroke="rgb(22.349548%, 35.688782%, 69.799805%)" stroke-width="30" stroke-opacity="1" stroke-miterlimit="10"/></g><path fill="rgb(25.099182%, 32.939148%, 69.799805%)" d="M 115.15625 243.507812 C 113.832031 243.507812 112.753906 242.234375 112.753906 240.660156 L 112.753906 219.480469 C 112.753906 217.910156 113.832031 216.636719 115.15625 216.636719 L 149.164062 216.636719 C 150.488281 216.636719 151.566406 217.910156 151.566406 219.480469 L 151.566406 240.660156 C 151.566406 242.234375 150.488281 243.507812 149.164062 243.507812 L 115.15625 243.507812 " fill-opacity="1" fill-rule="nonzero"/><path stroke-linecap="round" transform="matrix(0.063367, 0, 0, -0.0633575, -26.711152, 333.372953)" fill="none" stroke-linejoin="round" d="M 2238.820631 1418.381584 C 2217.92303 1418.381584 2200.909055 1438.480815 2200.909055 1463.327412 L 2200.909055 1797.615864 C 2200.909055 1822.400807 2217.92303 1842.500039 2238.820631 1842.500039 L 2775.500595 1842.500039 C 2796.398195 1842.500039 2813.412171 1822.400807 2813.412171 1797.615864 L 2813.412171 1463.327412 C 2813.412171 1438.480815 2796.398195 1418.381584 2775.500595 1418.381584 Z M 2238.820631 1418.381584 " stroke="rgb(22.349548%, 35.688782%, 69.799805%)" stroke-width="30" stroke-opacity="1" stroke-miterlimit="10"/><path fill="rgb(100%, 100%, 100%)" d="M 151.566406 224.878906 L 151.566406 219.480469 C 151.566406 217.910156 150.488281 216.636719 149.164062 216.636719 L 115.15625 216.636719 C 113.832031 216.636719 112.753906 217.910156 112.753906 219.480469 L 112.753906 224.878906 L 151.566406 224.878906 " fill-opacity="1" fill-rule="nonzero"/><path stroke-linecap="round" transform="matrix(0.063367, 0, 0, -0.0633575, -26.711152, 333.372953)" fill="none" stroke-linejoin="round" d="M 2813.412171 1712.409918 L 2813.412171 1797.615864 C 2813.412171 1822.400807 2796.398195 1842.500039 2775.500595 1842.500039 L 2238.820631 1842.500039 C 2217.92303 1842.500039 2200.909055 1822.400807 2200.909055 1797.615864 L 2200.909055 1712.409918 Z M 2813.412171 1712.409918 " stroke="rgb(22.349548%, 35.688782%, 69.799805%)" stroke-width="30" stroke-opacity="1" stroke-miterlimit="10"/><path fill="rgb(100%, 100%, 100%)" d="M 162.992188 259.554688 C 161.84375 259.554688 160.792969 259.921875 159.929688 260.539062 C 160.007812 260.21875 160.050781 259.898438 160.050781 259.554688 C 160.050781 257.285156 158.207031 255.441406 155.933594 255.441406 C 154.488281 255.441406 153.21875 256.191406 152.484375 257.320312 C 151.75 256.191406 150.476562 255.441406 149.03125 255.441406 C 148.257812 255.441406 147.542969 255.660156 146.925781 256.027344 C 146.386719 253.675781 144.292969 251.914062 141.777344 251.914062 C 139.191406 251.914062 137.046875 253.765625 136.578125 256.210938 C 135.90625 255.726562 135.082031 255.441406 134.191406 255.441406 C 133.011719 255.441406 131.945312 255.945312 131.199219 256.734375 C 130.261719 255.253906 128.613281 254.265625 126.726562 254.265625 C 123.804688 254.265625 121.441406 256.632812 121.441406 259.554688 C 121.441406 259.699219 121.449219 259.839844 121.460938 259.980469 C 120.820312 259.707031 120.121094 259.554688 119.382812 259.554688 C 116.464844 259.554688 114.097656 261.925781 114.097656 264.84375 C 114.097656 267.765625 116.464844 270.136719 119.382812 270.136719 L 162.992188 270.136719 C 165.910156 270.136719 168.277344 267.765625 168.277344 264.84375 C 168.277344 261.925781 165.910156 259.554688 162.992188 259.554688 " fill-opacity="1" fill-rule="nonzero"/><g clip-path="url(#id5)"><path stroke-linecap="round" transform="matrix(0.063367, 0, 0, -0.0633575, -26.711152, 333.372953)" fill="none" stroke-linejoin="round" d="M 2993.723323 1165.1066 C 2975.599741 1165.1066 2959.017279 1159.311116 2945.39377 1149.56977 C 2946.626667 1154.625405 2947.30476 1159.68104 2947.30476 1165.1066 C 2947.30476 1200.927624 2918.208396 1230.028352 2882.269455 1230.028352 C 2859.52251 1230.028352 2839.487937 1218.190768 2827.898708 1200.372737 C 2816.309478 1218.190768 2796.213261 1230.028352 2773.404671 1230.028352 C 2761.198992 1230.028352 2749.917987 1226.575723 2740.178103 1220.780239 C 2731.671115 1257.895999 2698.629481 1285.701991 2658.930205 1285.701991 C 2618.121322 1285.701991 2584.278306 1256.477955 2576.880925 1217.882497 C 2566.278013 1225.527604 2553.270952 1230.028352 2539.215929 1230.028352 C 2520.599188 1230.028352 2503.770147 1222.074975 2491.995983 1209.62085 C 2477.201221 1232.987748 2451.1871 1248.586232 2421.412642 1248.586232 C 2375.302303 1248.586232 2338.007176 1211.223856 2338.007176 1165.1066 C 2338.007176 1162.825399 2338.130466 1160.605852 2338.3154 1158.386304 C 2328.205647 1162.70209 2317.171221 1165.1066 2305.520346 1165.1066 C 2259.471652 1165.1066 2222.11488 1127.68257 2222.11488 1081.626968 C 2222.11488 1035.509712 2259.471652 998.147336 2305.520346 998.147336 L 2993.723323 998.147336 C 3039.772018 998.147336 3077.12879 1035.509712 3077.12879 1081.626968 C 3077.12879 1127.68257 3039.772018 1165.1066 2993.723323 1165.1066 Z M 2993.723323 1165.1066 " stroke="rgb(22.349548%, 35.688782%, 69.799805%)" stroke-width="30" stroke-opacity="1" stroke-miterlimit="10"/></g><g clip-path="url(#id6)"><path fill="rgb(100%, 100%, 100%)" d="M 116.453125 237.648438 L 216.726562 237.648438 L 253.667969 326.082031 L 79.511719 326.082031 L 116.453125 237.648438 " fill-opacity="1" fill-rule="nonzero"/></g><path fill="rgb(25.099182%, 32.939148%, 69.799805%)" d="M 181.835938 264.375 C 181.835938 267.933594 175.082031 270.8125 166.761719 270.8125 C 158.433594 270.8125 151.691406 267.933594 151.691406 264.375 C 151.691406 260.816406 158.433594 257.929688 166.761719 257.929688 C 175.082031 257.929688 181.835938 260.816406 181.835938 264.375 " fill-opacity="1" fill-rule="nonzero"/><path fill="rgb(68.629456%, 74.119568%, 100%)" d="M 181.527344 262.8125 C 181.527344 266.375 174.847656 269.25 166.609375 269.25 C 158.367188 269.25 151.691406 266.375 151.691406 262.8125 C 151.691406 259.253906 158.367188 256.367188 166.609375 256.367188 C 174.847656 256.367188 181.527344 259.253906 181.527344 262.8125 " fill-opacity="1" fill-rule="nonzero"/><g clip-path="url(#id7)"><path fill="rgb(13.328552%, 17.248535%, 35.688782%)" d="M 167.179688 156.238281 C 166.988281 156.238281 166.789062 156.25 166.589844 156.25 C 166.390625 156.25 166.191406 156.238281 166 156.238281 C 147.699219 156.238281 132.859375 171.71875 132.859375 190.8125 C 132.859375 194.0625 134.121094 201.597656 136.019531 204.71875 L 166.589844 262.8125 L 197.160156 204.71875 C 199.058594 201.597656 200.320312 194.0625 200.320312 190.8125 C 200.320312 171.71875 185.492188 156.238281 167.179688 156.238281 " fill-opacity="1" fill-rule="nonzero"/></g><path fill="rgb(100%, 100%, 100%)" d="M 184.894531 186.953125 C 184.894531 197.066406 176.699219 205.265625 166.589844 205.265625 C 156.480469 205.265625 148.289062 197.066406 148.289062 186.953125 C 148.289062 176.839844 156.480469 168.640625 166.589844 168.640625 C 176.699219 168.640625 184.894531 176.839844 184.894531 186.953125 " fill-opacity="1" fill-rule="nonzero"/><g clip-path="url(#id8)"><path fill="rgb(20.779419%, 12.159729%, 8.628845%)" d="M 218.800781 265.917969 C 216.820312 266.207031 214.988281 266.636719 213.296875 267.214844 L 212.4375 267.507812 L 213.023438 269.226562 L 213.882812 268.933594 C 215.464844 268.390625 217.191406 267.988281 219.0625 267.714844 L 219.957031 267.585938 L 219.699219 265.789062 Z M 208.152344 269.734375 C 206.476562 270.886719 205.101562 272.25 204.035156 273.828125 L 203.527344 274.582031 L 205.03125 275.597656 L 205.539062 274.84375 C 206.476562 273.457031 207.691406 272.253906 209.179688 271.234375 L 209.925781 270.71875 L 208.902344 269.222656 Z M 201.78125 279.183594 C 201.398438 280.9375 201.265625 282.84375 201.382812 284.894531 L 201.433594 285.800781 L 203.246094 285.699219 L 203.195312 284.792969 C 203.085938 282.902344 203.203125 281.164062 203.554688 279.570312 L 203.746094 278.683594 L 201.972656 278.296875 Z M 201.1875 290.089844 C 200.792969 291.75 200.109375 293.335938 199.144531 294.839844 L 198.652344 295.601562 L 200.179688 296.585938 L 200.671875 295.820312 C 201.75 294.144531 202.507812 292.375 202.953125 290.511719 L 203.164062 289.628906 L 201.398438 289.207031 Z M 195.710938 298.773438 C 194.445312 299.875 192.992188 300.878906 191.351562 301.78125 L 190.554688 302.21875 L 191.429688 303.808594 L 192.226562 303.371094 C 193.980469 302.410156 195.539062 301.332031 196.902344 300.140625 L 197.585938 299.542969 L 196.394531 298.175781 Z M 186.480469 303.957031 C 184.871094 304.539062 183.148438 305.046875 181.308594 305.480469 L 180.425781 305.6875 L 180.84375 307.457031 L 181.726562 307.246094 C 183.632812 306.796875 185.421875 306.269531 187.097656 305.664062 L 187.949219 305.355469 L 187.332031 303.648438 Z M 175.996094 306.484375 C 174.269531 306.738281 172.46875 306.9375 170.589844 307.085938 L 169.683594 307.15625 L 169.824219 308.964844 L 170.730469 308.894531 C 172.652344 308.746094 174.492188 308.539062 176.257812 308.28125 L 177.15625 308.148438 L 176.890625 306.351562 Z M 165.152344 307.359375 C 163.5 307.398438 161.796875 307.402344 160.046875 307.371094 L 159.667969 307.371094 L 158.761719 307.363281 L 158.75 309.179688 L 159.65625 309.1875 L 160.015625 309.1875 C 161.792969 309.21875 163.820312 309.207031 166.105469 309.152344 L 166.058594 307.335938 Z M 154.125 307.492188 C 152.273438 307.566406 150.433594 307.679688 148.609375 307.820312 L 147.707031 307.890625 L 147.847656 309.703125 L 148.753906 309.628906 C 150.554688 309.488281 152.371094 309.382812 154.203125 309.304688 L 155.109375 309.265625 L 155.03125 307.453125 Z M 143.117188 308.359375 C 141.207031 308.585938 139.371094 308.847656 137.617188 309.144531 L 136.722656 309.296875 L 137.027344 311.085938 L 137.921875 310.933594 C 139.644531 310.644531 141.449219 310.386719 143.332031 310.160156 L 144.230469 310.054688 L 144.019531 308.25 Z M 132.160156 310.242188 C 130.226562 310.703125 128.433594 311.210938 126.785156 311.765625 L 125.925781 312.058594 L 126.503906 313.777344 L 127.367188 313.488281 C 128.960938 312.949219 130.699219 312.457031 132.578125 312.011719 L 133.460938 311.800781 L 133.042969 310.035156 Z M 121.597656 313.917969 C 119.707031 314.886719 118.128906 315.953125 116.859375 317.121094 L 116.1875 317.734375 L 117.414062 319.070312 L 118.085938 318.457031 C 119.234375 317.402344 120.679688 316.429688 122.425781 315.535156 L 123.230469 315.121094 L 122.40625 313.507812 Z M 121.597656 313.917969 " fill-opacity="1" fill-rule="nonzero"/></g><g clip-path="url(#id9)"><path fill="rgb(100%, 100%, 100%)" d="M 161.722656 192.214844 C 161.707031 192.195312 161.707031 192.183594 161.695312 192.164062 L 117.285156 145.597656 C 111.171875 139.597656 110.351562 137.390625 105.386719 137.390625 C 101.535156 137.390625 98.84375 139.929688 92.28125 146.308594 L 49.339844 192.15625 C 48.027344 193.460938 47.203125 195.3125 47.203125 197.371094 L 47.203125 263.101562 C 47.203125 267.058594 50.230469 270.265625 53.96875 270.265625 L 157.039062 270.265625 C 160.773438 270.265625 163.792969 267.058594 163.792969 263.101562 L 163.792969 197.371094 C 163.792969 195.34375 163 193.519531 161.722656 192.214844 " fill-opacity="1" fill-rule="nonzero"/></g><g clip-path="url(#id10)"><path stroke-linecap="round" transform="matrix(0.0635901, 0, 0, -0.0635708, -29.983821, 333.545599)" fill="none" stroke-linejoin="round" d="M 3014.722074 2223.200847 C 3014.47636 2223.508083 3014.47636 2223.692425 3014.292074 2223.999661 L 2315.910464 2956.511657 C 2219.774725 3050.894546 2206.874721 3085.612211 2128.798987 3085.612211 C 2068.2304 3085.612211 2025.906103 3045.671535 1922.706076 2945.328267 L 1247.421615 2224.122555 C 1226.78161 2203.599192 1213.820178 2174.473223 1213.820178 2142.090552 L 1213.820178 1108.118623 C 1213.820178 1045.872616 1261.427333 995.42447 1320.214491 995.42447 L 2941.130626 995.42447 C 2999.794927 995.42447 3047.279225 1045.872616 3047.279225 1108.118623 L 3047.279225 2142.090552 C 3047.279225 2173.981645 3034.809222 2202.677484 3014.722074 2223.200847 Z M 3014.722074 2223.200847 " stroke="rgb(22.349548%, 35.688782%, 69.799805%)" stroke-width="30" stroke-opacity="1" stroke-miterlimit="10"/></g><g clip-path="url(#id11)"><path fill="rgb(25.099182%, 32.939148%, 69.799805%)" d="M 98.132812 270.171875 L 98.132812 215.996094 C 98.132812 213.847656 96.515625 212.113281 94.519531 212.113281 L 67.621094 212.113281 C 65.628906 212.113281 64.007812 213.847656 64.007812 215.996094 L 64.007812 270.171875 L 98.132812 270.171875 " fill-opacity="1" fill-rule="nonzero"/></g><g clip-path="url(#id12)"><path stroke-linecap="round" transform="matrix(0.0635901, 0, 0, -0.0635708, -29.983821, 333.545599)" fill="none" stroke-linejoin="round" d="M 2014.7261 996.899203 L 2014.7261 1849.110332 C 2014.7261 1882.906289 1989.294665 1910.188843 1957.904657 1910.188843 L 1534.907404 1910.188843 C 1503.578825 1910.188843 1478.085961 1882.906289 1478.085961 1849.110332 L 1478.085961 996.899203 Z M 2014.7261 996.899203 " stroke="rgb(22.349548%, 35.688782%, 69.799805%)" stroke-width="30" stroke-opacity="1" stroke-miterlimit="10"/></g><g clip-path="url(#id13)"><path fill="rgb(100%, 100%, 100%)" d="M 160.386719 259.480469 C 159.234375 259.480469 158.179688 259.847656 157.316406 260.464844 C 157.390625 260.148438 157.433594 259.824219 157.433594 259.480469 C 157.433594 257.203125 155.585938 255.351562 153.300781 255.351562 C 151.851562 255.351562 150.582031 256.105469 149.84375 257.234375 C 149.105469 256.105469 147.828125 255.351562 146.378906 255.351562 C 145.601562 255.351562 144.882812 255.570312 144.265625 255.9375 C 143.726562 253.578125 141.621094 251.8125 139.097656 251.8125 C 136.5 251.8125 134.351562 253.667969 133.882812 256.121094 C 133.207031 255.640625 132.378906 255.351562 131.484375 255.351562 C 130.300781 255.351562 129.234375 255.855469 128.484375 256.648438 C 127.542969 255.164062 125.886719 254.171875 123.992188 254.171875 C 121.0625 254.171875 118.691406 256.546875 118.691406 259.480469 C 118.691406 259.625 118.695312 259.765625 118.707031 259.90625 C 118.066406 259.632812 117.367188 259.480469 116.625 259.480469 C 113.699219 259.480469 111.320312 261.855469 111.320312 264.789062 C 111.320312 267.71875 113.699219 270.09375 116.625 270.09375 L 160.386719 270.09375 C 163.316406 270.09375 165.6875 267.71875 165.6875 264.789062 C 165.6875 261.855469 163.316406 259.480469 160.386719 259.480469 " fill-opacity="1" fill-rule="nonzero"/></g><g clip-path="url(#id14)"><path stroke-linecap="round" transform="matrix(0.0635901, 0, 0, -0.0635708, -29.983821, 333.545599)" fill="none" stroke-linejoin="round" d="M 2993.713497 1165.080172 C 2975.592064 1165.080172 2959.006345 1159.304136 2945.369199 1149.595479 C 2946.597771 1154.572702 2947.273485 1159.672819 2947.273485 1165.080172 C 2947.273485 1200.903886 2918.217763 1230.029856 2882.28204 1230.029856 C 2859.492034 1230.029856 2839.527743 1218.170547 2827.91774 1200.412308 C 2816.307737 1218.170547 2796.220589 1230.029856 2773.430583 1230.029856 C 2761.206294 1230.029856 2749.903434 1226.588813 2740.197717 1220.812777 C 2731.720572 1257.926882 2698.610563 1285.701013 2658.927696 1285.701013 C 2618.077685 1285.701013 2584.291962 1256.513596 2576.920532 1217.924758 C 2566.293386 1225.482763 2553.270526 1230.029856 2539.203379 1230.029856 C 2520.590517 1230.029856 2503.820513 1222.103168 2492.026224 1209.629387 C 2477.221934 1232.979321 2451.176213 1248.586908 2421.383349 1248.586908 C 2375.311908 1248.586908 2338.024755 1211.227014 2338.024755 1165.080172 C 2338.024755 1162.806626 2338.086184 1160.594527 2338.27047 1158.382428 C 2328.196182 1162.683731 2317.200464 1165.080172 2305.529033 1165.080172 C 2259.519021 1165.080172 2222.109011 1127.720278 2222.109011 1081.573436 C 2222.109011 1035.48804 2259.519021 998.128147 2305.529033 998.128147 L 2993.713497 998.128147 C 3039.784938 998.128147 3077.07209 1035.48804 3077.07209 1081.573436 C 3077.07209 1127.720278 3039.784938 1165.080172 2993.713497 1165.080172 Z M 2993.713497 1165.080172 " stroke="rgb(22.349548%, 35.688782%, 69.799805%)" stroke-width="30" stroke-opacity="1" stroke-miterlimit="10"/></g><path fill="rgb(100%, 100%, 100%)" d="M 105.363281 208.144531 L 136.136719 208.144531 L 136.136719 250.242188 L 105.363281 250.242188 L 105.363281 208.144531 " fill-opacity="1" fill-rule="nonzero"/><path fill="rgb(100%, 100%, 100%)" d="M 116.441406 227.636719 L 147.210938 227.636719 L 147.210938 245.113281 L 116.441406 245.113281 L 116.441406 227.636719 " fill-opacity="1" fill-rule="nonzero"/><path stroke-linecap="butt" transform="matrix(5.483954, 10.482573, -10.470266, 5.477515, 116.440411, 179.925207)" fill="none" stroke-linejoin="miter" d="M 0.0000820254 -0.0000520661 L 7.199938 -0.000118127 " stroke="rgb(100%, 100%, 100%)" stroke-width="1" stroke-opacity="1" stroke-miterlimit="4"/><g clip-path="url(#id15)"><path fill="rgb(25.099182%, 32.939148%, 69.799805%)" d="M 142.535156 243.304688 C 142.535156 244.21875 142.535156 245.132812 142.535156 246.046875 C 142.515625 246.070312 142.492188 246.089844 142.492188 246.089844 C 130.136719 246.089844 117.761719 246.089844 105.410156 246.089844 C 105.386719 246.070312 105.363281 246.046875 105.363281 246.046875 C 105.363281 245.15625 105.363281 244.265625 105.363281 243.351562 C 106.09375 243.238281 106.824219 243.121094 107.53125 243.03125 C 107.714844 243.007812 107.761719 242.917969 107.761719 242.734375 C 107.761719 242.164062 107.761719 241.59375 107.761719 241.046875 C 107.761719 240.863281 107.808594 240.769531 108.011719 240.792969 C 108.332031 240.816406 108.628906 240.792969 108.949219 240.792969 C 109.40625 240.792969 109.359375 240.839844 109.359375 240.382812 C 109.359375 231.042969 109.359375 221.703125 109.359375 212.363281 C 119.132812 212.363281 128.90625 212.363281 138.679688 212.363281 C 138.679688 221.679688 138.679688 230.976562 138.679688 240.292969 C 138.679688 240.382812 138.679688 240.453125 138.679688 240.542969 C 138.65625 240.75 138.722656 240.816406 138.929688 240.816406 C 139.25 240.792969 139.566406 240.816406 139.886719 240.816406 C 140.09375 240.816406 140.160156 240.863281 140.160156 241.066406 C 140.140625 241.570312 140.160156 242.050781 140.160156 242.550781 C 140.160156 242.984375 140.160156 243.007812 140.597656 243.078125 C 141.234375 243.144531 141.875 243.304688 142.535156 243.304688 Z M 129.382812 237.871094 C 129.476562 237.871094 129.542969 237.871094 129.636719 237.871094 C 130.09375 237.871094 130.09375 237.847656 130 237.414062 C 129.933594 236.980469 129.886719 236.546875 129.820312 236.113281 C 129.75 235.65625 129.679688 235.199219 129.589844 234.742188 C 129.523438 234.21875 129.476562 233.691406 129.40625 233.167969 C 129.269531 232.140625 129.179688 231.113281 129.203125 230.085938 C 129.203125 229.925781 129.226562 229.789062 129.363281 229.71875 C 129.5 229.925781 129.636719 230.128906 129.75 230.335938 C 130.183594 231.226562 130.433594 232.183594 130.640625 233.167969 C 130.867188 234.242188 131.050781 235.3125 131.164062 236.410156 C 131.210938 236.84375 131.257812 237.277344 131.28125 237.710938 C 131.28125 237.960938 131.484375 237.871094 131.597656 237.871094 C 131.757812 237.894531 131.738281 237.800781 131.738281 237.6875 C 131.714844 237.164062 131.621094 236.660156 131.578125 236.160156 C 131.507812 235.519531 131.757812 234.925781 131.894531 234.308594 C 132.011719 233.828125 132.214844 233.371094 132.285156 232.894531 C 132.351562 232.847656 132.375 232.757812 132.398438 232.6875 C 132.535156 232.390625 132.625 232.070312 132.878906 231.867188 C 132.96875 231.957031 132.921875 232.046875 132.921875 232.164062 C 132.921875 232.640625 132.921875 233.144531 132.878906 233.625 C 132.808594 234.171875 132.765625 234.71875 132.671875 235.269531 C 132.558594 236.089844 132.421875 236.890625 132.214844 237.6875 C 132.191406 237.824219 132.214844 237.894531 132.351562 237.871094 C 132.421875 237.871094 132.488281 237.871094 132.582031 237.871094 C 132.605469 237.871094 132.625 237.871094 132.648438 237.871094 C 132.742188 238.054688 132.765625 238.238281 132.765625 238.417969 C 132.765625 239.242188 132.742188 240.085938 132.765625 240.90625 C 132.765625 241.546875 132.605469 242.074219 131.941406 242.324219 C 132.308594 242.347656 132.648438 242.347656 133.015625 242.347656 C 133.539062 242.347656 134.019531 241.84375 134.019531 241.320312 C 134.019531 240.769531 134.019531 240.199219 134.019531 239.652344 C 134.773438 239.652344 135.527344 239.652344 136.304688 239.652344 C 136.554688 239.652344 136.601562 239.5625 136.601562 239.332031 C 136.601562 235.65625 136.601562 232.003906 136.601562 228.328125 C 136.601562 228.097656 136.554688 228.03125 136.304688 228.03125 C 132.625 228.03125 128.972656 228.03125 125.296875 228.03125 C 125.09375 228.03125 125.023438 228.074219 125.023438 228.28125 C 125.023438 231.980469 125.023438 235.703125 125.023438 239.402344 C 125.023438 239.582031 125.070312 239.652344 125.25 239.652344 C 126.210938 239.652344 127.167969 239.652344 128.128906 239.652344 C 128.335938 239.652344 128.378906 239.5625 128.378906 239.402344 C 128.378906 239.011719 128.378906 238.625 128.378906 238.214844 C 128.378906 237.847656 128.378906 237.847656 128.746094 237.847656 C 128.972656 237.871094 129.179688 237.871094 129.382812 237.871094 Z M 125.070312 220.199219 C 125.070312 222.046875 125.070312 223.898438 125.070312 225.722656 C 125.070312 225.972656 125.136719 226.019531 125.390625 226.019531 C 129.042969 226.019531 132.695312 226.019531 136.347656 226.019531 C 136.601562 226.019531 136.644531 225.953125 136.644531 225.699219 C 136.644531 222 136.644531 218.324219 136.644531 214.625 C 136.644531 214.375 136.578125 214.328125 136.324219 214.328125 C 132.671875 214.328125 129.019531 214.328125 125.367188 214.328125 C 125.113281 214.328125 125.070312 214.398438 125.070312 214.648438 C 125.070312 216.519531 125.070312 218.371094 125.070312 220.199219 Z M 122.921875 220.199219 C 122.921875 218.371094 122.921875 216.519531 122.921875 214.695312 C 122.921875 214.421875 122.855469 214.351562 122.582031 214.351562 C 118.949219 214.351562 115.34375 214.351562 111.710938 214.351562 C 111.367188 214.351562 111.347656 214.351562 111.347656 214.695312 C 111.347656 218.347656 111.347656 222.023438 111.347656 225.675781 C 111.347656 225.929688 111.414062 226.019531 111.6875 226.019531 C 115.320312 226.019531 118.972656 226.019531 122.601562 226.019531 C 122.855469 226.019531 122.898438 225.953125 122.898438 225.699219 C 122.921875 223.898438 122.921875 222.046875 122.921875 220.199219 Z M 122.921875 233.875 C 122.921875 232.046875 122.921875 230.199219 122.921875 228.371094 C 122.921875 228.144531 122.855469 228.050781 122.625 228.050781 C 118.972656 228.050781 115.320312 228.050781 111.664062 228.050781 C 111.4375 228.050781 111.347656 228.121094 111.347656 228.347656 C 111.347656 232.027344 111.347656 235.679688 111.347656 239.355469 C 111.347656 239.582031 111.414062 239.675781 111.644531 239.675781 C 115.296875 239.675781 118.949219 239.675781 122.601562 239.675781 C 122.832031 239.675781 122.921875 239.605469 122.921875 239.378906 C 122.921875 237.550781 122.921875 235.703125 122.921875 233.875 Z M 122.921875 233.875 " fill-opacity="1" fill-rule="nonzero"/></g><path fill="rgb(68.629456%, 74.119568%, 100%)" d="M 132.308594 232.894531 C 132.285156 231.957031 132.191406 231.042969 132.035156 230.128906 C 131.964844 229.671875 131.851562 229.238281 131.667969 228.828125 C 131.597656 228.691406 131.507812 228.53125 131.347656 228.53125 C 131.164062 228.507812 131.121094 228.691406 131.050781 228.804688 C 130.800781 229.332031 130.753906 229.878906 130.6875 230.449219 C 130.640625 230.816406 130.664062 231.179688 130.527344 231.613281 C 130.320312 231.089844 130.136719 230.632812 129.910156 230.199219 C 129.796875 229.992188 129.703125 229.742188 129.40625 229.71875 C 129.542969 229.925781 129.679688 230.128906 129.796875 230.335938 C 130.230469 231.226562 130.480469 232.183594 130.6875 233.167969 C 130.914062 234.242188 131.097656 235.3125 131.210938 236.410156 C 131.257812 236.84375 131.300781 237.277344 131.324219 237.710938 C 131.324219 237.960938 131.53125 237.871094 131.644531 237.871094 C 131.804688 237.894531 131.78125 237.800781 131.78125 237.6875 C 131.757812 237.164062 131.667969 236.660156 131.621094 236.160156 C 131.554688 235.519531 131.804688 234.925781 131.941406 234.308594 C 132.011719 233.828125 132.214844 233.371094 132.308594 232.894531 Z M 132.308594 232.894531 " fill-opacity="1" fill-rule="nonzero"/><path fill="rgb(68.629456%, 74.119568%, 100%)" d="M 134.066406 238.144531 C 134.066406 237.941406 133.996094 237.847656 133.769531 237.871094 C 133.402344 237.894531 133.039062 237.871094 132.671875 237.871094 C 132.765625 238.054688 132.785156 238.238281 132.785156 238.417969 C 132.785156 239.242188 132.765625 240.085938 132.785156 240.90625 C 132.785156 241.546875 132.625 242.074219 131.964844 242.324219 C 132.332031 242.347656 132.671875 242.347656 133.039062 242.347656 C 133.5625 242.347656 134.042969 241.84375 134.042969 241.320312 C 134.042969 240.769531 134.042969 240.199219 134.042969 239.652344 C 134.042969 239.171875 134.042969 238.671875 134.066406 238.144531 Z M 134.066406 238.144531 " fill-opacity="1" fill-rule="nonzero"/><path fill="rgb(68.629456%, 74.119568%, 100%)" d="M 129.820312 236.113281 C 129.75 235.65625 129.679688 235.199219 129.589844 234.742188 C 129.042969 234.445312 128.652344 234.855469 128.652344 235.382812 C 128.652344 235.816406 128.789062 236.203125 128.90625 236.59375 C 129.019531 237.027344 129.269531 237.414062 129.382812 237.871094 C 129.476562 237.871094 129.542969 237.871094 129.636719 237.871094 C 130.09375 237.871094 130.09375 237.847656 130 237.414062 C 129.933594 236.980469 129.886719 236.546875 129.820312 236.113281 Z M 129.820312 236.113281 " fill-opacity="1" fill-rule="nonzero"/><path fill="rgb(68.629456%, 74.119568%, 100%)" d="M 132.902344 233.601562 C 132.832031 234.148438 132.785156 234.695312 132.695312 235.246094 C 132.582031 236.066406 132.445312 236.867188 132.238281 237.664062 C 132.214844 237.800781 132.238281 237.871094 132.375 237.847656 C 132.445312 237.847656 132.511719 237.847656 132.605469 237.847656 C 132.625 237.757812 132.625 237.644531 132.648438 237.550781 C 132.808594 236.796875 132.945312 236.042969 133.0625 235.269531 C 133.175781 234.539062 133.242188 233.804688 133.3125 233.074219 C 133.359375 232.6875 133.359375 232.300781 133.289062 231.910156 C 133.265625 231.820312 133.289062 231.683594 133.152344 231.660156 C 133.039062 231.636719 132.945312 231.707031 132.878906 231.796875 C 132.96875 231.886719 132.921875 231.980469 132.921875 232.09375 C 132.945312 232.621094 132.96875 233.121094 132.902344 233.601562 Z M 132.902344 233.601562 " fill-opacity="1" fill-rule="nonzero"/><g fill="rgb(13.328552%, 17.248535%, 35.688782%)" fill-opacity="1"><g transform="translate(35.337121, 70.032767)"><g><path d="M 15.171875 0 L 11.40625 0 L 5.125 -9.515625 L 5.125 0 L 1.359375 0 L 1.359375 -15.4375 L 5.125 -15.4375 L 11.40625 -5.875 L 11.40625 -15.4375 L 15.171875 -15.4375 Z M 15.171875 0 "/></g></g></g><g fill="rgb(13.328552%, 17.248535%, 35.688782%)" fill-opacity="1"><g transform="translate(51.87399, 70.032767)"><g><path d="M 6.953125 0.171875 C 5.742188 0.171875 4.660156 -0.0820312 3.703125 -0.59375 C 2.742188 -1.101562 1.988281 -1.832031 1.4375 -2.78125 C 0.882812 -3.738281 0.609375 -4.859375 0.609375 -6.140625 C 0.609375 -7.398438 0.882812 -8.507812 1.4375 -9.46875 C 2 -10.425781 2.765625 -11.160156 3.734375 -11.671875 C 4.703125 -12.179688 5.785156 -12.4375 6.984375 -12.4375 C 8.191406 -12.4375 9.28125 -12.179688 10.25 -11.671875 C 11.21875 -11.160156 11.976562 -10.425781 12.53125 -9.46875 C 13.082031 -8.507812 13.359375 -7.398438 13.359375 -6.140625 C 13.359375 -4.878906 13.078125 -3.765625 12.515625 -2.796875 C 11.953125 -1.835938 11.179688 -1.101562 10.203125 -0.59375 C 9.234375 -0.0820312 8.148438 0.171875 6.953125 0.171875 Z M 6.953125 -3.078125 C 7.671875 -3.078125 8.28125 -3.335938 8.78125 -3.859375 C 9.289062 -4.390625 9.546875 -5.148438 9.546875 -6.140625 C 9.546875 -7.117188 9.296875 -7.867188 8.796875 -8.390625 C 8.304688 -8.921875 7.703125 -9.1875 6.984375 -9.1875 C 6.253906 -9.1875 5.644531 -8.925781 5.15625 -8.40625 C 4.675781 -7.882812 4.4375 -7.128906 4.4375 -6.140625 C 4.4375 -5.148438 4.675781 -4.390625 5.15625 -3.859375 C 5.632812 -3.335938 6.234375 -3.078125 6.953125 -3.078125 Z M 6.953125 -3.078125 "/></g></g></g><g fill="rgb(13.328552%, 17.248535%, 35.688782%)" fill-opacity="1"><g transform="translate(65.881946, 70.032767)"><g/></g></g><g fill="rgb(13.328552%, 17.248535%, 35.688782%)" fill-opacity="1"><g transform="translate(70.543935, 70.032767)"><g><path d="M 17.015625 -12.40625 C 18.535156 -12.40625 19.742188 -11.941406 20.640625 -11.015625 C 21.546875 -10.085938 22 -8.804688 22 -7.171875 L 22 0 L 18.265625 0 L 18.265625 -6.65625 C 18.265625 -7.445312 18.054688 -8.054688 17.640625 -8.484375 C 17.222656 -8.921875 16.648438 -9.140625 15.921875 -9.140625 C 15.179688 -9.140625 14.601562 -8.921875 14.1875 -8.484375 C 13.769531 -8.054688 13.5625 -7.445312 13.5625 -6.65625 L 13.5625 0 L 9.828125 0 L 9.828125 -6.65625 C 9.828125 -7.445312 9.617188 -8.054688 9.203125 -8.484375 C 8.785156 -8.921875 8.207031 -9.140625 7.46875 -9.140625 C 6.738281 -9.140625 6.164062 -8.921875 5.75 -8.484375 C 5.332031 -8.054688 5.125 -7.445312 5.125 -6.65625 L 5.125 0 L 1.359375 0 L 1.359375 -12.265625 L 5.125 -12.265625 L 5.125 -10.734375 C 5.5 -11.242188 5.992188 -11.648438 6.609375 -11.953125 C 7.234375 -12.253906 7.929688 -12.40625 8.703125 -12.40625 C 9.628906 -12.40625 10.453125 -12.207031 11.171875 -11.8125 C 11.898438 -11.414062 12.472656 -10.847656 12.890625 -10.109375 C 13.304688 -10.785156 13.878906 -11.335938 14.609375 -11.765625 C 15.347656 -12.191406 16.148438 -12.40625 17.015625 -12.40625 Z M 17.015625 -12.40625 "/></g></g></g><g fill="rgb(13.328552%, 17.248535%, 35.688782%)" fill-opacity="1"><g transform="translate(93.831891, 70.032767)"><g><path d="M 12.921875 -6.328125 C 12.921875 -5.972656 12.898438 -5.609375 12.859375 -5.234375 L 4.359375 -5.234375 C 4.410156 -4.472656 4.648438 -3.890625 5.078125 -3.484375 C 5.515625 -3.078125 6.050781 -2.875 6.6875 -2.875 C 7.625 -2.875 8.273438 -3.269531 8.640625 -4.0625 L 12.640625 -4.0625 C 12.429688 -3.257812 12.0625 -2.535156 11.53125 -1.890625 C 11 -1.242188 10.328125 -0.738281 9.515625 -0.375 C 8.710938 -0.0078125 7.8125 0.171875 6.8125 0.171875 C 5.613281 0.171875 4.546875 -0.0820312 3.609375 -0.59375 C 2.671875 -1.101562 1.9375 -1.832031 1.40625 -2.78125 C 0.875 -3.738281 0.609375 -4.859375 0.609375 -6.140625 C 0.609375 -7.410156 0.867188 -8.519531 1.390625 -9.46875 C 1.910156 -10.425781 2.640625 -11.160156 3.578125 -11.671875 C 4.515625 -12.179688 5.59375 -12.4375 6.8125 -12.4375 C 8 -12.4375 9.050781 -12.1875 9.96875 -11.6875 C 10.894531 -11.195312 11.617188 -10.488281 12.140625 -9.5625 C 12.660156 -8.632812 12.921875 -7.554688 12.921875 -6.328125 Z M 9.078125 -7.328125 C 9.078125 -7.960938 8.859375 -8.472656 8.421875 -8.859375 C 7.984375 -9.242188 7.429688 -9.4375 6.765625 -9.4375 C 6.140625 -9.4375 5.609375 -9.25 5.171875 -8.875 C 4.742188 -8.507812 4.476562 -7.992188 4.375 -7.328125 Z M 9.078125 -7.328125 "/></g></g></g><g fill="rgb(13.328552%, 17.248535%, 35.688782%)" fill-opacity="1"><g transform="translate(107.378044, 70.032767)"><g><path d="M 13.46875 -12.265625 L 13.46875 0 L 9.71875 0 L 9.71875 -1.671875 C 9.332031 -1.128906 8.8125 -0.691406 8.15625 -0.359375 C 7.507812 -0.0351562 6.789062 0.125 6 0.125 C 5.0625 0.125 4.234375 -0.0820312 3.515625 -0.5 C 2.796875 -0.914062 2.238281 -1.519531 1.84375 -2.3125 C 1.445312 -3.101562 1.25 -4.03125 1.25 -5.09375 L 1.25 -12.265625 L 4.984375 -12.265625 L 4.984375 -5.609375 C 4.984375 -4.785156 5.195312 -4.144531 5.625 -3.6875 C 6.050781 -3.238281 6.625 -3.015625 7.34375 -3.015625 C 8.070312 -3.015625 8.648438 -3.238281 9.078125 -3.6875 C 9.503906 -4.144531 9.71875 -4.785156 9.71875 -5.609375 L 9.71875 -12.265625 Z M 13.46875 -12.265625 "/></g></g></g><g fill="rgb(13.328552%, 17.248535%, 35.688782%)" fill-opacity="1"><g transform="translate(122.199648, 70.032767)"><g/></g></g><g fill="rgb(13.328552%, 17.248535%, 35.688782%)" fill-opacity="1"><g transform="translate(126.861641, 70.032767)"><g><path d="M 5.125 -10.53125 C 5.476562 -11.101562 5.984375 -11.5625 6.640625 -11.90625 C 7.296875 -12.257812 8.050781 -12.4375 8.90625 -12.4375 C 9.914062 -12.4375 10.832031 -12.179688 11.65625 -11.671875 C 12.476562 -11.160156 13.125 -10.425781 13.59375 -9.46875 C 14.070312 -8.519531 14.3125 -7.414062 14.3125 -6.15625 C 14.3125 -4.894531 14.070312 -3.785156 13.59375 -2.828125 C 13.125 -1.867188 12.476562 -1.128906 11.65625 -0.609375 C 10.832031 -0.0859375 9.914062 0.171875 8.90625 0.171875 C 8.039062 0.171875 7.285156 0 6.640625 -0.34375 C 5.992188 -0.6875 5.488281 -1.144531 5.125 -1.71875 L 5.125 0 L 1.359375 0 L 1.359375 -16.265625 L 5.125 -16.265625 Z M 10.484375 -6.15625 C 10.484375 -7.09375 10.222656 -7.828125 9.703125 -8.359375 C 9.179688 -8.898438 8.539062 -9.171875 7.78125 -9.171875 C 7.03125 -9.171875 6.394531 -8.898438 5.875 -8.359375 C 5.351562 -7.816406 5.09375 -7.078125 5.09375 -6.140625 C 5.09375 -5.203125 5.351562 -4.457031 5.875 -3.90625 C 6.394531 -3.363281 7.03125 -3.09375 7.78125 -3.09375 C 8.53125 -3.09375 9.164062 -3.367188 9.6875 -3.921875 C 10.21875 -4.472656 10.484375 -5.21875 10.484375 -6.15625 Z M 10.484375 -6.15625 "/></g></g></g><g fill="rgb(13.328552%, 17.248535%, 35.688782%)" fill-opacity="1"><g transform="translate(141.793201, 70.032767)"><g><path d="M 0.609375 -6.15625 C 0.609375 -7.414062 0.847656 -8.519531 1.328125 -9.46875 C 1.804688 -10.425781 2.453125 -11.160156 3.265625 -11.671875 C 4.085938 -12.179688 5.007812 -12.4375 6.03125 -12.4375 C 6.894531 -12.4375 7.648438 -12.257812 8.296875 -11.90625 C 8.953125 -11.5625 9.457031 -11.101562 9.8125 -10.53125 L 9.8125 -12.265625 L 13.5625 -12.265625 L 13.5625 0 L 9.8125 0 L 9.8125 -1.734375 C 9.4375 -1.160156 8.921875 -0.695312 8.265625 -0.34375 C 7.617188 0 6.863281 0.171875 6 0.171875 C 5 0.171875 4.085938 -0.0859375 3.265625 -0.609375 C 2.453125 -1.128906 1.804688 -1.867188 1.328125 -2.828125 C 0.847656 -3.785156 0.609375 -4.894531 0.609375 -6.15625 Z M 9.8125 -6.140625 C 9.8125 -7.078125 9.550781 -7.816406 9.03125 -8.359375 C 8.507812 -8.898438 7.875 -9.171875 7.125 -9.171875 C 6.375 -9.171875 5.738281 -8.898438 5.21875 -8.359375 C 4.695312 -7.828125 4.4375 -7.09375 4.4375 -6.15625 C 4.4375 -5.21875 4.695312 -4.472656 5.21875 -3.921875 C 5.738281 -3.367188 6.375 -3.09375 7.125 -3.09375 C 7.875 -3.09375 8.507812 -3.363281 9.03125 -3.90625 C 9.550781 -4.457031 9.8125 -5.203125 9.8125 -6.140625 Z M 9.8125 -6.140625 "/></g></g></g><g fill="rgb(13.328552%, 17.248535%, 35.688782%)" fill-opacity="1"><g transform="translate(156.724761, 70.032767)"><g><path d="M 3.25 -13.546875 C 2.59375 -13.546875 2.054688 -13.738281 1.640625 -14.125 C 1.222656 -14.507812 1.015625 -14.988281 1.015625 -15.5625 C 1.015625 -16.144531 1.222656 -16.628906 1.640625 -17.015625 C 2.054688 -17.410156 2.59375 -17.609375 3.25 -17.609375 C 3.894531 -17.609375 4.425781 -17.410156 4.84375 -17.015625 C 5.257812 -16.628906 5.46875 -16.144531 5.46875 -15.5625 C 5.46875 -14.988281 5.257812 -14.507812 4.84375 -14.125 C 4.425781 -13.738281 3.894531 -13.546875 3.25 -13.546875 Z M 5.125 -12.265625 L 5.125 0 L 1.359375 0 L 1.359375 -12.265625 Z M 5.125 -12.265625 "/></g></g></g><g fill="rgb(13.328552%, 17.248535%, 35.688782%)" fill-opacity="1"><g transform="translate(163.211971, 70.032767)"><g><path d="M 5.125 -10.21875 C 5.5625 -10.894531 6.109375 -11.425781 6.765625 -11.8125 C 7.429688 -12.207031 8.164062 -12.40625 8.96875 -12.40625 L 8.96875 -8.421875 L 7.9375 -8.421875 C 7 -8.421875 6.296875 -8.21875 5.828125 -7.8125 C 5.359375 -7.40625 5.125 -6.695312 5.125 -5.6875 L 5.125 0 L 1.359375 0 L 1.359375 -12.265625 L 5.125 -12.265625 Z M 5.125 -10.21875 "/></g></g></g><g fill="rgb(13.328552%, 17.248535%, 35.688782%)" fill-opacity="1"><g transform="translate(172.623916, 70.032767)"><g><path d="M 5.125 -10.21875 C 5.5625 -10.894531 6.109375 -11.425781 6.765625 -11.8125 C 7.429688 -12.207031 8.164062 -12.40625 8.96875 -12.40625 L 8.96875 -8.421875 L 7.9375 -8.421875 C 7 -8.421875 6.296875 -8.21875 5.828125 -7.8125 C 5.359375 -7.40625 5.125 -6.695312 5.125 -5.6875 L 5.125 0 L 1.359375 0 L 1.359375 -12.265625 L 5.125 -12.265625 Z M 5.125 -10.21875 "/></g></g></g><g fill="rgb(13.328552%, 17.248535%, 35.688782%)" fill-opacity="1"><g transform="translate(182.03586, 70.032767)"><g><path d="M 6.953125 0.171875 C 5.742188 0.171875 4.660156 -0.0820312 3.703125 -0.59375 C 2.742188 -1.101562 1.988281 -1.832031 1.4375 -2.78125 C 0.882812 -3.738281 0.609375 -4.859375 0.609375 -6.140625 C 0.609375 -7.398438 0.882812 -8.507812 1.4375 -9.46875 C 2 -10.425781 2.765625 -11.160156 3.734375 -11.671875 C 4.703125 -12.179688 5.785156 -12.4375 6.984375 -12.4375 C 8.191406 -12.4375 9.28125 -12.179688 10.25 -11.671875 C 11.21875 -11.160156 11.976562 -10.425781 12.53125 -9.46875 C 13.082031 -8.507812 13.359375 -7.398438 13.359375 -6.140625 C 13.359375 -4.878906 13.078125 -3.765625 12.515625 -2.796875 C 11.953125 -1.835938 11.179688 -1.101562 10.203125 -0.59375 C 9.234375 -0.0820312 8.148438 0.171875 6.953125 0.171875 Z M 6.953125 -3.078125 C 7.671875 -3.078125 8.28125 -3.335938 8.78125 -3.859375 C 9.289062 -4.390625 9.546875 -5.148438 9.546875 -6.140625 C 9.546875 -7.117188 9.296875 -7.867188 8.796875 -8.390625 C 8.304688 -8.921875 7.703125 -9.1875 6.984375 -9.1875 C 6.253906 -9.1875 5.644531 -8.925781 5.15625 -8.40625 C 4.675781 -7.882812 4.4375 -7.128906 4.4375 -6.140625 C 4.4375 -5.148438 4.675781 -4.390625 5.15625 -3.859375 C 5.632812 -3.335938 6.234375 -3.078125 6.953125 -3.078125 Z M 6.953125 -3.078125 "/></g></g></g><g fill="rgb(13.328552%, 17.248535%, 35.688782%)" fill-opacity="1"><g transform="translate(196.043821, 70.032767)"><g><path d="M 6.3125 -15.984375 L 5.875 -5.453125 L 2.6875 -5.453125 L 2.25 -15.984375 Z M 4.328125 0.171875 C 3.671875 0.171875 3.132812 -0.0195312 2.71875 -0.40625 C 2.300781 -0.789062 2.09375 -1.269531 2.09375 -1.84375 C 2.09375 -2.425781 2.300781 -2.914062 2.71875 -3.3125 C 3.132812 -3.707031 3.671875 -3.90625 4.328125 -3.90625 C 4.972656 -3.90625 5.503906 -3.707031 5.921875 -3.3125 C 6.335938 -2.914062 6.546875 -2.425781 6.546875 -1.84375 C 6.546875 -1.269531 6.335938 -0.789062 5.921875 -0.40625 C 5.503906 -0.0195312 4.972656 0.171875 4.328125 0.171875 Z M 4.328125 0.171875 "/></g></g></g><g fill="rgb(13.328552%, 17.248535%, 35.688782%)" fill-opacity="1"><g transform="translate(44.822283, 305.476363)"><g><path d="M 10.25 -3.40625 L 3.546875 -3.40625 L 1.71875 0 L -0.390625 0 L 7.828125 -15.234375 L 10.140625 -15.234375 L 12.96875 0 L 10.859375 0 Z M 9.953125 -4.96875 L 8.546875 -12.796875 L 4.375 -4.96875 Z M 9.953125 -4.96875 "/></g></g></g><g fill="rgb(13.328552%, 17.248535%, 35.688782%)" fill-opacity="1"><g transform="translate(59.643891, 305.476363)"><g/></g></g><g fill="rgb(13.328552%, 17.248535%, 35.688782%)" fill-opacity="1"><g transform="translate(66.197066, 305.476363)"><g><path d="M 1.1875 -7.671875 C 1.445312 -9.171875 2.019531 -10.515625 2.90625 -11.703125 C 3.800781 -12.898438 4.890625 -13.832031 6.171875 -14.5 C 7.453125 -15.175781 8.796875 -15.515625 10.203125 -15.515625 C 11.867188 -15.515625 13.253906 -15.113281 14.359375 -14.3125 C 15.472656 -13.507812 16.191406 -12.363281 16.515625 -10.875 L 14.109375 -10.875 C 13.847656 -11.769531 13.359375 -12.460938 12.640625 -12.953125 C 11.921875 -13.453125 11.003906 -13.703125 9.890625 -13.703125 C 8.816406 -13.703125 7.816406 -13.453125 6.890625 -12.953125 C 5.960938 -12.460938 5.175781 -11.757812 4.53125 -10.84375 C 3.882812 -9.925781 3.453125 -8.867188 3.234375 -7.671875 C 3.160156 -7.285156 3.125 -6.847656 3.125 -6.359375 C 3.125 -4.921875 3.546875 -3.78125 4.390625 -2.9375 C 5.234375 -2.09375 6.359375 -1.671875 7.765625 -1.671875 C 8.878906 -1.671875 9.878906 -1.910156 10.765625 -2.390625 C 11.660156 -2.878906 12.394531 -3.570312 12.96875 -4.46875 L 15.359375 -4.46875 C 14.523438 -3 13.414062 -1.863281 12.03125 -1.0625 C 10.644531 -0.269531 9.117188 0.125 7.453125 0.125 C 6.203125 0.125 5.09375 -0.128906 4.125 -0.640625 C 3.164062 -1.160156 2.414062 -1.894531 1.875 -2.84375 C 1.332031 -3.789062 1.0625 -4.878906 1.0625 -6.109375 C 1.0625 -6.617188 1.101562 -7.140625 1.1875 -7.671875 Z M 1.1875 -7.671875 "/></g></g></g><g fill="rgb(13.328552%, 17.248535%, 35.688782%)" fill-opacity="1"><g transform="translate(83.173745, 305.476363)"><g><path d="M 10.25 -3.40625 L 3.546875 -3.40625 L 1.71875 0 L -0.390625 0 L 7.828125 -15.234375 L 10.140625 -15.234375 L 12.96875 0 L 10.859375 0 Z M 9.953125 -4.96875 L 8.546875 -12.796875 L 4.375 -4.96875 Z M 9.953125 -4.96875 "/></g></g></g><g fill="rgb(13.328552%, 17.248535%, 35.688782%)" fill-opacity="1"><g transform="translate(97.995353, 305.476363)"><g><path d="M 8.21875 -15.328125 C 9.75 -15.328125 10.898438 -14.992188 11.671875 -14.328125 C 12.453125 -13.671875 12.84375 -12.796875 12.84375 -11.703125 C 12.84375 -11.523438 12.8125 -11.226562 12.75 -10.8125 C 12.5625 -9.757812 12.09375 -8.828125 11.34375 -8.015625 C 10.59375 -7.210938 9.585938 -6.679688 8.328125 -6.421875 L 11.03125 0 L 8.640625 0 L 6.09375 -6.265625 L 3.6875 -6.265625 L 2.578125 0 L 0.578125 0 L 3.296875 -15.328125 Z M 10.6875 -10.8125 C 10.726562 -11.082031 10.75 -11.328125 10.75 -11.546875 C 10.75 -12.242188 10.515625 -12.78125 10.046875 -13.15625 C 9.585938 -13.539062 8.882812 -13.734375 7.9375 -13.734375 L 5.015625 -13.734375 L 3.984375 -7.875 L 6.921875 -7.875 C 8.003906 -7.875 8.859375 -8.140625 9.484375 -8.671875 C 10.117188 -9.203125 10.519531 -9.914062 10.6875 -10.8125 Z M 10.6875 -10.8125 "/></g></g></g><g fill="rgb(13.328552%, 17.248535%, 35.688782%)" fill-opacity="1"><g transform="translate(111.365588, 305.476363)"><g><path d="M 8.21875 -15.328125 C 9.75 -15.328125 10.898438 -14.992188 11.671875 -14.328125 C 12.453125 -13.671875 12.84375 -12.796875 12.84375 -11.703125 C 12.84375 -11.523438 12.8125 -11.226562 12.75 -10.8125 C 12.5625 -9.757812 12.09375 -8.828125 11.34375 -8.015625 C 10.59375 -7.210938 9.585938 -6.679688 8.328125 -6.421875 L 11.03125 0 L 8.640625 0 L 6.09375 -6.265625 L 3.6875 -6.265625 L 2.578125 0 L 0.578125 0 L 3.296875 -15.328125 Z M 10.6875 -10.8125 C 10.726562 -11.082031 10.75 -11.328125 10.75 -11.546875 C 10.75 -12.242188 10.515625 -12.78125 10.046875 -13.15625 C 9.585938 -13.539062 8.882812 -13.734375 7.9375 -13.734375 L 5.015625 -13.734375 L 3.984375 -7.875 L 6.921875 -7.875 C 8.003906 -7.875 8.859375 -8.140625 9.484375 -8.671875 C 10.117188 -9.203125 10.519531 -9.914062 10.6875 -10.8125 Z M 10.6875 -10.8125 "/></g></g></g><g fill="rgb(13.328552%, 17.248535%, 35.688782%)" fill-opacity="1"><g transform="translate(124.735823, 305.476363)"><g><path d="M 5.015625 -13.765625 L 4.09375 -8.515625 L 9.65625 -8.515625 L 9.390625 -6.96875 L 3.828125 -6.96875 L 2.859375 -1.578125 L 9.09375 -1.578125 L 8.8125 0 L 0.578125 0 L 3.296875 -15.34375 L 11.515625 -15.34375 L 11.234375 -13.765625 Z M 5.015625 -13.765625 "/></g></g></g><g fill="rgb(13.328552%, 17.248535%, 35.688782%)" fill-opacity="1"><g transform="translate(136.016957, 305.476363)"><g><path d="M 1.1875 -7.671875 C 1.445312 -9.171875 2.019531 -10.515625 2.90625 -11.703125 C 3.800781 -12.898438 4.890625 -13.832031 6.171875 -14.5 C 7.460938 -15.164062 8.820312 -15.5 10.25 -15.5 C 11.882812 -15.5 13.253906 -15.09375 14.359375 -14.28125 C 15.472656 -13.476562 16.191406 -12.34375 16.515625 -10.875 L 14.109375 -10.875 C 13.847656 -11.769531 13.351562 -12.460938 12.625 -12.953125 C 11.90625 -13.453125 11.007812 -13.703125 9.9375 -13.703125 C 8.863281 -13.703125 7.851562 -13.453125 6.90625 -12.953125 C 5.96875 -12.460938 5.175781 -11.757812 4.53125 -10.84375 C 3.882812 -9.925781 3.453125 -8.867188 3.234375 -7.671875 C 3.160156 -7.285156 3.125 -6.847656 3.125 -6.359375 C 3.125 -4.921875 3.546875 -3.78125 4.390625 -2.9375 C 5.242188 -2.09375 6.378906 -1.671875 7.796875 -1.671875 C 9.304688 -1.671875 10.625 -2.117188 11.75 -3.015625 C 12.882812 -3.921875 13.664062 -5.144531 14.09375 -6.6875 L 7.984375 -6.6875 L 8.265625 -8.265625 L 16.515625 -8.265625 L 16.21875 -6.734375 C 15.882812 -5.472656 15.285156 -4.316406 14.421875 -3.265625 C 13.566406 -2.210938 12.535156 -1.382812 11.328125 -0.78125 C 10.117188 -0.175781 8.84375 0.125 7.5 0.125 C 6.238281 0.125 5.117188 -0.128906 4.140625 -0.640625 C 3.171875 -1.160156 2.414062 -1.894531 1.875 -2.84375 C 1.332031 -3.800781 1.0625 -4.898438 1.0625 -6.140625 C 1.0625 -6.628906 1.101562 -7.140625 1.1875 -7.671875 Z M 1.1875 -7.671875 "/></g></g></g><g fill="rgb(13.328552%, 17.248535%, 35.688782%)" fill-opacity="1"><g transform="translate(153.125578, 305.476363)"><g><path d="M 10.25 -3.40625 L 3.546875 -3.40625 L 1.71875 0 L -0.390625 0 L 7.828125 -15.234375 L 10.140625 -15.234375 L 12.96875 0 L 10.859375 0 Z M 9.953125 -4.96875 L 8.546875 -12.796875 L 4.375 -4.96875 Z M 9.953125 -4.96875 "/></g></g></g><g fill="rgb(13.328552%, 17.248535%, 35.688782%)" fill-opacity="1"><g transform="translate(167.947181, 305.476363)"><g><path d="M 8.21875 -15.328125 C 9.75 -15.328125 10.898438 -14.992188 11.671875 -14.328125 C 12.453125 -13.671875 12.84375 -12.796875 12.84375 -11.703125 C 12.84375 -11.523438 12.8125 -11.226562 12.75 -10.8125 C 12.5625 -9.757812 12.09375 -8.828125 11.34375 -8.015625 C 10.59375 -7.210938 9.585938 -6.679688 8.328125 -6.421875 L 11.03125 0 L 8.640625 0 L 6.09375 -6.265625 L 3.6875 -6.265625 L 2.578125 0 L 0.578125 0 L 3.296875 -15.328125 Z M 10.6875 -10.8125 C 10.726562 -11.082031 10.75 -11.328125 10.75 -11.546875 C 10.75 -12.242188 10.515625 -12.78125 10.046875 -13.15625 C 9.585938 -13.539062 8.882812 -13.734375 7.9375 -13.734375 L 5.015625 -13.734375 L 3.984375 -7.875 L 6.921875 -7.875 C 8.003906 -7.875 8.859375 -8.140625 9.484375 -8.671875 C 10.117188 -9.203125 10.519531 -9.914062 10.6875 -10.8125 Z M 10.6875 -10.8125 "/></g></g></g><g fill="rgb(13.328552%, 17.248535%, 35.688782%)" fill-opacity="1"><g transform="translate(181.317417, 305.476363)"><g><path d="M 1.1875 0.125 C 0.851562 0.125 0.578125 0.0234375 0.359375 -0.171875 C 0.148438 -0.378906 0.046875 -0.648438 0.046875 -0.984375 C 0.046875 -1.429688 0.207031 -1.8125 0.53125 -2.125 C 0.851562 -2.4375 1.234375 -2.59375 1.671875 -2.59375 C 2.003906 -2.59375 2.273438 -2.488281 2.484375 -2.28125 C 2.691406 -2.082031 2.796875 -1.8125 2.796875 -1.46875 C 2.796875 -1.03125 2.632812 -0.65625 2.3125 -0.34375 C 1.988281 -0.03125 1.613281 0.125 1.1875 0.125 Z M 1.1875 0.125 "/></g></g></g><g fill="rgb(13.328552%, 17.248535%, 35.688782%)" fill-opacity="1"><g transform="translate(185.93543, 305.476363)"><g><path d="M 1.1875 0.125 C 0.851562 0.125 0.578125 0.0234375 0.359375 -0.171875 C 0.148438 -0.378906 0.046875 -0.648438 0.046875 -0.984375 C 0.046875 -1.429688 0.207031 -1.8125 0.53125 -2.125 C 0.851562 -2.4375 1.234375 -2.59375 1.671875 -2.59375 C 2.003906 -2.59375 2.273438 -2.488281 2.484375 -2.28125 C 2.691406 -2.082031 2.796875 -1.8125 2.796875 -1.46875 C 2.796875 -1.03125 2.632812 -0.65625 2.3125 -0.34375 C 1.988281 -0.03125 1.613281 0.125 1.1875 0.125 Z M 1.1875 0.125 "/></g></g></g><g fill="rgb(13.328552%, 17.248535%, 35.688782%)" fill-opacity="1"><g transform="translate(190.553443, 305.476363)"><g><path d="M 1.1875 0.125 C 0.851562 0.125 0.578125 0.0234375 0.359375 -0.171875 C 0.148438 -0.378906 0.046875 -0.648438 0.046875 -0.984375 C 0.046875 -1.429688 0.207031 -1.8125 0.53125 -2.125 C 0.851562 -2.4375 1.234375 -2.59375 1.671875 -2.59375 C 2.003906 -2.59375 2.273438 -2.488281 2.484375 -2.28125 C 2.691406 -2.082031 2.796875 -1.8125 2.796875 -1.46875 C 2.796875 -1.03125 2.632812 -0.65625 2.3125 -0.34375 C 1.988281 -0.03125 1.613281 0.125 1.1875 0.125 Z M 1.1875 0.125 "/></g></g></g></svg>