<svg xmlns="http://www.w3.org/2000/svg" xmlns:xlink="http://www.w3.org/1999/xlink" width="480" zoomAndPan="magnify" viewBox="0 0 360 599.999999" height="800" preserveAspectRatio="xMidYMid meet" version="1.0"><defs><g><g id="id1"/><g id="id2"/></g><clipPath id="id3"><path d="M 73 235 L 252 235 L 252 436.828125 L 73 436.828125 Z M 73 235 " clip-rule="nonzero"/></clipPath><clipPath id="id4"><path d="M 99 347 L 153 347 L 153 436.828125 L 99 436.828125 Z M 99 347 " clip-rule="nonzero"/></clipPath><clipPath id="id5"><path d="M 169 406 L 254 406 L 254 436.828125 L 169 436.828125 Z M 169 406 " clip-rule="nonzero"/></clipPath><clipPath id="id6"><path d="M 119 386 L 302.4375 386 L 302.4375 436.859375 L 119 436.859375 Z M 119 386 " clip-rule="nonzero"/></clipPath><clipPath id="id7"><path d="M 227 416 L 273 416 L 273 436.859375 L 227 436.859375 Z M 227 416 " clip-rule="nonzero"/></clipPath><clipPath id="id8"><path d="M 199 264.414062 L 301 264.414062 L 301 425 L 199 425 Z M 199 264.414062 " clip-rule="nonzero"/></clipPath><clipPath id="id9"><path d="M 174 428 L 302.4375 428 L 302.4375 436.859375 L 174 436.859375 Z M 174 428 " clip-rule="nonzero"/></clipPath><clipPath id="id10"><path d="M 95.832031 434.410156 L 246 434.410156 L 246 436 L 95.832031 436 Z M 95.832031 434.410156 " clip-rule="nonzero"/></clipPath><clipPath id="id11"><path d="M 95.832031 434.410156 L 247.230469 434.410156 L 247.230469 436.773438 L 95.832031 436.773438 Z M 95.832031 434.410156 " clip-rule="nonzero"/></clipPath><clipPath id="id12"><path d="M 96 434.410156 L 148 434.410156 L 148 436 L 96 436 Z M 96 434.410156 " clip-rule="nonzero"/></clipPath><clipPath id="id13"><path d="M 95.832031 434.410156 L 149 434.410156 L 149 436.773438 L 95.832031 436.773438 Z M 95.832031 434.410156 " clip-rule="nonzero"/></clipPath><clipPath id="id14"><path d="M 166 434.410156 L 247.230469 434.410156 L 247.230469 436 L 166 436 Z M 166 434.410156 " clip-rule="nonzero"/></clipPath><clipPath id="id15"><path d="M 165 434.410156 L 247.230469 434.410156 L 247.230469 436.773438 L 165 436.773438 Z M 165 434.410156 " clip-rule="nonzero"/></clipPath><clipPath id="id16"><path d="M 158.046875 348.546875 L 213.804688 348.546875 L 213.804688 399.136719 L 158.046875 399.136719 Z M 158.046875 348.546875 " clip-rule="nonzero"/></clipPath></defs><rect x="-36" width="432" fill="rgb(100%, 100%, 100%)" y="-60" height="719.999999" fill-opacity="1"/><rect x="-36" width="432" fill="rgb(100%, 100%, 100%)" y="-60" height="719.999999" fill-opacity="1"/><rect x="-36" width="432" fill="rgb(100%, 100%, 100%)" y="-60" height="719.999999" fill-opacity="1"/><rect x="-36" width="432" fill="rgb(100%, 100%, 100%)" y="-60" height="719.999999" fill-opacity="1"/><path fill="rgb(100%, 100%, 100%)" d="M 246.480469 318.773438 C 246.464844 318.746094 246.464844 318.726562 246.445312 318.699219 L 180.0625 249.085938 C 170.925781 240.113281 169.699219 236.816406 162.277344 236.816406 C 156.515625 236.816406 152.496094 240.609375 142.6875 250.148438 L 78.5 318.6875 C 76.542969 320.636719 75.304688 323.402344 75.304688 326.480469 L 75.304688 424.75 C 75.304688 430.660156 79.828125 435.460938 85.417969 435.460938 L 239.488281 435.460938 C 245.066406 435.460938 249.582031 430.660156 249.582031 424.75 L 249.582031 326.480469 C 249.582031 323.449219 248.394531 320.722656 246.480469 318.773438 " fill-opacity="1" fill-rule="nonzero"/><g clip-path="url(#id3)"><path stroke-linecap="round" transform="matrix(0.0950505, 0, 0, -0.0950363, -40.06673, 530.059461)" fill="none" stroke-linejoin="round" d="M 3014.682292 2223.214302 C 3014.517906 2223.502021 3014.517906 2223.707535 3014.312423 2223.995254 L 2315.917569 2956.486876 C 2219.792727 3050.89983 2206.888408 3085.590528 2128.804954 3085.590528 C 2068.187535 3085.590528 2025.89918 3045.679785 1922.705731 2945.306936 L 1247.40714 2224.118562 C 1226.817766 2203.608303 1213.790158 2174.507575 1213.790158 2142.11863 L 1213.790158 1108.097433 C 1213.790158 1045.909013 1261.379969 995.43487 1320.189139 995.43487 L 2941.119459 995.43487 C 2999.805339 995.43487 3047.312957 1045.909013 3047.312957 1108.097433 L 3047.312957 2142.11863 C 3047.312957 2174.014343 3034.819604 2202.704043 3014.682292 2223.214302 Z M 3014.682292 2223.214302 " stroke="rgb(22.349548%, 35.688782%, 69.799805%)" stroke-width="30" stroke-opacity="1" stroke-miterlimit="10"/></g><path fill="rgb(100%, 100%, 100%)" d="M 167.039062 401.695312 C 164.605469 401.695312 162.636719 399.175781 162.636719 396.066406 L 162.636719 354.148438 C 162.636719 351.039062 164.605469 348.519531 167.039062 348.519531 L 229.441406 348.519531 C 231.871094 348.519531 233.839844 351.039062 233.839844 354.148438 L 233.839844 396.066406 C 233.839844 399.175781 231.871094 401.695312 229.441406 401.695312 L 167.039062 401.695312 " fill-opacity="1" fill-rule="nonzero"/><path stroke-linecap="round" transform="matrix(0.0950505, 0, 0, -0.0950363, -40.06673, 530.059461)" fill="none" stroke-linejoin="round" d="M 2178.901654 1350.685703 C 2153.298501 1350.685703 2132.585837 1377.196959 2132.585837 1409.914726 L 2132.585837 1850.988044 C 2132.585837 1883.705812 2153.298501 1910.217068 2178.901654 1910.217068 L 2835.41912 1910.217068 C 2860.981177 1910.217068 2881.693841 1883.705812 2881.693841 1850.988044 L 2881.693841 1409.914726 C 2881.693841 1377.196959 2860.981177 1350.685703 2835.41912 1350.685703 Z M 2178.901654 1350.685703 " stroke="rgb(22.349548%, 35.688782%, 69.799805%)" stroke-width="30" stroke-opacity="1" stroke-miterlimit="10"/><path fill="rgb(100%, 100%, 100%)" d="M 260.757812 317.015625 L 166.894531 223.167969 C 164.578125 220.839844 162.085938 219.554688 160.070312 221.5625 C 160.070312 221.5625 154.40625 225.914062 153.191406 227.121094 L 63.121094 317.1875 C 60.886719 319.410156 59.667969 321.824219 61.683594 323.832031 L 67.300781 329.457031 C 69.316406 331.460938 71.722656 330.253906 73.957031 328.023438 L 162.019531 239.96875 L 249.921875 327.851562 C 252.242188 330.179688 254.722656 331.460938 256.738281 329.457031 L 262.363281 323.832031 C 264.371094 321.824219 263.085938 319.34375 260.757812 317.015625 " fill-opacity="1" fill-rule="nonzero"/><path stroke-linecap="round" transform="matrix(0.0950505, 0, 0, -0.0950363, -40.06673, 530.059461)" fill="none" stroke-linejoin="round" d="M 3164.890201 2241.710527 L 2177.381082 3229.203442 C 2153.010825 3253.700665 2126.791223 3267.182358 2105.5854 3246.096661 C 2105.5854 3246.096661 2045.995396 3200.308228 2033.214367 3187.607486 L 1085.610003 2239.902007 C 1062.102774 2216.514558 1049.280649 2191.113075 1070.486471 2169.986276 L 1129.583317 2110.798355 C 1150.78914 2089.712658 1176.104617 2102.4134 1199.611847 2125.883054 L 2126.092581 3052.420631 L 3050.888357 2127.691574 C 3075.299711 2103.194351 3101.396023 2089.712658 3122.601846 2110.798355 L 3181.780885 2169.986276 C 3202.904514 2191.113075 3189.383747 2217.213304 3164.890201 2241.710527 Z M 3164.890201 2241.710527 " stroke="rgb(22.349548%, 35.688782%, 69.799805%)" stroke-width="30" stroke-opacity="1" stroke-miterlimit="10"/><path fill="rgb(25.099182%, 32.939148%, 69.799805%)" d="M 151.429688 435.316406 L 151.429688 354.328125 C 151.429688 351.117188 149.015625 348.519531 146.03125 348.519531 L 105.828125 348.519531 C 102.851562 348.519531 100.425781 351.117188 100.425781 354.328125 L 100.425781 435.316406 L 151.429688 435.316406 " fill-opacity="1" fill-rule="nonzero"/><g clip-path="url(#id4)"><path stroke-linecap="round" transform="matrix(0.0950505, 0, 0, -0.0950363, -40.06673, 530.059461)" fill="none" stroke-linejoin="round" d="M 2014.679821 996.914568 L 2014.679821 1849.097319 C 2014.679821 1882.883757 1989.28215 1910.217068 1957.884382 1910.217068 L 1534.918639 1910.217068 C 1503.603064 1910.217068 1478.082103 1882.883757 1478.082103 1849.097319 L 1478.082103 996.914568 Z M 2014.679821 996.914568 " stroke="rgb(22.349548%, 35.688782%, 69.799805%)" stroke-width="30" stroke-opacity="1" stroke-miterlimit="10"/></g><path fill="rgb(25.099182%, 32.939148%, 69.799805%)" d="M 172.734375 395.261719 C 170.746094 395.261719 169.128906 393.351562 169.128906 390.992188 L 169.128906 359.222656 C 169.128906 356.867188 170.746094 354.957031 172.734375 354.957031 L 223.746094 354.957031 C 225.734375 354.957031 227.347656 356.867188 227.347656 359.222656 L 227.347656 390.992188 C 227.347656 393.351562 225.734375 395.261719 223.746094 395.261719 L 172.734375 395.261719 " fill-opacity="1" fill-rule="nonzero"/><path stroke-linecap="round" transform="matrix(0.0950505, 0, 0, -0.0950363, -40.06673, 530.059461)" fill="none" stroke-linejoin="round" d="M 2238.820432 1418.381887 C 2217.902285 1418.381887 2200.888311 1438.481119 2200.888311 1463.307163 L 2200.888311 1797.595607 C 2200.888311 1822.380549 2217.902285 1842.479781 2238.820432 1842.479781 L 2775.500343 1842.479781 C 2796.418489 1842.479781 2813.391366 1822.380549 2813.391366 1797.595607 L 2813.391366 1463.307163 C 2813.391366 1438.481119 2796.418489 1418.381887 2775.500343 1418.381887 Z M 2238.820432 1418.381887 " stroke="rgb(22.349548%, 35.688782%, 69.799805%)" stroke-width="30" stroke-opacity="1" stroke-miterlimit="10"/><path fill="rgb(100%, 100%, 100%)" d="M 227.347656 367.320312 L 227.347656 359.222656 C 227.347656 356.867188 225.734375 354.957031 223.746094 354.957031 L 172.734375 354.957031 C 170.746094 354.957031 169.128906 356.867188 169.128906 359.222656 L 169.128906 367.320312 L 227.347656 367.320312 " fill-opacity="1" fill-rule="nonzero"/><path stroke-linecap="round" transform="matrix(0.0950505, 0, 0, -0.0950363, -40.06673, 530.059461)" fill="none" stroke-linejoin="round" d="M 2813.391366 1712.389663 L 2813.391366 1797.595607 C 2813.391366 1822.380549 2796.418489 1842.479781 2775.500343 1842.479781 L 2238.820432 1842.479781 C 2217.902285 1842.479781 2200.888311 1822.380549 2200.888311 1797.595607 L 2200.888311 1712.389663 Z M 2813.391366 1712.389663 " stroke="rgb(22.349548%, 35.688782%, 69.799805%)" stroke-width="30" stroke-opacity="1" stroke-miterlimit="10"/><path fill="rgb(100%, 100%, 100%)" d="M 244.484375 419.332031 C 242.765625 419.332031 241.1875 419.882812 239.894531 420.804688 C 240.007812 420.332031 240.074219 419.847656 240.074219 419.332031 C 240.074219 415.929688 237.308594 413.164062 233.898438 413.164062 C 231.730469 413.164062 229.828125 414.285156 228.726562 415.976562 C 227.625 414.285156 225.714844 413.164062 223.546875 413.164062 C 222.386719 413.164062 221.3125 413.488281 220.390625 414.039062 C 219.582031 410.511719 216.4375 407.871094 212.664062 407.871094 C 208.785156 407.871094 205.574219 410.644531 204.867188 414.316406 C 203.863281 413.59375 202.625 413.164062 201.285156 413.164062 C 199.519531 413.164062 197.921875 413.914062 196.800781 415.105469 C 195.390625 412.878906 192.921875 411.398438 190.089844 411.398438 C 185.707031 411.398438 182.160156 414.953125 182.160156 419.332031 C 182.160156 419.550781 182.171875 419.761719 182.191406 419.96875 C 181.230469 419.5625 180.183594 419.332031 179.074219 419.332031 C 174.699219 419.332031 171.144531 422.886719 171.144531 427.269531 C 171.144531 431.648438 174.699219 435.203125 179.074219 435.203125 L 244.484375 435.203125 C 248.867188 435.203125 252.414062 431.648438 252.414062 427.269531 C 252.414062 422.886719 248.867188 419.332031 244.484375 419.332031 " fill-opacity="1" fill-rule="nonzero"/><g clip-path="url(#id5)"><path stroke-linecap="round" transform="matrix(0.0950505, 0, 0, -0.0950363, -40.06673, 530.059461)" fill="none" stroke-linejoin="round" d="M 2993.681953 1165.106909 C 2975.599469 1165.106909 2958.99646 1159.311425 2945.393501 1149.611183 C 2946.585301 1154.584612 2947.283942 1159.68135 2947.283942 1165.106909 C 2947.283942 1200.907381 2918.187581 1230.008109 2882.310289 1230.008109 C 2859.501701 1230.008109 2839.487679 1218.211627 2827.89845 1200.414148 C 2816.309222 1218.211627 2796.213006 1230.008109 2773.404418 1230.008109 C 2761.198741 1230.008109 2749.897189 1226.596583 2740.198402 1220.801099 C 2731.691415 1257.916857 2698.608688 1285.702298 2658.909416 1285.702298 C 2618.100537 1285.702298 2584.319169 1256.519365 2576.880693 1217.882805 C 2566.318878 1225.486809 2553.29127 1230.008109 2539.195152 1230.008109 C 2520.619509 1230.008109 2503.811018 1222.116386 2492.016307 1209.580055 C 2477.18045 1233.008607 2451.207428 1248.586539 2421.412425 1248.586539 C 2375.302091 1248.586539 2337.986419 1211.183062 2337.986419 1165.106909 C 2337.986419 1162.805157 2338.109708 1160.58561 2338.315191 1158.407166 C 2328.205439 1162.681849 2317.191562 1165.106909 2305.52014 1165.106909 C 2259.491999 1165.106909 2222.094134 1127.703432 2222.094134 1081.586177 C 2222.094134 1035.510024 2259.491999 998.147649 2305.52014 998.147649 L 2993.681953 998.147649 C 3039.792287 998.147649 3077.107959 1035.510024 3077.107959 1081.586177 C 3077.107959 1127.703432 3039.792287 1165.106909 2993.681953 1165.106909 Z M 2993.681953 1165.106909 " stroke="rgb(22.349548%, 35.688782%, 69.799805%)" stroke-width="30" stroke-opacity="1" stroke-miterlimit="10"/></g><g clip-path="url(#id6)"><path fill="rgb(100%, 100%, 100%)" d="M 174.683594 386.472656 L 325.089844 386.472656 L 380.5 519.125 L 119.269531 519.125 L 174.683594 386.472656 " fill-opacity="1" fill-rule="nonzero"/></g><g clip-path="url(#id7)"><path fill="rgb(25.099182%, 32.939148%, 69.799805%)" d="M 272.753906 426.5625 C 272.753906 431.902344 262.625 436.21875 250.144531 436.21875 C 237.648438 436.21875 227.535156 431.902344 227.535156 426.5625 C 227.535156 421.226562 237.648438 416.894531 250.144531 416.894531 C 262.625 416.894531 272.753906 421.226562 272.753906 426.5625 " fill-opacity="1" fill-rule="nonzero"/></g><path fill="rgb(68.629456%, 74.119568%, 100%)" d="M 272.289062 424.222656 C 272.289062 429.558594 262.273438 433.875 249.914062 433.875 C 237.554688 433.875 227.535156 429.558594 227.535156 424.222656 C 227.535156 418.882812 237.554688 414.554688 249.914062 414.554688 C 262.273438 414.554688 272.289062 418.882812 272.289062 424.222656 " fill-opacity="1" fill-rule="nonzero"/><g clip-path="url(#id8)"><path fill="rgb(13.328552%, 17.248535%, 35.688782%)" d="M 250.769531 264.359375 C 250.484375 264.359375 250.183594 264.375 249.886719 264.375 C 249.585938 264.375 249.285156 264.359375 249 264.359375 C 221.546875 264.359375 199.292969 287.578125 199.292969 316.21875 C 199.292969 321.09375 201.183594 332.394531 204.027344 337.078125 L 249.886719 424.222656 L 295.742188 337.078125 C 298.585938 332.394531 300.480469 321.09375 300.480469 316.21875 C 300.480469 287.578125 278.238281 264.359375 250.769531 264.359375 " fill-opacity="1" fill-rule="nonzero"/></g><path fill="rgb(100%, 100%, 100%)" d="M 277.339844 310.429688 C 277.339844 325.601562 265.046875 337.898438 249.886719 337.898438 C 234.722656 337.898438 222.429688 325.601562 222.429688 310.429688 C 222.429688 295.257812 234.722656 282.960938 249.886719 282.960938 C 265.046875 282.960938 277.339844 295.257812 277.339844 310.429688 " fill-opacity="1" fill-rule="nonzero"/><g clip-path="url(#id9)"><path fill="rgb(20.779419%, 12.159729%, 8.628845%)" d="M 328.199219 428.878906 C 325.230469 429.308594 322.480469 429.957031 319.945312 430.820312 L 318.65625 431.257812 L 319.535156 433.835938 L 320.824219 433.398438 C 323.199219 432.589844 325.789062 431.980469 328.589844 431.574219 L 329.9375 431.378906 L 329.546875 428.683594 Z M 312.230469 434.601562 C 309.714844 436.328125 307.65625 438.375 306.054688 440.742188 L 305.292969 441.871094 L 307.546875 443.394531 L 308.308594 442.269531 C 309.71875 440.183594 311.535156 438.378906 313.769531 436.851562 L 314.890625 436.082031 L 313.351562 433.832031 Z M 302.671875 448.773438 C 302.09375 451.40625 301.894531 454.261719 302.074219 457.34375 L 302.148438 458.703125 L 304.867188 458.546875 L 304.789062 457.1875 C 304.628906 454.355469 304.808594 451.746094 305.328125 449.355469 L 305.621094 448.023438 L 302.960938 447.445312 Z M 301.78125 465.136719 C 301.1875 467.628906 300.164062 470.003906 298.71875 472.257812 L 297.980469 473.40625 L 300.273438 474.875 L 301.007812 473.730469 C 302.621094 471.214844 303.765625 468.5625 304.429688 465.769531 L 304.746094 464.445312 L 302.097656 463.808594 Z M 293.566406 478.15625 C 291.664062 479.816406 289.484375 481.320312 287.027344 482.671875 L 285.832031 483.324219 L 287.144531 485.714844 L 288.335938 485.058594 C 290.96875 483.613281 293.308594 481.996094 295.355469 480.210938 L 296.378906 479.316406 L 294.589844 477.261719 Z M 279.71875 485.9375 C 277.308594 486.808594 274.722656 487.566406 271.964844 488.21875 L 270.640625 488.53125 L 271.265625 491.183594 L 272.589844 490.871094 C 275.453125 490.195312 278.136719 489.402344 280.644531 488.496094 L 281.925781 488.035156 L 281 485.472656 Z M 263.992188 489.726562 C 261.40625 490.105469 258.703125 490.40625 255.882812 490.628906 L 254.527344 490.734375 L 254.738281 493.449219 L 256.09375 493.34375 C 258.976562 493.117188 261.742188 492.808594 264.386719 492.421875 L 265.734375 492.226562 L 265.339844 489.53125 Z M 247.730469 491.039062 C 245.25 491.097656 242.695312 491.105469 240.066406 491.058594 L 239.503906 491.054688 L 238.140625 491.046875 L 238.125 493.769531 L 239.484375 493.777344 L 240.019531 493.78125 C 242.6875 493.828125 245.734375 493.808594 249.15625 493.726562 L 249.089844 491.003906 Z M 231.1875 491.238281 C 228.410156 491.351562 225.652344 491.515625 222.917969 491.730469 L 221.558594 491.835938 L 221.773438 494.550781 L 223.128906 494.445312 C 225.832031 494.234375 228.554688 494.074219 231.300781 493.957031 L 232.664062 493.902344 L 232.550781 491.179688 Z M 214.675781 492.539062 C 211.808594 492.878906 209.058594 493.269531 206.425781 493.71875 L 205.082031 493.945312 L 205.539062 496.628906 L 206.878906 496.402344 C 209.46875 495.964844 212.175781 495.578125 214.996094 495.242188 L 216.347656 495.082031 L 216.027344 492.375 Z M 198.242188 495.363281 C 195.339844 496.054688 192.652344 496.816406 190.175781 497.652344 L 188.886719 498.085938 L 189.757812 500.667969 L 191.046875 500.230469 C 193.441406 499.421875 196.050781 498.683594 198.867188 498.015625 L 200.191406 497.699219 L 199.566406 495.050781 Z M 182.394531 500.878906 C 179.558594 502.332031 177.191406 503.933594 175.285156 505.679688 L 174.285156 506.601562 L 176.125 508.609375 L 177.125 507.6875 C 178.851562 506.105469 181.019531 504.644531 183.636719 503.304688 L 184.847656 502.683594 L 183.605469 500.257812 Z M 182.394531 500.878906 " fill-opacity="1" fill-rule="nonzero"/></g><g clip-path="url(#id10)"><path fill="rgb(100%, 100%, 100%)" d="M 242.582031 318.324219 C 242.5625 318.292969 242.5625 318.273438 242.542969 318.246094 L 175.925781 248.398438 C 166.761719 239.394531 165.53125 236.085938 158.082031 236.085938 C 152.300781 236.085938 148.265625 239.890625 138.421875 249.464844 L 74.007812 318.238281 C 72.042969 320.191406 70.804688 322.964844 70.804688 326.054688 L 70.804688 424.652344 C 70.804688 430.585938 75.34375 435.402344 80.953125 435.402344 L 235.5625 435.402344 C 241.160156 435.402344 245.691406 430.585938 245.691406 424.652344 L 245.691406 326.054688 C 245.691406 323.015625 244.5 320.277344 242.582031 318.324219 " fill-opacity="1" fill-rule="nonzero"/></g><g clip-path="url(#id11)"><path stroke-linecap="round" transform="matrix(0.0953852, 0, 0, -0.0953563, -44.975741, 530.318445)" fill="none" stroke-linejoin="round" d="M 3014.701471 2223.180659 C 3014.49671 2223.508378 3014.49671 2223.713202 3014.291948 2223.999955 L 2315.889913 2956.491405 C 2219.81561 3050.915251 2206.915607 3085.612431 2128.819402 3085.612431 C 2068.209867 3085.612431 2025.90605 3045.712723 1922.706031 2945.308017 L 1247.401144 2224.081885 C 1226.802092 2203.599489 1213.820185 2174.514486 1213.820185 2142.111336 L 1213.820185 1108.119014 C 1213.820185 1045.893495 1261.406861 995.424871 1320.214491 995.424871 L 2941.110029 995.424871 C 2999.794802 995.424871 3047.299573 1045.893495 3047.299573 1108.119014 L 3047.299573 2142.111336 C 3047.299573 2173.981944 3034.809094 2202.698263 3014.701471 2223.180659 Z M 3014.701471 2223.180659 " stroke="rgb(22.349548%, 35.688782%, 69.799805%)" stroke-width="30" stroke-opacity="1" stroke-miterlimit="10"/></g><g clip-path="url(#id12)"><path fill="rgb(25.099182%, 32.939148%, 69.799805%)" d="M 147.195312 435.257812 L 147.195312 353.996094 C 147.195312 350.773438 144.773438 348.167969 141.777344 348.167969 L 101.429688 348.167969 C 98.445312 348.167969 96.011719 350.773438 96.011719 353.996094 L 96.011719 435.257812 L 147.195312 435.257812 " fill-opacity="1" fill-rule="nonzero"/></g><g clip-path="url(#id13)"><path stroke-linecap="round" transform="matrix(0.0953852, 0, 0, -0.0953563, -44.975741, 530.318445)" fill="none" stroke-linejoin="round" d="M 2014.685096 996.899604 L 2014.685096 1849.090177 C 2014.685096 1882.88613 1989.294615 1910.209647 1957.884133 1910.209647 L 1534.886911 1910.209647 C 1503.599286 1910.209647 1478.085948 1882.88613 1478.085948 1849.090177 L 1478.085948 996.899604 Z M 2014.685096 996.899604 " stroke="rgb(22.349548%, 35.688782%, 69.799805%)" stroke-width="30" stroke-opacity="1" stroke-miterlimit="10"/></g><g clip-path="url(#id14)"><path fill="rgb(100%, 100%, 100%)" d="M 240.578125 419.21875 C 238.851562 419.21875 237.269531 419.773438 235.972656 420.695312 C 236.085938 420.21875 236.152344 419.734375 236.152344 419.21875 C 236.152344 415.804688 233.378906 413.03125 229.953125 413.03125 C 227.777344 413.03125 225.871094 414.15625 224.765625 415.851562 C 223.65625 414.15625 221.738281 413.03125 219.566406 413.03125 C 218.402344 413.03125 217.324219 413.355469 216.398438 413.90625 C 215.585938 410.371094 212.429688 407.71875 208.644531 407.71875 C 204.753906 407.71875 201.527344 410.503906 200.820312 414.183594 C 199.8125 413.460938 198.570312 413.03125 197.226562 413.03125 C 195.453125 413.03125 193.847656 413.785156 192.722656 414.976562 C 191.3125 412.746094 188.832031 411.257812 185.988281 411.257812 C 181.59375 411.257812 178.035156 414.824219 178.035156 419.21875 C 178.035156 419.4375 178.042969 419.648438 178.0625 419.859375 C 177.101562 419.449219 176.050781 419.21875 174.933594 419.21875 C 170.546875 419.21875 166.980469 422.785156 166.980469 427.179688 C 166.980469 431.578125 170.546875 435.144531 174.933594 435.144531 L 240.578125 435.144531 C 244.976562 435.144531 248.535156 431.578125 248.535156 427.179688 C 248.535156 422.785156 244.976562 419.21875 240.578125 419.21875 " fill-opacity="1" fill-rule="nonzero"/></g><g clip-path="url(#id15)"><path stroke-linecap="round" transform="matrix(0.0953852, 0, 0, -0.0953563, -44.975741, 530.318445)" fill="none" stroke-linejoin="round" d="M 2993.692896 1165.10104 C 2975.59194 1165.10104 2959.006223 1159.28404 2945.41003 1149.616349 C 2946.597649 1154.614054 2947.29384 1159.693688 2947.29384 1165.10104 C 2947.29384 1200.904269 2918.217644 1229.989271 2882.302399 1229.989271 C 2859.491919 1229.989271 2839.507153 1218.191411 2827.917627 1200.412691 C 2816.287149 1218.191411 2796.179526 1229.989271 2773.409998 1229.989271 C 2761.206186 1229.989271 2749.903327 1226.589194 2740.197611 1220.813158 C 2731.720467 1257.886295 2698.589984 1285.701389 2658.90712 1285.701389 C 2618.118541 1285.701389 2584.291868 1256.493492 2576.879486 1217.904658 C 2566.313769 1225.483144 2553.29091 1229.989271 2539.203288 1229.989271 C 2520.610904 1229.989271 2503.820424 1222.083067 2491.985184 1209.588805 C 2477.201372 1232.979701 2451.196605 1248.587287 2421.383266 1248.587287 C 2375.311829 1248.587287 2338.004203 1211.186432 2338.004203 1165.10104 C 2338.004203 1162.807012 2338.086108 1160.594913 2338.29087 1158.382815 C 2328.216582 1162.684118 2317.20039 1165.10104 2305.488007 1165.10104 C 2259.498474 1165.10104 2222.108944 1127.700185 2222.108944 1081.614794 C 2222.108944 1035.488438 2259.498474 998.128547 2305.488007 998.128547 L 2993.692896 998.128547 C 3039.805286 998.128547 3077.112912 1035.488438 3077.112912 1081.614794 C 3077.112912 1127.700185 3039.805286 1165.10104 2993.692896 1165.10104 Z M 2993.692896 1165.10104 " stroke="rgb(22.349548%, 35.688782%, 69.799805%)" stroke-width="30" stroke-opacity="1" stroke-miterlimit="10"/></g><path fill="rgb(100%, 100%, 100%)" d="M 158.046875 342.21875 L 204.203125 342.21875 L 204.203125 405.363281 L 158.046875 405.363281 L 158.046875 342.21875 " fill-opacity="1" fill-rule="nonzero"/><path fill="rgb(100%, 100%, 100%)" d="M 174.664062 371.453125 L 220.820312 371.453125 L 220.820312 397.671875 L 174.664062 397.671875 L 174.664062 371.453125 " fill-opacity="1" fill-rule="nonzero"/><path stroke-linecap="butt" transform="matrix(8.225931, 15.723859, -15.705398, 8.216273, 174.660622, 299.887829)" fill="none" stroke-linejoin="miter" d="M -0.0000675811 -0.00000577127 L 7.200081 0.0000813046 " stroke="rgb(100%, 100%, 100%)" stroke-width="1" stroke-opacity="1" stroke-miterlimit="4"/><g clip-path="url(#id16)"><path fill="rgb(25.099182%, 32.939148%, 69.799805%)" d="M 213.804688 394.957031 C 213.804688 396.328125 213.804688 397.699219 213.804688 399.070312 C 213.769531 399.101562 213.738281 399.136719 213.738281 399.136719 C 195.207031 399.136719 176.644531 399.136719 158.113281 399.136719 C 158.078125 399.101562 158.046875 399.070312 158.046875 399.070312 C 158.046875 397.734375 158.046875 396.398438 158.046875 395.027344 C 159.140625 394.855469 160.238281 394.683594 161.300781 394.546875 C 161.574219 394.511719 161.640625 394.375 161.640625 394.101562 C 161.640625 393.246094 161.640625 392.390625 161.640625 391.566406 C 161.640625 391.292969 161.710938 391.15625 162.019531 391.191406 C 162.5 391.226562 162.945312 391.191406 163.421875 391.191406 C 164.109375 391.191406 164.039062 391.257812 164.039062 390.574219 C 164.039062 376.566406 164.039062 362.554688 164.039062 348.546875 C 178.699219 348.546875 193.359375 348.546875 208.015625 348.546875 C 208.015625 362.523438 208.015625 376.460938 208.015625 390.4375 C 208.015625 390.574219 208.015625 390.675781 208.015625 390.8125 C 207.980469 391.121094 208.085938 391.226562 208.394531 391.226562 C 208.871094 391.191406 209.351562 391.226562 209.832031 391.226562 C 210.140625 391.226562 210.242188 391.292969 210.242188 391.601562 C 210.207031 392.355469 210.242188 393.074219 210.242188 393.828125 C 210.242188 394.480469 210.242188 394.511719 210.894531 394.617188 C 211.851562 394.71875 212.8125 394.957031 213.804688 394.957031 Z M 194.078125 386.804688 C 194.214844 386.804688 194.316406 386.804688 194.453125 386.804688 C 195.136719 386.804688 195.136719 386.773438 195 386.121094 C 194.898438 385.472656 194.832031 384.820312 194.726562 384.167969 C 194.625 383.484375 194.523438 382.800781 194.386719 382.113281 C 194.28125 381.328125 194.214844 380.539062 194.109375 379.75 C 193.90625 378.210938 193.769531 376.667969 193.804688 375.125 C 193.804688 374.886719 193.835938 374.679688 194.042969 374.578125 C 194.25 374.886719 194.453125 375.195312 194.625 375.503906 C 195.277344 376.839844 195.652344 378.277344 195.960938 379.75 C 196.304688 381.359375 196.578125 382.96875 196.75 384.613281 C 196.816406 385.265625 196.886719 385.914062 196.917969 386.566406 C 196.917969 386.945312 197.226562 386.804688 197.398438 386.804688 C 197.640625 386.839844 197.605469 386.703125 197.605469 386.53125 C 197.570312 385.746094 197.433594 384.992188 197.363281 384.238281 C 197.261719 383.277344 197.640625 382.386719 197.84375 381.464844 C 198.015625 380.742188 198.324219 380.058594 198.425781 379.339844 C 198.53125 379.269531 198.5625 379.132812 198.597656 379.03125 C 198.804688 378.585938 198.941406 378.105469 199.316406 377.796875 C 199.453125 377.933594 199.386719 378.074219 199.386719 378.242188 C 199.386719 378.964844 199.386719 379.714844 199.316406 380.4375 C 199.214844 381.257812 199.144531 382.078125 199.007812 382.902344 C 198.835938 384.136719 198.632812 385.332031 198.324219 386.53125 C 198.289062 386.738281 198.324219 386.839844 198.53125 386.804688 C 198.632812 386.804688 198.734375 386.804688 198.871094 386.804688 C 198.90625 386.804688 198.941406 386.804688 198.976562 386.804688 C 199.113281 387.082031 199.144531 387.355469 199.144531 387.628906 C 199.144531 388.863281 199.113281 390.128906 199.144531 391.363281 C 199.144531 392.320312 198.90625 393.109375 197.914062 393.484375 C 198.460938 393.519531 198.976562 393.519531 199.523438 393.519531 C 200.308594 393.519531 201.03125 392.765625 201.03125 391.976562 C 201.03125 391.15625 201.03125 390.300781 201.03125 389.476562 C 202.160156 389.476562 203.289062 389.476562 204.453125 389.476562 C 204.832031 389.476562 204.898438 389.339844 204.898438 389 C 204.898438 383.484375 204.898438 378.003906 204.898438 372.488281 C 204.898438 372.148438 204.832031 372.042969 204.453125 372.042969 C 198.941406 372.042969 193.460938 372.042969 187.945312 372.042969 C 187.636719 372.042969 187.535156 372.113281 187.535156 372.421875 C 187.535156 377.96875 187.535156 383.550781 187.535156 389.101562 C 187.535156 389.375 187.605469 389.476562 187.878906 389.476562 C 189.316406 389.476562 190.753906 389.476562 192.191406 389.476562 C 192.5 389.476562 192.570312 389.339844 192.570312 389.101562 C 192.570312 388.519531 192.570312 387.9375 192.570312 387.320312 C 192.570312 386.773438 192.570312 386.773438 193.117188 386.773438 C 193.460938 386.804688 193.769531 386.804688 194.078125 386.804688 Z M 187.605469 360.296875 C 187.605469 363.070312 187.605469 365.84375 187.605469 368.585938 C 187.605469 368.960938 187.707031 369.03125 188.082031 369.03125 C 193.5625 369.03125 199.042969 369.03125 204.523438 369.03125 C 204.898438 369.03125 204.96875 368.925781 204.96875 368.550781 C 204.96875 363 204.96875 357.488281 204.96875 351.9375 C 204.96875 351.5625 204.867188 351.492188 204.488281 351.492188 C 199.007812 351.492188 193.527344 351.492188 188.050781 351.492188 C 187.671875 351.492188 187.605469 351.597656 187.605469 351.972656 C 187.605469 354.78125 187.605469 357.554688 187.605469 360.296875 Z M 184.382812 360.296875 C 184.382812 357.554688 184.382812 354.78125 184.382812 352.042969 C 184.382812 351.628906 184.28125 351.527344 183.871094 351.527344 C 178.425781 351.527344 173.011719 351.527344 167.566406 351.527344 C 167.054688 351.527344 167.019531 351.527344 167.019531 352.042969 C 167.019531 357.523438 167.019531 363.035156 167.019531 368.515625 C 167.019531 368.894531 167.121094 369.03125 167.53125 369.03125 C 172.980469 369.03125 178.457031 369.03125 183.90625 369.03125 C 184.28125 369.03125 184.351562 368.925781 184.351562 368.550781 C 184.382812 365.84375 184.382812 363.070312 184.382812 360.296875 Z M 184.382812 380.8125 C 184.382812 378.074219 184.382812 375.296875 184.382812 372.558594 C 184.382812 372.214844 184.28125 372.078125 183.9375 372.078125 C 178.457031 372.078125 172.980469 372.078125 167.5 372.078125 C 167.15625 372.078125 167.019531 372.179688 167.019531 372.523438 C 167.019531 378.039062 167.019531 383.519531 167.019531 389.03125 C 167.019531 389.375 167.121094 389.511719 167.464844 389.511719 C 172.945312 389.511719 178.425781 389.511719 183.90625 389.511719 C 184.246094 389.511719 184.382812 389.410156 184.382812 389.066406 C 184.382812 386.328125 184.382812 383.550781 184.382812 380.8125 Z M 184.382812 380.8125 " fill-opacity="1" fill-rule="nonzero"/></g><path fill="rgb(68.629456%, 74.119568%, 100%)" d="M 198.460938 379.339844 C 198.425781 377.933594 198.289062 376.566406 198.050781 375.195312 C 197.945312 374.511719 197.777344 373.859375 197.5 373.242188 C 197.398438 373.039062 197.261719 372.796875 197.023438 372.796875 C 196.75 372.761719 196.679688 373.039062 196.578125 373.207031 C 196.199219 373.996094 196.132812 374.820312 196.027344 375.675781 C 195.960938 376.222656 195.996094 376.769531 195.789062 377.421875 C 195.480469 376.632812 195.207031 375.949219 194.863281 375.296875 C 194.695312 374.988281 194.554688 374.613281 194.109375 374.578125 C 194.316406 374.886719 194.523438 375.195312 194.695312 375.503906 C 195.34375 376.839844 195.722656 378.277344 196.027344 379.75 C 196.371094 381.359375 196.644531 382.96875 196.816406 384.613281 C 196.886719 385.265625 196.953125 385.914062 196.988281 386.566406 C 196.988281 386.945312 197.296875 386.804688 197.46875 386.804688 C 197.707031 386.839844 197.671875 386.703125 197.671875 386.53125 C 197.640625 385.746094 197.5 384.992188 197.433594 384.238281 C 197.332031 383.277344 197.707031 382.386719 197.914062 381.464844 C 198.015625 380.742188 198.324219 380.058594 198.460938 379.339844 Z M 198.460938 379.339844 " fill-opacity="1" fill-rule="nonzero"/><path fill="rgb(68.629456%, 74.119568%, 100%)" d="M 201.097656 387.21875 C 201.097656 386.910156 200.996094 386.773438 200.652344 386.804688 C 200.105469 386.839844 199.558594 386.804688 199.007812 386.804688 C 199.144531 387.082031 199.179688 387.355469 199.179688 387.628906 C 199.179688 388.863281 199.144531 390.128906 199.179688 391.363281 C 199.179688 392.320312 198.941406 393.109375 197.945312 393.484375 C 198.496094 393.519531 199.007812 393.519531 199.558594 393.519531 C 200.34375 393.519531 201.0625 392.765625 201.0625 391.976562 C 201.0625 391.15625 201.0625 390.300781 201.0625 389.476562 C 201.0625 388.757812 201.0625 388.003906 201.097656 387.21875 Z M 201.097656 387.21875 " fill-opacity="1" fill-rule="nonzero"/><path fill="rgb(68.629456%, 74.119568%, 100%)" d="M 194.726562 384.167969 C 194.625 383.484375 194.523438 382.800781 194.386719 382.113281 C 193.5625 381.667969 192.980469 382.285156 192.980469 383.074219 C 192.980469 383.722656 193.1875 384.304688 193.359375 384.886719 C 193.527344 385.539062 193.90625 386.121094 194.078125 386.804688 C 194.214844 386.804688 194.316406 386.804688 194.453125 386.804688 C 195.136719 386.804688 195.136719 386.773438 195 386.121094 C 194.898438 385.472656 194.832031 384.820312 194.726562 384.167969 Z M 194.726562 384.167969 " fill-opacity="1" fill-rule="nonzero"/><path fill="rgb(68.629456%, 74.119568%, 100%)" d="M 199.351562 380.402344 C 199.25 381.222656 199.179688 382.046875 199.042969 382.867188 C 198.871094 384.101562 198.667969 385.300781 198.359375 386.5 C 198.324219 386.703125 198.359375 386.804688 198.5625 386.773438 C 198.667969 386.773438 198.769531 386.773438 198.90625 386.773438 C 198.941406 386.636719 198.941406 386.464844 198.976562 386.328125 C 199.214844 385.195312 199.417969 384.066406 199.589844 382.902344 C 199.761719 381.804688 199.863281 380.710938 199.96875 379.613281 C 200.035156 379.03125 200.035156 378.449219 199.933594 377.867188 C 199.898438 377.730469 199.933594 377.523438 199.726562 377.488281 C 199.558594 377.457031 199.417969 377.558594 199.316406 377.695312 C 199.453125 377.832031 199.386719 377.96875 199.386719 378.140625 C 199.417969 378.929688 199.453125 379.683594 199.351562 380.402344 Z M 199.351562 380.402344 " fill-opacity="1" fill-rule="nonzero"/><g fill="rgb(13.328552%, 17.248535%, 35.688782%)" fill-opacity="1"><g transform="translate(53.005676, 135.049182)"><g><path d="M 22.765625 0 L 17.125 0 L 7.6875 -14.28125 L 7.6875 0 L 2.046875 0 L 2.046875 -23.15625 L 7.6875 -23.15625 L 17.125 -8.8125 L 17.125 -23.15625 L 22.765625 -23.15625 Z M 22.765625 0 "/></g></g></g><g fill="rgb(13.328552%, 17.248535%, 35.688782%)" fill-opacity="1"><g transform="translate(77.810979, 135.049182)"><g><path d="M 10.421875 0.265625 C 8.617188 0.265625 6.992188 -0.117188 5.546875 -0.890625 C 4.109375 -1.660156 2.976562 -2.757812 2.15625 -4.1875 C 1.332031 -5.613281 0.921875 -7.285156 0.921875 -9.203125 C 0.921875 -11.097656 1.335938 -12.765625 2.171875 -14.203125 C 3.015625 -15.640625 4.160156 -16.742188 5.609375 -17.515625 C 7.054688 -18.285156 8.679688 -18.671875 10.484375 -18.671875 C 12.285156 -18.671875 13.910156 -18.285156 15.359375 -17.515625 C 16.816406 -16.742188 17.960938 -15.640625 18.796875 -14.203125 C 19.628906 -12.765625 20.046875 -11.097656 20.046875 -9.203125 C 20.046875 -7.304688 19.625 -5.640625 18.78125 -4.203125 C 17.9375 -2.765625 16.78125 -1.660156 15.3125 -0.890625 C 13.851562 -0.117188 12.222656 0.265625 10.421875 0.265625 Z M 10.421875 -4.625 C 11.503906 -4.625 12.421875 -5.019531 13.171875 -5.8125 C 13.929688 -6.601562 14.3125 -7.734375 14.3125 -9.203125 C 14.3125 -10.671875 13.941406 -11.800781 13.203125 -12.59375 C 12.472656 -13.382812 11.566406 -13.78125 10.484375 -13.78125 C 9.390625 -13.78125 8.476562 -13.390625 7.75 -12.609375 C 7.019531 -11.835938 6.65625 -10.703125 6.65625 -9.203125 C 6.65625 -7.734375 7.015625 -6.601562 7.734375 -5.8125 C 8.453125 -5.019531 9.347656 -4.625 10.421875 -4.625 Z M 10.421875 -4.625 "/></g></g></g><g fill="rgb(13.328552%, 17.248535%, 35.688782%)" fill-opacity="1"><g transform="translate(98.822915, 135.049182)"><g/></g></g><g fill="rgb(13.328552%, 17.248535%, 35.688782%)" fill-opacity="1"><g transform="translate(105.815899, 135.049182)"><g><path d="M 25.53125 -18.609375 C 27.8125 -18.609375 29.628906 -17.914062 30.984375 -16.53125 C 32.335938 -15.144531 33.015625 -13.21875 33.015625 -10.75 L 33.015625 0 L 27.40625 0 L 27.40625 -10 C 27.40625 -11.1875 27.09375 -12.101562 26.46875 -12.75 C 25.84375 -13.394531 24.976562 -13.71875 23.875 -13.71875 C 22.78125 -13.71875 21.914062 -13.394531 21.28125 -12.75 C 20.65625 -12.101562 20.34375 -11.1875 20.34375 -10 L 20.34375 0 L 14.75 0 L 14.75 -10 C 14.75 -11.1875 14.429688 -12.101562 13.796875 -12.75 C 13.171875 -13.394531 12.3125 -13.71875 11.21875 -13.71875 C 10.113281 -13.71875 9.25 -13.394531 8.625 -12.75 C 8 -12.101562 7.6875 -11.1875 7.6875 -10 L 7.6875 0 L 2.046875 0 L 2.046875 -18.40625 L 7.6875 -18.40625 L 7.6875 -16.09375 C 8.257812 -16.863281 9.003906 -17.472656 9.921875 -17.921875 C 10.847656 -18.378906 11.894531 -18.609375 13.0625 -18.609375 C 14.445312 -18.609375 15.679688 -18.3125 16.765625 -17.71875 C 17.859375 -17.125 18.710938 -16.273438 19.328125 -15.171875 C 19.960938 -16.179688 20.828125 -17.003906 21.921875 -17.640625 C 23.023438 -18.285156 24.226562 -18.609375 25.53125 -18.609375 Z M 25.53125 -18.609375 "/></g></g></g><g fill="rgb(13.328552%, 17.248535%, 35.688782%)" fill-opacity="1"><g transform="translate(140.747833, 135.049182)"><g><path d="M 19.390625 -9.5 C 19.390625 -8.96875 19.359375 -8.414062 19.296875 -7.84375 L 6.53125 -7.84375 C 6.613281 -6.707031 6.976562 -5.835938 7.625 -5.234375 C 8.28125 -4.628906 9.082031 -4.328125 10.03125 -4.328125 C 11.4375 -4.328125 12.414062 -4.921875 12.96875 -6.109375 L 18.96875 -6.109375 C 18.65625 -4.890625 18.097656 -3.796875 17.296875 -2.828125 C 16.492188 -1.867188 15.488281 -1.113281 14.28125 -0.5625 C 13.070312 -0.0078125 11.71875 0.265625 10.21875 0.265625 C 8.414062 0.265625 6.8125 -0.117188 5.40625 -0.890625 C 4 -1.660156 2.898438 -2.757812 2.109375 -4.1875 C 1.316406 -5.613281 0.921875 -7.285156 0.921875 -9.203125 C 0.921875 -11.117188 1.3125 -12.789062 2.09375 -14.21875 C 2.875 -15.644531 3.96875 -16.742188 5.375 -17.515625 C 6.78125 -18.285156 8.394531 -18.671875 10.21875 -18.671875 C 12 -18.671875 13.582031 -18.296875 14.96875 -17.546875 C 16.351562 -16.796875 17.4375 -15.726562 18.21875 -14.34375 C 19 -12.957031 19.390625 -11.34375 19.390625 -9.5 Z M 13.625 -10.984375 C 13.625 -11.953125 13.289062 -12.722656 12.625 -13.296875 C 11.96875 -13.867188 11.144531 -14.15625 10.15625 -14.15625 C 9.207031 -14.15625 8.410156 -13.878906 7.765625 -13.328125 C 7.117188 -12.773438 6.71875 -11.992188 6.5625 -10.984375 Z M 13.625 -10.984375 "/></g></g></g><g fill="rgb(13.328552%, 17.248535%, 35.688782%)" fill-opacity="1"><g transform="translate(161.067064, 135.049182)"><g><path d="M 20.21875 -18.40625 L 20.21875 0 L 14.578125 0 L 14.578125 -2.5 C 14.003906 -1.6875 13.226562 -1.03125 12.25 -0.53125 C 11.269531 -0.0390625 10.1875 0.203125 9 0.203125 C 7.59375 0.203125 6.347656 -0.109375 5.265625 -0.734375 C 4.191406 -1.367188 3.359375 -2.28125 2.765625 -3.46875 C 2.171875 -4.65625 1.875 -6.050781 1.875 -7.65625 L 1.875 -18.40625 L 7.484375 -18.40625 L 7.484375 -8.40625 C 7.484375 -7.175781 7.800781 -6.21875 8.4375 -5.53125 C 9.082031 -4.851562 9.941406 -4.515625 11.015625 -4.515625 C 12.117188 -4.515625 12.988281 -4.851562 13.625 -5.53125 C 14.257812 -6.21875 14.578125 -7.175781 14.578125 -8.40625 L 14.578125 -18.40625 Z M 20.21875 -18.40625 "/></g></g></g><g fill="rgb(13.328552%, 17.248535%, 35.688782%)" fill-opacity="1"><g transform="translate(183.299471, 135.049182)"><g/></g></g><g fill="rgb(13.328552%, 17.248535%, 35.688782%)" fill-opacity="1"><g transform="translate(190.29246, 135.049182)"><g><path d="M 7.6875 -15.796875 C 8.21875 -16.648438 8.976562 -17.34375 9.96875 -17.875 C 10.957031 -18.40625 12.085938 -18.671875 13.359375 -18.671875 C 14.878906 -18.671875 16.253906 -18.285156 17.484375 -17.515625 C 18.710938 -16.742188 19.679688 -15.644531 20.390625 -14.21875 C 21.109375 -12.789062 21.46875 -11.128906 21.46875 -9.234375 C 21.46875 -7.347656 21.109375 -5.679688 20.390625 -4.234375 C 19.679688 -2.796875 18.710938 -1.6875 17.484375 -0.90625 C 16.253906 -0.125 14.878906 0.265625 13.359375 0.265625 C 12.054688 0.265625 10.921875 0.0078125 9.953125 -0.5 C 8.992188 -1.019531 8.238281 -1.710938 7.6875 -2.578125 L 7.6875 0 L 2.046875 0 L 2.046875 -24.40625 L 7.6875 -24.40625 Z M 15.734375 -9.234375 C 15.734375 -10.640625 15.34375 -11.742188 14.5625 -12.546875 C 13.78125 -13.347656 12.816406 -13.75 11.671875 -13.75 C 10.554688 -13.75 9.609375 -13.34375 8.828125 -12.53125 C 8.046875 -11.71875 7.65625 -10.609375 7.65625 -9.203125 C 7.65625 -7.796875 8.046875 -6.6875 8.828125 -5.875 C 9.609375 -5.0625 10.554688 -4.65625 11.671875 -4.65625 C 12.796875 -4.65625 13.753906 -5.066406 14.546875 -5.890625 C 15.335938 -6.710938 15.734375 -7.828125 15.734375 -9.234375 Z M 15.734375 -9.234375 "/></g></g></g><g fill="rgb(13.328552%, 17.248535%, 35.688782%)" fill-opacity="1"><g transform="translate(212.689801, 135.049182)"><g><path d="M 0.921875 -9.234375 C 0.921875 -11.128906 1.273438 -12.789062 1.984375 -14.21875 C 2.703125 -15.644531 3.675781 -16.742188 4.90625 -17.515625 C 6.144531 -18.285156 7.519531 -18.671875 9.03125 -18.671875 C 10.332031 -18.671875 11.472656 -18.40625 12.453125 -17.875 C 13.429688 -17.34375 14.1875 -16.648438 14.71875 -15.796875 L 14.71875 -18.40625 L 20.34375 -18.40625 L 20.34375 0 L 14.71875 0 L 14.71875 -2.609375 C 14.164062 -1.742188 13.398438 -1.046875 12.421875 -0.515625 C 11.441406 0.00390625 10.300781 0.265625 9 0.265625 C 7.507812 0.265625 6.144531 -0.125 4.90625 -0.90625 C 3.675781 -1.6875 2.703125 -2.796875 1.984375 -4.234375 C 1.273438 -5.679688 0.921875 -7.347656 0.921875 -9.234375 Z M 14.71875 -9.203125 C 14.71875 -10.609375 14.328125 -11.71875 13.546875 -12.53125 C 12.765625 -13.34375 11.8125 -13.75 10.6875 -13.75 C 9.5625 -13.75 8.609375 -13.347656 7.828125 -12.546875 C 7.046875 -11.742188 6.65625 -10.640625 6.65625 -9.234375 C 6.65625 -7.828125 7.046875 -6.710938 7.828125 -5.890625 C 8.609375 -5.066406 9.5625 -4.65625 10.6875 -4.65625 C 11.8125 -4.65625 12.765625 -5.0625 13.546875 -5.875 C 14.328125 -6.6875 14.71875 -7.796875 14.71875 -9.203125 Z M 14.71875 -9.203125 "/></g></g></g><g fill="rgb(13.328552%, 17.248535%, 35.688782%)" fill-opacity="1"><g transform="translate(235.087143, 135.049182)"><g><path d="M 4.875 -20.3125 C 3.882812 -20.3125 3.078125 -20.601562 2.453125 -21.1875 C 1.828125 -21.769531 1.515625 -22.492188 1.515625 -23.359375 C 1.515625 -24.234375 1.828125 -24.960938 2.453125 -25.546875 C 3.078125 -26.128906 3.882812 -26.421875 4.875 -26.421875 C 5.84375 -26.421875 6.640625 -26.128906 7.265625 -25.546875 C 7.898438 -24.960938 8.21875 -24.234375 8.21875 -23.359375 C 8.21875 -22.492188 7.898438 -21.769531 7.265625 -21.1875 C 6.640625 -20.601562 5.84375 -20.3125 4.875 -20.3125 Z M 7.6875 -18.40625 L 7.6875 0 L 2.046875 0 L 2.046875 -18.40625 Z M 7.6875 -18.40625 "/></g></g></g><g fill="rgb(13.328552%, 17.248535%, 35.688782%)" fill-opacity="1"><g transform="translate(244.817958, 135.049182)"><g><path d="M 7.6875 -15.34375 C 8.34375 -16.351562 9.164062 -17.148438 10.15625 -17.734375 C 11.144531 -18.316406 12.242188 -18.609375 13.453125 -18.609375 L 13.453125 -12.640625 L 11.90625 -12.640625 C 10.5 -12.640625 9.441406 -12.332031 8.734375 -11.71875 C 8.035156 -11.113281 7.6875 -10.054688 7.6875 -8.546875 L 7.6875 0 L 2.046875 0 L 2.046875 -18.40625 L 7.6875 -18.40625 Z M 7.6875 -15.34375 "/></g></g></g><g fill="rgb(13.328552%, 17.248535%, 35.688782%)" fill-opacity="1"><g transform="translate(258.935875, 135.049182)"><g><path d="M 7.6875 -15.34375 C 8.34375 -16.351562 9.164062 -17.148438 10.15625 -17.734375 C 11.144531 -18.316406 12.242188 -18.609375 13.453125 -18.609375 L 13.453125 -12.640625 L 11.90625 -12.640625 C 10.5 -12.640625 9.441406 -12.332031 8.734375 -11.71875 C 8.035156 -11.113281 7.6875 -10.054688 7.6875 -8.546875 L 7.6875 0 L 2.046875 0 L 2.046875 -18.40625 L 7.6875 -18.40625 Z M 7.6875 -15.34375 "/></g></g></g><g fill="rgb(13.328552%, 17.248535%, 35.688782%)" fill-opacity="1"><g transform="translate(273.053793, 135.049182)"><g><path d="M 10.421875 0.265625 C 8.617188 0.265625 6.992188 -0.117188 5.546875 -0.890625 C 4.109375 -1.660156 2.976562 -2.757812 2.15625 -4.1875 C 1.332031 -5.613281 0.921875 -7.285156 0.921875 -9.203125 C 0.921875 -11.097656 1.335938 -12.765625 2.171875 -14.203125 C 3.015625 -15.640625 4.160156 -16.742188 5.609375 -17.515625 C 7.054688 -18.285156 8.679688 -18.671875 10.484375 -18.671875 C 12.285156 -18.671875 13.910156 -18.285156 15.359375 -17.515625 C 16.816406 -16.742188 17.960938 -15.640625 18.796875 -14.203125 C 19.628906 -12.765625 20.046875 -11.097656 20.046875 -9.203125 C 20.046875 -7.304688 19.625 -5.640625 18.78125 -4.203125 C 17.9375 -2.765625 16.78125 -1.660156 15.3125 -0.890625 C 13.851562 -0.117188 12.222656 0.265625 10.421875 0.265625 Z M 10.421875 -4.625 C 11.503906 -4.625 12.421875 -5.019531 13.171875 -5.8125 C 13.929688 -6.601562 14.3125 -7.734375 14.3125 -9.203125 C 14.3125 -10.671875 13.941406 -11.800781 13.203125 -12.59375 C 12.472656 -13.382812 11.566406 -13.78125 10.484375 -13.78125 C 9.390625 -13.78125 8.476562 -13.390625 7.75 -12.609375 C 7.019531 -11.835938 6.65625 -10.703125 6.65625 -9.203125 C 6.65625 -7.734375 7.015625 -6.601562 7.734375 -5.8125 C 8.453125 -5.019531 9.347656 -4.625 10.421875 -4.625 Z M 10.421875 -4.625 "/></g></g></g><g fill="rgb(13.328552%, 17.248535%, 35.688782%)" fill-opacity="1"><g transform="translate(294.065734, 135.049182)"><g><path d="M 9.46875 -23.984375 L 8.8125 -8.1875 L 4.03125 -8.1875 L 3.359375 -23.984375 Z M 6.5 0.265625 C 5.507812 0.265625 4.703125 -0.0234375 4.078125 -0.609375 C 3.453125 -1.191406 3.140625 -1.910156 3.140625 -2.765625 C 3.140625 -3.648438 3.453125 -4.390625 4.078125 -4.984375 C 4.703125 -5.578125 5.507812 -5.875 6.5 -5.875 C 7.46875 -5.875 8.265625 -5.578125 8.890625 -4.984375 C 9.515625 -4.390625 9.828125 -3.648438 9.828125 -2.765625 C 9.828125 -1.910156 9.515625 -1.191406 8.890625 -0.609375 C 8.265625 -0.0234375 7.46875 0.265625 6.5 0.265625 Z M 6.5 0.265625 "/></g></g></g><g fill="rgb(13.328552%, 17.248535%, 35.688782%)" fill-opacity="1"><g transform="translate(67.233425, 488.214605)"><g><path d="M 15.375 -5.109375 L 5.3125 -5.109375 L 2.578125 0 L -0.59375 0 L 11.75 -22.859375 L 15.203125 -22.859375 L 19.453125 0 L 16.296875 0 Z M 14.9375 -7.453125 L 12.828125 -19.203125 L 6.5625 -7.453125 Z M 14.9375 -7.453125 "/></g></g></g><g fill="rgb(13.328552%, 17.248535%, 35.688782%)" fill-opacity="1"><g transform="translate(89.465837, 488.214605)"><g/></g></g><g fill="rgb(13.328552%, 17.248535%, 35.688782%)" fill-opacity="1"><g transform="translate(99.2956, 488.214605)"><g><path d="M 1.78125 -11.515625 C 2.175781 -13.753906 3.035156 -15.769531 4.359375 -17.5625 C 5.691406 -19.351562 7.320312 -20.753906 9.25 -21.765625 C 11.175781 -22.773438 13.195312 -23.28125 15.3125 -23.28125 C 17.8125 -23.28125 19.890625 -22.675781 21.546875 -21.46875 C 23.210938 -20.257812 24.285156 -18.546875 24.765625 -16.328125 L 21.171875 -16.328125 C 20.773438 -17.671875 20.035156 -18.707031 18.953125 -19.4375 C 17.878906 -20.175781 16.507812 -20.546875 14.84375 -20.546875 C 13.238281 -20.546875 11.738281 -20.175781 10.34375 -19.4375 C 8.945312 -18.707031 7.765625 -17.65625 6.796875 -16.28125 C 5.828125 -14.90625 5.175781 -13.316406 4.84375 -11.515625 C 4.738281 -10.941406 4.6875 -10.28125 4.6875 -9.53125 C 4.6875 -7.375 5.316406 -5.660156 6.578125 -4.390625 C 7.847656 -3.128906 9.535156 -2.5 11.640625 -2.5 C 13.316406 -2.5 14.820312 -2.863281 16.15625 -3.59375 C 17.5 -4.320312 18.597656 -5.359375 19.453125 -6.703125 L 23.0625 -6.703125 C 21.800781 -4.492188 20.128906 -2.789062 18.046875 -1.59375 C 15.972656 -0.394531 13.6875 0.203125 11.1875 0.203125 C 9.3125 0.203125 7.648438 -0.1875 6.203125 -0.96875 C 4.753906 -1.75 3.617188 -2.847656 2.796875 -4.265625 C 1.984375 -5.691406 1.578125 -7.328125 1.578125 -9.171875 C 1.578125 -9.941406 1.644531 -10.722656 1.78125 -11.515625 Z M 1.78125 -11.515625 "/></g></g></g><g fill="rgb(13.328552%, 17.248535%, 35.688782%)" fill-opacity="1"><g transform="translate(124.760619, 488.214605)"><g><path d="M 15.375 -5.109375 L 5.3125 -5.109375 L 2.578125 0 L -0.59375 0 L 11.75 -22.859375 L 15.203125 -22.859375 L 19.453125 0 L 16.296875 0 Z M 14.9375 -7.453125 L 12.828125 -19.203125 L 6.5625 -7.453125 Z M 14.9375 -7.453125 "/></g></g></g><g fill="rgb(13.328552%, 17.248535%, 35.688782%)" fill-opacity="1"><g transform="translate(146.993032, 488.214605)"><g><path d="M 12.34375 -22.984375 C 14.625 -22.984375 16.347656 -22.488281 17.515625 -21.5 C 18.679688 -20.507812 19.265625 -19.191406 19.265625 -17.546875 C 19.265625 -17.285156 19.21875 -16.847656 19.125 -16.234375 C 18.84375 -14.648438 18.140625 -13.25 17.015625 -12.03125 C 15.898438 -10.820312 14.394531 -10.019531 12.5 -9.625 L 16.5625 0 L 12.96875 0 L 9.140625 -9.40625 L 5.546875 -9.40625 L 3.859375 0 L 0.859375 0 L 4.953125 -22.984375 Z M 16.03125 -16.234375 C 16.09375 -16.628906 16.125 -16.988281 16.125 -17.3125 C 16.125 -18.375 15.773438 -19.1875 15.078125 -19.75 C 14.390625 -20.320312 13.332031 -20.609375 11.90625 -20.609375 L 7.515625 -20.609375 L 5.96875 -11.8125 L 10.390625 -11.8125 C 12.015625 -11.8125 13.300781 -12.210938 14.25 -13.015625 C 15.195312 -13.816406 15.789062 -14.890625 16.03125 -16.234375 Z M 16.03125 -16.234375 "/></g></g></g><g fill="rgb(13.328552%, 17.248535%, 35.688782%)" fill-opacity="1"><g transform="translate(167.048385, 488.214605)"><g><path d="M 12.34375 -22.984375 C 14.625 -22.984375 16.347656 -22.488281 17.515625 -21.5 C 18.679688 -20.507812 19.265625 -19.191406 19.265625 -17.546875 C 19.265625 -17.285156 19.21875 -16.847656 19.125 -16.234375 C 18.84375 -14.648438 18.140625 -13.25 17.015625 -12.03125 C 15.898438 -10.820312 14.394531 -10.019531 12.5 -9.625 L 16.5625 0 L 12.96875 0 L 9.140625 -9.40625 L 5.546875 -9.40625 L 3.859375 0 L 0.859375 0 L 4.953125 -22.984375 Z M 16.03125 -16.234375 C 16.09375 -16.628906 16.125 -16.988281 16.125 -17.3125 C 16.125 -18.375 15.773438 -19.1875 15.078125 -19.75 C 14.390625 -20.320312 13.332031 -20.609375 11.90625 -20.609375 L 7.515625 -20.609375 L 5.96875 -11.8125 L 10.390625 -11.8125 C 12.015625 -11.8125 13.300781 -12.210938 14.25 -13.015625 C 15.195312 -13.816406 15.789062 -14.890625 16.03125 -16.234375 Z M 16.03125 -16.234375 "/></g></g></g><g fill="rgb(13.328552%, 17.248535%, 35.688782%)" fill-opacity="1"><g transform="translate(187.103738, 488.214605)"><g><path d="M 7.515625 -20.640625 L 6.140625 -12.765625 L 14.484375 -12.765625 L 14.078125 -10.453125 L 5.734375 -10.453125 L 4.28125 -2.375 L 13.65625 -2.375 L 13.234375 0 L 0.859375 0 L 4.953125 -23.015625 L 17.28125 -23.015625 L 16.859375 -20.640625 Z M 7.515625 -20.640625 "/></g></g></g><g fill="rgb(13.328552%, 17.248535%, 35.688782%)" fill-opacity="1"><g transform="translate(204.02544, 488.214605)"><g><path d="M 1.78125 -11.515625 C 2.175781 -13.753906 3.035156 -15.769531 4.359375 -17.5625 C 5.691406 -19.351562 7.328125 -20.75 9.265625 -21.75 C 11.203125 -22.75 13.238281 -23.25 15.375 -23.25 C 17.832031 -23.25 19.890625 -22.644531 21.546875 -21.4375 C 23.210938 -20.226562 24.285156 -18.523438 24.765625 -16.328125 L 21.171875 -16.328125 C 20.773438 -17.671875 20.03125 -18.707031 18.9375 -19.4375 C 17.851562 -20.175781 16.507812 -20.546875 14.90625 -20.546875 C 13.300781 -20.546875 11.789062 -20.175781 10.375 -19.4375 C 8.957031 -18.707031 7.765625 -17.65625 6.796875 -16.28125 C 5.828125 -14.90625 5.175781 -13.316406 4.84375 -11.515625 C 4.738281 -10.941406 4.6875 -10.28125 4.6875 -9.53125 C 4.6875 -7.375 5.320312 -5.660156 6.59375 -4.390625 C 7.875 -3.128906 9.578125 -2.5 11.703125 -2.5 C 13.972656 -2.5 15.953125 -3.175781 17.640625 -4.53125 C 19.335938 -5.882812 20.503906 -7.71875 21.140625 -10.03125 L 11.96875 -10.03125 L 12.40625 -12.40625 L 24.765625 -12.40625 L 24.34375 -10.09375 C 23.832031 -8.195312 22.929688 -6.460938 21.640625 -4.890625 C 20.359375 -3.328125 18.8125 -2.085938 17 -1.171875 C 15.1875 -0.253906 13.269531 0.203125 11.25 0.203125 C 9.351562 0.203125 7.675781 -0.1875 6.21875 -0.96875 C 4.757812 -1.75 3.617188 -2.851562 2.796875 -4.28125 C 1.984375 -5.71875 1.578125 -7.359375 1.578125 -9.203125 C 1.578125 -9.953125 1.644531 -10.722656 1.78125 -11.515625 Z M 1.78125 -11.515625 "/></g></g></g><g fill="rgb(13.328552%, 17.248535%, 35.688782%)" fill-opacity="1"><g transform="translate(229.688372, 488.214605)"><g><path d="M 15.375 -5.109375 L 5.3125 -5.109375 L 2.578125 0 L -0.59375 0 L 11.75 -22.859375 L 15.203125 -22.859375 L 19.453125 0 L 16.296875 0 Z M 14.9375 -7.453125 L 12.828125 -19.203125 L 6.5625 -7.453125 Z M 14.9375 -7.453125 "/></g></g></g><g fill="rgb(13.328552%, 17.248535%, 35.688782%)" fill-opacity="1"><g transform="translate(251.920778, 488.214605)"><g><path d="M 12.34375 -22.984375 C 14.625 -22.984375 16.347656 -22.488281 17.515625 -21.5 C 18.679688 -20.507812 19.265625 -19.191406 19.265625 -17.546875 C 19.265625 -17.285156 19.21875 -16.847656 19.125 -16.234375 C 18.84375 -14.648438 18.140625 -13.25 17.015625 -12.03125 C 15.898438 -10.820312 14.394531 -10.019531 12.5 -9.625 L 16.5625 0 L 12.96875 0 L 9.140625 -9.40625 L 5.546875 -9.40625 L 3.859375 0 L 0.859375 0 L 4.953125 -22.984375 Z M 16.03125 -16.234375 C 16.09375 -16.628906 16.125 -16.988281 16.125 -17.3125 C 16.125 -18.375 15.773438 -19.1875 15.078125 -19.75 C 14.390625 -20.320312 13.332031 -20.609375 11.90625 -20.609375 L 7.515625 -20.609375 L 5.96875 -11.8125 L 10.390625 -11.8125 C 12.015625 -11.8125 13.300781 -12.210938 14.25 -13.015625 C 15.195312 -13.816406 15.789062 -14.890625 16.03125 -16.234375 Z M 16.03125 -16.234375 "/></g></g></g><g fill="rgb(13.328552%, 17.248535%, 35.688782%)" fill-opacity="1"><g transform="translate(271.976132, 488.214605)"><g><path d="M 1.78125 0.203125 C 1.269531 0.203125 0.851562 0.0507812 0.53125 -0.25 C 0.21875 -0.5625 0.0625 -0.972656 0.0625 -1.484375 C 0.0625 -2.140625 0.300781 -2.703125 0.78125 -3.171875 C 1.269531 -3.648438 1.84375 -3.890625 2.5 -3.890625 C 3.007812 -3.890625 3.414062 -3.734375 3.71875 -3.421875 C 4.03125 -3.117188 4.1875 -2.710938 4.1875 -2.203125 C 4.1875 -1.546875 3.941406 -0.976562 3.453125 -0.5 C 2.972656 -0.03125 2.414062 0.203125 1.78125 0.203125 Z M 1.78125 0.203125 "/></g></g></g><g fill="rgb(13.328552%, 17.248535%, 35.688782%)" fill-opacity="1"><g transform="translate(278.903152, 488.214605)"><g><path d="M 1.78125 0.203125 C 1.269531 0.203125 0.851562 0.0507812 0.53125 -0.25 C 0.21875 -0.5625 0.0625 -0.972656 0.0625 -1.484375 C 0.0625 -2.140625 0.300781 -2.703125 0.78125 -3.171875 C 1.269531 -3.648438 1.84375 -3.890625 2.5 -3.890625 C 3.007812 -3.890625 3.414062 -3.734375 3.71875 -3.421875 C 4.03125 -3.117188 4.1875 -2.710938 4.1875 -2.203125 C 4.1875 -1.546875 3.941406 -0.976562 3.453125 -0.5 C 2.972656 -0.03125 2.414062 0.203125 1.78125 0.203125 Z M 1.78125 0.203125 "/></g></g></g><g fill="rgb(13.328552%, 17.248535%, 35.688782%)" fill-opacity="1"><g transform="translate(285.830172, 488.214605)"><g><path d="M 1.78125 0.203125 C 1.269531 0.203125 0.851562 0.0507812 0.53125 -0.25 C 0.21875 -0.5625 0.0625 -0.972656 0.0625 -1.484375 C 0.0625 -2.140625 0.300781 -2.703125 0.78125 -3.171875 C 1.269531 -3.648438 1.84375 -3.890625 2.5 -3.890625 C 3.007812 -3.890625 3.414062 -3.734375 3.71875 -3.421875 C 4.03125 -3.117188 4.1875 -2.710938 4.1875 -2.203125 C 4.1875 -1.546875 3.941406 -0.976562 3.453125 -0.5 C 2.972656 -0.03125 2.414062 0.203125 1.78125 0.203125 Z M 1.78125 0.203125 "/></g></g></g></svg>