<svg xmlns="http://www.w3.org/2000/svg" xmlns:xlink="http://www.w3.org/1999/xlink" width="200" zoomAndPan="magnify" viewBox="0 0 150 239.999995" height="320" preserveAspectRatio="xMidYMid meet" version="1.0"><defs><g><g id="id1"/><g id="id2"/></g><clipPath id="id3"><path d="M 30 93 L 105 93 L 105 177.011719 L 30 177.011719 Z M 30 93 " clip-rule="nonzero"/></clipPath><clipPath id="id4"><path d="M 49.546875 156 L 126.015625 156 L 126.015625 177.027344 L 49.546875 177.027344 Z M 49.546875 156 " clip-rule="nonzero"/></clipPath><clipPath id="id5"><path d="M 83 105.171875 L 126 105.171875 L 126 172 L 83 172 Z M 83 105.171875 " clip-rule="nonzero"/></clipPath><clipPath id="id6"><path d="M 72 173 L 126.015625 173 L 126.015625 177.027344 L 72 177.027344 Z M 72 173 " clip-rule="nonzero"/></clipPath><clipPath id="id7"><path d="M 39.929688 176.003906 L 103 176.003906 L 103 176.988281 L 39.929688 176.988281 Z M 39.929688 176.003906 " clip-rule="nonzero"/></clipPath><clipPath id="id8"><path d="M 40 176.003906 L 62 176.003906 L 62 176.988281 L 40 176.988281 Z M 40 176.003906 " clip-rule="nonzero"/></clipPath><clipPath id="id9"><path d="M 39.929688 176.003906 L 62 176.003906 L 62 176.988281 L 39.929688 176.988281 Z M 39.929688 176.003906 " clip-rule="nonzero"/></clipPath><clipPath id="id10"><path d="M 69 176.003906 L 103.011719 176.003906 L 103.011719 176.988281 L 69 176.988281 Z M 69 176.003906 " clip-rule="nonzero"/></clipPath><clipPath id="id11"><path d="M 68 176.003906 L 103.011719 176.003906 L 103.011719 176.988281 L 68 176.988281 Z M 68 176.003906 " clip-rule="nonzero"/></clipPath><clipPath id="id12"><path d="M 65.851562 140.226562 L 89.085938 140.226562 L 89.085938 161.308594 L 65.851562 161.308594 Z M 65.851562 140.226562 " clip-rule="nonzero"/></clipPath></defs><rect x="-15" width="180" fill="rgb(100%, 100%, 100%)" y="-23.999999" height="287.999994" fill-opacity="1"/><rect x="-15" width="180" fill="rgb(100%, 100%, 100%)" y="-23.999999" height="287.999994" fill-opacity="1"/><rect x="-15" width="180" fill="rgb(100%, 100%, 100%)" y="-23.999999" height="287.999994" fill-opacity="1"/><rect x="-15" width="180" fill="rgb(100%, 100%, 100%)" y="-23.999999" height="287.999994" fill-opacity="1"/><path fill="rgb(100%, 100%, 100%)" d="M 102.699219 127.824219 C 102.691406 127.8125 102.691406 127.804688 102.683594 127.792969 L 75.023438 98.785156 C 71.21875 95.046875 70.707031 93.671875 67.617188 93.671875 C 65.214844 93.671875 63.539062 95.253906 59.453125 99.230469 L 32.707031 127.789062 C 31.890625 128.597656 31.378906 129.75 31.378906 131.035156 L 31.378906 171.980469 C 31.378906 174.441406 33.261719 176.441406 35.589844 176.441406 L 99.785156 176.441406 C 102.109375 176.441406 103.992188 174.441406 103.992188 171.980469 L 103.992188 131.035156 C 103.992188 129.769531 103.496094 128.632812 102.699219 127.824219 " fill-opacity="1" fill-rule="nonzero"/><g clip-path="url(#id3)"><path stroke-linecap="round" transform="matrix(0.0396044, 0, 0, -0.0395985, -16.694468, 215.858101)" fill="none" stroke-linejoin="round" d="M 3014.657566 2223.164819 C 3014.460302 2223.460758 3014.460302 2223.658052 3014.263039 2223.953991 L 2315.851745 2956.503174 C 2219.784438 3050.90791 2206.863681 3085.63149 2128.845981 3085.63149 C 2068.187466 3085.63149 2025.874453 3045.679643 1922.705661 2945.257469 L 1247.374193 2224.052638 C 1226.760161 2203.632805 1213.839404 2174.532076 1213.839404 2142.077366 L 1213.839404 1108.064366 C 1213.839404 1045.917048 1261.379898 995.410021 1320.164411 995.410021 L 2941.078293 995.410021 C 2999.764174 995.410021 3047.304669 1045.917048 3047.304669 1108.064366 L 3047.304669 2142.077366 C 3047.304669 2174.038843 3034.778439 2202.744986 3014.657566 2223.164819 Z M 3014.657566 2223.164819 " stroke="rgb(22.349548%, 35.688782%, 69.799805%)" stroke-width="30" stroke-opacity="1" stroke-miterlimit="10"/></g><path fill="rgb(100%, 100%, 100%)" d="M 69.597656 162.371094 C 68.585938 162.371094 67.765625 161.324219 67.765625 160.027344 L 67.765625 142.5625 C 67.765625 141.265625 68.585938 140.21875 69.597656 140.21875 L 95.601562 140.21875 C 96.613281 140.21875 97.433594 141.265625 97.433594 142.5625 L 97.433594 160.027344 C 97.433594 161.324219 96.613281 162.371094 95.601562 162.371094 L 69.597656 162.371094 " fill-opacity="1" fill-rule="nonzero"/><path stroke-linecap="round" transform="matrix(0.0396044, 0, 0, -0.0395985, -16.694468, 215.858101)" fill="none" stroke-linejoin="round" d="M 2178.852269 1350.734847 C 2153.30665 1350.734847 2132.593987 1377.172119 2132.593987 1409.922769 L 2132.593987 1850.971435 C 2132.593987 1883.722086 2153.30665 1910.159357 2178.852269 1910.159357 L 2835.443709 1910.159357 C 2860.989327 1910.159357 2881.701991 1883.722086 2881.701991 1850.971435 L 2881.701991 1409.922769 C 2881.701991 1377.172119 2860.989327 1350.734847 2835.443709 1350.734847 Z M 2178.852269 1350.734847 " stroke="rgb(22.349548%, 35.688782%, 69.799805%)" stroke-width="30" stroke-opacity="1" stroke-miterlimit="10"/><path fill="rgb(100%, 100%, 100%)" d="M 108.648438 127.089844 L 69.539062 87.988281 C 68.574219 87.015625 67.535156 86.480469 66.695312 87.316406 C 66.695312 87.316406 64.335938 89.132812 63.828125 89.632812 L 26.300781 127.160156 C 25.371094 128.089844 24.863281 129.09375 25.703125 129.929688 L 28.042969 132.273438 C 28.882812 133.109375 29.882812 132.605469 30.816406 131.675781 L 67.507812 94.988281 L 104.132812 131.605469 C 105.101562 132.574219 106.132812 133.109375 106.972656 132.273438 L 109.320312 129.929688 C 110.15625 129.09375 109.621094 128.058594 108.648438 127.089844 " fill-opacity="1" fill-rule="nonzero"/><path stroke-linecap="round" transform="matrix(0.0396044, 0, 0, -0.0395985, -16.694468, 215.858101)" fill="none" stroke-linejoin="round" d="M 3164.873693 2241.710368 L 2177.372793 3229.162202 C 2153.010755 3253.725189 2126.774715 3267.239765 2105.568892 3246.129406 C 2105.568892 3246.129406 2045.995326 3200.258766 2033.173201 3187.63201 L 1085.618152 2239.93473 C 1062.1438 2216.456854 1049.321675 2191.104694 1070.527497 2169.994335 L 1129.607905 2110.806413 C 1150.813727 2089.696054 1176.06345 2102.421458 1199.636434 2125.899334 L 2126.084292 3052.387608 L 3050.855411 2127.674971 C 3075.316081 2103.21063 3101.354858 2089.696054 3122.56068 2110.806413 L 3181.838351 2169.994335 C 3202.945542 2191.104694 3189.432995 2217.246027 3164.873693 2241.710368 Z M 3164.873693 2241.710368 " stroke="rgb(22.349548%, 35.688782%, 69.799805%)" stroke-width="30" stroke-opacity="1" stroke-miterlimit="10"/><path fill="rgb(25.099182%, 32.939148%, 69.799805%)" d="M 63.097656 176.382812 L 63.097656 142.636719 C 63.097656 141.296875 62.089844 140.21875 60.847656 140.21875 L 44.09375 140.21875 C 42.855469 140.21875 41.84375 141.296875 41.84375 142.636719 L 41.84375 176.382812 L 63.097656 176.382812 " fill-opacity="1" fill-rule="nonzero"/><path stroke-linecap="round" transform="matrix(0.0396044, 0, 0, -0.0395985, -16.694468, 215.858101)" fill="none" stroke-linejoin="round" d="M 2014.729067 996.889719 L 2014.729067 1849.097151 C 2014.729067 1882.932913 1989.28208 1910.159357 1957.917189 1910.159357 L 1534.885691 1910.159357 C 1503.619432 1910.159357 1478.073814 1882.932913 1478.073814 1849.097151 L 1478.073814 996.889719 Z M 2014.729067 996.889719 " stroke="rgb(22.349548%, 35.688782%, 69.799805%)" stroke-width="30" stroke-opacity="1" stroke-miterlimit="10"/><path fill="rgb(25.099182%, 32.939148%, 69.799805%)" d="M 71.972656 159.691406 C 71.144531 159.691406 70.472656 158.894531 70.472656 157.914062 L 70.472656 144.675781 C 70.472656 143.695312 71.144531 142.898438 71.972656 142.898438 L 93.226562 142.898438 C 94.054688 142.898438 94.730469 143.695312 94.730469 144.675781 L 94.730469 157.914062 C 94.730469 158.894531 94.054688 159.691406 93.226562 159.691406 L 71.972656 159.691406 " fill-opacity="1" fill-rule="nonzero"/><path stroke-linecap="round" transform="matrix(0.0396044, 0, 0, -0.0395985, -16.694468, 215.858101)" fill="none" stroke-linejoin="round" d="M 2238.820362 1418.406371 C 2217.910435 1418.406371 2200.945777 1438.530265 2200.945777 1463.290546 L 2200.945777 1797.603659 C 2200.945777 1822.36394 2217.910435 1842.487833 2238.820362 1842.487833 L 2775.475616 1842.487833 C 2796.385543 1842.487833 2813.448832 1822.36394 2813.448832 1797.603659 L 2813.448832 1463.290546 C 2813.448832 1438.530265 2796.385543 1418.406371 2775.475616 1418.406371 Z M 2238.820362 1418.406371 " stroke="rgb(22.349548%, 35.688782%, 69.799805%)" stroke-width="30" stroke-opacity="1" stroke-miterlimit="10"/><path fill="rgb(100%, 100%, 100%)" d="M 94.730469 148.050781 L 94.730469 144.675781 C 94.730469 143.695312 94.054688 142.898438 93.226562 142.898438 L 71.972656 142.898438 C 71.144531 142.898438 70.472656 143.695312 70.472656 144.675781 L 70.472656 148.050781 L 94.730469 148.050781 " fill-opacity="1" fill-rule="nonzero"/><path stroke-linecap="round" transform="matrix(0.0396044, 0, 0, -0.0395985, -16.694468, 215.858101)" fill="none" stroke-linejoin="round" d="M 2813.448832 1712.373051 L 2813.448832 1797.603659 C 2813.448832 1822.36394 2796.385543 1842.487833 2775.475616 1842.487833 L 2238.820362 1842.487833 C 2217.910435 1842.487833 2200.945777 1822.36394 2200.945777 1797.603659 L 2200.945777 1712.373051 Z M 2813.448832 1712.373051 " stroke="rgb(22.349548%, 35.688782%, 69.799805%)" stroke-width="30" stroke-opacity="1" stroke-miterlimit="10"/><path fill="rgb(100%, 100%, 100%)" d="M 101.871094 169.722656 C 101.152344 169.722656 100.496094 169.953125 99.957031 170.335938 C 100.003906 170.136719 100.03125 169.9375 100.03125 169.722656 C 100.03125 168.304688 98.878906 167.152344 97.457031 167.152344 C 96.554688 167.152344 95.761719 167.621094 95.304688 168.324219 C 94.84375 167.621094 94.046875 167.152344 93.144531 167.152344 C 92.660156 167.152344 92.214844 167.285156 91.828125 167.515625 C 91.492188 166.046875 90.183594 164.945312 88.609375 164.945312 C 86.992188 164.945312 85.65625 166.101562 85.363281 167.632812 C 84.941406 167.332031 84.425781 167.152344 83.867188 167.152344 C 83.132812 167.152344 82.46875 167.464844 82 167.960938 C 81.414062 167.035156 80.382812 166.414062 79.203125 166.414062 C 77.378906 166.414062 75.902344 167.894531 75.902344 169.722656 C 75.902344 169.8125 75.90625 169.898438 75.914062 169.988281 C 75.511719 169.816406 75.078125 169.722656 74.613281 169.722656 C 72.792969 169.722656 71.308594 171.203125 71.308594 173.027344 C 71.308594 174.855469 72.792969 176.335938 74.613281 176.335938 L 101.871094 176.335938 C 103.695312 176.335938 105.171875 174.855469 105.171875 173.027344 C 105.171875 171.203125 103.695312 169.722656 101.871094 169.722656 " fill-opacity="1" fill-rule="nonzero"/><path stroke-linecap="round" transform="matrix(0.0396044, 0, 0, -0.0395985, -16.694468, 215.858101)" fill="none" stroke-linejoin="round" d="M 2993.747638 1165.082065 C 2975.5994 1165.082065 2959.029269 1159.261919 2945.41809 1149.594558 C 2946.60167 1154.625532 2947.292093 1159.656505 2947.292093 1165.082065 C 2947.292093 1200.890757 2918.195732 1229.991486 2882.293781 1229.991486 C 2859.509851 1229.991486 2839.48761 1218.153901 2827.947697 1200.397525 C 2816.309153 1218.153901 2796.188279 1229.991486 2773.404349 1229.991486 C 2761.174014 1229.991486 2749.929997 1226.637504 2740.165456 1220.817358 C 2731.683127 1257.908456 2698.641496 1285.726779 2658.892908 1285.726779 C 2618.059371 1285.726779 2584.327319 1256.527404 2576.929939 1217.857962 C 2566.277712 1225.453745 2553.258323 1229.991486 2539.153986 1229.991486 C 2520.61122 1229.991486 2503.843826 1222.099763 2492.008018 1209.571653 C 2477.213258 1232.950882 2451.174481 1248.635681 2421.387698 1248.635681 C 2375.326679 1248.635681 2338.043884 1211.248644 2338.043884 1165.082065 C 2338.043884 1162.813194 2338.142516 1160.64297 2338.33978 1158.3741 C 2328.180711 1162.714548 2317.232589 1165.082065 2305.495413 1165.082065 C 2259.533026 1165.082065 2222.052968 1127.695027 2222.052968 1081.627094 C 2222.052968 1035.460515 2259.533026 998.172124 2305.495413 998.172124 L 2993.747638 998.172124 C 3039.808657 998.172124 3077.091452 1035.460515 3077.091452 1081.627094 C 3077.091452 1127.695027 3039.808657 1165.082065 2993.747638 1165.082065 Z M 2993.747638 1165.082065 " stroke="rgb(22.349548%, 35.688782%, 69.799805%)" stroke-width="30" stroke-opacity="1" stroke-miterlimit="10"/><g clip-path="url(#id4)"><path fill="rgb(100%, 100%, 100%)" d="M 72.785156 156.03125 L 135.453125 156.03125 L 158.542969 211.300781 L 49.695312 211.300781 L 72.785156 156.03125 " fill-opacity="1" fill-rule="nonzero"/></g><path fill="rgb(25.099182%, 32.939148%, 69.799805%)" d="M 113.648438 172.734375 C 113.648438 174.960938 109.425781 176.757812 104.226562 176.757812 C 99.019531 176.757812 94.804688 174.960938 94.804688 172.734375 C 94.804688 170.511719 99.019531 168.707031 104.226562 168.707031 C 109.425781 168.707031 113.648438 170.511719 113.648438 172.734375 " fill-opacity="1" fill-rule="nonzero"/><path fill="rgb(68.629456%, 74.119568%, 100%)" d="M 113.453125 171.757812 C 113.453125 173.984375 109.28125 175.78125 104.128906 175.78125 C 98.980469 175.78125 94.804688 173.984375 94.804688 171.757812 C 94.804688 169.535156 98.980469 167.730469 104.128906 167.730469 C 109.28125 167.730469 113.453125 169.535156 113.453125 171.757812 " fill-opacity="1" fill-rule="nonzero"/><g clip-path="url(#id5)"><path fill="rgb(13.328552%, 17.248535%, 35.688782%)" d="M 104.488281 105.148438 C 104.367188 105.148438 104.242188 105.15625 104.117188 105.15625 C 103.992188 105.15625 103.871094 105.148438 103.75 105.148438 C 92.3125 105.148438 83.039062 114.824219 83.039062 126.757812 C 83.039062 128.789062 83.828125 133.496094 85.011719 135.449219 L 104.117188 171.757812 L 123.226562 135.449219 C 124.410156 133.496094 125.199219 128.789062 125.199219 126.757812 C 125.199219 114.824219 115.933594 105.148438 104.488281 105.148438 " fill-opacity="1" fill-rule="nonzero"/></g><path fill="rgb(100%, 100%, 100%)" d="M 115.558594 124.34375 C 115.558594 130.667969 110.4375 135.789062 104.117188 135.789062 C 97.800781 135.789062 92.679688 130.667969 92.679688 124.34375 C 92.679688 118.023438 97.800781 112.902344 104.117188 112.902344 C 110.4375 112.902344 115.558594 118.023438 115.558594 124.34375 " fill-opacity="1" fill-rule="nonzero"/><g clip-path="url(#id6)"><path fill="rgb(20.779419%, 12.159729%, 8.628845%)" d="M 136.75 173.699219 C 135.511719 173.878906 134.367188 174.148438 133.3125 174.507812 L 132.773438 174.691406 L 133.140625 175.765625 L 133.675781 175.582031 C 134.667969 175.246094 135.746094 174.992188 136.914062 174.824219 L 137.472656 174.742188 L 137.3125 173.617188 Z M 130.097656 176.085938 C 129.046875 176.804688 128.191406 177.65625 127.523438 178.644531 L 127.207031 179.113281 L 128.144531 179.75 L 128.460938 179.277344 C 129.046875 178.410156 129.808594 177.65625 130.738281 177.019531 L 131.203125 176.699219 L 130.5625 175.765625 Z M 126.113281 181.988281 C 125.871094 183.085938 125.789062 184.277344 125.863281 185.558594 L 125.894531 186.125 L 127.027344 186.0625 L 126.996094 185.496094 C 126.929688 184.316406 127.003906 183.226562 127.222656 182.230469 L 127.34375 181.675781 L 126.234375 181.433594 Z M 125.742188 188.804688 C 125.496094 189.84375 125.070312 190.835938 124.464844 191.773438 L 124.160156 192.25 L 125.113281 192.863281 L 125.417969 192.386719 C 126.09375 191.339844 126.566406 190.234375 126.847656 189.070312 L 126.976562 188.519531 L 125.875 188.253906 Z M 122.320312 194.234375 C 121.527344 194.921875 120.617188 195.550781 119.59375 196.113281 L 119.097656 196.386719 L 119.644531 197.378906 L 120.140625 197.109375 C 121.238281 196.503906 122.210938 195.832031 123.0625 195.085938 L 123.492188 194.714844 L 122.746094 193.859375 Z M 116.550781 197.472656 C 115.546875 197.835938 114.46875 198.152344 113.320312 198.425781 L 112.765625 198.554688 L 113.027344 199.660156 L 113.578125 199.53125 C 114.769531 199.246094 115.890625 198.917969 116.933594 198.539062 L 117.46875 198.347656 L 117.082031 197.28125 Z M 109.996094 199.054688 C 108.917969 199.210938 107.792969 199.335938 106.617188 199.429688 L 106.050781 199.472656 L 106.140625 200.605469 L 106.707031 200.558594 C 107.90625 200.464844 109.058594 200.335938 110.160156 200.175781 L 110.722656 200.09375 L 110.558594 198.972656 Z M 103.21875 199.597656 C 102.1875 199.625 101.125 199.625 100.027344 199.609375 L 99.792969 199.605469 L 99.226562 199.601562 L 99.21875 200.738281 L 99.785156 200.742188 L 100.007812 200.742188 C 101.121094 200.761719 102.386719 200.753906 103.816406 200.71875 L 103.789062 199.585938 Z M 96.328125 199.683594 C 95.171875 199.730469 94.023438 199.796875 92.882812 199.886719 L 92.316406 199.933594 L 92.40625 201.0625 L 92.96875 201.019531 C 94.097656 200.929688 95.230469 200.863281 96.375 200.816406 L 96.941406 200.792969 L 96.894531 199.660156 Z M 89.449219 200.222656 C 88.253906 200.367188 87.109375 200.53125 86.011719 200.714844 L 85.453125 200.808594 L 85.640625 201.929688 L 86.199219 201.835938 C 87.277344 201.652344 88.40625 201.492188 89.582031 201.351562 L 90.144531 201.285156 L 90.011719 200.15625 Z M 82.601562 201.402344 C 81.390625 201.6875 80.273438 202.007812 79.242188 202.355469 L 78.703125 202.535156 L 79.066406 203.609375 L 79.601562 203.429688 C 80.601562 203.09375 81.6875 202.785156 82.863281 202.507812 L 83.414062 202.375 L 83.152344 201.269531 Z M 75.996094 203.699219 C 74.816406 204.304688 73.828125 204.972656 73.035156 205.699219 L 72.617188 206.082031 L 73.386719 206.921875 L 73.804688 206.535156 C 74.519531 205.878906 75.425781 205.269531 76.515625 204.710938 L 77.019531 204.453125 L 76.503906 203.441406 Z M 75.996094 203.699219 " fill-opacity="1" fill-rule="nonzero"/></g><g clip-path="url(#id7)"><path fill="rgb(100%, 100%, 100%)" d="M 101.074219 127.632812 C 101.066406 127.621094 101.066406 127.613281 101.058594 127.601562 L 73.304688 98.5 C 69.484375 94.75 68.972656 93.371094 65.867188 93.371094 C 63.457031 93.371094 61.777344 94.953125 57.675781 98.945312 L 30.835938 127.597656 C 30.019531 128.414062 29.5 129.570312 29.5 130.855469 L 29.5 171.9375 C 29.5 174.410156 31.394531 176.417969 33.730469 176.417969 L 98.152344 176.417969 C 100.484375 176.417969 102.371094 174.410156 102.371094 171.9375 L 102.371094 130.855469 C 102.371094 129.589844 101.875 128.449219 101.074219 127.632812 " fill-opacity="1" fill-rule="nonzero"/><path stroke-linecap="round" transform="matrix(0.0397438, 0, 0, -0.0397318, -18.739891, 215.965988)" fill="none" stroke-linejoin="round" d="M 3014.660757 2223.237232 C 3014.464186 2223.532179 3014.464186 2223.72881 3014.267614 2224.023756 L 2315.947426 2956.474243 C 2219.823971 3050.857125 2206.948539 3085.562497 2128.811375 3085.562497 C 2068.169073 3085.562497 2025.906205 3045.744719 1922.706177 2945.266276 L 1247.384852 2224.122072 C 1226.843132 2203.574132 1213.771128 2174.472744 1213.771128 2142.126944 L 1213.771128 1108.142813 C 1213.771128 1045.909101 1261.439713 995.473249 1320.214586 995.473249 L 2941.143023 995.473249 C 2999.81961 995.473249 3047.291623 1045.909101 3047.291623 1108.142813 L 3047.291623 2142.126944 C 3047.291623 2173.981166 3034.809334 2202.689293 3014.660757 2223.237232 Z M 3014.660757 2223.237232 " stroke="rgb(22.349548%, 35.688782%, 69.799805%)" stroke-width="30" stroke-opacity="1" stroke-miterlimit="10"/></g><g clip-path="url(#id8)"><path fill="rgb(25.099182%, 32.939148%, 69.799805%)" d="M 61.332031 176.355469 L 61.332031 142.496094 C 61.332031 141.15625 60.324219 140.070312 59.074219 140.070312 L 42.261719 140.070312 C 41.019531 140.070312 40.003906 141.15625 40.003906 142.496094 L 40.003906 176.355469 L 61.332031 176.355469 " fill-opacity="1" fill-rule="nonzero"/></g><g clip-path="url(#id9)"><path stroke-linecap="round" transform="matrix(0.0397438, 0, 0, -0.0397318, -18.739891, 215.965988)" fill="none" stroke-linejoin="round" d="M 2014.70163 996.947981 L 2014.70163 1849.146749 C 2014.70163 1882.868966 1989.343909 1910.200675 1957.892472 1910.200675 L 1534.870644 1910.200675 C 1503.615778 1910.200675 1478.061485 1882.868966 1478.061485 1849.146749 L 1478.061485 996.947981 Z M 2014.70163 996.947981 " stroke="rgb(22.349548%, 35.688782%, 69.799805%)" stroke-width="30" stroke-opacity="1" stroke-miterlimit="10"/></g><g clip-path="url(#id10)"><path fill="rgb(100%, 100%, 100%)" d="M 100.242188 169.675781 C 99.523438 169.675781 98.863281 169.90625 98.320312 170.289062 C 98.371094 170.089844 98.398438 169.890625 98.398438 169.675781 C 98.398438 168.253906 97.242188 167.097656 95.8125 167.097656 C 94.90625 167.097656 94.113281 167.566406 93.652344 168.273438 C 93.191406 167.566406 92.390625 167.097656 91.484375 167.097656 C 91 167.097656 90.550781 167.230469 90.167969 167.460938 C 89.828125 165.988281 88.511719 164.882812 86.933594 164.882812 C 85.3125 164.882812 83.96875 166.042969 83.675781 167.578125 C 83.253906 167.273438 82.738281 167.097656 82.175781 167.097656 C 81.4375 167.097656 80.769531 167.410156 80.300781 167.90625 C 79.714844 166.976562 78.679688 166.355469 77.496094 166.355469 C 75.664062 166.355469 74.179688 167.84375 74.179688 169.675781 C 74.179688 169.765625 74.183594 169.851562 74.191406 169.941406 C 73.792969 169.769531 73.355469 169.675781 72.890625 169.675781 C 71.0625 169.675781 69.574219 171.160156 69.574219 172.992188 C 69.574219 174.824219 71.0625 176.308594 72.890625 176.308594 L 100.242188 176.308594 C 102.074219 176.308594 103.554688 174.824219 103.554688 172.992188 C 103.554688 171.160156 102.074219 169.675781 100.242188 169.675781 " fill-opacity="1" fill-rule="nonzero"/></g><g clip-path="url(#id11)"><path stroke-linecap="round" transform="matrix(0.0397438, 0, 0, -0.0397318, -18.739891, 215.965988)" fill="none" stroke-linejoin="round" d="M 2993.725894 1165.067489 C 2975.641318 1165.067489 2959.031028 1159.266874 2945.36931 1149.631955 C 2946.647025 1154.646046 2947.335025 1159.660136 2947.335025 1165.067489 C 2947.335025 1200.854331 2918.242446 1229.95572 2882.269864 1229.95572 C 2859.467573 1229.95572 2839.515567 1218.15786 2827.91785 1200.362754 C 2816.320132 1218.15786 2796.171555 1229.95572 2773.369264 1229.95572 C 2761.181832 1229.95572 2749.878972 1226.612993 2740.246969 1220.812378 C 2731.696109 1257.877322 2698.573815 1285.700609 2658.866376 1285.700609 C 2618.077793 1285.700609 2584.267498 1256.500905 2576.896068 1217.862913 C 2566.281208 1225.531522 2553.30749 1229.95572 2539.154343 1229.95572 C 2520.578338 1229.95572 2503.771477 1222.09048 2491.977188 1209.604411 C 2477.234326 1233.0035 2451.188605 1248.635665 2421.408026 1248.635665 C 2375.312013 1248.635665 2337.963432 1211.177459 2337.963432 1165.067489 C 2337.963432 1162.806232 2338.061717 1160.643291 2338.258289 1158.382035 C 2328.233143 1162.707917 2317.22514 1165.067489 2305.529137 1165.067489 C 2259.531411 1165.067489 2222.084543 1127.707598 2222.084543 1081.597628 C 2222.084543 1035.487658 2259.531411 998.127767 2305.529137 998.127767 L 2993.725894 998.127767 C 3039.821907 998.127767 3077.072203 1035.487658 3077.072203 1081.597628 C 3077.072203 1127.707598 3039.821907 1165.067489 2993.725894 1165.067489 Z M 2993.725894 1165.067489 " stroke="rgb(22.349548%, 35.688782%, 69.799805%)" stroke-width="30" stroke-opacity="1" stroke-miterlimit="10"/></g><path fill="rgb(100%, 100%, 100%)" d="M 65.851562 137.589844 L 85.085938 137.589844 L 85.085938 163.902344 L 65.851562 163.902344 L 65.851562 137.589844 " fill-opacity="1" fill-rule="nonzero"/><path fill="rgb(100%, 100%, 100%)" d="M 72.777344 149.773438 L 92.007812 149.773438 L 92.007812 160.695312 L 72.777344 160.695312 L 72.777344 149.773438 " fill-opacity="1" fill-rule="nonzero"/><path stroke-linecap="butt" transform="matrix(3.427471, 6.551608, -6.543916, 3.423447, 72.775259, 119.953257)" fill="none" stroke-linejoin="miter" d="M -0.000130057 0.000210294 L 7.200024 0.0000016113 " stroke="rgb(100%, 100%, 100%)" stroke-width="1" stroke-opacity="1" stroke-miterlimit="4"/><g clip-path="url(#id12)"><path fill="rgb(25.099182%, 32.939148%, 69.799805%)" d="M 89.085938 159.566406 C 89.085938 160.136719 89.085938 160.707031 89.085938 161.277344 C 89.070312 161.292969 89.058594 161.308594 89.058594 161.308594 C 81.335938 161.308594 73.601562 161.308594 65.882812 161.308594 C 65.867188 161.292969 65.851562 161.277344 65.851562 161.277344 C 65.851562 160.722656 65.851562 160.164062 65.851562 159.59375 C 66.308594 159.523438 66.765625 159.453125 67.207031 159.394531 C 67.324219 159.378906 67.351562 159.324219 67.351562 159.210938 C 67.351562 158.851562 67.351562 158.496094 67.351562 158.152344 C 67.351562 158.039062 67.378906 157.980469 67.507812 157.996094 C 67.707031 158.011719 67.894531 157.996094 68.09375 157.996094 C 68.378906 157.996094 68.351562 158.023438 68.351562 157.738281 C 68.351562 151.902344 68.351562 146.066406 68.351562 140.226562 C 74.457031 140.226562 80.566406 140.226562 86.671875 140.226562 C 86.671875 146.050781 86.671875 151.859375 86.671875 157.683594 C 86.671875 157.738281 86.671875 157.78125 86.671875 157.839844 C 86.660156 157.96875 86.703125 158.011719 86.832031 158.011719 C 87.03125 157.996094 87.230469 158.011719 87.429688 158.011719 C 87.558594 158.011719 87.601562 158.039062 87.601562 158.167969 C 87.585938 158.480469 87.601562 158.78125 87.601562 159.09375 C 87.601562 159.367188 87.601562 159.378906 87.871094 159.421875 C 88.273438 159.464844 88.671875 159.566406 89.085938 159.566406 Z M 80.867188 156.167969 C 80.921875 156.167969 80.964844 156.167969 81.023438 156.167969 C 81.308594 156.167969 81.308594 156.15625 81.25 155.882812 C 81.207031 155.613281 81.179688 155.339844 81.136719 155.070312 C 81.09375 154.785156 81.050781 154.5 80.992188 154.214844 C 80.949219 153.886719 80.921875 153.558594 80.878906 153.230469 C 80.792969 152.585938 80.738281 151.945312 80.75 151.304688 C 80.75 151.203125 80.765625 151.117188 80.851562 151.074219 C 80.9375 151.203125 81.023438 151.332031 81.09375 151.460938 C 81.363281 152.015625 81.523438 152.617188 81.648438 153.230469 C 81.792969 153.898438 81.90625 154.570312 81.976562 155.257812 C 82.007812 155.527344 82.035156 155.796875 82.050781 156.070312 C 82.050781 156.226562 82.179688 156.167969 82.25 156.167969 C 82.347656 156.183594 82.335938 156.125 82.335938 156.054688 C 82.320312 155.726562 82.265625 155.414062 82.234375 155.097656 C 82.191406 154.699219 82.347656 154.328125 82.433594 153.941406 C 82.507812 153.644531 82.636719 153.359375 82.679688 153.058594 C 82.71875 153.03125 82.734375 152.972656 82.75 152.929688 C 82.835938 152.746094 82.890625 152.542969 83.046875 152.414062 C 83.105469 152.472656 83.078125 152.53125 83.078125 152.601562 C 83.078125 152.902344 83.078125 153.214844 83.046875 153.515625 C 83.007812 153.859375 82.976562 154.199219 82.921875 154.542969 C 82.847656 155.054688 82.761719 155.554688 82.636719 156.054688 C 82.621094 156.140625 82.636719 156.183594 82.71875 156.167969 C 82.761719 156.167969 82.804688 156.167969 82.863281 156.167969 C 82.878906 156.167969 82.890625 156.167969 82.90625 156.167969 C 82.964844 156.285156 82.976562 156.398438 82.976562 156.511719 C 82.976562 157.027344 82.964844 157.554688 82.976562 158.066406 C 82.976562 158.46875 82.878906 158.796875 82.464844 158.953125 C 82.691406 158.964844 82.90625 158.964844 83.132812 158.964844 C 83.460938 158.964844 83.761719 158.652344 83.761719 158.324219 C 83.761719 157.980469 83.761719 157.625 83.761719 157.28125 C 84.234375 157.28125 84.703125 157.28125 85.1875 157.28125 C 85.347656 157.28125 85.375 157.226562 85.375 157.082031 C 85.375 154.785156 85.375 152.5 85.375 150.203125 C 85.375 150.0625 85.347656 150.019531 85.1875 150.019531 C 82.890625 150.019531 80.609375 150.019531 78.3125 150.019531 C 78.183594 150.019531 78.140625 150.046875 78.140625 150.175781 C 78.140625 152.488281 78.140625 154.8125 78.140625 157.125 C 78.140625 157.238281 78.167969 157.28125 78.28125 157.28125 C 78.882812 157.28125 79.480469 157.28125 80.082031 157.28125 C 80.207031 157.28125 80.238281 157.226562 80.238281 157.125 C 80.238281 156.882812 80.238281 156.640625 80.238281 156.382812 C 80.238281 156.15625 80.238281 156.15625 80.464844 156.15625 C 80.609375 156.167969 80.738281 156.167969 80.867188 156.167969 Z M 78.167969 145.125 C 78.167969 146.28125 78.167969 147.433594 78.167969 148.578125 C 78.167969 148.734375 78.210938 148.761719 78.367188 148.761719 C 80.652344 148.761719 82.933594 148.761719 85.21875 148.761719 C 85.375 148.761719 85.402344 148.71875 85.402344 148.5625 C 85.402344 146.25 85.402344 143.953125 85.402344 141.640625 C 85.402344 141.484375 85.359375 141.457031 85.203125 141.457031 C 82.921875 141.457031 80.636719 141.457031 78.355469 141.457031 C 78.195312 141.457031 78.167969 141.5 78.167969 141.65625 C 78.167969 142.824219 78.167969 143.980469 78.167969 145.125 Z M 76.828125 145.125 C 76.828125 143.980469 76.828125 142.824219 76.828125 141.683594 C 76.828125 141.511719 76.785156 141.46875 76.613281 141.46875 C 74.34375 141.46875 72.089844 141.46875 69.820312 141.46875 C 69.605469 141.46875 69.589844 141.46875 69.589844 141.683594 C 69.589844 143.96875 69.589844 146.265625 69.589844 148.546875 C 69.589844 148.707031 69.632812 148.761719 69.804688 148.761719 C 72.074219 148.761719 74.359375 148.761719 76.625 148.761719 C 76.785156 148.761719 76.8125 148.71875 76.8125 148.5625 C 76.828125 147.433594 76.828125 146.28125 76.828125 145.125 Z M 76.828125 153.671875 C 76.828125 152.53125 76.828125 151.375 76.828125 150.234375 C 76.828125 150.089844 76.785156 150.03125 76.640625 150.03125 C 74.359375 150.03125 72.074219 150.03125 69.792969 150.03125 C 69.648438 150.03125 69.589844 150.074219 69.589844 150.21875 C 69.589844 152.515625 69.589844 154.800781 69.589844 157.097656 C 69.589844 157.238281 69.632812 157.296875 69.777344 157.296875 C 72.058594 157.296875 74.34375 157.296875 76.625 157.296875 C 76.769531 157.296875 76.828125 157.253906 76.828125 157.109375 C 76.828125 155.96875 76.828125 154.8125 76.828125 153.671875 Z M 76.828125 153.671875 " fill-opacity="1" fill-rule="nonzero"/></g><path fill="rgb(68.629456%, 74.119568%, 100%)" d="M 82.691406 153.058594 C 82.679688 152.472656 82.621094 151.902344 82.519531 151.332031 C 82.476562 151.046875 82.40625 150.773438 82.292969 150.519531 C 82.25 150.433594 82.191406 150.332031 82.09375 150.332031 C 81.976562 150.316406 81.949219 150.433594 81.90625 150.503906 C 81.75 150.832031 81.722656 151.175781 81.679688 151.53125 C 81.648438 151.757812 81.664062 151.988281 81.578125 152.257812 C 81.449219 151.929688 81.335938 151.644531 81.195312 151.375 C 81.121094 151.246094 81.066406 151.089844 80.878906 151.074219 C 80.964844 151.203125 81.050781 151.332031 81.121094 151.460938 C 81.394531 152.015625 81.550781 152.617188 81.679688 153.230469 C 81.820312 153.898438 81.9375 154.570312 82.007812 155.257812 C 82.035156 155.527344 82.0625 155.796875 82.078125 156.070312 C 82.078125 156.226562 82.207031 156.167969 82.277344 156.167969 C 82.378906 156.183594 82.363281 156.125 82.363281 156.054688 C 82.347656 155.726562 82.292969 155.414062 82.265625 155.097656 C 82.222656 154.699219 82.378906 154.328125 82.464844 153.941406 C 82.507812 153.644531 82.636719 153.359375 82.691406 153.058594 Z M 82.691406 153.058594 " fill-opacity="1" fill-rule="nonzero"/><path fill="rgb(68.629456%, 74.119568%, 100%)" d="M 83.789062 156.339844 C 83.789062 156.210938 83.75 156.15625 83.605469 156.167969 C 83.378906 156.183594 83.148438 156.167969 82.921875 156.167969 C 82.976562 156.285156 82.992188 156.398438 82.992188 156.511719 C 82.992188 157.027344 82.976562 157.554688 82.992188 158.066406 C 82.992188 158.46875 82.890625 158.796875 82.476562 158.953125 C 82.707031 158.964844 82.921875 158.964844 83.148438 158.964844 C 83.476562 158.964844 83.777344 158.652344 83.777344 158.324219 C 83.777344 157.980469 83.777344 157.625 83.777344 157.28125 C 83.777344 156.984375 83.777344 156.667969 83.789062 156.339844 Z M 83.789062 156.339844 " fill-opacity="1" fill-rule="nonzero"/><path fill="rgb(68.629456%, 74.119568%, 100%)" d="M 81.136719 155.070312 C 81.09375 154.785156 81.050781 154.5 80.992188 154.214844 C 80.652344 154.027344 80.410156 154.285156 80.410156 154.613281 C 80.410156 154.886719 80.496094 155.128906 80.566406 155.371094 C 80.636719 155.640625 80.792969 155.882812 80.867188 156.167969 C 80.921875 156.167969 80.964844 156.167969 81.023438 156.167969 C 81.308594 156.167969 81.308594 156.15625 81.25 155.882812 C 81.207031 155.613281 81.179688 155.339844 81.136719 155.070312 Z M 81.136719 155.070312 " fill-opacity="1" fill-rule="nonzero"/><path fill="rgb(68.629456%, 74.119568%, 100%)" d="M 83.0625 153.5 C 83.019531 153.84375 82.992188 154.1875 82.933594 154.527344 C 82.863281 155.042969 82.777344 155.542969 82.648438 156.039062 C 82.636719 156.125 82.648438 156.167969 82.734375 156.15625 C 82.777344 156.15625 82.820312 156.15625 82.878906 156.15625 C 82.890625 156.097656 82.890625 156.027344 82.90625 155.96875 C 83.007812 155.5 83.089844 155.027344 83.164062 154.542969 C 83.234375 154.085938 83.277344 153.628906 83.320312 153.171875 C 83.347656 152.929688 83.347656 152.6875 83.304688 152.445312 C 83.292969 152.386719 83.304688 152.300781 83.21875 152.289062 C 83.148438 152.273438 83.089844 152.316406 83.046875 152.375 C 83.105469 152.429688 83.078125 152.488281 83.078125 152.558594 C 83.089844 152.886719 83.105469 153.199219 83.0625 153.5 Z M 83.0625 153.5 " fill-opacity="1" fill-rule="nonzero"/><g fill="rgb(13.328552%, 17.248535%, 35.688782%)" fill-opacity="1"><g transform="translate(22.085698, 51.270479)"><g><path d="M 9.484375 0 L 7.140625 0 L 3.203125 -5.953125 L 3.203125 0 L 0.859375 0 L 0.859375 -9.65625 L 3.203125 -9.65625 L 7.140625 -3.671875 L 7.140625 -9.65625 L 9.484375 -9.65625 Z M 9.484375 0 "/></g></g></g><g fill="rgb(13.328552%, 17.248535%, 35.688782%)" fill-opacity="1"><g transform="translate(32.421241, 51.270479)"><g><path d="M 4.34375 0.109375 C 3.59375 0.109375 2.914062 -0.0507812 2.3125 -0.375 C 1.71875 -0.695312 1.25 -1.15625 0.90625 -1.75 C 0.5625 -2.34375 0.390625 -3.039062 0.390625 -3.84375 C 0.390625 -4.625 0.5625 -5.3125 0.90625 -5.90625 C 1.257812 -6.507812 1.738281 -6.972656 2.34375 -7.296875 C 2.945312 -7.617188 3.625 -7.78125 4.375 -7.78125 C 5.125 -7.78125 5.800781 -7.617188 6.40625 -7.296875 C 7.007812 -6.972656 7.484375 -6.507812 7.828125 -5.90625 C 8.179688 -5.3125 8.359375 -4.625 8.359375 -3.84375 C 8.359375 -3.050781 8.179688 -2.351562 7.828125 -1.75 C 7.472656 -1.15625 6.988281 -0.695312 6.375 -0.375 C 5.769531 -0.0507812 5.09375 0.109375 4.34375 0.109375 Z M 4.34375 -1.921875 C 4.789062 -1.921875 5.171875 -2.085938 5.484375 -2.421875 C 5.804688 -2.753906 5.96875 -3.226562 5.96875 -3.84375 C 5.96875 -4.445312 5.8125 -4.914062 5.5 -5.25 C 5.195312 -5.582031 4.820312 -5.75 4.375 -5.75 C 3.914062 -5.75 3.535156 -5.582031 3.234375 -5.25 C 2.929688 -4.925781 2.78125 -4.457031 2.78125 -3.84375 C 2.78125 -3.226562 2.925781 -2.753906 3.21875 -2.421875 C 3.519531 -2.085938 3.894531 -1.921875 4.34375 -1.921875 Z M 4.34375 -1.921875 "/></g></g></g><g fill="rgb(13.328552%, 17.248535%, 35.688782%)" fill-opacity="1"><g transform="translate(41.176214, 51.270479)"><g/></g></g><g fill="rgb(13.328552%, 17.248535%, 35.688782%)" fill-opacity="1"><g transform="translate(44.089958, 51.270479)"><g><path d="M 10.640625 -7.75 C 11.597656 -7.75 12.359375 -7.457031 12.921875 -6.875 C 13.484375 -6.300781 13.765625 -5.503906 13.765625 -4.484375 L 13.765625 0 L 11.421875 0 L 11.421875 -4.171875 C 11.421875 -4.660156 11.289062 -5.039062 11.03125 -5.3125 C 10.769531 -5.582031 10.410156 -5.71875 9.953125 -5.71875 C 9.492188 -5.71875 9.132812 -5.582031 8.875 -5.3125 C 8.613281 -5.039062 8.484375 -4.660156 8.484375 -4.171875 L 8.484375 0 L 6.140625 0 L 6.140625 -4.171875 C 6.140625 -4.660156 6.007812 -5.039062 5.75 -5.3125 C 5.488281 -5.582031 5.128906 -5.71875 4.671875 -5.71875 C 4.210938 -5.71875 3.851562 -5.582031 3.59375 -5.3125 C 3.332031 -5.039062 3.203125 -4.660156 3.203125 -4.171875 L 3.203125 0 L 0.859375 0 L 0.859375 -7.671875 L 3.203125 -7.671875 L 3.203125 -6.703125 C 3.441406 -7.023438 3.753906 -7.28125 4.140625 -7.46875 C 4.523438 -7.65625 4.957031 -7.75 5.4375 -7.75 C 6.019531 -7.75 6.535156 -7.625 6.984375 -7.375 C 7.441406 -7.132812 7.800781 -6.785156 8.0625 -6.328125 C 8.320312 -6.742188 8.679688 -7.082031 9.140625 -7.34375 C 9.597656 -7.613281 10.097656 -7.75 10.640625 -7.75 Z M 10.640625 -7.75 "/></g></g></g><g fill="rgb(13.328552%, 17.248535%, 35.688782%)" fill-opacity="1"><g transform="translate(58.64493, 51.270479)"><g><path d="M 8.078125 -3.953125 C 8.078125 -3.734375 8.066406 -3.503906 8.046875 -3.265625 L 2.71875 -3.265625 C 2.757812 -2.796875 2.914062 -2.429688 3.1875 -2.171875 C 3.457031 -1.921875 3.789062 -1.796875 4.1875 -1.796875 C 4.769531 -1.796875 5.175781 -2.046875 5.40625 -2.546875 L 7.90625 -2.546875 C 7.78125 -2.035156 7.546875 -1.578125 7.203125 -1.171875 C 6.867188 -0.773438 6.453125 -0.460938 5.953125 -0.234375 C 5.453125 -0.00390625 4.890625 0.109375 4.265625 0.109375 C 3.515625 0.109375 2.84375 -0.0507812 2.25 -0.375 C 1.664062 -0.695312 1.207031 -1.15625 0.875 -1.75 C 0.550781 -2.34375 0.390625 -3.039062 0.390625 -3.84375 C 0.390625 -4.632812 0.550781 -5.328125 0.875 -5.921875 C 1.195312 -6.515625 1.648438 -6.972656 2.234375 -7.296875 C 2.828125 -7.617188 3.503906 -7.78125 4.265625 -7.78125 C 5.003906 -7.78125 5.660156 -7.625 6.234375 -7.3125 C 6.816406 -7 7.269531 -6.550781 7.59375 -5.96875 C 7.914062 -5.394531 8.078125 -4.722656 8.078125 -3.953125 Z M 5.671875 -4.578125 C 5.671875 -4.984375 5.535156 -5.304688 5.265625 -5.546875 C 4.992188 -5.785156 4.648438 -5.90625 4.234375 -5.90625 C 3.835938 -5.90625 3.503906 -5.789062 3.234375 -5.5625 C 2.960938 -5.332031 2.796875 -5.003906 2.734375 -4.578125 Z M 5.671875 -4.578125 "/></g></g></g><g fill="rgb(13.328552%, 17.248535%, 35.688782%)" fill-opacity="1"><g transform="translate(67.111276, 51.270479)"><g><path d="M 8.421875 -7.671875 L 8.421875 0 L 6.078125 0 L 6.078125 -1.046875 C 5.835938 -0.703125 5.515625 -0.425781 5.109375 -0.21875 C 4.703125 -0.0195312 4.25 0.078125 3.75 0.078125 C 3.164062 0.078125 2.648438 -0.0507812 2.203125 -0.3125 C 1.753906 -0.570312 1.40625 -0.945312 1.15625 -1.4375 C 0.90625 -1.9375 0.78125 -2.519531 0.78125 -3.1875 L 0.78125 -7.671875 L 3.125 -7.671875 L 3.125 -3.5 C 3.125 -2.988281 3.253906 -2.59375 3.515625 -2.3125 C 3.785156 -2.03125 4.144531 -1.890625 4.59375 -1.890625 C 5.050781 -1.890625 5.410156 -2.03125 5.671875 -2.3125 C 5.941406 -2.59375 6.078125 -2.988281 6.078125 -3.5 L 6.078125 -7.671875 Z M 8.421875 -7.671875 "/></g></g></g><g fill="rgb(13.328552%, 17.248535%, 35.688782%)" fill-opacity="1"><g transform="translate(76.374778, 51.270479)"><g/></g></g><g fill="rgb(13.328552%, 17.248535%, 35.688782%)" fill-opacity="1"><g transform="translate(79.288524, 51.270479)"><g><path d="M 3.203125 -6.59375 C 3.421875 -6.945312 3.734375 -7.234375 4.140625 -7.453125 C 4.554688 -7.671875 5.03125 -7.78125 5.5625 -7.78125 C 6.195312 -7.78125 6.769531 -7.617188 7.28125 -7.296875 C 7.800781 -6.972656 8.207031 -6.515625 8.5 -5.921875 C 8.800781 -5.328125 8.953125 -4.632812 8.953125 -3.84375 C 8.953125 -3.0625 8.800781 -2.367188 8.5 -1.765625 C 8.207031 -1.160156 7.800781 -0.695312 7.28125 -0.375 C 6.769531 -0.0507812 6.195312 0.109375 5.5625 0.109375 C 5.019531 0.109375 4.546875 0.00390625 4.140625 -0.203125 C 3.742188 -0.421875 3.429688 -0.710938 3.203125 -1.078125 L 3.203125 0 L 0.859375 0 L 0.859375 -10.171875 L 3.203125 -10.171875 Z M 6.5625 -3.84375 C 6.5625 -4.4375 6.394531 -4.898438 6.0625 -5.234375 C 5.738281 -5.566406 5.34375 -5.734375 4.875 -5.734375 C 4.40625 -5.734375 4.003906 -5.5625 3.671875 -5.21875 C 3.347656 -4.882812 3.1875 -4.425781 3.1875 -3.84375 C 3.1875 -3.25 3.347656 -2.78125 3.671875 -2.4375 C 4.003906 -2.101562 4.40625 -1.9375 4.875 -1.9375 C 5.332031 -1.9375 5.726562 -2.109375 6.0625 -2.453125 C 6.394531 -2.796875 6.5625 -3.257812 6.5625 -3.84375 Z M 6.5625 -3.84375 "/></g></g></g><g fill="rgb(13.328552%, 17.248535%, 35.688782%)" fill-opacity="1"><g transform="translate(88.620749, 51.270479)"><g><path d="M 0.390625 -3.84375 C 0.390625 -4.632812 0.535156 -5.328125 0.828125 -5.921875 C 1.128906 -6.515625 1.535156 -6.972656 2.046875 -7.296875 C 2.554688 -7.617188 3.128906 -7.78125 3.765625 -7.78125 C 4.304688 -7.78125 4.78125 -7.671875 5.1875 -7.453125 C 5.59375 -7.234375 5.90625 -6.945312 6.125 -6.59375 L 6.125 -7.671875 L 8.484375 -7.671875 L 8.484375 0 L 6.125 0 L 6.125 -1.09375 C 5.894531 -0.726562 5.578125 -0.4375 5.171875 -0.21875 C 4.765625 0 4.289062 0.109375 3.75 0.109375 C 3.125 0.109375 2.554688 -0.0507812 2.046875 -0.375 C 1.535156 -0.695312 1.128906 -1.160156 0.828125 -1.765625 C 0.535156 -2.367188 0.390625 -3.0625 0.390625 -3.84375 Z M 6.125 -3.84375 C 6.125 -4.425781 5.960938 -4.882812 5.640625 -5.21875 C 5.316406 -5.5625 4.921875 -5.734375 4.453125 -5.734375 C 3.984375 -5.734375 3.585938 -5.566406 3.265625 -5.234375 C 2.941406 -4.898438 2.78125 -4.4375 2.78125 -3.84375 C 2.78125 -3.257812 2.941406 -2.796875 3.265625 -2.453125 C 3.585938 -2.109375 3.984375 -1.9375 4.453125 -1.9375 C 4.921875 -1.9375 5.316406 -2.101562 5.640625 -2.4375 C 5.960938 -2.78125 6.125 -3.25 6.125 -3.84375 Z M 6.125 -3.84375 "/></g></g></g><g fill="rgb(13.328552%, 17.248535%, 35.688782%)" fill-opacity="1"><g transform="translate(97.952975, 51.270479)"><g><path d="M 2.03125 -8.46875 C 1.625 -8.46875 1.285156 -8.585938 1.015625 -8.828125 C 0.753906 -9.078125 0.625 -9.378906 0.625 -9.734375 C 0.625 -10.097656 0.753906 -10.398438 1.015625 -10.640625 C 1.285156 -10.890625 1.625 -11.015625 2.03125 -11.015625 C 2.4375 -11.015625 2.769531 -10.890625 3.03125 -10.640625 C 3.289062 -10.398438 3.421875 -10.097656 3.421875 -9.734375 C 3.421875 -9.378906 3.289062 -9.078125 3.03125 -8.828125 C 2.769531 -8.585938 2.4375 -8.46875 2.03125 -8.46875 Z M 3.203125 -7.671875 L 3.203125 0 L 0.859375 0 L 0.859375 -7.671875 Z M 3.203125 -7.671875 "/></g></g></g><g fill="rgb(13.328552%, 17.248535%, 35.688782%)" fill-opacity="1"><g transform="translate(102.007481, 51.270479)"><g><path d="M 3.203125 -6.390625 C 3.472656 -6.816406 3.816406 -7.148438 4.234375 -7.390625 C 4.648438 -7.628906 5.109375 -7.75 5.609375 -7.75 L 5.609375 -5.265625 L 4.96875 -5.265625 C 4.375 -5.265625 3.929688 -5.140625 3.640625 -4.890625 C 3.347656 -4.640625 3.203125 -4.195312 3.203125 -3.5625 L 3.203125 0 L 0.859375 0 L 0.859375 -7.671875 L 3.203125 -7.671875 Z M 3.203125 -6.390625 "/></g></g></g><g fill="rgb(13.328552%, 17.248535%, 35.688782%)" fill-opacity="1"><g transform="translate(107.889946, 51.270479)"><g><path d="M 3.203125 -6.390625 C 3.472656 -6.816406 3.816406 -7.148438 4.234375 -7.390625 C 4.648438 -7.628906 5.109375 -7.75 5.609375 -7.75 L 5.609375 -5.265625 L 4.96875 -5.265625 C 4.375 -5.265625 3.929688 -5.140625 3.640625 -4.890625 C 3.347656 -4.640625 3.203125 -4.195312 3.203125 -3.5625 L 3.203125 0 L 0.859375 0 L 0.859375 -7.671875 L 3.203125 -7.671875 Z M 3.203125 -6.390625 "/></g></g></g><g fill="rgb(13.328552%, 17.248535%, 35.688782%)" fill-opacity="1"><g transform="translate(113.772412, 51.270479)"><g><path d="M 4.34375 0.109375 C 3.59375 0.109375 2.914062 -0.0507812 2.3125 -0.375 C 1.71875 -0.695312 1.25 -1.15625 0.90625 -1.75 C 0.5625 -2.34375 0.390625 -3.039062 0.390625 -3.84375 C 0.390625 -4.625 0.5625 -5.3125 0.90625 -5.90625 C 1.257812 -6.507812 1.738281 -6.972656 2.34375 -7.296875 C 2.945312 -7.617188 3.625 -7.78125 4.375 -7.78125 C 5.125 -7.78125 5.800781 -7.617188 6.40625 -7.296875 C 7.007812 -6.972656 7.484375 -6.507812 7.828125 -5.90625 C 8.179688 -5.3125 8.359375 -4.625 8.359375 -3.84375 C 8.359375 -3.050781 8.179688 -2.351562 7.828125 -1.75 C 7.472656 -1.15625 6.988281 -0.695312 6.375 -0.375 C 5.769531 -0.0507812 5.09375 0.109375 4.34375 0.109375 Z M 4.34375 -1.921875 C 4.789062 -1.921875 5.171875 -2.085938 5.484375 -2.421875 C 5.804688 -2.753906 5.96875 -3.226562 5.96875 -3.84375 C 5.96875 -4.445312 5.8125 -4.914062 5.5 -5.25 C 5.195312 -5.582031 4.820312 -5.75 4.375 -5.75 C 3.914062 -5.75 3.535156 -5.582031 3.234375 -5.25 C 2.929688 -4.925781 2.78125 -4.457031 2.78125 -3.84375 C 2.78125 -3.226562 2.925781 -2.753906 3.21875 -2.421875 C 3.519531 -2.085938 3.894531 -1.921875 4.34375 -1.921875 Z M 4.34375 -1.921875 "/></g></g></g><g fill="rgb(13.328552%, 17.248535%, 35.688782%)" fill-opacity="1"><g transform="translate(122.527387, 51.270479)"><g><path d="M 3.953125 -10 L 3.671875 -3.40625 L 1.671875 -3.40625 L 1.40625 -10 Z M 2.703125 0.109375 C 2.296875 0.109375 1.960938 -0.0078125 1.703125 -0.25 C 1.441406 -0.5 1.3125 -0.800781 1.3125 -1.15625 C 1.3125 -1.519531 1.441406 -1.828125 1.703125 -2.078125 C 1.960938 -2.328125 2.296875 -2.453125 2.703125 -2.453125 C 3.109375 -2.453125 3.441406 -2.328125 3.703125 -2.078125 C 3.960938 -1.828125 4.09375 -1.519531 4.09375 -1.15625 C 4.09375 -0.800781 3.960938 -0.5 3.703125 -0.25 C 3.441406 -0.0078125 3.109375 0.109375 2.703125 0.109375 Z M 2.703125 0.109375 "/></g></g></g><g fill="rgb(13.328552%, 17.248535%, 35.688782%)" fill-opacity="1"><g transform="translate(28.013926, 198.422729)"><g><path d="M 6.40625 -2.125 L 2.21875 -2.125 L 1.078125 0 L -0.25 0 L 4.890625 -9.53125 L 6.34375 -9.53125 L 8.109375 0 L 6.796875 0 Z M 6.234375 -3.109375 L 5.34375 -8 L 2.734375 -3.109375 Z M 6.234375 -3.109375 "/></g></g></g><g fill="rgb(13.328552%, 17.248535%, 35.688782%)" fill-opacity="1"><g transform="translate(37.277431, 198.422729)"><g/></g></g><g fill="rgb(13.328552%, 17.248535%, 35.688782%)" fill-opacity="1"><g transform="translate(41.373166, 198.422729)"><g><path d="M 0.75 -4.796875 C 0.90625 -5.734375 1.257812 -6.570312 1.8125 -7.3125 C 2.375 -8.0625 3.054688 -8.644531 3.859375 -9.0625 C 4.660156 -9.488281 5.5 -9.703125 6.375 -9.703125 C 7.425781 -9.703125 8.296875 -9.445312 8.984375 -8.9375 C 9.679688 -8.4375 10.128906 -7.726562 10.328125 -6.8125 L 8.828125 -6.8125 C 8.660156 -7.363281 8.351562 -7.789062 7.90625 -8.09375 C 7.457031 -8.40625 6.882812 -8.5625 6.1875 -8.5625 C 5.519531 -8.5625 4.894531 -8.40625 4.3125 -8.09375 C 3.726562 -7.789062 3.234375 -7.351562 2.828125 -6.78125 C 2.429688 -6.207031 2.160156 -5.546875 2.015625 -4.796875 C 1.972656 -4.554688 1.953125 -4.28125 1.953125 -3.96875 C 1.953125 -3.070312 2.210938 -2.359375 2.734375 -1.828125 C 3.265625 -1.304688 3.972656 -1.046875 4.859375 -1.046875 C 5.554688 -1.046875 6.179688 -1.195312 6.734375 -1.5 C 7.296875 -1.800781 7.753906 -2.234375 8.109375 -2.796875 L 9.609375 -2.796875 C 9.085938 -1.878906 8.394531 -1.171875 7.53125 -0.671875 C 6.664062 -0.171875 5.707031 0.078125 4.65625 0.078125 C 3.882812 0.078125 3.191406 -0.0820312 2.578125 -0.40625 C 1.972656 -0.726562 1.5 -1.1875 1.15625 -1.78125 C 0.820312 -2.375 0.65625 -3.054688 0.65625 -3.828125 C 0.65625 -4.140625 0.6875 -4.460938 0.75 -4.796875 Z M 0.75 -4.796875 "/></g></g></g><g fill="rgb(13.328552%, 17.248535%, 35.688782%)" fill-opacity="1"><g transform="translate(51.98359, 198.422729)"><g><path d="M 6.40625 -2.125 L 2.21875 -2.125 L 1.078125 0 L -0.25 0 L 4.890625 -9.53125 L 6.34375 -9.53125 L 8.109375 0 L 6.796875 0 Z M 6.234375 -3.109375 L 5.34375 -8 L 2.734375 -3.109375 Z M 6.234375 -3.109375 "/></g></g></g><g fill="rgb(13.328552%, 17.248535%, 35.688782%)" fill-opacity="1"><g transform="translate(61.247095, 198.422729)"><g><path d="M 5.140625 -9.578125 C 6.097656 -9.578125 6.816406 -9.367188 7.296875 -8.953125 C 7.785156 -8.546875 8.03125 -8 8.03125 -7.3125 C 8.03125 -7.207031 8.007812 -7.023438 7.96875 -6.765625 C 7.851562 -6.109375 7.5625 -5.523438 7.09375 -5.015625 C 6.625 -4.515625 6 -4.179688 5.21875 -4.015625 L 6.90625 0 L 5.40625 0 L 3.8125 -3.921875 L 2.3125 -3.921875 L 1.609375 0 L 0.359375 0 L 2.0625 -9.578125 Z M 6.6875 -6.765625 C 6.707031 -6.929688 6.71875 -7.082031 6.71875 -7.21875 C 6.71875 -7.65625 6.570312 -7.992188 6.28125 -8.234375 C 6 -8.472656 5.5625 -8.59375 4.96875 -8.59375 L 3.140625 -8.59375 L 2.484375 -4.921875 L 4.328125 -4.921875 C 5.003906 -4.921875 5.539062 -5.085938 5.9375 -5.421875 C 6.332031 -5.753906 6.582031 -6.203125 6.6875 -6.765625 Z M 6.6875 -6.765625 "/></g></g></g><g fill="rgb(13.328552%, 17.248535%, 35.688782%)" fill-opacity="1"><g transform="translate(69.603492, 198.422729)"><g><path d="M 5.140625 -9.578125 C 6.097656 -9.578125 6.816406 -9.367188 7.296875 -8.953125 C 7.785156 -8.546875 8.03125 -8 8.03125 -7.3125 C 8.03125 -7.207031 8.007812 -7.023438 7.96875 -6.765625 C 7.851562 -6.109375 7.5625 -5.523438 7.09375 -5.015625 C 6.625 -4.515625 6 -4.179688 5.21875 -4.015625 L 6.90625 0 L 5.40625 0 L 3.8125 -3.921875 L 2.3125 -3.921875 L 1.609375 0 L 0.359375 0 L 2.0625 -9.578125 Z M 6.6875 -6.765625 C 6.707031 -6.929688 6.71875 -7.082031 6.71875 -7.21875 C 6.71875 -7.65625 6.570312 -7.992188 6.28125 -8.234375 C 6 -8.472656 5.5625 -8.59375 4.96875 -8.59375 L 3.140625 -8.59375 L 2.484375 -4.921875 L 4.328125 -4.921875 C 5.003906 -4.921875 5.539062 -5.085938 5.9375 -5.421875 C 6.332031 -5.753906 6.582031 -6.203125 6.6875 -6.765625 Z M 6.6875 -6.765625 "/></g></g></g><g fill="rgb(13.328552%, 17.248535%, 35.688782%)" fill-opacity="1"><g transform="translate(77.959889, 198.422729)"><g><path d="M 3.140625 -8.609375 L 2.5625 -5.328125 L 6.03125 -5.328125 L 5.875 -4.359375 L 2.390625 -4.359375 L 1.78125 -0.984375 L 5.6875 -0.984375 L 5.515625 0 L 0.359375 0 L 2.0625 -9.59375 L 7.203125 -9.59375 L 7.03125 -8.609375 Z M 3.140625 -8.609375 "/></g></g></g><g fill="rgb(13.328552%, 17.248535%, 35.688782%)" fill-opacity="1"><g transform="translate(85.010598, 198.422729)"><g><path d="M 0.75 -4.796875 C 0.90625 -5.734375 1.257812 -6.570312 1.8125 -7.3125 C 2.375 -8.0625 3.054688 -8.644531 3.859375 -9.0625 C 4.671875 -9.476562 5.519531 -9.6875 6.40625 -9.6875 C 7.4375 -9.6875 8.296875 -9.4375 8.984375 -8.9375 C 9.679688 -8.4375 10.128906 -7.726562 10.328125 -6.8125 L 8.828125 -6.8125 C 8.660156 -7.363281 8.347656 -7.789062 7.890625 -8.09375 C 7.441406 -8.40625 6.882812 -8.5625 6.21875 -8.5625 C 5.550781 -8.5625 4.921875 -8.40625 4.328125 -8.09375 C 3.734375 -7.789062 3.234375 -7.351562 2.828125 -6.78125 C 2.429688 -6.207031 2.160156 -5.546875 2.015625 -4.796875 C 1.972656 -4.554688 1.953125 -4.28125 1.953125 -3.96875 C 1.953125 -3.070312 2.21875 -2.359375 2.75 -1.828125 C 3.28125 -1.304688 3.988281 -1.046875 4.875 -1.046875 C 5.820312 -1.046875 6.648438 -1.328125 7.359375 -1.890625 C 8.066406 -2.453125 8.550781 -3.21875 8.8125 -4.1875 L 4.984375 -4.1875 L 5.171875 -5.171875 L 10.328125 -5.171875 L 10.140625 -4.203125 C 9.929688 -3.421875 9.554688 -2.703125 9.015625 -2.046875 C 8.484375 -1.390625 7.835938 -0.867188 7.078125 -0.484375 C 6.328125 -0.109375 5.53125 0.078125 4.6875 0.078125 C 3.894531 0.078125 3.191406 -0.0820312 2.578125 -0.40625 C 1.972656 -0.726562 1.5 -1.1875 1.15625 -1.78125 C 0.820312 -2.382812 0.65625 -3.070312 0.65625 -3.84375 C 0.65625 -4.144531 0.6875 -4.460938 0.75 -4.796875 Z M 0.75 -4.796875 "/></g></g></g><g fill="rgb(13.328552%, 17.248535%, 35.688782%)" fill-opacity="1"><g transform="translate(95.703486, 198.422729)"><g><path d="M 6.40625 -2.125 L 2.21875 -2.125 L 1.078125 0 L -0.25 0 L 4.890625 -9.53125 L 6.34375 -9.53125 L 8.109375 0 L 6.796875 0 Z M 6.234375 -3.109375 L 5.34375 -8 L 2.734375 -3.109375 Z M 6.234375 -3.109375 "/></g></g></g><g fill="rgb(13.328552%, 17.248535%, 35.688782%)" fill-opacity="1"><g transform="translate(104.966989, 198.422729)"><g><path d="M 5.140625 -9.578125 C 6.097656 -9.578125 6.816406 -9.367188 7.296875 -8.953125 C 7.785156 -8.546875 8.03125 -8 8.03125 -7.3125 C 8.03125 -7.207031 8.007812 -7.023438 7.96875 -6.765625 C 7.851562 -6.109375 7.5625 -5.523438 7.09375 -5.015625 C 6.625 -4.515625 6 -4.179688 5.21875 -4.015625 L 6.90625 0 L 5.40625 0 L 3.8125 -3.921875 L 2.3125 -3.921875 L 1.609375 0 L 0.359375 0 L 2.0625 -9.578125 Z M 6.6875 -6.765625 C 6.707031 -6.929688 6.71875 -7.082031 6.71875 -7.21875 C 6.71875 -7.65625 6.570312 -7.992188 6.28125 -8.234375 C 6 -8.472656 5.5625 -8.59375 4.96875 -8.59375 L 3.140625 -8.59375 L 2.484375 -4.921875 L 4.328125 -4.921875 C 5.003906 -4.921875 5.539062 -5.085938 5.9375 -5.421875 C 6.332031 -5.753906 6.582031 -6.203125 6.6875 -6.765625 Z M 6.6875 -6.765625 "/></g></g></g><g fill="rgb(13.328552%, 17.248535%, 35.688782%)" fill-opacity="1"><g transform="translate(113.323386, 198.422729)"><g><path d="M 0.75 0.078125 C 0.53125 0.078125 0.351562 0.015625 0.21875 -0.109375 C 0.09375 -0.234375 0.03125 -0.40625 0.03125 -0.625 C 0.03125 -0.894531 0.128906 -1.128906 0.328125 -1.328125 C 0.523438 -1.523438 0.765625 -1.625 1.046875 -1.625 C 1.253906 -1.625 1.421875 -1.554688 1.546875 -1.421875 C 1.679688 -1.296875 1.75 -1.128906 1.75 -0.921875 C 1.75 -0.648438 1.644531 -0.414062 1.4375 -0.21875 C 1.238281 -0.0195312 1.007812 0.078125 0.75 0.078125 Z M 0.75 0.078125 "/></g></g></g><g fill="rgb(13.328552%, 17.248535%, 35.688782%)" fill-opacity="1"><g transform="translate(116.209644, 198.422729)"><g><path d="M 0.75 0.078125 C 0.53125 0.078125 0.351562 0.015625 0.21875 -0.109375 C 0.09375 -0.234375 0.03125 -0.40625 0.03125 -0.625 C 0.03125 -0.894531 0.128906 -1.128906 0.328125 -1.328125 C 0.523438 -1.523438 0.765625 -1.625 1.046875 -1.625 C 1.253906 -1.625 1.421875 -1.554688 1.546875 -1.421875 C 1.679688 -1.296875 1.75 -1.128906 1.75 -0.921875 C 1.75 -0.648438 1.644531 -0.414062 1.4375 -0.21875 C 1.238281 -0.0195312 1.007812 0.078125 0.75 0.078125 Z M 0.75 0.078125 "/></g></g></g><g fill="rgb(13.328552%, 17.248535%, 35.688782%)" fill-opacity="1"><g transform="translate(119.095902, 198.422729)"><g><path d="M 0.75 0.078125 C 0.53125 0.078125 0.351562 0.015625 0.21875 -0.109375 C 0.09375 -0.234375 0.03125 -0.40625 0.03125 -0.625 C 0.03125 -0.894531 0.128906 -1.128906 0.328125 -1.328125 C 0.523438 -1.523438 0.765625 -1.625 1.046875 -1.625 C 1.253906 -1.625 1.421875 -1.554688 1.546875 -1.421875 C 1.679688 -1.296875 1.75 -1.128906 1.75 -0.921875 C 1.75 -0.648438 1.644531 -0.414062 1.4375 -0.21875 C 1.238281 -0.0195312 1.007812 0.078125 0.75 0.078125 Z M 0.75 0.078125 "/></g></g></g></svg>